<svg width="51" height="49" viewBox="0 0 51 49" fill="inherit" xmlns="http://www.w3.org/2000/svg">
<g id="&#240;&#159;&#166;&#134; icon &#34;home icon&#34;">
<path fill="currentColor" id="Vector" d="M23.8026 0.644877C24.2704 0.229445 24.8743 0 25.5 0C26.1257 0 26.7296 0.229445 27.1974 0.644877L50.2043 21.0955C50.6852 21.5523 50.9697 22.1782 50.9977 22.841C51.0257 23.5037 50.795 24.1514 50.3543 24.6472C49.9136 25.1429 49.2974 25.448 48.636 25.4979C47.9745 25.5478 47.3196 25.3386 46.8095 24.9146L45.9506 24.1554V43.4556C45.9506 44.8116 45.4119 46.112 44.4531 47.0708C43.4943 48.0296 42.1939 48.5682 40.8379 48.5682H10.1621C8.80611 48.5682 7.50569 48.0296 6.54688 47.0708C5.58807 46.112 5.04942 44.8116 5.04942 43.4556V24.1554L4.1905 24.9146C3.68041 25.3386 3.02546 25.5478 2.364 25.4979C1.70255 25.448 1.0864 25.1429 0.645706 24.6472C0.205012 24.1514 -0.0257104 23.5037 0.00227882 22.841C0.030268 22.1782 0.314777 21.5523 0.795703 21.0955L23.8026 0.644877ZM10.1621 19.6051V43.4556H17.831V30.674C17.831 29.996 18.1004 29.3458 18.5798 28.8664C19.0592 28.387 19.7094 28.1177 20.3874 28.1177H30.6126C31.2906 28.1177 31.9408 28.387 32.4202 28.8664C32.8996 29.3458 33.169 29.996 33.169 30.674V43.4556H40.8379V19.6077L25.5 5.97481L10.1621 19.6051ZM28.0563 43.4556V33.2303H22.9437V43.4556H28.0563Z" fill="#fff"/>
</g>
</svg>
