<svg width="36" height="36" viewBox="0 0 36 36" fill="none" xmlns="http://www.w3.org/2000/svg">
<g id="ICONE CONFIGURA&#195;&#135;&#195;&#149;ES" opacity="0.5">
<path id="Vector" d="M18 23.1C20.8167 23.1 23.1 20.8168 23.1 18C23.1 15.1833 20.8167 12.9 18 12.9C15.1833 12.9 12.9 15.1833 12.9 18C12.9 20.8168 15.1833 23.1 18 23.1Z" stroke="#0085FF" stroke-width="2" stroke-linecap="round" stroke-linejoin="round"/>
<path id="Vector_2" d="M30.9581 15.2722L29.092 10.7662L31.6 7.8L28.2 4.4L25.25 6.92102L20.6483 5.02856L19.59 1H16.2677L15.1935 5.08192L10.6975 6.97713L7.8 4.4L4.4 7.8L6.87073 10.841L5.03325 15.3587L1 16.3V19.7L5.08189 20.8144L6.97678 25.3095L4.4 28.2L7.8 31.6L10.845 29.1185L15.2749 30.9409L16.3 35H19.7L20.7277 30.9424L25.2337 29.0763C25.9847 29.6132 28.2 31.6 28.2 31.6L31.6 28.2L29.077 25.224L30.9436 20.7166L34.9998 19.6612L35 16.3L30.9581 15.2722Z" stroke="#0085FF" stroke-width="2" stroke-linecap="round" stroke-linejoin="round"/>
</g>
</svg>
