<svg width="90" height="75" viewBox="0 0 90 75" fill="currentColor" xmlns="http://www.w3.org/2000/svg">
<path d="M31.4338 45.0325L23.2642 61.7428C24.6255 61.986 25.6312 62.0542 27.0832 62.0542C30.8337 62.0542 34.3009 61.3577 37.5958 59.1264C41.1704 56.7071 40.4018 53.1675 40.4018 53.1675C39.5831 49.5081 35.6678 47.1275 31.4338 45.0306V45.0325Z" fill="white"/>
<path d="M52.8719 1.18665L37.5957 32.4294C41.3222 34.1411 44.6652 35.9118 47.3934 38.0603L52.8701 26.2678L76.5919 75.0003H89.7716L52.8719 1.18665Z" fill="currentColor"/>
<path d="M32.5101 31.8545C23.1403 28.0809 16.0152 26.0577 16.0152 20.3973C16.0152 15.275 21.6567 11.1421 28.7318 11.1421C34.2456 11.1421 39.4796 13.8064 41.917 18.5732L47.453 7.25238C43.2783 2.68463 36.7033 0 28.6374 0C14.7724 0 3.82461 8.26764 3.82461 20.1283C3.82461 31.989 13.8649 35.8989 22.9014 39.6725C31.8897 43.3116 42.0244 47.3561 42.0244 54.0501C42.0244 59.576 35.4754 63.486 26.8204 63.486C19.4101 63.486 13.0037 60.2504 9.5606 54.59L0 61.0151C4.39877 69.3712 14.0075 74.9431 26.6778 74.9431C42.3115 74.9431 54.1687 66.6755 54.1687 53.8272C54.1687 42.4143 44.7026 36.8884 32.512 31.8563L32.5101 31.8545Z" fill="#0085FF"/>
</svg>
