<svg width="91" height="75" viewBox="0 0 91 75" fill="none" xmlns="http://www.w3.org/2000/svg">
<path d="M31.9338 45.0325L23.7642 61.7428C25.1255 61.986 26.1312 62.0542 27.5832 62.0542C31.3337 62.0542 34.8009 61.3577 38.0958 59.1264C41.6704 56.7071 40.9018 53.1675 40.9018 53.1675C40.0831 49.5081 36.1678 47.1275 31.9338 45.0306V45.0325Z" fill="black"/>
<path d="M53.3719 1.18665L38.0957 32.4294C41.8222 34.1411 45.1652 35.9118 47.8934 38.0603L53.3701 26.2678L77.0919 75.0003H90.2716L53.3719 1.18665Z" fill="black"/>
<path d="M33.0101 31.8545C23.6403 28.0809 16.5152 26.0577 16.5152 20.3973C16.5152 15.275 22.1567 11.1421 29.2318 11.1421C34.7456 11.1421 39.9796 13.8064 42.417 18.5732L47.953 7.25238C43.7783 2.68463 37.2033 0 29.1374 0C15.2724 0 4.32461 8.26764 4.32461 20.1283C4.32461 31.989 14.3649 35.8989 23.4014 39.6725C32.3897 43.3116 42.5244 47.3561 42.5244 54.0501C42.5244 59.576 35.9754 63.486 27.3204 63.486C19.9101 63.486 13.5037 60.2504 10.0606 54.59L0.5 61.0151C4.89877 69.3712 14.5075 74.9431 27.1778 74.9431C42.8115 74.9431 54.6687 66.6755 54.6687 53.8272C54.6687 42.4143 45.2026 36.8884 33.012 31.8563L33.0101 31.8545Z" fill="#0085FF"/>
</svg>
