<svg width="47" height="42" viewBox="0 0 47 42" fill="currentColor" xmlns="http://www.w3.org/2000/svg">
<g id="&#240;&#159;&#166;&#134; icon &#34;performance&#34;">
<path id="Vector" fill-rule="evenodd" clip-rule="evenodd" d="M25.6137 18.0147L26.7175 21.3083L27.4459 23.5397C29.3515 29.4574 30.2783 33.0506 30.2783 34.649C30.2783 38.4135 27.2266 41.4652 23.4621 41.4652C19.6977 41.4652 16.646 38.4135 16.646 34.649C16.646 32.8588 17.8084 28.5663 20.2068 21.3083L21.3105 18.0147C22.008 15.9586 24.9162 15.9586 25.6137 18.0147ZM23.4621 0.568237C36.0103 0.568237 46.1826 10.7406 46.1826 23.2888C46.1826 27.8459 44.836 32.2083 42.3532 35.916C41.6551 36.9586 40.2438 37.2379 39.2012 36.5397C38.1585 35.8415 37.8793 34.4303 38.5774 33.3876C40.5631 30.4223 41.6385 26.9385 41.6385 23.2888C41.6385 13.2502 33.5007 5.11234 23.4621 5.11234C13.4235 5.11234 5.28568 13.2502 5.28568 23.2888C5.28568 26.9385 6.36114 30.4223 8.34677 33.3876C9.04494 34.4303 8.76569 35.8415 7.72304 36.5397C6.68038 37.2379 5.26916 36.9586 4.57099 35.916C2.08827 32.2083 0.741577 27.8459 0.741577 23.2888C0.741577 10.7406 10.9139 0.568237 23.4621 0.568237ZM23.4621 26.0129L22.7159 28.4228L22.2 30.1744C21.5306 32.5156 21.1901 34.0318 21.1901 34.649C21.1901 35.9039 22.2073 36.9211 23.4621 36.9211C24.7169 36.9211 25.7342 35.9039 25.7342 34.649C25.7342 33.8943 25.225 31.7956 24.2281 28.4882L23.4621 26.0129Z" fill="currentColor"/>
</g>
</svg>
