<svg width="37" height="39" viewBox="0 0 37 39"  xmlns="http://www.w3.org/2000/svg">
<g id="&#240;&#159;&#166;&#134; icon &#34;calendar&#34;">
<path id="Vector" d="M12.4277 0.46521C12.9612 0.46521 13.4728 0.677133 13.85 1.05436C14.2272 1.43158 14.4392 1.94321 14.4392 2.47669V4.48817H22.4851V2.47669C22.4851 1.94321 22.697 1.43158 23.0742 1.05436C23.4515 0.677133 23.9631 0.46521 24.4966 0.46521C25.03 0.46521 25.5417 0.677133 25.9189 1.05436C26.2961 1.43158 26.508 1.94321 26.508 2.47669V4.48817H32.5425C33.6094 4.48817 34.6327 4.91201 35.3871 5.66646C36.1416 6.42091 36.5654 7.44417 36.5654 8.51112V34.6603C36.5654 35.7273 36.1416 36.7505 35.3871 37.505C34.6327 38.2594 33.6094 38.6833 32.5425 38.6833H4.38178C3.31483 38.6833 2.29157 38.2594 1.53712 37.505C0.782671 36.7505 0.358826 35.7273 0.358826 34.6603V8.51112C0.358826 7.44417 0.782671 6.42091 1.53712 5.66646C2.29157 4.91201 3.31483 4.48817 4.38178 4.48817H10.4162V2.47669C10.4162 1.94321 10.6281 1.43158 11.0054 1.05436C11.3826 0.677133 11.8942 0.46521 12.4277 0.46521ZM10.4162 8.51112H4.38178V14.5456H32.5425V8.51112H26.508V10.5226C26.508 11.0561 26.2961 11.5677 25.9189 11.9449C25.5417 12.3222 25.03 12.5341 24.4966 12.5341C23.9631 12.5341 23.4515 12.3222 23.0742 11.9449C22.697 11.5677 22.4851 11.0561 22.4851 10.5226V8.51112H14.4392V10.5226C14.4392 11.0561 14.2272 11.5677 13.85 11.9449C13.4728 12.3222 12.9612 12.5341 12.4277 12.5341C11.8942 12.5341 11.3826 12.3222 11.0054 11.9449C10.6281 11.5677 10.4162 11.0561 10.4162 10.5226V8.51112ZM32.5425 18.5685H4.38178V34.6603H32.5425V18.5685Z"/>
</g>
</svg>
