<svg width="33" height="44" viewBox="0 0 33 44" fill="none" xmlns="http://www.w3.org/2000/svg">
<g id="&#240;&#159;&#166;&#134; icon &#34;Alternate File&#34;">
<path id="Vector" d="M24.5099 21.4733V23.8206C24.5099 24.3739 24.0572 24.8266 23.5039 24.8266H9.42035C8.86706 24.8266 8.41438 24.3739 8.41438 23.8206V21.4733C8.41438 20.9201 8.86706 20.4674 9.42035 20.4674H23.5039C24.0572 20.4674 24.5099 20.9201 24.5099 21.4733ZM23.5039 27.5091H9.42035C8.86706 27.5091 8.41438 27.9618 8.41438 28.5151V30.8624C8.41438 31.4157 8.86706 31.8683 9.42035 31.8683H23.5039C24.0572 31.8683 24.5099 31.4157 24.5099 30.8624V28.5151C24.5099 27.9618 24.0572 27.5091 23.5039 27.5091ZM32.5576 11.7406V39.5808C32.5576 41.8023 30.7552 43.6046 28.5337 43.6046H4.39051C2.169 43.6046 0.366638 41.8023 0.366638 39.5808V4.70722C0.366638 2.48571 2.169 0.68335 4.39051 0.68335H21.5003C22.565 0.68335 23.5877 1.11089 24.3422 1.86536L31.3756 8.89875C32.1301 9.64484 32.5576 10.676 32.5576 11.7406ZM21.8273 5.03416V11.4137H28.2068L21.8273 5.03416ZM28.5337 39.5808V15.4375H19.8153C18.7004 15.4375 17.8034 14.5406 17.8034 13.4256V4.70722H4.39051V39.5808H28.5337Z" fill="black"/>
</g>
</svg>
