<svg width="38" height="36" viewBox="0 0 38 36" fill="currentColor" xmlns="http://www.w3.org/2000/svg">
<g id="&#240;&#159;&#166;&#134; icon &#34;money-withdrawal&#34;">
<path id="Vector" d="M36.2727 0.604492H1.72727C1.26917 0.604492 0.829833 0.786472 0.505906 1.1104C0.18198 1.43432 0 1.87366 0 2.33176V16.1499C0 16.608 0.18198 17.0474 0.505906 17.3713C0.829833 17.6952 1.26917 17.8772 1.72727 17.8772H6.90909V33.4227C6.90909 33.8808 7.09107 34.3201 7.415 34.644C7.73892 34.968 8.17826 35.1499 8.63636 35.1499H29.3636C29.8217 35.1499 30.2611 34.968 30.585 34.644C30.9089 34.3201 31.0909 33.8808 31.0909 33.4227V17.8772H36.2727C36.7308 17.8772 37.1702 17.6952 37.4941 17.3713C37.818 17.0474 38 16.608 38 16.1499V2.33176C38 1.87366 37.818 1.43432 37.4941 1.1104C37.1702 0.786472 36.7308 0.604492 36.2727 0.604492ZM10.3636 31.6954V28.2409C11.2798 28.2409 12.1585 28.6048 12.8064 29.2527C13.4542 29.9005 13.8182 30.7792 13.8182 31.6954H10.3636ZM27.6364 31.6954H24.1818C24.1818 30.7792 24.5458 29.9005 25.1936 29.2527C25.8415 28.6048 26.7202 28.2409 27.6364 28.2409V31.6954ZM27.6364 24.7863C25.804 24.7863 24.0466 25.5142 22.7509 26.8099C21.4552 28.1056 20.7273 29.863 20.7273 31.6954H17.2727C17.2727 29.863 16.5448 28.1056 15.2491 26.8099C13.9534 25.5142 12.196 24.7863 10.3636 24.7863V10.9681H27.6364V24.7863ZM34.5455 14.4227H31.0909V9.24086C31.0909 8.78275 30.9089 8.34342 30.585 8.01949C30.2611 7.69556 29.8217 7.51358 29.3636 7.51358H8.63636C8.17826 7.51358 7.73892 7.69556 7.415 8.01949C7.09107 8.34342 6.90909 8.78275 6.90909 9.24086V14.4227H3.45455V4.05904H34.5455V14.4227ZM19 23.059C20.0249 23.059 21.0267 22.7551 21.8789 22.1857C22.731 21.6164 23.3952 20.8071 23.7874 19.8602C24.1796 18.9134 24.2822 17.8715 24.0823 16.8663C23.8823 15.8611 23.3888 14.9378 22.6641 14.2131C21.9394 13.4884 21.0161 12.9949 20.0109 12.795C19.0057 12.595 17.9639 12.6976 17.017 13.0898C16.0702 13.482 15.2609 14.1462 14.6915 14.9984C14.1221 15.8505 13.8182 16.8524 13.8182 17.8772C13.8182 19.2515 14.3641 20.5695 15.3359 21.5413C16.3077 22.5131 17.6257 23.059 19 23.059ZM19 16.1499C19.3416 16.1499 19.6756 16.2512 19.9596 16.441C20.2437 16.6308 20.4651 16.9006 20.5958 17.2162C20.7265 17.5318 20.7607 17.8791 20.6941 18.2142C20.6274 18.5493 20.4629 18.857 20.2214 19.0986C19.9798 19.3401 19.672 19.5047 19.337 19.5713C19.0019 19.6379 18.6546 19.6037 18.339 19.473C18.0234 19.3423 17.7536 19.1209 17.5638 18.8368C17.374 18.5528 17.2727 18.2188 17.2727 17.8772C17.2727 17.4191 17.4547 16.9798 17.7786 16.6559C18.1026 16.3319 18.5419 16.1499 19 16.1499Z" fill="currentColor"/>
</g>
</svg>
