<svg width="25" height="24" viewBox="0 0 25 24" fill="none" xmlns="http://www.w3.org/2000/svg">
<g id="SVG">
<path id="Vector" d="M12.501 9.375V8.5" stroke="white" stroke-width="1.5" stroke-linecap="round" stroke-linejoin="round"/>
<path id="Vector_2" d="M12.501 14.625V15.5" stroke="white" stroke-width="1.5" stroke-linecap="round" stroke-linejoin="round"/>
<path id="Vector_3" d="M10.983 14C11.21 14.371 11.597 14.628 12.064 14.628H12.502H13.023C13.702 14.628 14.251 14.078 14.251 13.4C14.251 12.836 13.867 12.345 13.321 12.207L11.681 11.795C11.136 11.658 10.751 11.166 10.751 10.602C10.751 9.92299 11.301 9.37399 11.979 9.37399H12.5H12.938C13.405 9.37399 13.791 9.62899 14.018 9.99899" stroke="white" stroke-width="1.5" stroke-linecap="round" stroke-linejoin="round"/>
<path id="Vector_4" fill-rule="evenodd" clip-rule="evenodd" d="M20.304 18.213C17.799 17.712 15.215 17.774 12.737 18.393L12.5 18.453C9.866 19.111 7.119 19.177 4.457 18.644L4.304 18.613C3.836 18.52 3.5 18.109 3.5 17.633V6.79399C3.5 6.16299 4.077 5.68999 4.696 5.81299C7.201 6.31399 9.785 6.25199 12.263 5.63299L12.736 5.51499C15.214 4.89599 17.799 4.83399 20.303 5.33499L20.695 5.41299C21.164 5.50699 21.5 5.91699 21.5 6.39399V17.233C21.5 17.864 20.923 18.337 20.304 18.213Z" stroke="white" stroke-width="1.5" stroke-linecap="round" stroke-linejoin="round"/>
</g>
</svg>
