<svg width="121" height="37" viewBox="0 0 121 37" fill="none" xmlns="http://www.w3.org/2000/svg">
<path d="M12.279 14.4355C10.7839 14.4355 9.49163 13.7604 8.79809 12.5796L6.86934 13.9202C7.7569 15.6644 9.69443 16.8269 12.25 16.8269C15.4034 16.8269 17.7948 15.1019 17.7948 12.4206C17.7948 10.0398 15.8854 8.88605 13.4264 7.83625C11.5363 7.04845 10.0991 6.62661 10.0991 5.44579C10.0991 4.37677 11.2369 3.51474 12.6644 3.51474C13.7925 3.51474 14.8635 4.08681 15.3455 5.10867L17.1584 3.8903C16.5219 2.23087 14.8635 1.19067 12.6451 1.19067C9.84806 1.19067 7.64013 2.9156 7.64013 5.39077C7.64013 7.86594 9.66546 8.68168 11.488 9.4686C13.3009 10.2276 15.3455 11.0713 15.3455 12.4687C15.3455 13.6215 14.0243 14.4373 12.279 14.4373V14.4355ZM25.4607 16.5727V3.81344H29.6263V1.46055L18.8448 1.46055V3.81344L23.0105 3.81344V16.5727H25.4607ZM34.0141 16.5727V10.7228H35.9235L40.1085 16.5727H43.1074L38.5845 10.5263C40.3684 9.96381 41.6607 8.26682 41.6607 6.31656C41.6607 3.62566 39.2886 1.46055 36.395 1.46055H31.5639L31.5735 16.5727H34.0141ZM34.0045 3.81344H36.4538C37.9006 3.81344 39.1446 4.85364 39.1446 6.26066C39.1446 7.66768 37.9199 8.76378 36.4538 8.75417H34.0045V3.81344ZM50.8084 6.43796L55.5947 16.5727H58.2372L50.9278 1.15137H50.783L43.4735 16.5727H46.116L50.8093 6.43796H50.8084ZM61.1589 16.5727H63.6082V3.81344H67.7739V1.46055L56.9924 1.46055V3.81344H61.158V16.5727H61.1589ZM78.9698 14.2102H72.152V10.0293H78.0348V7.66681H72.152V3.7951H78.9698V1.46055H69.7123V16.5727H78.9698V14.2102ZM96.2698 9.50441C96.2698 9.08256 96.2408 8.67033 96.2022 8.32272H88.8445V10.4974H93.6562V10.5446C93.6562 12.8512 91.6502 14.4355 88.9788 14.4355C85.6612 14.4355 83.2408 11.9979 83.2408 9.0354C83.2408 5.90432 85.9219 3.59771 88.7567 3.59771C90.2324 3.59771 91.8715 4.32874 93.0865 5.49121L94.4464 3.5226C92.9803 2.1348 90.7434 1.216 88.7856 1.20726C84.3689 1.20726 80.7625 4.74185 80.7625 9.0354C80.7625 13.329 84.3496 16.826 88.8726 16.826C92.9135 16.826 96.2689 13.9945 96.2689 9.50441H96.2698ZM101.872 7.47903L98.2556 1.46055H95.5069L100.666 10.114V16.5736H103.087V10.114L108.246 1.46055H105.497L101.872 7.47903ZM33.8631 31.1058L23.6724 20.7562H23.5434V36.5645H26.0489V26.4454L36.2589 36.8142H36.3774V20.9877H33.8622V31.1067L33.8631 31.1058ZM57.5797 21.0243H55.0741V36.5444H64.7003V34.1181H57.5797V21.0261V21.0243ZM68.9582 27.2044L65.2447 21.0235H62.4222L67.7203 29.9101V36.5435H70.2057V29.9101L75.5038 21.0235H72.6814L68.9573 27.2044H68.9582ZM76.207 23.4401H80.4851V36.5435H83.0003V23.4401H87.2783V21.0235H76.2062V23.4401H76.207ZM89.2694 36.5435H91.7749V21.0261H89.2694V36.5461V36.5435ZM102.272 23.2279C103.836 23.2279 105.293 23.9502 106.411 25.0375L107.867 23.1213C106.302 21.6383 104.39 20.7815 102.321 20.7527C97.8351 20.7527 94.0811 24.4209 94.0811 28.7913C94.0811 33.1618 97.8342 36.7924 102.361 36.7924C104.737 36.7924 106.49 35.7819 107.867 34.4622L106.421 32.498C105.322 33.5574 103.915 34.3469 102.282 34.3469C99.4197 34.3469 96.6165 31.9303 96.6165 28.8009C96.6165 25.6716 99.3793 23.2261 102.271 23.2261V23.2279H102.272ZM115.671 27.5704C113.73 26.7616 112.255 26.3284 112.255 25.1153C112.255 24.0174 113.423 23.1318 114.889 23.1318C116.048 23.1318 117.147 23.7187 117.642 24.7685L119.504 23.517C118.85 21.813 117.147 20.744 114.87 20.744C111.998 20.744 109.73 22.5152 109.73 25.0576C109.73 27.6 111.81 28.4367 113.681 29.2455C115.543 30.0254 117.642 30.8918 117.642 32.3259C117.642 33.5102 116.286 34.3478 114.493 34.3478C112.958 34.3478 111.631 33.6543 110.918 32.4412L108.938 33.8177C109.849 35.6081 111.839 36.802 114.464 36.802C117.703 36.802 120.158 35.0308 120.158 32.277C120.158 29.8315 118.197 28.6472 115.672 27.5695L115.671 27.5704ZM6.52783 36.5854H9.25021L14.0857 26.2184L19.0178 36.5854H21.7401L14.0594 20.8095L6.52783 36.5854ZM45.6999 21.0069L38.1683 36.7828H40.8907L45.7262 26.4157L50.6583 36.7828H53.3807L45.8491 21.0069H45.6999Z" fill="black"/>
<path d="M1.31286 0.927002H0.971357C0.765779 0.927002 0.599121 1.0928 0.599121 1.29732L0.599121 36.0798C0.599121 36.2843 0.765779 36.4501 0.971357 36.4501H1.31286C1.51843 36.4501 1.68509 36.2843 1.68509 36.0798L1.68509 1.29732C1.68509 1.0928 1.51843 0.927002 1.31286 0.927002Z" fill="black"/>
</svg>
