<?xml version="1.0" standalone="no"?>
<!DOCTYPE svg PUBLIC "-//W3C//DTD SVG 20010904//EN"
 "http://www.w3.org/TR/2001/REC-SVG-20010904/DTD/svg10.dtd">
<svg version="1.0" xmlns="http://www.w3.org/2000/svg"
 width="121.000000pt" height="37.000000pt" viewBox="0 0 121.000000 37.000000"
 preserveAspectRatio="xMidYMid meet">

<g transform="translate(0.000000,37.000000) scale(0.100000,-0.100000)"
fill="#000000" stroke="none">
<path d="M103 350 c-36 -15 -28 -46 17 -75 22 -14 40 -27 40 -30 0 -14 -42
-25 -59 -15 -13 7 -22 7 -26 0 -10 -16 41 -31 69 -20 46 17 39 58 -14 80 -16
7 -30 18 -30 25 0 18 30 28 45 15 9 -7 15 -8 19 -1 4 6 -2 15 -13 20 -23 13
-19 12 -48 1z"/>
<path d="M853 345 c-56 -24 -57 -102 -3 -130 36 -19 75 -11 95 18 25 35 19 47
-22 46 -31 -2 -33 -3 -10 -6 33 -5 34 -18 3 -38 -45 -30 -98 13 -81 66 9 27
50 42 77 28 21 -11 38 -4 22 10 -18 17 -50 20 -81 6z"/>
<path d="M190 340 c0 -5 9 -10 20 -10 18 0 20 -7 20 -60 0 -33 4 -60 10 -60 6
0 10 27 10 60 0 53 2 60 20 60 11 0 20 5 20 10 0 6 -22 10 -50 10 -27 0 -50
-4 -50 -10z"/>
<path d="M320 280 c0 -40 4 -70 10 -70 6 0 10 11 10 25 0 14 5 25 11 25 6 0
20 -11 31 -25 26 -33 45 -32 23 1 -12 19 -14 29 -6 37 15 15 14 50 -1 65 -7 7
-27 12 -45 12 l-33 0 0 -70z m68 28 c-2 -15 -11 -24 -25 -26 -19 -3 -23 1 -23
22 0 21 5 26 26 26 21 0 25 -4 22 -22z"/>
<path d="M473 280 c-35 -79 -27 -96 11 -23 l24 48 23 -48 c13 -26 29 -47 36
-47 9 0 1 23 -22 70 -19 39 -37 70 -38 70 -2 0 -17 -31 -34 -70z"/>
<path d="M570 340 c0 -5 9 -10 20 -10 18 0 20 -7 20 -60 0 -33 4 -60 10 -60 6
0 10 27 10 60 0 53 2 60 19 60 11 0 23 5 26 10 4 6 -15 10 -49 10 -31 0 -56
-4 -56 -10z"/>
<path d="M700 280 l0 -70 45 0 c25 0 45 5 45 10 0 6 -16 10 -35 10 -28 0 -35
4 -35 20 0 16 7 20 30 20 17 0 30 5 30 10 0 6 -13 10 -30 10 -23 0 -30 4 -30
20 0 16 7 20 35 20 19 0 35 5 35 10 0 6 -20 10 -45 10 l-45 0 0 -70z"/>
<path d="M985 307 c14 -24 25 -56 25 -70 0 -15 5 -27 10 -27 6 0 10 15 10 33
0 17 9 46 20 62 21 32 25 45 12 45 -5 0 -15 -11 -22 -25 -7 -14 -16 -25 -20
-25 -4 0 -13 11 -20 25 -7 14 -20 25 -27 25 -10 0 -7 -12 12 -43z"/>
<path d="M340 108 l0 -52 -50 49 -50 49 0 -72 c0 -41 4 -72 10 -72 6 0 10 21
10 47 l0 47 50 -49 50 -49 0 77 c0 45 -4 77 -10 77 -5 0 -10 -23 -10 -52z"/>
<path d="M550 85 l0 -75 51 0 c31 0 48 4 44 10 -3 6 -22 10 -41 10 l-34 0 0
65 c0 37 -4 65 -10 65 -6 0 -10 -32 -10 -75z"/>
<path d="M630 155 c0 -3 11 -23 25 -45 14 -22 25 -53 25 -70 0 -16 5 -30 10
-30 6 0 10 14 10 31 0 17 12 50 26 75 14 24 21 44 14 44 -6 0 -19 -13 -28 -30
-9 -16 -19 -30 -22 -30 -3 0 -13 14 -22 30 -15 26 -38 41 -38 25z"/>
<path d="M760 151 c0 -5 10 -11 23 -13 20 -3 22 -9 25 -65 4 -83 22 -81 22 2
0 58 2 65 20 65 11 0 20 5 20 10 0 6 -25 10 -55 10 -30 0 -55 -4 -55 -9z"/>
<path d="M890 85 c0 -60 3 -75 15 -75 12 0 15 15 15 75 0 60 -3 75 -15 75 -12
0 -15 -15 -15 -75z"/>
<path d="M979 147 c-42 -32 -46 -89 -8 -123 22 -20 74 -23 91 -6 16 16 3 26
-19 14 -23 -12 -58 1 -72 27 -25 45 31 97 78 71 17 -8 21 -8 21 4 0 26 -62 35
-91 13z"/>
<path d="M1110 145 c-19 -23 -7 -49 33 -68 20 -9 37 -21 37 -27 0 -17 -33 -29
-53 -18 -26 14 -36 -1 -13 -18 31 -22 86 1 86 37 0 12 -15 26 -41 39 -46 24
-47 46 0 44 33 -2 42 10 15 20 -26 10 -51 7 -64 -9z"/>
<path d="M103 80 c-20 -43 -27 -70 -20 -70 7 0 20 20 30 45 11 25 22 45 26 45
4 0 17 -20 29 -45 12 -25 26 -45 32 -45 5 0 10 2 10 5 0 10 -65 135 -70 135
-3 -1 -19 -32 -37 -70z"/>
<path d="M422 85 c-18 -36 -32 -70 -32 -76 0 -20 21 3 44 49 l24 46 26 -52
c14 -29 31 -52 36 -52 6 0 10 2 10 5 0 7 -69 145 -73 145 -1 0 -17 -29 -35
-65z"/>
</g>
</svg>
