<svg width="19" height="18" viewBox="0 0 19 18" xmlns="http://www.w3.org/2000/svg">

<path id="Vector" fill-rule="evenodd" clip-rule="evenodd" d="M9.5 16.6153C5.29373 16.6153 1.88462 13.2063 1.88462 9C1.88462 4.79373 5.29373 1.38462 9.5 1.38462C13.7063 1.38462 17.1153 4.79373 17.1153 9C17.1153 13.2063 13.7063 16.6153 9.5 16.6153ZM9.5 0C4.52903 0 0.5 4.02903 0.5 9C0.5 13.971 4.52903 18 9.5 18C14.471 18 18.5 13.971 18.5 9C18.5 4.02903 14.471 0 9.5 0ZM9.5 13.8462C9.88235 13.8462 10.1923 13.5362 10.1923 13.1538V8.53846C10.1923 8.15611 9.88235 7.84616 9.5 7.84616C9.11765 7.84616 8.80769 8.15611 8.80769 8.53846V13.1538C8.80769 13.5362 9.11765 13.8462 9.5 13.8462ZM9.49907 6C8.99114 6 8.57458 5.58787 8.57693 5.07441C8.57828 4.56583 8.99109 4.15384 9.5 4.15384C10.0097 4.15384 10.4231 4.56718 10.4231 5.07693C10.4231 5.58846 10.0079 6 9.49907 6Z" fill-opacity="0.8"/>

</svg>
