<svg width="90" height="75" viewBox="0 0 90 75" fill="none" xmlns="http://www.w3.org/2000/svg">
<path d="M31.4341 45.0326L23.2644 61.7429C24.6257 61.9862 25.6314 62.0543 27.0835 62.0543C30.834 62.0543 34.3011 61.3578 37.5961 59.1265C41.1706 56.7072 40.402 53.1676 40.402 53.1676C39.5834 49.5082 35.668 47.1276 31.4341 45.0308V45.0326Z" fill="white"/>
<path d="M52.8722 1.18652L37.5959 32.4293C41.3224 34.141 44.6655 35.9117 47.3936 38.0602L52.8703 26.2677L76.5922 75.0002H89.7718L52.8722 1.18652Z" fill="white"/>
<path d="M32.5101 31.8545C23.1403 28.0809 16.0152 26.0577 16.0152 20.3973C16.0152 15.275 21.6567 11.1421 28.7318 11.1421C34.2456 11.1421 39.4796 13.8064 41.917 18.5732L47.453 7.25238C43.2783 2.68463 36.7033 0 28.6374 0C14.7724 0 3.82461 8.26764 3.82461 20.1283C3.82461 31.989 13.8649 35.8989 22.9014 39.6725C31.8897 43.3116 42.0244 47.3561 42.0244 54.0501C42.0244 59.576 35.4754 63.486 26.8204 63.486C19.4101 63.486 13.0037 60.2504 9.5606 54.59L0 61.0151C4.39877 69.3712 14.0075 74.9431 26.6778 74.9431C42.3115 74.9431 54.1687 66.6755 54.1687 53.8272C54.1687 42.4143 44.7026 36.8884 32.512 31.8563L32.5101 31.8545Z" fill="#0085FF"/>
</svg>
