<svg width="12" height="24" viewBox="0 0 12 24" fill="none" xmlns="http://www.w3.org/2000/svg">
<path id="Vector" d="M1.70289 23.9969C1.30571 23.9977 0.920787 23.8585 0.614955 23.6035C0.442826 23.4599 0.300541 23.2835 0.196249 23.0845C0.091957 22.8855 0.0277071 22.6678 0.00717939 22.4437C-0.0133484 22.2197 0.0102497 21.9938 0.0766213 21.7789C0.142993 21.5641 0.250833 21.3645 0.393968 21.1917L8.00951 12.0235L0.665953 2.83811C0.524749 2.66315 0.419301 2.46183 0.355671 2.24573C0.292041 2.02963 0.271483 1.803 0.295178 1.57888C0.318873 1.35476 0.386354 1.13755 0.493743 0.939759C0.601132 0.741963 0.746312 0.567473 0.920937 0.426319C1.09682 0.270601 1.30279 0.153146 1.52592 0.0813242C1.74905 0.00950223 1.98453 -0.0151352 2.21758 0.00895691C2.45062 0.033049 2.6762 0.105351 2.88016 0.221326C3.08411 0.3373 3.26205 0.494443 3.40279 0.682893L11.6133 10.9458C11.8633 11.2519 12 11.6358 12 12.032C12 12.4282 11.8633 12.8121 11.6133 13.1182L3.11381 23.3811C2.94328 23.5881 2.72665 23.7518 2.48151 23.8587C2.23637 23.9657 1.96961 24.0131 1.70289 23.9969Z" fill="#231F20"/>
</svg>
