<svg version="1.0" xmlns="http://www.w3.org/2000/svg"
 width="512.000000pt" height="512.000000pt" viewBox="0 0 512.000000 512.000000"
 preserveAspectRatio="xMidYMid meet">

<g transform="translate(0.000000,512.000000) scale(0.100000,-0.100000)"
fill="#fff" stroke="none">
<path d="M2817 5106 c-20 -7 -51 -24 -68 -37 -16 -13 -321 -451 -677 -974
l-647 -950 -183 -3 -183 -2 5 32 c3 18 22 197 41 398 19 201 37 384 40 407 6
41 9 44 77 80 68 36 164 118 204 176 l20 29 289 -30 c196 -19 299 -26 317 -20
56 19 60 105 6 128 -13 6 -155 23 -317 39 -326 31 -351 30 -399 -23 -16 -17
-52 -56 -81 -87 -30 -33 -73 -67 -108 -84 -89 -43 -120 -70 -136 -117 -10 -26
-33 -222 -59 -485 l-43 -443 -47 0 -48 0 5 38 c3 20 35 333 70 695 36 363 70
667 75 678 15 28 43 39 97 39 26 0 293 -25 592 -55 482 -48 548 -52 572 -40
48 25 46 104 -3 125 -13 5 -189 25 -393 45 -203 20 -463 45 -578 57 -116 11
-227 17 -251 14 -91 -14 -169 -92 -187 -189 -6 -29 -34 -293 -63 -587 l-52
-535 -126 -6 c-108 -4 -133 -9 -174 -30 -85 -44 -133 -127 -134 -234 -1 -48
-3 -51 -48 -80 -25 -16 -61 -49 -79 -73 -67 -88 -64 -11 -61 -1453 l3 -1304
24 -52 c29 -66 111 -143 176 -169 49 -19 101 -19 2160 -19 l2110 0 52 24 c62
28 136 103 166 169 21 45 22 61 25 430 l3 382 37 0 c86 0 162 43 188 107 11
26 14 120 14 453 0 399 -1 423 -20 460 -30 59 -72 84 -152 88 l-68 4 0 362 c0
304 -3 371 -16 416 -18 60 -60 128 -99 158 -23 18 -25 27 -25 94 0 89 -30 160
-88 208 -42 34 -116 60 -174 60 l-39 0 117 171 c65 95 123 192 131 218 24 80
-2 175 -64 232 -15 14 -147 107 -293 206 -146 99 -481 328 -745 508 -264 180
-493 334 -509 342 -41 21 -133 26 -179 9z m124 -147 c61 -32 1478 -1005 1502
-1030 44 -47 37 -71 -60 -215 -49 -71 -155 -229 -238 -351 l-150 -222 -58 -1
-57 0 117 171 c64 95 122 189 130 211 15 45 9 79 -33 178 -23 55 -28 81 -30
173 -2 89 -7 114 -24 141 -14 24 -138 114 -426 310 -223 152 -416 281 -430
286 -44 17 -90 11 -171 -22 -68 -28 -91 -32 -185 -34 -126 -3 -162 -16 -205
-77 -17 -23 -225 -328 -463 -677 -238 -349 -438 -641 -444 -648 -8 -8 -31 -12
-64 -10 l-50 3 609 895 c335 492 619 903 630 913 24 19 70 22 100 6z m594
-757 l380 -259 6 -109 c5 -85 12 -124 33 -179 15 -38 28 -77 29 -85 1 -9 -61
-109 -138 -223 l-140 -206 -125 -1 -126 0 -11 67 c-16 92 -81 218 -149 292
-72 78 -149 128 -252 164 -209 72 -459 13 -613 -145 -86 -88 -151 -213 -167
-321 l-7 -52 -183 -3 c-147 -2 -182 0 -176 10 5 7 199 293 432 636 l424 622
94 0 c72 0 111 6 171 25 43 14 85 29 92 34 9 6 22 6 30 1 9 -5 187 -125 396
-268z m-570 -667 c81 -22 148 -60 209 -121 63 -63 101 -130 120 -212 l14 -62
-454 0 -455 0 7 38 c46 253 309 422 559 357z m-2279 -296 c-3 -17 -6 -47 -6
-65 l0 -34 -130 0 -130 0 0 36 c0 26 8 43 29 65 29 28 32 29 136 29 l108 0 -7
-31z m3787 10 c29 -22 56 -95 41 -107 -5 -4 -84 -6 -176 -4 l-167 3 42 64 42
65 96 0 c82 0 100 -3 122 -21z m104 -295 c63 -50 73 -81 73 -221 l0 -123
-2210 0 -2210 0 0 125 c0 89 4 134 14 153 18 35 64 78 96 91 16 6 741 9 2112
8 l2086 -2 39 -31z m73 -664 l0 -170 -377 0 c-302 0 -391 -3 -442 -15 -175
-42 -325 -176 -391 -350 -28 -75 -38 -228 -20 -306 45 -194 193 -352 390 -415
47 -15 109 -18 448 -22 l392 -4 0 -169 0 -169 -1798 0 c-1790 0 -1799 0 -1817
-20 -23 -26 -23 -74 0 -100 18 -20 27 -20 1817 -20 l1798 0 0 -127 c0 -114 -3
-132 -23 -168 -13 -22 -40 -49 -62 -62 l-40 -23 -2083 0 c-2321 0 -2123 -6
-2180 68 -26 34 -27 41 -30 174 l-4 138 211 0 c198 0 212 1 231 20 11 11 20
33 20 50 0 17 -9 39 -20 50 -19 19 -33 20 -230 20 l-210 0 0 895 0 895 2210 0
2210 0 0 -170z m238 -722 l2 -408 -487 0 c-286 0 -506 5 -531 10 -157 37 -283
170 -313 331 -40 219 122 439 344 468 34 5 269 8 522 7 l460 -1 3 -407z"/>
<path d="M3890 1851 c-126 -39 -220 -178 -207 -306 16 -159 136 -269 291 -269
258 -1 389 292 221 492 -14 17 -53 45 -87 61 -51 26 -73 31 -127 30 -36 0 -77
-4 -91 -8z m144 -145 c105 -44 121 -191 28 -260 -38 -29 -119 -32 -160 -7
-101 64 -95 214 12 262 49 22 76 23 120 5z"/>
</g>
</svg>
