<svg width="30" height="31" viewBox="0 0 30 31" fill="none" xmlns="http://www.w3.org/2000/svg">

<path id="Vector" fill-rule="evenodd" clip-rule="evenodd" d="M7.31021 4.92234C5.7241 4.92234 4.43063 6.20981 4.43063 7.80745V8.12838H25.5694V7.80745C25.5694 6.20981 24.2759 4.92234 22.6898 4.92234H7.31021ZM2.5 7.80745V9.08954V18.0641C2.5 20.715 4.64936 22.8716 7.31021 22.8716H12.4367C12.9699 22.8716 13.402 22.4413 13.402 21.9105C13.402 21.3796 12.9699 20.9492 12.4367 20.9492H7.31021C5.7241 20.9492 4.43063 19.6619 4.43063 18.0641V10.0507H25.5694V18.0641C25.5694 18.595 26.0015 19.0254 26.5346 19.0254C27.0679 19.0254 27.5 18.595 27.5 18.0641V9.08954V7.80745C27.5 5.1566 25.3506 3 22.6898 3H7.31021C4.64936 3 2.5 5.1566 2.5 7.80745ZM19.4665 27.7402C19.6391 27.9014 19.8713 28 20.1265 28C20.3946 28 20.6372 27.8911 20.8122 27.7154L24.6556 23.8706C25.0316 23.4944 25.0303 22.8857 24.6524 22.5114C24.2745 22.1369 23.6634 22.1383 23.2873 22.5145L21.0919 24.7108V18.0641C21.0919 17.5334 20.6596 17.103 20.1265 17.103C19.5934 17.103 19.1613 17.5334 19.1613 18.0641V24.7108L16.9658 22.5145C16.5898 22.1383 15.9785 22.1369 15.6006 22.5114C15.2228 22.8857 15.2214 23.4944 15.5975 23.8706L19.4424 27.7169C19.4503 27.7249 19.4583 27.7326 19.4665 27.7402Z" fill="#9FACB1"/>

</svg>
