<svg xmlns="http://www.w3.org/2000/svg">
  <symbol id="icon-1"  width="44" height="44" viewBox="0 0 22 22" fill="none">
    <path d="M3.85608 16.2564C3.93819 16.2975 4.03056 16.3317 4.1332 16.3591C4.23584 16.3865 4.33506 16.4001 4.43086 16.4001H17.5687C17.6645 16.4001 17.7637 16.3865 17.8663 16.3591C17.969 16.3317 18.0614 16.2975 18.1435 16.2564L12.9704 11.3913L11.2872 12.7872C11.205 12.8557 11.1093 12.8899 10.9998 12.8899C10.8903 12.8899 10.7945 12.8557 10.7124 12.7872L9.0291 11.3913L3.85608 16.2564ZM3.24024 15.6406C3.24024 15.6406 3.24366 15.6406 3.2505 15.6406C3.25735 15.6406 3.26077 15.6338 3.26077 15.6201L8.35168 10.8371L3.2813 6.64941C3.26761 6.64941 3.26077 6.64599 3.26077 6.63915C3.26077 6.6323 3.25393 6.62888 3.24024 6.62888C3.19918 6.71099 3.16839 6.79995 3.14786 6.89574C3.12734 6.99154 3.11707 7.08734 3.11707 7.18313V15.0864C3.11707 15.1822 3.12734 15.278 3.14786 15.3738C3.16839 15.4695 3.19918 15.5585 3.24024 15.6406ZM18.7593 15.6406C18.8004 15.5585 18.8312 15.4695 18.8517 15.3738C18.8722 15.278 18.8825 15.1822 18.8825 15.0864V7.18313C18.8825 7.08734 18.8722 6.99154 18.8517 6.89574C18.8312 6.79995 18.8004 6.71099 18.7593 6.62888C18.7456 6.62888 18.7388 6.6323 18.7388 6.63915C18.7388 6.64599 18.7319 6.64941 18.7182 6.64941L13.6479 10.8371L18.7388 15.6201C18.7388 15.6338 18.7422 15.6406 18.749 15.6406C18.7559 15.6406 18.7593 15.6406 18.7593 15.6406ZM18.1229 6.01305C18.0408 5.97199 17.9519 5.93778 17.8561 5.91041C17.7603 5.88304 17.6645 5.86935 17.5687 5.86935H4.43086C4.33506 5.86935 4.23926 5.88304 4.14347 5.91041C4.04767 5.93778 3.95872 5.97199 3.8766 6.01305L10.9998 11.884L18.1229 6.01305ZM4.43086 5.00718H17.5687C18.1708 5.00718 18.6875 5.2193 19.1185 5.64355C19.5496 6.06779 19.7652 6.58098 19.7652 7.18313V15.0864C19.7652 15.6885 19.5496 16.2017 19.1185 16.626C18.6875 17.0502 18.1708 17.2623 17.5687 17.2623H4.43086C3.82871 17.2623 3.31209 17.0502 2.881 16.626C2.44992 16.2017 2.23438 15.6885 2.23438 15.0864V7.18313C2.23438 6.58098 2.44992 6.06779 2.881 5.64355C3.31209 5.2193 3.82871 5.00718 4.43086 5.00718Z" fill="white"/>
  </symbol>
  <symbol id="icon-2" width="23" height="22" viewBox="0 0 23 22" fill="none">
    <path d="M13.8833 17.2623C13.6917 17.7824 13.3701 18.2032 12.9185 18.5248C12.4669 18.8464 11.9606 19.0072 11.3995 19.0072C10.8384 19.0072 10.332 18.8464 9.88041 18.5248C9.42879 18.2032 9.10719 17.7824 8.9156 17.2623H7.5197C6.91755 17.2623 6.40436 17.0502 5.98011 16.626C5.55587 16.2017 5.34375 15.6817 5.34375 15.0658C5.34375 14.9153 5.35744 14.7648 5.38481 14.6142C5.41218 14.4637 5.46007 14.32 5.5285 14.1831L6.14434 12.7872V10.2623C6.14434 9.68754 6.23329 9.14013 6.4112 8.62009C6.57542 8.10005 6.81491 7.62449 7.12967 7.1934C7.44443 6.76232 7.81394 6.38255 8.23818 6.05411C8.66242 5.72566 9.13456 5.47248 9.6546 5.29458V5.00719C9.6546 4.51452 9.82567 4.09712 10.1678 3.75499C10.5099 3.41286 10.9205 3.24179 11.3995 3.24179C11.8785 3.24179 12.289 3.41286 12.6311 3.75499C12.9733 4.09712 13.1443 4.51452 13.1443 5.00719V5.29458C13.6644 5.47248 14.1365 5.72566 14.5608 6.05411C14.985 6.38255 15.3545 6.76232 15.6693 7.1934C15.984 7.62449 16.2235 8.10005 16.3877 8.62009C16.5656 9.14013 16.6546 9.68754 16.6546 10.2623V12.7872L17.2704 14.1831C17.5168 14.7305 17.5305 15.2882 17.3115 15.8562C17.0925 16.4241 16.7093 16.8312 16.1619 17.0776C16.0251 17.1323 15.8814 17.1768 15.7308 17.211C15.5803 17.2452 15.4298 17.2623 15.2792 17.2623H13.8833ZM12.9185 17.2623H9.88041C10.0309 17.5223 10.2431 17.7345 10.5168 17.8987C10.7905 18.0629 11.0847 18.145 11.3995 18.145C11.7142 18.145 12.0085 18.0629 12.2822 17.8987C12.5559 17.7345 12.768 17.5223 12.9185 17.2623ZM12.2822 5.06877V5.00719C12.2822 4.76085 12.1966 4.55215 12.0256 4.38109C11.8545 4.21002 11.6458 4.12449 11.3995 4.12449C11.1531 4.12449 10.9444 4.21002 10.7734 4.38109C10.6023 4.55215 10.5168 4.76085 10.5168 5.00719V5.06877C10.6673 5.0414 10.8144 5.02429 10.9581 5.01745C11.1018 5.01061 11.2489 5.00719 11.3995 5.00719C11.55 5.00719 11.6971 5.01061 11.8408 5.01745C11.9845 5.02429 12.1316 5.0414 12.2822 5.06877ZM11.3995 5.86936C10.7973 5.86936 10.2294 5.98568 9.69566 6.21833C9.16193 6.45098 8.69663 6.76574 8.29976 7.16261C7.90289 7.55948 7.58813 8.02478 7.35548 8.55851C7.13652 9.07855 7.02703 9.64648 7.02703 10.2623V12.8899L6.98598 13.0541L6.32909 14.5321C6.28803 14.6142 6.25724 14.7032 6.23671 14.799C6.21618 14.8948 6.20592 14.9837 6.20592 15.0658C6.20592 15.4353 6.33593 15.7467 6.59595 15.9999C6.85597 16.253 7.16389 16.3796 7.5197 16.3796H15.2792C15.3613 16.3796 15.4503 16.3728 15.5461 16.3591C15.6419 16.3454 15.7308 16.318 15.813 16.277C16.1414 16.1264 16.3706 15.8835 16.5006 15.5482C16.6307 15.213 16.6204 14.8742 16.4699 14.5321L15.813 13.0541L15.7719 12.8899V10.2623C15.7719 9.64648 15.6624 9.07855 15.4435 8.55851C15.2108 8.02478 14.896 7.55948 14.4992 7.16261C14.1023 6.76574 13.637 6.45098 13.1033 6.21833C12.5696 5.98568 12.0016 5.86936 11.3995 5.86936Z" fill="white"/>
  </symbol>
  <symbol id="icon-3" width="23" height="22" viewBox="0 0 23 22" fill="none">
    <path d="M10.7996 19.8899C9.59527 19.8899 8.4594 19.6572 7.39195 19.1919C6.3245 18.7403 5.39391 18.1176 4.60016 17.3239C3.80642 16.5302 3.18374 15.5996 2.73213 14.5321C2.26683 13.4783 2.03418 12.3425 2.03418 11.1245C2.03418 9.92018 2.26683 8.7843 2.73213 7.71686C3.18374 6.66309 3.80642 5.73934 4.60016 4.94559C5.39391 4.15185 6.3245 3.52233 7.39195 3.05703C8.4594 2.60542 9.59527 2.37961 10.7996 2.37961C12.0039 2.37961 13.1398 2.60542 14.2072 3.05703C15.2746 3.52233 16.2052 4.15185 16.999 4.94559C17.7927 5.73934 18.4154 6.66309 18.867 7.71686C19.3323 8.7843 19.565 9.92018 19.565 11.1245C19.565 12.3425 19.3323 13.4783 18.867 14.5321C18.4154 15.5996 17.7927 16.5302 16.999 17.3239C16.2052 18.1176 15.2746 18.7403 14.2072 19.1919C13.1398 19.6572 12.0039 19.8899 10.7996 19.8899ZM10.7996 19.0072C11.8944 19.0072 12.9139 18.8019 13.8582 18.3913C14.8162 17.9808 15.6544 17.4197 16.3729 16.7081C17.0914 15.9964 17.6559 15.1616 18.0664 14.2037C18.477 13.2457 18.6823 12.2193 18.6823 11.1245C18.6823 10.0433 18.477 9.0238 18.0664 8.06583C17.6559 7.10786 17.0914 6.27306 16.3729 5.56143C15.6544 4.8498 14.8162 4.2887 13.8582 3.87815C12.9139 3.4539 11.8944 3.24178 10.7996 3.24178C9.70476 3.24178 8.68521 3.4539 7.74092 3.87815C6.78296 4.2887 5.94474 4.8498 5.22626 5.56143C4.50779 6.27306 3.94327 7.10786 3.53271 8.06583C3.12216 9.0238 2.91688 10.0433 2.91688 11.1245C2.91688 12.2193 3.12216 13.2457 3.53271 14.2037C3.94327 15.1616 4.50779 15.9964 5.22626 16.7081C5.94474 17.4197 6.78296 17.9808 7.74092 18.3913C8.68521 18.8019 9.70476 19.0072 10.7996 19.0072ZM13.5503 8.64061C13.6324 8.54481 13.7351 8.49691 13.8582 8.49691C13.9814 8.49691 14.084 8.54481 14.1661 8.64061C14.2619 8.72272 14.3098 8.82536 14.3098 8.94853C14.3098 9.0717 14.2619 9.17433 14.1661 9.25645L9.79371 13.6289C9.7116 13.711 9.60896 13.752 9.48579 13.752C9.36263 13.752 9.25999 13.711 9.17788 13.6289L7.43301 11.884C7.33721 11.8019 7.28931 11.6993 7.28931 11.5761C7.28931 11.4529 7.33721 11.3503 7.43301 11.2682C7.51512 11.1724 7.61776 11.1245 7.74092 11.1245C7.86409 11.1245 7.96673 11.1724 8.04884 11.2682L9.48579 12.7051L13.5503 8.64061Z" fill="white"/>
  </symbol>
</svg>
