<svg width="414" height="1066" viewBox="0 0 414 1066" fill="none" xmlns="http://www.w3.org/2000/svg">
<g filter="url(#filter0_bd_1425_1268)">
<mask id="path-1-outside-1_1425_1268" maskUnits="userSpaceOnUse" x="-20" y="20" width="410" height="1023" fill="black">
<rect fill="white" x="-20" y="20" width="410" height="1023"/>
<path fill-rule="evenodd" clip-rule="evenodd" d="M342 22L-18 22L-18 1041H342C353.046 1041 362 1032.05 362 1021V559.783C365.158 559.657 368.271 559.01 371.196 557.866C374.472 556.586 377.449 554.71 379.956 552.344C382.463 549.979 384.452 547.17 385.809 544.079C387.166 540.989 387.864 537.676 387.864 534.331C387.864 530.985 387.166 527.672 385.809 524.582C384.452 521.491 382.463 518.683 379.956 516.317C377.449 513.951 374.472 512.075 371.196 510.795C368.271 509.651 365.158 509.004 362 508.878V42C362 30.9543 353.046 22 342 22Z"/>
</mask>
<path fill-rule="evenodd" clip-rule="evenodd" d="M342 22L-18 22L-18 1041H342C353.046 1041 362 1032.05 362 1021V559.783C365.158 559.657 368.271 559.01 371.196 557.866C374.472 556.586 377.449 554.71 379.956 552.344C382.463 549.979 384.452 547.17 385.809 544.079C387.166 540.989 387.864 537.676 387.864 534.331C387.864 530.985 387.166 527.672 385.809 524.582C384.452 521.491 382.463 518.683 379.956 516.317C377.449 513.951 374.472 512.075 371.196 510.795C368.271 509.651 365.158 509.004 362 508.878V42C362 30.9543 353.046 22 342 22Z" fill="url(#paint0_linear_1425_1268)" shape-rendering="crispEdges"/>
<path d="M-18 22V20H-20V22H-18ZM-18 1041H-20V1043H-18V1041ZM362 559.783L361.921 557.785L360 557.861V559.783H362ZM371.196 557.866L371.924 559.729L371.196 557.866ZM379.956 552.344L381.328 553.799H381.328L379.956 552.344ZM385.809 544.079L383.977 543.275L385.809 544.079ZM385.809 524.582L387.64 523.778V523.778L385.809 524.582ZM371.196 510.795L371.924 508.932L371.196 510.795ZM362 508.878H360V510.8L361.921 510.877L362 508.878ZM-18 24L342 24V20L-18 20V24ZM-16 1041L-16 22H-20L-20 1041H-16ZM342 1039H-18V1043H342V1039ZM360 1021C360 1030.94 351.941 1039 342 1039V1043C354.15 1043 364 1033.15 364 1021H360ZM360 559.783V1021H364V559.783H360ZM370.468 556.004C367.752 557.065 364.858 557.668 361.921 557.785L362.079 561.781C365.457 561.647 368.79 560.954 371.924 559.729L370.468 556.004ZM378.583 550.889C376.267 553.075 373.51 554.815 370.468 556.004L371.924 559.729C375.434 558.357 378.631 556.344 381.328 553.799L378.583 550.889ZM383.977 543.275C382.731 546.116 380.9 548.704 378.583 550.889L381.328 553.799C384.026 551.253 386.173 548.225 387.64 544.883L383.977 543.275ZM385.864 534.331C385.864 537.397 385.224 540.436 383.977 543.275L387.64 544.883C389.107 541.542 389.864 537.955 389.864 534.331H385.864ZM383.977 525.386C385.224 528.225 385.864 531.264 385.864 534.331H389.864C389.864 530.706 389.107 527.12 387.64 523.778L383.977 525.386ZM378.583 517.772C380.9 519.957 382.731 522.546 383.977 525.386L387.64 523.778C386.173 520.436 384.026 517.408 381.328 514.862L378.583 517.772ZM370.468 512.658C373.51 513.846 376.267 515.586 378.583 517.772L381.328 514.862C378.631 512.317 375.434 510.304 371.924 508.932L370.468 512.658ZM361.921 510.877C364.858 510.993 367.752 511.596 370.468 512.658L371.924 508.932C368.79 507.707 365.457 507.014 362.079 506.88L361.921 510.877ZM360 42V508.878H364V42H360ZM342 24C351.941 24 360 32.0589 360 42H364C364 29.8497 354.15 20 342 20V24Z" fill="url(#paint1_linear_1425_1268)" mask="url(#path-1-outside-1_1425_1268)"/>
</g>
<defs>
<filter id="filter0_bd_1425_1268" x="-44" y="0" width="457.864" height="1071" filterUnits="userSpaceOnUse" color-interpolation-filters="sRGB">
<feFlood flood-opacity="0" result="BackgroundImageFix"/>
<feGaussianBlur in="BackgroundImageFix" stdDeviation="7.5"/>
<feComposite in2="SourceAlpha" operator="in" result="effect1_backgroundBlur_1425_1268"/>
<feColorMatrix in="SourceAlpha" type="matrix" values="0 0 0 0 0 0 0 0 0 0 0 0 0 0 0 0 0 0 127 0" result="hardAlpha"/>
<feOffset dy="4"/>
<feGaussianBlur stdDeviation="12"/>
<feComposite in2="hardAlpha" operator="out"/>
<feColorMatrix type="matrix" values="0 0 0 0 0 0 0 0 0 0 0 0 0 0 0 0 0 0 0.2 0"/>
<feBlend mode="normal" in2="effect1_backgroundBlur_1425_1268" result="effect2_dropShadow_1425_1268"/>
<feBlend mode="normal" in="SourceGraphic" in2="effect2_dropShadow_1425_1268" result="shape"/>
</filter>
<linearGradient id="paint0_linear_1425_1268" x1="-18.1361" y1="22" x2="312.792" y2="1052.74" gradientUnits="userSpaceOnUse">
<stop stop-color="white" stop-opacity="0"/>
<stop offset="1" stop-color="white" stop-opacity="0.4"/>
</linearGradient>
<linearGradient id="paint1_linear_1425_1268" x1="-18.136" y1="22" x2="312.792" y2="1052.74" gradientUnits="userSpaceOnUse">
<stop stop-opacity="0.2"/>
<stop offset="0.298582" stop-color="#003858" stop-opacity="0.303476"/>
<stop offset="0.63888" stop-color="#0077BA" stop-opacity="0.418598"/>
<stop offset="1" stop-color="#00A3FF" stop-opacity="0.5"/>
</linearGradient>
</defs>
</svg>
