<svg xmlns="http://www.w3.org/2000/svg" width="22" height="22" viewBox="0 0 22 22" fill="none">
  <path d="M10.7996 19.8899C9.59527 19.8899 8.4594 19.6572 7.39195 19.1919C6.3245 18.7403 5.39391 18.1176 4.60016 17.3239C3.80642 16.5302 3.18374 15.5996 2.73213 14.5321C2.26683 13.4783 2.03418 12.3425 2.03418 11.1245C2.03418 9.92018 2.26683 8.7843 2.73213 7.71686C3.18374 6.66309 3.80642 5.73934 4.60016 4.94559C5.39391 4.15185 6.3245 3.52233 7.39195 3.05703C8.4594 2.60542 9.59527 2.37961 10.7996 2.37961C12.0039 2.37961 13.1398 2.60542 14.2072 3.05703C15.2746 3.52233 16.2052 4.15185 16.999 4.94559C17.7927 5.73934 18.4154 6.66309 18.867 7.71686C19.3323 8.7843 19.565 9.92018 19.565 11.1245C19.565 12.3425 19.3323 13.4783 18.867 14.5321C18.4154 15.5996 17.7927 16.5302 16.999 17.3239C16.2052 18.1176 15.2746 18.7403 14.2072 19.1919C13.1398 19.6572 12.0039 19.8899 10.7996 19.8899ZM10.7996 19.0072C11.8944 19.0072 12.9139 18.8019 13.8582 18.3913C14.8162 17.9808 15.6544 17.4197 16.3729 16.7081C17.0914 15.9964 17.6559 15.1616 18.0664 14.2037C18.477 13.2457 18.6823 12.2193 18.6823 11.1245C18.6823 10.0433 18.477 9.0238 18.0664 8.06583C17.6559 7.10786 17.0914 6.27306 16.3729 5.56143C15.6544 4.8498 14.8162 4.2887 13.8582 3.87815C12.9139 3.4539 11.8944 3.24178 10.7996 3.24178C9.70476 3.24178 8.68521 3.4539 7.74092 3.87815C6.78296 4.2887 5.94474 4.8498 5.22626 5.56143C4.50779 6.27306 3.94327 7.10786 3.53271 8.06583C3.12216 9.0238 2.91688 10.0433 2.91688 11.1245C2.91688 12.2193 3.12216 13.2457 3.53271 14.2037C3.94327 15.1616 4.50779 15.9964 5.22626 16.7081C5.94474 17.4197 6.78296 17.9808 7.74092 18.3913C8.68521 18.8019 9.70476 19.0072 10.7996 19.0072ZM13.5503 8.64061C13.6324 8.54481 13.7351 8.49691 13.8582 8.49691C13.9814 8.49691 14.084 8.54481 14.1661 8.64061C14.2619 8.72272 14.3098 8.82536 14.3098 8.94853C14.3098 9.0717 14.2619 9.17433 14.1661 9.25645L9.79371 13.6289C9.7116 13.711 9.60896 13.752 9.48579 13.752C9.36263 13.752 9.25999 13.711 9.17788 13.6289L7.43301 11.884C7.33721 11.8019 7.28931 11.6993 7.28931 11.5761C7.28931 11.4529 7.33721 11.3503 7.43301 11.2682C7.51512 11.1724 7.61776 11.1245 7.74092 11.1245C7.86409 11.1245 7.96673 11.1724 8.04884 11.2682L9.48579 12.7051L13.5503 8.64061Z" fill="white"/>
</svg>
