<svg xmlns="http://www.w3.org/2000/svg" width="22" height="22" viewBox="0 0 22 22" fill="none">
  <path d="M3.31738 5.43827C3.31738 4.83612 3.5295 4.3195 3.95375 3.88842C4.37799 3.45733 4.89803 3.24179 5.51386 3.24179H8.14143C8.74358 3.24179 9.25678 3.45733 9.68102 3.88842C10.1053 4.3195 10.3174 4.83612 10.3174 5.43827V8.06584C10.3174 8.66799 10.1053 9.18461 9.68102 9.61569C9.25678 10.0468 8.74358 10.2623 8.14143 10.2623H5.51386C4.89803 10.2623 4.37799 10.0468 3.95375 9.61569C3.5295 9.18461 3.31738 8.66799 3.31738 8.06584V5.43827ZM4.20008 5.43827V8.06584C4.20008 8.43534 4.32667 8.74668 4.57985 8.99986C4.83302 9.25303 5.14436 9.37962 5.51386 9.37962H8.14143C8.49725 9.37962 8.80516 9.25303 9.06518 8.99986C9.3252 8.74668 9.45521 8.43534 9.45521 8.06584V5.43827C9.45521 5.06877 9.3252 4.75743 9.06518 4.50425C8.80516 4.25108 8.49725 4.12449 8.14143 4.12449H5.51386C5.14436 4.12449 4.83302 4.25108 4.57985 4.50425C4.32667 4.75743 4.20008 5.06877 4.20008 5.43827ZM12.0828 5.43827C12.0828 4.83612 12.2949 4.3195 12.7191 3.88842C13.1434 3.45733 13.6566 3.24179 14.2587 3.24179H16.8863C17.5021 3.24179 18.0222 3.45733 18.4464 3.88842C18.8707 4.3195 19.0828 4.83612 19.0828 5.43827V8.06584C19.0828 8.66799 18.8707 9.18461 18.4464 9.61569C18.0222 10.0468 17.5021 10.2623 16.8863 10.2623H14.2587C13.6566 10.2623 13.1434 10.0468 12.7191 9.61569C12.2949 9.18461 12.0828 8.66799 12.0828 8.06584V5.43827ZM12.9449 5.43827V8.06584C12.9449 8.43534 13.075 8.74668 13.335 8.99986C13.595 9.25303 13.9029 9.37962 14.2587 9.37962H16.8863C17.2558 9.37962 17.5671 9.25303 17.8203 8.99986C18.0735 8.74668 18.2001 8.43534 18.2001 8.06584V5.43827C18.2001 5.06877 18.0735 4.75743 17.8203 4.50425C17.5671 4.25108 17.2558 4.12449 16.8863 4.12449H14.2587C13.9029 4.12449 13.595 4.25108 13.335 4.50425C13.075 4.75743 12.9449 5.06877 12.9449 5.43827ZM3.31738 14.2037C3.31738 13.5878 3.5295 13.0678 3.95375 12.6436C4.37799 12.2193 4.89803 12.0072 5.51386 12.0072H8.14143C8.74358 12.0072 9.25678 12.2193 9.68102 12.6436C10.1053 13.0678 10.3174 13.5878 10.3174 14.2037V16.8312C10.3174 17.4334 10.1053 17.9466 9.68102 18.3708C9.25678 18.7951 8.74358 19.0072 8.14143 19.0072H5.51386C4.89803 19.0072 4.37799 18.7951 3.95375 18.3708C3.5295 17.9466 3.31738 17.4334 3.31738 16.8312V14.2037ZM4.20008 14.2037V16.8312C4.20008 17.187 4.32667 17.495 4.57985 17.755C4.83302 18.015 5.14436 18.145 5.51386 18.145H8.14143C8.49725 18.145 8.80516 18.015 9.06518 17.755C9.3252 17.495 9.45521 17.187 9.45521 16.8312V14.2037C9.45521 13.8342 9.3252 13.5228 9.06518 13.2696C8.80516 13.0165 8.49725 12.8899 8.14143 12.8899H5.51386C5.14436 12.8899 4.83302 13.0165 4.57985 13.2696C4.32667 13.5228 4.20008 13.8342 4.20008 14.2037ZM12.0828 14.2037C12.0828 13.5878 12.2949 13.0678 12.7191 12.6436C13.1434 12.2193 13.6566 12.0072 14.2587 12.0072H16.8863C17.5021 12.0072 18.0222 12.2193 18.4464 12.6436C18.8707 13.0678 19.0828 13.5878 19.0828 14.2037V16.8312C19.0828 17.4334 18.8707 17.9466 18.4464 18.3708C18.0222 18.7951 17.5021 19.0072 16.8863 19.0072H14.2587C13.6566 19.0072 13.1434 18.7951 12.7191 18.3708C12.2949 17.9466 12.0828 17.4334 12.0828 16.8312V14.2037ZM12.9449 14.2037V16.8312C12.9449 17.187 13.075 17.495 13.335 17.755C13.595 18.015 13.9029 18.145 14.2587 18.145H16.8863C17.2558 18.145 17.5671 18.015 17.8203 17.755C18.0735 17.495 18.2001 17.187 18.2001 16.8312V14.2037C18.2001 13.8342 18.0735 13.5228 17.8203 13.2696C17.5671 13.0165 17.2558 12.8899 16.8863 12.8899H14.2587C13.9029 12.8899 13.595 13.0165 13.335 13.2696C13.075 13.5228 12.9449 13.8342 12.9449 14.2037Z" fill="white"/>
</svg>
