<svg xmlns="http://www.w3.org/2000/svg"  width="22" height="22" viewBox="0 0 22 22" fill="none">
  <path d="M3.85608 16.2564C3.93819 16.2975 4.03056 16.3317 4.1332 16.3591C4.23584 16.3865 4.33506 16.4001 4.43086 16.4001H17.5687C17.6645 16.4001 17.7637 16.3865 17.8663 16.3591C17.969 16.3317 18.0614 16.2975 18.1435 16.2564L12.9704 11.3913L11.2872 12.7872C11.205 12.8557 11.1093 12.8899 10.9998 12.8899C10.8903 12.8899 10.7945 12.8557 10.7124 12.7872L9.0291 11.3913L3.85608 16.2564ZM3.24024 15.6406C3.24024 15.6406 3.24366 15.6406 3.2505 15.6406C3.25735 15.6406 3.26077 15.6338 3.26077 15.6201L8.35168 10.8371L3.2813 6.64941C3.26761 6.64941 3.26077 6.64599 3.26077 6.63915C3.26077 6.6323 3.25393 6.62888 3.24024 6.62888C3.19918 6.71099 3.16839 6.79995 3.14786 6.89574C3.12734 6.99154 3.11707 7.08734 3.11707 7.18313V15.0864C3.11707 15.1822 3.12734 15.278 3.14786 15.3738C3.16839 15.4695 3.19918 15.5585 3.24024 15.6406ZM18.7593 15.6406C18.8004 15.5585 18.8312 15.4695 18.8517 15.3738C18.8722 15.278 18.8825 15.1822 18.8825 15.0864V7.18313C18.8825 7.08734 18.8722 6.99154 18.8517 6.89574C18.8312 6.79995 18.8004 6.71099 18.7593 6.62888C18.7456 6.62888 18.7388 6.6323 18.7388 6.63915C18.7388 6.64599 18.7319 6.64941 18.7182 6.64941L13.6479 10.8371L18.7388 15.6201C18.7388 15.6338 18.7422 15.6406 18.749 15.6406C18.7559 15.6406 18.7593 15.6406 18.7593 15.6406ZM18.1229 6.01305C18.0408 5.97199 17.9519 5.93778 17.8561 5.91041C17.7603 5.88304 17.6645 5.86935 17.5687 5.86935H4.43086C4.33506 5.86935 4.23926 5.88304 4.14347 5.91041C4.04767 5.93778 3.95872 5.97199 3.8766 6.01305L10.9998 11.884L18.1229 6.01305ZM4.43086 5.00718H17.5687C18.1708 5.00718 18.6875 5.2193 19.1185 5.64355C19.5496 6.06779 19.7652 6.58098 19.7652 7.18313V15.0864C19.7652 15.6885 19.5496 16.2017 19.1185 16.626C18.6875 17.0502 18.1708 17.2623 17.5687 17.2623H4.43086C3.82871 17.2623 3.31209 17.0502 2.881 16.626C2.44992 16.2017 2.23438 15.6885 2.23438 15.0864V7.18313C2.23438 6.58098 2.44992 6.06779 2.881 5.64355C3.31209 5.2193 3.82871 5.00718 4.43086 5.00718Z" fill="white"/>
</svg>
