<svg xmlns="http://www.w3.org/2000/svg" width="23" height="22" viewBox="0 0 23 22" fill="none">
  <path d="M13.8833 17.2623C13.6917 17.7824 13.3701 18.2032 12.9185 18.5248C12.4669 18.8464 11.9606 19.0072 11.3995 19.0072C10.8384 19.0072 10.332 18.8464 9.88041 18.5248C9.42879 18.2032 9.10719 17.7824 8.9156 17.2623H7.5197C6.91755 17.2623 6.40436 17.0502 5.98011 16.626C5.55587 16.2017 5.34375 15.6817 5.34375 15.0658C5.34375 14.9153 5.35744 14.7648 5.38481 14.6142C5.41218 14.4637 5.46007 14.32 5.5285 14.1831L6.14434 12.7872V10.2623C6.14434 9.68754 6.23329 9.14013 6.4112 8.62009C6.57542 8.10005 6.81491 7.62449 7.12967 7.1934C7.44443 6.76232 7.81394 6.38255 8.23818 6.05411C8.66242 5.72566 9.13456 5.47248 9.6546 5.29458V5.00719C9.6546 4.51452 9.82567 4.09712 10.1678 3.75499C10.5099 3.41286 10.9205 3.24179 11.3995 3.24179C11.8785 3.24179 12.289 3.41286 12.6311 3.75499C12.9733 4.09712 13.1443 4.51452 13.1443 5.00719V5.29458C13.6644 5.47248 14.1365 5.72566 14.5608 6.05411C14.985 6.38255 15.3545 6.76232 15.6693 7.1934C15.984 7.62449 16.2235 8.10005 16.3877 8.62009C16.5656 9.14013 16.6546 9.68754 16.6546 10.2623V12.7872L17.2704 14.1831C17.5168 14.7305 17.5305 15.2882 17.3115 15.8562C17.0925 16.4241 16.7093 16.8312 16.1619 17.0776C16.0251 17.1323 15.8814 17.1768 15.7308 17.211C15.5803 17.2452 15.4298 17.2623 15.2792 17.2623H13.8833ZM12.9185 17.2623H9.88041C10.0309 17.5223 10.2431 17.7345 10.5168 17.8987C10.7905 18.0629 11.0847 18.145 11.3995 18.145C11.7142 18.145 12.0085 18.0629 12.2822 17.8987C12.5559 17.7345 12.768 17.5223 12.9185 17.2623ZM12.2822 5.06877V5.00719C12.2822 4.76085 12.1966 4.55215 12.0256 4.38109C11.8545 4.21002 11.6458 4.12449 11.3995 4.12449C11.1531 4.12449 10.9444 4.21002 10.7734 4.38109C10.6023 4.55215 10.5168 4.76085 10.5168 5.00719V5.06877C10.6673 5.0414 10.8144 5.02429 10.9581 5.01745C11.1018 5.01061 11.2489 5.00719 11.3995 5.00719C11.55 5.00719 11.6971 5.01061 11.8408 5.01745C11.9845 5.02429 12.1316 5.0414 12.2822 5.06877ZM11.3995 5.86936C10.7973 5.86936 10.2294 5.98568 9.69566 6.21833C9.16193 6.45098 8.69663 6.76574 8.29976 7.16261C7.90289 7.55948 7.58813 8.02478 7.35548 8.55851C7.13652 9.07855 7.02703 9.64648 7.02703 10.2623V12.8899L6.98598 13.0541L6.32909 14.5321C6.28803 14.6142 6.25724 14.7032 6.23671 14.799C6.21618 14.8948 6.20592 14.9837 6.20592 15.0658C6.20592 15.4353 6.33593 15.7467 6.59595 15.9999C6.85597 16.253 7.16389 16.3796 7.5197 16.3796H15.2792C15.3613 16.3796 15.4503 16.3728 15.5461 16.3591C15.6419 16.3454 15.7308 16.318 15.813 16.277C16.1414 16.1264 16.3706 15.8835 16.5006 15.5482C16.6307 15.213 16.6204 14.8742 16.4699 14.5321L15.813 13.0541L15.7719 12.8899V10.2623C15.7719 9.64648 15.6624 9.07855 15.4435 8.55851C15.2108 8.02478 14.896 7.55948 14.4992 7.16261C14.1023 6.76574 13.637 6.45098 13.1033 6.21833C12.5696 5.98568 12.0016 5.86936 11.3995 5.86936Z" fill="white"/>
</svg>
