<svg xmlns="http://www.w3.org/2000/svg" width="23" height="22" viewBox="0 0 23 22" fill="none">
  <path d="M11.1688 5.00719C11.0456 5.00719 10.9395 5.04824 10.8506 5.13036C10.7616 5.21247 10.7172 5.31511 10.7172 5.43827V6.32097C10.7172 6.44414 10.7616 6.54678 10.8506 6.62889C10.9395 6.711 11.0456 6.75206 11.1688 6.75206H12.0309C12.1541 6.75206 12.2602 6.711 12.3491 6.62889C12.4381 6.54678 12.4825 6.44414 12.4825 6.32097V5.43827C12.4825 5.31511 12.4381 5.21247 12.3491 5.13036C12.2602 5.04824 12.1541 5.00719 12.0309 5.00719H11.1688ZM11.1688 4.12449H12.0309C12.4004 4.12449 12.7118 4.25108 12.965 4.50426C13.2181 4.75743 13.3447 5.06877 13.3447 5.43827V6.32097C13.3447 6.67679 13.2181 6.98471 12.965 7.24473C12.7118 7.50475 12.4004 7.63476 12.0309 7.63476H11.1688C10.7993 7.63476 10.4879 7.50475 10.2347 7.24473C9.98157 6.98471 9.85498 6.67679 9.85498 6.32097V5.43827C9.85498 5.06877 9.98157 4.75743 10.2347 4.50426C10.4879 4.25108 10.7993 4.12449 11.1688 4.12449ZM11.1688 10.2623C11.0456 10.2623 10.9395 10.3034 10.8506 10.3855C10.7616 10.4676 10.7172 10.5702 10.7172 10.6934V11.5761C10.7172 11.6993 10.7616 11.8019 10.8506 11.884C10.9395 11.9661 11.0456 12.0072 11.1688 12.0072H12.0309C12.1541 12.0072 12.2602 11.9661 12.3491 11.884C12.4381 11.8019 12.4825 11.6993 12.4825 11.5761V10.6934C12.4825 10.5702 12.4381 10.4676 12.3491 10.3855C12.2602 10.3034 12.1541 10.2623 12.0309 10.2623H11.1688ZM11.1688 9.37962H12.0309C12.4004 9.37962 12.7118 9.50621 12.965 9.75939C13.2181 10.0126 13.3447 10.3239 13.3447 10.6934V11.5761C13.3447 11.9319 13.2181 12.2398 12.965 12.4999C12.7118 12.7599 12.4004 12.8899 12.0309 12.8899H11.1688C10.7993 12.8899 10.4879 12.7599 10.2347 12.4999C9.98157 12.2398 9.85498 11.9319 9.85498 11.5761V10.6934C9.85498 10.3239 9.98157 10.0126 10.2347 9.75939C10.4879 9.50621 10.7993 9.37962 11.1688 9.37962ZM11.1688 15.5175C11.0456 15.5175 10.9395 15.5585 10.8506 15.6406C10.7616 15.7227 10.7172 15.8254 10.7172 15.9485V16.8312C10.7172 16.9544 10.7616 17.057 10.8506 17.1392C10.9395 17.2213 11.0456 17.2623 11.1688 17.2623H12.0309C12.1541 17.2623 12.2602 17.2213 12.3491 17.1392C12.4381 17.057 12.4825 16.9544 12.4825 16.8312V15.9485C12.4825 15.8254 12.4381 15.7227 12.3491 15.6406C12.2602 15.5585 12.1541 15.5175 12.0309 15.5175H11.1688ZM11.1688 14.6348H12.0309C12.4004 14.6348 12.7118 14.7613 12.965 15.0145C13.2181 15.2677 13.3447 15.579 13.3447 15.9485V16.8312C13.3447 17.1871 13.2181 17.495 12.965 17.755C12.7118 18.015 12.4004 18.145 12.0309 18.145H11.1688C10.7993 18.145 10.4879 18.015 10.2347 17.755C9.98157 17.495 9.85498 17.1871 9.85498 16.8312V15.9485C9.85498 15.579 9.98157 15.2677 10.2347 15.0145C10.4879 14.7613 10.7993 14.6348 11.1688 14.6348Z" fill="white"/>
</svg>
