<svg width="279" height="96" viewBox="0 0 279 96" fill="none" xmlns="http://www.w3.org/2000/svg">
<g filter="url(#filter0_d_71_151)">
<path d="M247.034 69.32C253.354 69.32 256.554 65.32 256.554 57.32C256.554 49.32 253.354 45.4 247.034 45.4C240.714 45.4 237.514 49.32 237.514 57.32C237.514 65.32 240.714 69.32 247.034 69.32ZM247.034 78.04C234.314 78.04 226.794 69.56 226.794 57.32C226.794 44.84 234.554 36.6 247.034 36.6C259.354 36.6 267.034 44.76 267.034 57.32C267.034 69.8 259.274 78.04 247.034 78.04Z" fill="white"/>
<path d="M208.608 62.04L208.688 57.72C207.648 58.76 205.808 59.32 201.968 60.04C196.048 61.16 194.128 62.84 194.128 66.2C194.128 69.16 195.888 70.6 199.168 70.6C204.528 70.6 208.528 66.68 208.608 62.04ZM219.088 77H209.408C209.088 76.04 208.848 74.68 208.768 73.48C206.288 76.2 202.128 78.04 196.848 78.04C187.888 78.04 183.728 73.64 183.728 67.24C183.728 55.88 191.328 54.6 201.808 53.16C207.008 52.44 208.448 51.4 208.448 48.68C208.448 46.12 205.888 44.6 201.808 44.6C197.088 44.6 195.168 46.92 194.688 50.44H185.008C185.168 42.28 189.648 36.6 202.288 36.6C214.768 36.6 219.088 42.2 219.088 52.12V77ZM210.048 20.92L216.048 23.08C214.288 28.84 210.768 30.92 207.328 30.92C203.248 30.92 200.528 27.32 197.088 27.32C196.448 27.32 194.928 27.88 193.968 30.84L188.448 27.88C190.128 22.68 192.928 20.84 196.208 20.84C201.088 20.84 203.808 24.68 206.848 24.68C207.808 24.68 209.568 23.72 210.048 20.92Z" fill="white"/>
<path d="M166.838 61.32V51.08H176.518V62.28C176.518 70.6 171.718 78.04 160.598 78.04C149.078 78.04 144.518 70.68 144.518 62.2V27H154.758V37.64H176.518V45H154.758V61.16C154.758 66.12 156.518 69 160.758 69C164.918 69 166.838 66.2 166.838 61.32Z" fill="white"/>
<path d="M136.932 49.56H126.932C126.372 45.72 124.292 44.36 119.572 44.36C115.652 44.36 113.412 45.32 113.412 47.64C113.412 49.96 115.572 50.92 119.812 52.12C124.292 53.4 128.532 54.28 131.572 55.48C135.732 57.16 138.052 59.88 138.052 65C138.052 73.16 132.052 78.04 120.852 78.04C108.772 78.04 102.052 72.36 101.892 64.36H112.612C112.612 68.04 115.732 70.2 120.772 70.2C124.452 70.2 127.732 69.08 127.732 66.12C127.732 63.32 124.772 62.44 121.412 61.64C114.772 60.04 111.092 58.92 108.292 57.16C104.612 54.84 103.332 51.8 103.332 48.28C103.332 41.64 107.892 36.6 119.892 36.6C131.252 36.6 136.372 41.08 136.932 49.56Z" fill="white"/>
<path d="M68.8577 53.48H84.9377C84.7777 47.64 80.9377 44.84 76.8577 44.84C72.6977 44.84 69.2577 48.04 68.8577 53.48ZM95.6577 60.04H68.5377C68.8577 65.96 72.2177 69.8 77.3377 69.8C80.6977 69.8 83.6577 68.12 84.3777 65.4H95.0977C92.6977 73.48 86.2177 78.04 77.8177 78.04C64.6977 78.04 58.1377 70.84 58.1377 56.6C58.1377 44.44 65.0977 36.6 77.1777 36.6C89.2577 36.6 95.6577 44.44 95.6577 60.04Z" fill="white"/>
<path d="M50.9214 77H41.7214L41.4814 71.72C38.9214 76.2 32.8414 78.84 25.5614 78.84C10.8414 78.84 1.48145 65.16 1.48145 50.36C1.48145 34.68 10.4414 22.12 27.6414 22.12C40.2814 22.12 50.0414 29.64 50.8414 40.28H39.6414C39.0814 35.32 33.7214 31.32 27.6414 31.32C18.7614 31.32 12.8414 38.2 12.8414 50.84C12.8414 59.56 17.2414 69.48 27.5614 69.48C34.8414 69.48 40.5214 63.96 40.5214 57.32H28.7614V48.44H50.9214V77Z" fill="white"/>
</g>
<defs>
<filter id="filter0_d_71_151" x="0.481445" y="19.84" width="277.553" height="69.9999" filterUnits="userSpaceOnUse" color-interpolation-filters="sRGB">
<feFlood flood-opacity="0" result="BackgroundImageFix"/>
<feColorMatrix in="SourceAlpha" type="matrix" values="0 0 0 0 0 0 0 0 0 0 0 0 0 0 0 0 0 0 127 0" result="hardAlpha"/>
<feOffset dx="5" dy="5"/>
<feGaussianBlur stdDeviation="3"/>
<feComposite in2="hardAlpha" operator="out"/>
<feColorMatrix type="matrix" values="0 0 0 0 0 0 0 0 0 0 0 0 0 0 0 0 0 0 0.15 0"/>
<feBlend mode="normal" in2="BackgroundImageFix" result="effect1_dropShadow_71_151"/>
<feBlend mode="normal" in="SourceGraphic" in2="effect1_dropShadow_71_151" result="shape"/>
</filter>
</defs>
</svg>
