<svg width="2166" height="1117" viewBox="0 0 2166 1117" fill="none" xmlns="http://www.w3.org/2000/svg">
<g clip-path="url(#clip0_401_2)">
<rect width="2166" height="1117" fill="white"/>
<rect width="2166" height="1117" fill="url(#paint0_linear_401_2)"/>
<path d="M61.2347 53.5455V79H57.3817V57.3984H57.2326L51.1424 61.3757V57.6967L57.4936 53.5455H61.2347ZM80.5071 79.348C79.3719 79.3314 78.2533 79.1243 77.1513 78.7266C76.0575 78.3288 75.0632 77.666 74.1683 76.7379C73.2734 75.8099 72.5567 74.5629 72.0181 72.9968C71.4878 71.4308 71.2227 69.4753 71.2227 67.1303C71.2227 64.9097 71.4422 62.9376 71.8814 61.2141C72.3288 59.4906 72.971 58.0365 73.8079 56.8516C74.6448 55.6584 75.6557 54.7511 76.8406 54.1296C78.0255 53.5082 79.3554 53.1974 80.8303 53.1974C82.3466 53.1974 83.6931 53.4957 84.8697 54.0923C86.0463 54.6889 86.9992 55.5134 87.7283 56.5657C88.4658 57.618 88.9339 58.8153 89.1328 60.1577H85.342C85.0851 59.0971 84.5755 58.2312 83.8132 57.56C83.0509 56.8888 82.0566 56.5533 80.8303 56.5533C78.9659 56.5533 77.5117 57.3653 76.4677 58.9893C75.4319 60.6134 74.9099 62.8713 74.9016 65.7631H75.0881C75.5272 65.0423 76.0658 64.4291 76.7038 63.9237C77.3501 63.4099 78.071 63.0163 78.8665 62.7429C79.6702 62.4612 80.5154 62.3203 81.402 62.3203C82.8769 62.3203 84.2109 62.6808 85.4041 63.4016C86.6056 64.1142 87.5626 65.1003 88.2752 66.3597C88.9878 67.6192 89.3441 69.061 89.3441 70.685C89.3441 72.3091 88.9754 73.7798 88.2379 75.0973C87.5088 76.4148 86.4813 77.4588 85.1555 78.2294C83.8298 78.9917 82.2803 79.3646 80.5071 79.348ZM80.4947 76.1165C81.4724 76.1165 82.3466 75.8762 83.1172 75.3956C83.8878 74.915 84.4968 74.2687 84.9442 73.4567C85.3917 72.6446 85.6154 71.7373 85.6154 70.7347C85.6154 69.757 85.3958 68.8662 84.9567 68.0625C84.5258 67.2588 83.9292 66.6207 83.1669 66.1484C82.4129 65.6761 81.5511 65.44 80.5817 65.44C79.8442 65.44 79.1606 65.5808 78.5309 65.8626C77.9094 66.1443 77.3626 66.5337 76.8903 67.0309C76.418 67.5281 76.0451 68.0998 75.7717 68.7461C75.5065 69.3841 75.3739 70.0594 75.3739 70.772C75.3739 71.7249 75.5935 72.6074 76.0327 73.4194C76.4801 74.2314 77.0891 74.886 77.8597 75.3832C78.6386 75.872 79.5169 76.1165 80.4947 76.1165ZM106.233 79.4226C104.269 79.4143 102.592 78.8964 101.199 77.869C99.8074 76.8415 98.7427 75.3459 98.0052 73.3821C97.2678 71.4183 96.8991 69.0527 96.8991 66.2852C96.8991 63.5259 97.2678 61.1686 98.0052 59.2131C98.751 57.2576 99.8199 55.7661 101.212 54.7386C102.612 53.7112 104.286 53.1974 106.233 53.1974C108.18 53.1974 109.85 53.7153 111.242 54.7511C112.634 55.7785 113.699 57.27 114.436 59.2255C115.182 61.1727 115.555 63.5259 115.555 66.2852C115.555 69.061 115.186 71.4308 114.449 73.3945C113.711 75.35 112.647 76.8456 111.255 77.8814C109.862 78.9089 108.189 79.4226 106.233 79.4226ZM106.233 76.104C107.957 76.104 109.303 75.263 110.273 73.581C111.25 71.8989 111.739 69.467 111.739 66.2852C111.739 64.1722 111.516 62.3866 111.068 60.9283C110.629 59.4616 109.995 58.3513 109.166 57.5973C108.346 56.835 107.368 56.4538 106.233 56.4538C104.518 56.4538 103.172 57.299 102.194 58.9893C101.216 60.6797 100.723 63.1116 100.715 66.2852C100.715 68.4064 100.934 70.2003 101.373 71.6669C101.821 73.1252 102.455 74.2314 103.275 74.9854C104.095 75.7312 105.081 76.104 106.233 76.104ZM136.751 74.2273V72.8849C136.751 71.9238 136.95 71.0455 137.347 70.25C137.753 69.4463 138.342 68.8041 139.112 68.3235C139.891 67.8346 140.832 67.5902 141.934 67.5902C143.06 67.5902 144.005 67.8305 144.767 68.3111C145.53 68.7917 146.106 69.4338 146.495 70.2376C146.893 71.0413 147.092 71.9238 147.092 72.8849V74.2273C147.092 75.1884 146.893 76.0709 146.495 76.8746C146.097 77.6701 145.513 78.3123 144.743 78.8011C143.98 79.2817 143.044 79.522 141.934 79.522C140.815 79.522 139.87 79.2817 139.1 78.8011C138.329 78.3123 137.745 77.6701 137.347 76.8746C136.95 76.0709 136.751 75.1884 136.751 74.2273ZM139.647 72.8849V74.2273C139.647 74.9399 139.817 75.5862 140.156 76.1662C140.496 76.7462 141.088 77.0362 141.934 77.0362C142.77 77.0362 143.355 76.7462 143.686 76.1662C144.018 75.5862 144.183 74.9399 144.183 74.2273V72.8849C144.183 72.1723 144.022 71.526 143.699 70.946C143.384 70.366 142.795 70.076 141.934 70.076C141.105 70.076 140.517 70.366 140.169 70.946C139.821 71.526 139.647 72.1723 139.647 72.8849ZM123.949 59.6605V58.3182C123.949 57.357 124.148 56.4745 124.545 55.6708C124.951 54.8671 125.54 54.2249 126.31 53.7443C127.089 53.2637 128.03 53.0234 129.132 53.0234C130.259 53.0234 131.203 53.2637 131.966 53.7443C132.728 54.2249 133.304 54.8671 133.693 55.6708C134.083 56.4745 134.277 57.357 134.277 58.3182V59.6605C134.277 60.6217 134.078 61.5041 133.681 62.3079C133.291 63.1033 132.711 63.7455 131.941 64.2344C131.178 64.715 130.242 64.9553 129.132 64.9553C128.005 64.9553 127.056 64.715 126.286 64.2344C125.523 63.7455 124.943 63.1033 124.545 62.3079C124.148 61.5041 123.949 60.6217 123.949 59.6605ZM126.857 58.3182V59.6605C126.857 60.3731 127.023 61.0194 127.354 61.5994C127.694 62.1795 128.287 62.4695 129.132 62.4695C129.96 62.4695 130.54 62.1795 130.872 61.5994C131.212 61.0194 131.381 60.3731 131.381 59.6605V58.3182C131.381 57.6056 131.22 56.9593 130.897 56.3793C130.574 55.7992 129.985 55.5092 129.132 55.5092C128.303 55.5092 127.715 55.7992 127.367 56.3793C127.027 56.9593 126.857 57.6056 126.857 58.3182ZM125.13 79L142.63 53.5455H145.6L128.1 79H125.13Z" fill="white"/>
<path d="M60.5853 167.545V193H56.7323V171.398H56.5832L50.493 175.376V171.697L56.8442 167.545H60.5853ZM70.4365 188.028V184.921L81.4362 167.545H83.8847V172.119H82.3311L74.4635 184.573V184.772H89.5399V188.028H70.4365ZM82.5051 193V187.084L82.5299 185.667V167.545H86.1716V193H82.5051ZM106.233 193.423C104.269 193.414 102.592 192.896 101.199 191.869C99.8074 190.842 98.7427 189.346 98.0052 187.382C97.2678 185.418 96.8991 183.053 96.8991 180.285C96.8991 177.526 97.2678 175.169 98.0052 173.213C98.751 171.258 99.8199 169.766 101.212 168.739C102.612 167.711 104.286 167.197 106.233 167.197C108.18 167.197 109.85 167.715 111.242 168.751C112.634 169.779 113.699 171.27 114.436 173.225C115.182 175.173 115.555 177.526 115.555 180.285C115.555 183.061 115.186 185.431 114.449 187.395C113.711 189.35 112.647 190.846 111.255 191.881C109.862 192.909 108.189 193.423 106.233 193.423ZM106.233 190.104C107.957 190.104 109.303 189.263 110.273 187.581C111.25 185.899 111.739 183.467 111.739 180.285C111.739 178.172 111.516 176.387 111.068 174.928C110.629 173.462 109.995 172.351 109.166 171.597C108.346 170.835 107.368 170.454 106.233 170.454C104.518 170.454 103.172 171.299 102.194 172.989C101.216 174.68 100.723 177.112 100.715 180.285C100.715 182.406 100.934 184.2 101.373 185.667C101.821 187.125 102.455 188.231 103.275 188.985C104.095 189.731 105.081 190.104 106.233 190.104ZM136.751 188.227V186.885C136.751 185.924 136.95 185.045 137.347 184.25C137.753 183.446 138.342 182.804 139.112 182.324C139.891 181.835 140.832 181.59 141.934 181.59C143.06 181.59 144.005 181.83 144.767 182.311C145.53 182.792 146.106 183.434 146.495 184.238C146.893 185.041 147.092 185.924 147.092 186.885V188.227C147.092 189.188 146.893 190.071 146.495 190.875C146.097 191.67 145.513 192.312 144.743 192.801C143.98 193.282 143.044 193.522 141.934 193.522C140.815 193.522 139.87 193.282 139.1 192.801C138.329 192.312 137.745 191.67 137.347 190.875C136.95 190.071 136.751 189.188 136.751 188.227ZM139.647 186.885V188.227C139.647 188.94 139.817 189.586 140.156 190.166C140.496 190.746 141.088 191.036 141.934 191.036C142.77 191.036 143.355 190.746 143.686 190.166C144.018 189.586 144.183 188.94 144.183 188.227V186.885C144.183 186.172 144.022 185.526 143.699 184.946C143.384 184.366 142.795 184.076 141.934 184.076C141.105 184.076 140.517 184.366 140.169 184.946C139.821 185.526 139.647 186.172 139.647 186.885ZM123.949 173.661V172.318C123.949 171.357 124.148 170.475 124.545 169.671C124.951 168.867 125.54 168.225 126.31 167.744C127.089 167.264 128.03 167.023 129.132 167.023C130.259 167.023 131.203 167.264 131.966 167.744C132.728 168.225 133.304 168.867 133.693 169.671C134.083 170.475 134.277 171.357 134.277 172.318V173.661C134.277 174.622 134.078 175.504 133.681 176.308C133.291 177.103 132.711 177.746 131.941 178.234C131.178 178.715 130.242 178.955 129.132 178.955C128.005 178.955 127.056 178.715 126.286 178.234C125.523 177.746 124.943 177.103 124.545 176.308C124.148 175.504 123.949 174.622 123.949 173.661ZM126.857 172.318V173.661C126.857 174.373 127.023 175.019 127.354 175.599C127.694 176.179 128.287 176.469 129.132 176.469C129.96 176.469 130.54 176.179 130.872 175.599C131.212 175.019 131.381 174.373 131.381 173.661V172.318C131.381 171.606 131.22 170.959 130.897 170.379C130.574 169.799 129.985 169.509 129.132 169.509C128.303 169.509 127.715 169.799 127.367 170.379C127.027 170.959 126.857 171.606 126.857 172.318ZM125.13 193L142.63 167.545H145.6L128.1 193H125.13Z" fill="white"/>
<path d="M62.0209 281.545V307H58.1679V285.398H58.0187L51.9285 289.376V285.697L58.2797 281.545H62.0209ZM72.4065 307V304.216L81.0198 295.292C81.9395 294.322 82.6977 293.473 83.2943 292.744C83.8992 292.007 84.3508 291.306 84.6491 290.643C84.9474 289.981 85.0965 289.276 85.0965 288.531C85.0965 287.685 84.8976 286.956 84.4999 286.343C84.1022 285.722 83.5595 285.245 82.8717 284.914C82.184 284.574 81.4092 284.404 80.5475 284.404C79.636 284.404 78.8406 284.591 78.1611 284.963C77.4817 285.336 76.9597 285.862 76.5951 286.542C76.2305 287.221 76.0482 288.017 76.0482 288.928H72.3817C72.3817 287.379 72.738 286.024 73.4506 284.864C74.1631 283.704 75.1409 282.805 76.3838 282.167C77.6267 281.521 79.0394 281.197 80.6221 281.197C82.2213 281.197 83.6299 281.516 84.8479 282.154C86.0742 282.784 87.0313 283.646 87.719 284.74C88.4068 285.825 88.7506 287.051 88.7506 288.419C88.7506 289.363 88.5725 290.287 88.2162 291.19C87.8682 292.094 87.2591 293.1 86.3891 294.211C85.5191 295.313 84.3093 296.651 82.7599 298.225L77.7013 303.52V303.706H89.1608V307H72.4065ZM106.233 307.423C104.269 307.414 102.592 306.896 101.199 305.869C99.8074 304.842 98.7427 303.346 98.0052 301.382C97.2678 299.418 96.8991 297.053 96.8991 294.285C96.8991 291.526 97.2678 289.169 98.0052 287.213C98.751 285.258 99.8199 283.766 101.212 282.739C102.612 281.711 104.286 281.197 106.233 281.197C108.18 281.197 109.85 281.715 111.242 282.751C112.634 283.779 113.699 285.27 114.436 287.225C115.182 289.173 115.555 291.526 115.555 294.285C115.555 297.061 115.186 299.431 114.449 301.395C113.711 303.35 112.647 304.846 111.255 305.881C109.862 306.909 108.189 307.423 106.233 307.423ZM106.233 304.104C107.957 304.104 109.303 303.263 110.273 301.581C111.25 299.899 111.739 297.467 111.739 294.285C111.739 292.172 111.516 290.387 111.068 288.928C110.629 287.462 109.995 286.351 109.166 285.597C108.346 284.835 107.368 284.454 106.233 284.454C104.518 284.454 103.172 285.299 102.194 286.989C101.216 288.68 100.723 291.112 100.715 294.285C100.715 296.406 100.934 298.2 101.373 299.667C101.821 301.125 102.455 302.231 103.275 302.985C104.095 303.731 105.081 304.104 106.233 304.104ZM136.751 302.227V300.885C136.751 299.924 136.95 299.045 137.347 298.25C137.753 297.446 138.342 296.804 139.112 296.324C139.891 295.835 140.832 295.59 141.934 295.59C143.06 295.59 144.005 295.83 144.767 296.311C145.53 296.792 146.106 297.434 146.495 298.238C146.893 299.041 147.092 299.924 147.092 300.885V302.227C147.092 303.188 146.893 304.071 146.495 304.875C146.097 305.67 145.513 306.312 144.743 306.801C143.98 307.282 143.044 307.522 141.934 307.522C140.815 307.522 139.87 307.282 139.1 306.801C138.329 306.312 137.745 305.67 137.347 304.875C136.95 304.071 136.751 303.188 136.751 302.227ZM139.647 300.885V302.227C139.647 302.94 139.817 303.586 140.156 304.166C140.496 304.746 141.088 305.036 141.934 305.036C142.77 305.036 143.355 304.746 143.686 304.166C144.018 303.586 144.183 302.94 144.183 302.227V300.885C144.183 300.172 144.022 299.526 143.699 298.946C143.384 298.366 142.795 298.076 141.934 298.076C141.105 298.076 140.517 298.366 140.169 298.946C139.821 299.526 139.647 300.172 139.647 300.885ZM123.949 287.661V286.318C123.949 285.357 124.148 284.475 124.545 283.671C124.951 282.867 125.54 282.225 126.31 281.744C127.089 281.264 128.03 281.023 129.132 281.023C130.259 281.023 131.203 281.264 131.966 281.744C132.728 282.225 133.304 282.867 133.693 283.671C134.083 284.475 134.277 285.357 134.277 286.318V287.661C134.277 288.622 134.078 289.504 133.681 290.308C133.291 291.103 132.711 291.746 131.941 292.234C131.178 292.715 130.242 292.955 129.132 292.955C128.005 292.955 127.056 292.715 126.286 292.234C125.523 291.746 124.943 291.103 124.545 290.308C124.148 289.504 123.949 288.622 123.949 287.661ZM126.857 286.318V287.661C126.857 288.373 127.023 289.019 127.354 289.599C127.694 290.179 128.287 290.469 129.132 290.469C129.96 290.469 130.54 290.179 130.872 289.599C131.212 289.019 131.381 288.373 131.381 287.661V286.318C131.381 285.606 131.22 284.959 130.897 284.379C130.574 283.799 129.985 283.509 129.132 283.509C128.303 283.509 127.715 283.799 127.367 284.379C127.027 284.959 126.857 285.606 126.857 286.318ZM125.13 307L142.63 281.545H145.6L128.1 307H125.13Z" fill="white"/>
<path d="M60.8929 395.545V421H57.04V399.398H56.8908L50.8006 403.376V399.697L57.1518 395.545H60.8929ZM80.1404 421.423C78.1767 421.414 76.4988 420.896 75.1067 419.869C73.7147 418.842 72.6499 417.346 71.9125 415.382C71.175 413.418 70.8063 411.053 70.8063 408.285C70.8063 405.526 71.175 403.169 71.9125 401.213C72.6582 399.258 73.7271 397.766 75.1191 396.739C76.5195 395.711 78.1932 395.197 80.1404 395.197C82.0877 395.197 83.7573 395.715 85.1493 396.751C86.5414 397.779 87.6061 399.27 88.3436 401.225C89.0893 403.173 89.4622 405.526 89.4622 408.285C89.4622 411.061 89.0935 413.431 88.356 415.395C87.6185 417.35 86.5538 418.846 85.1618 419.881C83.7697 420.909 82.0959 421.423 80.1404 421.423ZM80.1404 418.104C81.8639 418.104 83.2104 417.263 84.1799 415.581C85.1576 413.899 85.6465 411.467 85.6465 408.285C85.6465 406.172 85.4228 404.387 84.9753 402.928C84.5362 401.462 83.9023 400.351 83.0737 399.597C82.2534 398.835 81.2756 398.454 80.1404 398.454C78.4252 398.454 77.0788 399.299 76.101 400.989C75.1233 402.68 74.6303 405.112 74.622 408.285C74.622 410.406 74.8416 412.2 75.2807 413.667C75.7282 415.125 76.362 416.231 77.1824 416.985C78.0027 417.731 78.9887 418.104 80.1404 418.104ZM106.233 421.423C104.269 421.414 102.592 420.896 101.199 419.869C99.8074 418.842 98.7427 417.346 98.0052 415.382C97.2678 413.418 96.8991 411.053 96.8991 408.285C96.8991 405.526 97.2678 403.169 98.0052 401.213C98.751 399.258 99.8199 397.766 101.212 396.739C102.612 395.711 104.286 395.197 106.233 395.197C108.18 395.197 109.85 395.715 111.242 396.751C112.634 397.779 113.699 399.27 114.436 401.225C115.182 403.173 115.555 405.526 115.555 408.285C115.555 411.061 115.186 413.431 114.449 415.395C113.711 417.35 112.647 418.846 111.255 419.881C109.862 420.909 108.189 421.423 106.233 421.423ZM106.233 418.104C107.957 418.104 109.303 417.263 110.273 415.581C111.25 413.899 111.739 411.467 111.739 408.285C111.739 406.172 111.516 404.387 111.068 402.928C110.629 401.462 109.995 400.351 109.166 399.597C108.346 398.835 107.368 398.454 106.233 398.454C104.518 398.454 103.172 399.299 102.194 400.989C101.216 402.68 100.723 405.112 100.715 408.285C100.715 410.406 100.934 412.2 101.373 413.667C101.821 415.125 102.455 416.231 103.275 416.985C104.095 417.731 105.081 418.104 106.233 418.104ZM136.751 416.227V414.885C136.751 413.924 136.95 413.045 137.347 412.25C137.753 411.446 138.342 410.804 139.112 410.324C139.891 409.835 140.832 409.59 141.934 409.59C143.06 409.59 144.005 409.83 144.767 410.311C145.53 410.792 146.106 411.434 146.495 412.238C146.893 413.041 147.092 413.924 147.092 414.885V416.227C147.092 417.188 146.893 418.071 146.495 418.875C146.097 419.67 145.513 420.312 144.743 420.801C143.98 421.282 143.044 421.522 141.934 421.522C140.815 421.522 139.87 421.282 139.1 420.801C138.329 420.312 137.745 419.67 137.347 418.875C136.95 418.071 136.751 417.188 136.751 416.227ZM139.647 414.885V416.227C139.647 416.94 139.817 417.586 140.156 418.166C140.496 418.746 141.088 419.036 141.934 419.036C142.77 419.036 143.355 418.746 143.686 418.166C144.018 417.586 144.183 416.94 144.183 416.227V414.885C144.183 414.172 144.022 413.526 143.699 412.946C143.384 412.366 142.795 412.076 141.934 412.076C141.105 412.076 140.517 412.366 140.169 412.946C139.821 413.526 139.647 414.172 139.647 414.885ZM123.949 401.661V400.318C123.949 399.357 124.148 398.475 124.545 397.671C124.951 396.867 125.54 396.225 126.31 395.744C127.089 395.264 128.03 395.023 129.132 395.023C130.259 395.023 131.203 395.264 131.966 395.744C132.728 396.225 133.304 396.867 133.693 397.671C134.083 398.475 134.277 399.357 134.277 400.318V401.661C134.277 402.622 134.078 403.504 133.681 404.308C133.291 405.103 132.711 405.746 131.941 406.234C131.178 406.715 130.242 406.955 129.132 406.955C128.005 406.955 127.056 406.715 126.286 406.234C125.523 405.746 124.943 405.103 124.545 404.308C124.148 403.504 123.949 402.622 123.949 401.661ZM126.857 400.318V401.661C126.857 402.373 127.023 403.019 127.354 403.599C127.694 404.179 128.287 404.469 129.132 404.469C129.96 404.469 130.54 404.179 130.872 403.599C131.212 403.019 131.381 402.373 131.381 401.661V400.318C131.381 399.606 131.22 398.959 130.897 398.379C130.574 397.799 129.985 397.509 129.132 397.509C128.303 397.509 127.715 397.799 127.367 398.379C127.027 398.959 126.857 399.606 126.857 400.318ZM125.13 421L142.63 395.545H145.6L128.1 421H125.13Z" fill="white"/>
<path d="M80.358 535.348C78.5765 535.348 77.0021 535.041 75.6349 534.428C74.276 533.815 73.2113 532.97 72.4407 531.893C71.6701 530.816 71.2889 529.589 71.2972 528.214C71.2889 527.137 71.5085 526.146 71.956 525.243C72.4117 524.332 73.029 523.574 73.8079 522.969C74.5868 522.356 75.4568 521.966 76.418 521.8V521.651C75.1502 521.345 74.1352 520.665 73.3729 519.613C72.6106 518.561 72.2335 517.351 72.2418 515.984C72.2335 514.683 72.5774 513.523 73.2734 512.504C73.9777 511.476 74.9431 510.668 76.1694 510.08C77.3957 509.492 78.7919 509.197 80.358 509.197C81.9074 509.197 83.2912 509.496 84.5092 510.092C85.7356 510.681 86.7009 511.489 87.4052 512.516C88.1095 513.535 88.4658 514.691 88.4741 515.984C88.4658 517.351 88.0763 518.561 87.3058 519.613C86.5352 520.665 85.5326 521.345 84.2979 521.651V521.8C85.2508 521.966 86.1084 522.356 86.8707 522.969C87.6413 523.574 88.2545 524.332 88.7102 525.243C89.1742 526.146 89.4104 527.137 89.4187 528.214C89.4104 529.589 89.021 530.816 88.2504 531.893C87.4798 532.97 86.4109 533.815 85.0437 534.428C83.6848 535.041 82.1229 535.348 80.358 535.348ZM80.358 532.203C81.4103 532.203 82.3217 532.029 83.0923 531.681C83.8629 531.325 84.4595 530.832 84.8821 530.202C85.3047 529.564 85.5201 528.819 85.5284 527.965C85.5201 527.079 85.2881 526.296 84.8324 525.616C84.3849 524.937 83.7759 524.402 83.0053 524.013C82.2347 523.623 81.3523 523.429 80.358 523.429C79.3554 523.429 78.4646 523.623 77.6857 524.013C76.9068 524.402 76.2937 524.937 75.8462 525.616C75.3988 526.296 75.1792 527.079 75.1875 527.965C75.1792 528.819 75.3822 529.564 75.7965 530.202C76.2191 530.832 76.8198 531.325 77.5987 531.681C78.3776 532.029 79.2973 532.203 80.358 532.203ZM80.358 520.359C81.2031 520.359 81.953 520.189 82.6076 519.849C83.2622 519.509 83.7759 519.037 84.1488 518.432C84.5299 517.827 84.7247 517.119 84.733 516.307C84.7247 515.511 84.5341 514.815 84.1612 514.219C83.7966 513.622 83.2871 513.162 82.6325 512.839C81.9779 512.508 81.2197 512.342 80.358 512.342C79.4796 512.342 78.709 512.508 78.0462 512.839C77.3916 513.162 76.882 513.622 76.5174 514.219C76.1528 514.815 75.9747 515.511 75.983 516.307C75.9747 517.119 76.157 517.827 76.5298 518.432C76.9027 519.037 77.4164 519.509 78.071 519.849C78.7339 520.189 79.4962 520.359 80.358 520.359ZM106.233 535.423C104.269 535.414 102.592 534.896 101.199 533.869C99.8074 532.842 98.7427 531.346 98.0052 529.382C97.2678 527.418 96.8991 525.053 96.8991 522.285C96.8991 519.526 97.2678 517.169 98.0052 515.213C98.751 513.258 99.8199 511.766 101.212 510.739C102.612 509.711 104.286 509.197 106.233 509.197C108.18 509.197 109.85 509.715 111.242 510.751C112.634 511.779 113.699 513.27 114.436 515.225C115.182 517.173 115.555 519.526 115.555 522.285C115.555 525.061 115.186 527.431 114.449 529.395C113.711 531.35 112.647 532.846 111.255 533.881C109.862 534.909 108.189 535.423 106.233 535.423ZM106.233 532.104C107.957 532.104 109.303 531.263 110.273 529.581C111.25 527.899 111.739 525.467 111.739 522.285C111.739 520.172 111.516 518.387 111.068 516.928C110.629 515.462 109.995 514.351 109.166 513.597C108.346 512.835 107.368 512.454 106.233 512.454C104.518 512.454 103.172 513.299 102.194 514.989C101.216 516.68 100.723 519.112 100.715 522.285C100.715 524.406 100.934 526.2 101.373 527.667C101.821 529.125 102.455 530.231 103.275 530.985C104.095 531.731 105.081 532.104 106.233 532.104ZM136.751 530.227V528.885C136.751 527.924 136.95 527.045 137.347 526.25C137.753 525.446 138.342 524.804 139.112 524.324C139.891 523.835 140.832 523.59 141.934 523.59C143.06 523.59 144.005 523.83 144.767 524.311C145.53 524.792 146.106 525.434 146.495 526.238C146.893 527.041 147.092 527.924 147.092 528.885V530.227C147.092 531.188 146.893 532.071 146.495 532.875C146.097 533.67 145.513 534.312 144.743 534.801C143.98 535.282 143.044 535.522 141.934 535.522C140.815 535.522 139.87 535.282 139.1 534.801C138.329 534.312 137.745 533.67 137.347 532.875C136.95 532.071 136.751 531.188 136.751 530.227ZM139.647 528.885V530.227C139.647 530.94 139.817 531.586 140.156 532.166C140.496 532.746 141.088 533.036 141.934 533.036C142.77 533.036 143.355 532.746 143.686 532.166C144.018 531.586 144.183 530.94 144.183 530.227V528.885C144.183 528.172 144.022 527.526 143.699 526.946C143.384 526.366 142.795 526.076 141.934 526.076C141.105 526.076 140.517 526.366 140.169 526.946C139.821 527.526 139.647 528.172 139.647 528.885ZM123.949 515.661V514.318C123.949 513.357 124.148 512.475 124.545 511.671C124.951 510.867 125.54 510.225 126.31 509.744C127.089 509.264 128.03 509.023 129.132 509.023C130.259 509.023 131.203 509.264 131.966 509.744C132.728 510.225 133.304 510.867 133.693 511.671C134.083 512.475 134.277 513.357 134.277 514.318V515.661C134.277 516.622 134.078 517.504 133.681 518.308C133.291 519.103 132.711 519.746 131.941 520.234C131.178 520.715 130.242 520.955 129.132 520.955C128.005 520.955 127.056 520.715 126.286 520.234C125.523 519.746 124.943 519.103 124.545 518.308C124.148 517.504 123.949 516.622 123.949 515.661ZM126.857 514.318V515.661C126.857 516.373 127.023 517.019 127.354 517.599C127.694 518.179 128.287 518.469 129.132 518.469C129.96 518.469 130.54 518.179 130.872 517.599C131.212 517.019 131.381 516.373 131.381 515.661V514.318C131.381 513.606 131.22 512.959 130.897 512.379C130.574 511.799 129.985 511.509 129.132 511.509C128.303 511.509 127.715 511.799 127.367 512.379C127.027 512.959 126.857 513.606 126.857 514.318ZM125.13 535L142.63 509.545H145.6L128.1 535H125.13Z" fill="white"/>
<path d="M80.5071 648.348C79.3719 648.331 78.2533 648.124 77.1513 647.727C76.0575 647.329 75.0632 646.666 74.1683 645.738C73.2734 644.81 72.5567 643.563 72.0181 641.997C71.4878 640.431 71.2227 638.475 71.2227 636.13C71.2227 633.91 71.4422 631.938 71.8814 630.214C72.3288 628.491 72.971 627.036 73.8079 625.852C74.6448 624.658 75.6557 623.751 76.8406 623.13C78.0255 622.508 79.3554 622.197 80.8303 622.197C82.3466 622.197 83.6931 622.496 84.8697 623.092C86.0463 623.689 86.9992 624.513 87.7283 625.566C88.4658 626.618 88.9339 627.815 89.1328 629.158H85.342C85.0851 628.097 84.5755 627.231 83.8132 626.56C83.0509 625.889 82.0566 625.553 80.8303 625.553C78.9659 625.553 77.5117 626.365 76.4677 627.989C75.4319 629.613 74.9099 631.871 74.9016 634.763H75.0881C75.5272 634.042 76.0658 633.429 76.7038 632.924C77.3501 632.41 78.071 632.016 78.8665 631.743C79.6702 631.461 80.5154 631.32 81.402 631.32C82.8769 631.32 84.2109 631.681 85.4041 632.402C86.6056 633.114 87.5626 634.1 88.2752 635.36C88.9878 636.619 89.3441 638.061 89.3441 639.685C89.3441 641.309 88.9754 642.78 88.2379 644.097C87.5088 645.415 86.4813 646.459 85.1555 647.229C83.8298 647.992 82.2803 648.365 80.5071 648.348ZM80.4947 645.116C81.4724 645.116 82.3466 644.876 83.1172 644.396C83.8878 643.915 84.4968 643.269 84.9442 642.457C85.3917 641.645 85.6154 640.737 85.6154 639.735C85.6154 638.757 85.3958 637.866 84.9567 637.062C84.5258 636.259 83.9292 635.621 83.1669 635.148C82.4129 634.676 81.5511 634.44 80.5817 634.44C79.8442 634.44 79.1606 634.581 78.5309 634.863C77.9094 635.144 77.3626 635.534 76.8903 636.031C76.418 636.528 76.0451 637.1 75.7717 637.746C75.5065 638.384 75.3739 639.059 75.3739 639.772C75.3739 640.725 75.5935 641.607 76.0327 642.419C76.4801 643.231 77.0891 643.886 77.8597 644.383C78.6386 644.872 79.5169 645.116 80.4947 645.116ZM106.233 648.423C104.269 648.414 102.592 647.896 101.199 646.869C99.8074 645.842 98.7427 644.346 98.0052 642.382C97.2678 640.418 96.8991 638.053 96.8991 635.285C96.8991 632.526 97.2678 630.169 98.0052 628.213C98.751 626.258 99.8199 624.766 101.212 623.739C102.612 622.711 104.286 622.197 106.233 622.197C108.18 622.197 109.85 622.715 111.242 623.751C112.634 624.779 113.699 626.27 114.436 628.225C115.182 630.173 115.555 632.526 115.555 635.285C115.555 638.061 115.186 640.431 114.449 642.395C113.711 644.35 112.647 645.846 111.255 646.881C109.862 647.909 108.189 648.423 106.233 648.423ZM106.233 645.104C107.957 645.104 109.303 644.263 110.273 642.581C111.25 640.899 111.739 638.467 111.739 635.285C111.739 633.172 111.516 631.387 111.068 629.928C110.629 628.462 109.995 627.351 109.166 626.597C108.346 625.835 107.368 625.454 106.233 625.454C104.518 625.454 103.172 626.299 102.194 627.989C101.216 629.68 100.723 632.112 100.715 635.285C100.715 637.406 100.934 639.2 101.373 640.667C101.821 642.125 102.455 643.231 103.275 643.985C104.095 644.731 105.081 645.104 106.233 645.104ZM136.751 643.227V641.885C136.751 640.924 136.95 640.045 137.347 639.25C137.753 638.446 138.342 637.804 139.112 637.324C139.891 636.835 140.832 636.59 141.934 636.59C143.06 636.59 144.005 636.83 144.767 637.311C145.53 637.792 146.106 638.434 146.495 639.238C146.893 640.041 147.092 640.924 147.092 641.885V643.227C147.092 644.188 146.893 645.071 146.495 645.875C146.097 646.67 145.513 647.312 144.743 647.801C143.98 648.282 143.044 648.522 141.934 648.522C140.815 648.522 139.87 648.282 139.1 647.801C138.329 647.312 137.745 646.67 137.347 645.875C136.95 645.071 136.751 644.188 136.751 643.227ZM139.647 641.885V643.227C139.647 643.94 139.817 644.586 140.156 645.166C140.496 645.746 141.088 646.036 141.934 646.036C142.77 646.036 143.355 645.746 143.686 645.166C144.018 644.586 144.183 643.94 144.183 643.227V641.885C144.183 641.172 144.022 640.526 143.699 639.946C143.384 639.366 142.795 639.076 141.934 639.076C141.105 639.076 140.517 639.366 140.169 639.946C139.821 640.526 139.647 641.172 139.647 641.885ZM123.949 628.661V627.318C123.949 626.357 124.148 625.475 124.545 624.671C124.951 623.867 125.54 623.225 126.31 622.744C127.089 622.264 128.03 622.023 129.132 622.023C130.259 622.023 131.203 622.264 131.966 622.744C132.728 623.225 133.304 623.867 133.693 624.671C134.083 625.475 134.277 626.357 134.277 627.318V628.661C134.277 629.622 134.078 630.504 133.681 631.308C133.291 632.103 132.711 632.746 131.941 633.234C131.178 633.715 130.242 633.955 129.132 633.955C128.005 633.955 127.056 633.715 126.286 633.234C125.523 632.746 124.943 632.103 124.545 631.308C124.148 630.504 123.949 629.622 123.949 628.661ZM126.857 627.318V628.661C126.857 629.373 127.023 630.019 127.354 630.599C127.694 631.179 128.287 631.469 129.132 631.469C129.96 631.469 130.54 631.179 130.872 630.599C131.212 630.019 131.381 629.373 131.381 628.661V627.318C131.381 626.606 131.22 625.959 130.897 625.379C130.574 624.799 129.985 624.509 129.132 624.509C128.303 624.509 127.715 624.799 127.367 625.379C127.027 625.959 126.857 626.606 126.857 627.318ZM125.13 648L142.63 622.545H145.6L128.1 648H125.13Z" fill="white"/>
<path d="M70.4365 757.028V753.921L81.4362 736.545H83.8847V741.119H82.3311L74.4635 753.573V753.772H89.5399V757.028H70.4365ZM82.5051 762V756.084L82.5299 754.667V736.545H86.1716V762H82.5051ZM106.233 762.423C104.269 762.414 102.592 761.896 101.199 760.869C99.8074 759.842 98.7427 758.346 98.0052 756.382C97.2678 754.418 96.8991 752.053 96.8991 749.285C96.8991 746.526 97.2678 744.169 98.0052 742.213C98.751 740.258 99.8199 738.766 101.212 737.739C102.612 736.711 104.286 736.197 106.233 736.197C108.18 736.197 109.85 736.715 111.242 737.751C112.634 738.779 113.699 740.27 114.436 742.225C115.182 744.173 115.555 746.526 115.555 749.285C115.555 752.061 115.186 754.431 114.449 756.395C113.711 758.35 112.647 759.846 111.255 760.881C109.862 761.909 108.189 762.423 106.233 762.423ZM106.233 759.104C107.957 759.104 109.303 758.263 110.273 756.581C111.25 754.899 111.739 752.467 111.739 749.285C111.739 747.172 111.516 745.387 111.068 743.928C110.629 742.462 109.995 741.351 109.166 740.597C108.346 739.835 107.368 739.454 106.233 739.454C104.518 739.454 103.172 740.299 102.194 741.989C101.216 743.68 100.723 746.112 100.715 749.285C100.715 751.406 100.934 753.2 101.373 754.667C101.821 756.125 102.455 757.231 103.275 757.985C104.095 758.731 105.081 759.104 106.233 759.104ZM136.751 757.227V755.885C136.751 754.924 136.95 754.045 137.347 753.25C137.753 752.446 138.342 751.804 139.112 751.324C139.891 750.835 140.832 750.59 141.934 750.59C143.06 750.59 144.005 750.83 144.767 751.311C145.53 751.792 146.106 752.434 146.495 753.238C146.893 754.041 147.092 754.924 147.092 755.885V757.227C147.092 758.188 146.893 759.071 146.495 759.875C146.097 760.67 145.513 761.312 144.743 761.801C143.98 762.282 143.044 762.522 141.934 762.522C140.815 762.522 139.87 762.282 139.1 761.801C138.329 761.312 137.745 760.67 137.347 759.875C136.95 759.071 136.751 758.188 136.751 757.227ZM139.647 755.885V757.227C139.647 757.94 139.817 758.586 140.156 759.166C140.496 759.746 141.088 760.036 141.934 760.036C142.77 760.036 143.355 759.746 143.686 759.166C144.018 758.586 144.183 757.94 144.183 757.227V755.885C144.183 755.172 144.022 754.526 143.699 753.946C143.384 753.366 142.795 753.076 141.934 753.076C141.105 753.076 140.517 753.366 140.169 753.946C139.821 754.526 139.647 755.172 139.647 755.885ZM123.949 742.661V741.318C123.949 740.357 124.148 739.475 124.545 738.671C124.951 737.867 125.54 737.225 126.31 736.744C127.089 736.264 128.03 736.023 129.132 736.023C130.259 736.023 131.203 736.264 131.966 736.744C132.728 737.225 133.304 737.867 133.693 738.671C134.083 739.475 134.277 740.357 134.277 741.318V742.661C134.277 743.622 134.078 744.504 133.681 745.308C133.291 746.103 132.711 746.746 131.941 747.234C131.178 747.715 130.242 747.955 129.132 747.955C128.005 747.955 127.056 747.715 126.286 747.234C125.523 746.746 124.943 746.103 124.545 745.308C124.148 744.504 123.949 743.622 123.949 742.661ZM126.857 741.318V742.661C126.857 743.373 127.023 744.019 127.354 744.599C127.694 745.179 128.287 745.469 129.132 745.469C129.96 745.469 130.54 745.179 130.872 744.599C131.212 744.019 131.381 743.373 131.381 742.661V741.318C131.381 740.606 131.22 739.959 130.897 739.379C130.574 738.799 129.985 738.509 129.132 738.509C128.303 738.509 127.715 738.799 127.367 739.379C127.027 739.959 126.857 740.606 126.857 741.318ZM125.13 762L142.63 736.545H145.6L128.1 762H125.13Z" fill="white"/>
<path d="M72.4065 876V873.216L81.0198 864.292C81.9395 863.322 82.6977 862.473 83.2943 861.744C83.8992 861.007 84.3508 860.306 84.6491 859.643C84.9474 858.981 85.0965 858.276 85.0965 857.531C85.0965 856.685 84.8976 855.956 84.4999 855.343C84.1022 854.722 83.5595 854.245 82.8717 853.914C82.184 853.574 81.4092 853.404 80.5475 853.404C79.636 853.404 78.8406 853.591 78.1611 853.963C77.4817 854.336 76.9597 854.862 76.5951 855.542C76.2305 856.221 76.0482 857.017 76.0482 857.928H72.3817C72.3817 856.379 72.738 855.024 73.4506 853.864C74.1631 852.704 75.1409 851.805 76.3838 851.167C77.6267 850.521 79.0394 850.197 80.6221 850.197C82.2213 850.197 83.6299 850.516 84.8479 851.154C86.0742 851.784 87.0313 852.646 87.719 853.74C88.4068 854.825 88.7506 856.051 88.7506 857.419C88.7506 858.363 88.5725 859.287 88.2162 860.19C87.8682 861.094 87.2591 862.1 86.3891 863.211C85.5191 864.313 84.3093 865.651 82.7599 867.225L77.7013 872.52V872.706H89.1608V876H72.4065ZM106.233 876.423C104.269 876.414 102.592 875.896 101.199 874.869C99.8074 873.842 98.7427 872.346 98.0052 870.382C97.2678 868.418 96.8991 866.053 96.8991 863.285C96.8991 860.526 97.2678 858.169 98.0052 856.213C98.751 854.258 99.8199 852.766 101.212 851.739C102.612 850.711 104.286 850.197 106.233 850.197C108.18 850.197 109.85 850.715 111.242 851.751C112.634 852.779 113.699 854.27 114.436 856.225C115.182 858.173 115.555 860.526 115.555 863.285C115.555 866.061 115.186 868.431 114.449 870.395C113.711 872.35 112.647 873.846 111.255 874.881C109.862 875.909 108.189 876.423 106.233 876.423ZM106.233 873.104C107.957 873.104 109.303 872.263 110.273 870.581C111.25 868.899 111.739 866.467 111.739 863.285C111.739 861.172 111.516 859.387 111.068 857.928C110.629 856.462 109.995 855.351 109.166 854.597C108.346 853.835 107.368 853.454 106.233 853.454C104.518 853.454 103.172 854.299 102.194 855.989C101.216 857.68 100.723 860.112 100.715 863.285C100.715 865.406 100.934 867.2 101.373 868.667C101.821 870.125 102.455 871.231 103.275 871.985C104.095 872.731 105.081 873.104 106.233 873.104ZM136.751 871.227V869.885C136.751 868.924 136.95 868.045 137.347 867.25C137.753 866.446 138.342 865.804 139.112 865.324C139.891 864.835 140.832 864.59 141.934 864.59C143.06 864.59 144.005 864.83 144.767 865.311C145.53 865.792 146.106 866.434 146.495 867.238C146.893 868.041 147.092 868.924 147.092 869.885V871.227C147.092 872.188 146.893 873.071 146.495 873.875C146.097 874.67 145.513 875.312 144.743 875.801C143.98 876.282 143.044 876.522 141.934 876.522C140.815 876.522 139.87 876.282 139.1 875.801C138.329 875.312 137.745 874.67 137.347 873.875C136.95 873.071 136.751 872.188 136.751 871.227ZM139.647 869.885V871.227C139.647 871.94 139.817 872.586 140.156 873.166C140.496 873.746 141.088 874.036 141.934 874.036C142.77 874.036 143.355 873.746 143.686 873.166C144.018 872.586 144.183 871.94 144.183 871.227V869.885C144.183 869.172 144.022 868.526 143.699 867.946C143.384 867.366 142.795 867.076 141.934 867.076C141.105 867.076 140.517 867.366 140.169 867.946C139.821 868.526 139.647 869.172 139.647 869.885ZM123.949 856.661V855.318C123.949 854.357 124.148 853.475 124.545 852.671C124.951 851.867 125.54 851.225 126.31 850.744C127.089 850.264 128.03 850.023 129.132 850.023C130.259 850.023 131.203 850.264 131.966 850.744C132.728 851.225 133.304 851.867 133.693 852.671C134.083 853.475 134.277 854.357 134.277 855.318V856.661C134.277 857.622 134.078 858.504 133.681 859.308C133.291 860.103 132.711 860.746 131.941 861.234C131.178 861.715 130.242 861.955 129.132 861.955C128.005 861.955 127.056 861.715 126.286 861.234C125.523 860.746 124.943 860.103 124.545 859.308C124.148 858.504 123.949 857.622 123.949 856.661ZM126.857 855.318V856.661C126.857 857.373 127.023 858.019 127.354 858.599C127.694 859.179 128.287 859.469 129.132 859.469C129.96 859.469 130.54 859.179 130.872 858.599C131.212 858.019 131.381 857.373 131.381 856.661V855.318C131.381 854.606 131.22 853.959 130.897 853.379C130.574 852.799 129.985 852.509 129.132 852.509C128.303 852.509 127.715 852.799 127.367 853.379C127.027 853.959 126.857 854.606 126.857 855.318ZM125.13 876L142.63 850.545H145.6L128.1 876H125.13Z" fill="white"/>
<path d="M106.233 990.423C104.269 990.414 102.592 989.896 101.199 988.869C99.8074 987.842 98.7427 986.346 98.0052 984.382C97.2678 982.418 96.8991 980.053 96.8991 977.285C96.8991 974.526 97.2678 972.169 98.0052 970.213C98.751 968.258 99.8199 966.766 101.212 965.739C102.612 964.711 104.286 964.197 106.233 964.197C108.18 964.197 109.85 964.715 111.242 965.751C112.634 966.779 113.699 968.27 114.436 970.225C115.182 972.173 115.555 974.526 115.555 977.285C115.555 980.061 115.186 982.431 114.449 984.395C113.711 986.35 112.647 987.846 111.255 988.881C109.862 989.909 108.189 990.423 106.233 990.423ZM106.233 987.104C107.957 987.104 109.303 986.263 110.273 984.581C111.25 982.899 111.739 980.467 111.739 977.285C111.739 975.172 111.516 973.387 111.068 971.928C110.629 970.462 109.995 969.351 109.166 968.597C108.346 967.835 107.368 967.454 106.233 967.454C104.518 967.454 103.172 968.299 102.194 969.989C101.216 971.68 100.723 974.112 100.715 977.285C100.715 979.406 100.934 981.2 101.373 982.667C101.821 984.125 102.455 985.231 103.275 985.985C104.095 986.731 105.081 987.104 106.233 987.104ZM136.751 985.227V983.885C136.751 982.924 136.95 982.045 137.347 981.25C137.753 980.446 138.342 979.804 139.112 979.324C139.891 978.835 140.832 978.59 141.934 978.59C143.06 978.59 144.005 978.83 144.767 979.311C145.53 979.792 146.106 980.434 146.495 981.238C146.893 982.041 147.092 982.924 147.092 983.885V985.227C147.092 986.188 146.893 987.071 146.495 987.875C146.097 988.67 145.513 989.312 144.743 989.801C143.98 990.282 143.044 990.522 141.934 990.522C140.815 990.522 139.87 990.282 139.1 989.801C138.329 989.312 137.745 988.67 137.347 987.875C136.95 987.071 136.751 986.188 136.751 985.227ZM139.647 983.885V985.227C139.647 985.94 139.817 986.586 140.156 987.166C140.496 987.746 141.088 988.036 141.934 988.036C142.77 988.036 143.355 987.746 143.686 987.166C144.018 986.586 144.183 985.94 144.183 985.227V983.885C144.183 983.172 144.022 982.526 143.699 981.946C143.384 981.366 142.795 981.076 141.934 981.076C141.105 981.076 140.517 981.366 140.169 981.946C139.821 982.526 139.647 983.172 139.647 983.885ZM123.949 970.661V969.318C123.949 968.357 124.148 967.475 124.545 966.671C124.951 965.867 125.54 965.225 126.31 964.744C127.089 964.264 128.03 964.023 129.132 964.023C130.259 964.023 131.203 964.264 131.966 964.744C132.728 965.225 133.304 965.867 133.693 966.671C134.083 967.475 134.277 968.357 134.277 969.318V970.661C134.277 971.622 134.078 972.504 133.681 973.308C133.291 974.103 132.711 974.746 131.941 975.234C131.178 975.715 130.242 975.955 129.132 975.955C128.005 975.955 127.056 975.715 126.286 975.234C125.523 974.746 124.943 974.103 124.545 973.308C124.148 972.504 123.949 971.622 123.949 970.661ZM126.857 969.318V970.661C126.857 971.373 127.023 972.019 127.354 972.599C127.694 973.179 128.287 973.469 129.132 973.469C129.96 973.469 130.54 973.179 130.872 972.599C131.212 972.019 131.381 971.373 131.381 970.661V969.318C131.381 968.606 131.22 967.959 130.897 967.379C130.574 966.799 129.985 966.509 129.132 966.509C128.303 966.509 127.715 966.799 127.367 967.379C127.027 967.959 126.857 968.606 126.857 969.318ZM125.13 990L142.63 964.545H145.6L128.1 990H125.13Z" fill="white"/>
<path d="M220.992 923.015L183 942.804V976H1983V141L1944.61 151.852L1906.22 183.133L1867.83 205.476L1829.43 203.561L1791.84 213.137L1753.45 219.521L1715.06 241.226L1676.67 251.44L1638.28 252.078L1599.89 274.421L1561.49 275.06L1523.1 308.894L1484.71 315.916L1446.32 340.813L1408.73 347.196L1370.34 363.156L1331.94 369.54L1293.55 383.584L1255.16 412.311L1216.77 424.44L1178.38 432.739L1139.99 437.208L1101.6 450.614L1064 471.042L1025.61 495.3L987.221 531.05L948.83 564.245L910.438 567.437L872.047 578.29L833.655 594.249L795.264 610.847L756.872 621.7L719.281 643.404L680.889 664.471L642.498 668.94L604.106 672.77L565.715 682.984L527.323 716.818H488.932H450.541L412.149 770.442L373.758 788.955L336.166 807.468L297.774 820.874L259.383 873.221L220.992 923.015Z" fill="url(#paint1_linear_401_2)" fill-opacity="0.8"/>
<line x1="183" y1="975" x2="1983" y2="975" stroke="white" stroke-width="2"/>
<line x1="183" y1="861.125" x2="1983" y2="861.125" stroke="white" stroke-width="2"/>
<line x1="183" y1="747.25" x2="1983" y2="747.25" stroke="white" stroke-width="2"/>
<line x1="183" y1="633.375" x2="1983" y2="633.375" stroke="white" stroke-width="2"/>
<line x1="183" y1="519.5" x2="1983" y2="519.5" stroke="white" stroke-width="2"/>
<line x1="183" y1="405.625" x2="1983" y2="405.625" stroke="white" stroke-width="2"/>
<line x1="183" y1="291.75" x2="1983" y2="291.75" stroke="white" stroke-width="2"/>
<line x1="183" y1="177.875" x2="1983" y2="177.875" stroke="white" stroke-width="2"/>
<line x1="183" y1="64" x2="1983" y2="64" stroke="white" stroke-width="2"/>
<g filter="url(#filter0_d_401_2)">
<path d="M183 941L219.037 922.27C220.325 921.601 221.451 920.66 222.338 919.512L259.383 871.573L295.937 821.844C297.134 820.215 298.796 818.988 300.704 818.323L336.166 805.968L373.758 787.497L409.848 770.132C411.358 769.406 412.661 768.312 413.638 766.951L447.548 719.692C449.427 717.075 452.451 715.522 455.673 715.522H488.932H523.552C525.983 715.522 528.33 714.637 530.156 713.032L563.949 683.317C565.111 682.296 566.493 681.558 567.987 681.161L603.33 671.779C603.847 671.642 604.374 671.547 604.905 671.494L642.498 667.752L678.952 663.518C680.231 663.369 681.47 662.975 682.6 662.356L719.281 642.274L755.794 621.239C756.51 620.827 757.275 620.504 758.071 620.28L795.264 609.79L833.655 593.229L872.047 577.306L909.511 566.739C910.128 566.565 910.76 566.451 911.399 566.398L945.588 563.562C947.695 563.387 949.692 562.549 951.293 561.168L987.221 530.172L1024.93 495.139C1025.38 494.716 1025.88 494.337 1026.4 494.005L1064 470.299L1100.88 450.303C1101.36 450.046 1101.85 449.828 1102.36 449.651L1138.95 436.904C1139.64 436.663 1140.35 436.499 1141.08 436.414L1178.38 432.083L1216.77 423.803L1253.54 412.21C1254.62 411.873 1255.62 411.358 1256.52 410.686L1292.38 383.916C1293.16 383.334 1294.02 382.869 1294.93 382.535L1331.07 369.345C1331.65 369.132 1332.25 368.974 1332.86 368.873L1369.2 362.844C1369.96 362.719 1370.69 362.508 1371.4 362.216L1407.68 347.166C1408.38 346.878 1409.1 346.669 1409.84 346.543L1444.29 340.707C1445.63 340.48 1446.91 339.982 1448.05 339.244L1483.04 316.606C1484.14 315.891 1485.38 315.401 1486.67 315.164L1520.38 309.014C1522.16 308.688 1523.82 307.883 1525.18 306.686L1558.73 277.186C1560.51 275.619 1562.8 274.736 1565.17 274.697L1597.28 274.164C1598.99 274.136 1600.66 273.671 1602.14 272.813L1636.02 253.136C1637.5 252.278 1639.17 251.813 1640.88 251.785L1675.45 251.211C1676.26 251.198 1677.06 251.086 1677.85 250.878L1713.82 241.328C1714.64 241.11 1715.43 240.789 1716.17 240.372L1751.91 220.211C1752.93 219.637 1754.04 219.246 1755.19 219.055L1791.84 212.975L1827.98 203.791C1828.94 203.545 1829.94 203.446 1830.94 203.495L1864.87 205.184C1866.8 205.28 1868.72 204.815 1870.39 203.844L1905.54 183.432C1905.99 183.17 1906.42 182.873 1906.83 182.544L1943 153.132C1944.06 152.272 1945.29 151.637 1946.6 151.267L1983 141" stroke="#459AFF" stroke-width="10" stroke-linecap="round"/>
</g>
<line x1="183" y1="1040" x2="1983" y2="1040" stroke="white" stroke-width="2"/>
<line x1="1561.5" y1="1056" x2="1561.5" y2="1026" stroke="white" stroke-width="3"/>
<line x1="1100.5" y1="1056" x2="1100.5" y2="1026" stroke="white" stroke-width="3"/>
<line x1="603.5" y1="1056" x2="603.5" y2="1026" stroke="white" stroke-width="3"/>
<line x1="181.5" y1="1056" x2="181.5" y2="1026" stroke="white" stroke-width="3"/>
<path d="M135.833 1090V1087.22L144.447 1078.29C145.366 1077.32 146.124 1076.47 146.721 1075.74C147.326 1075.01 147.778 1074.31 148.076 1073.64C148.374 1072.98 148.523 1072.28 148.523 1071.53C148.523 1070.69 148.324 1069.96 147.927 1069.34C147.529 1068.72 146.986 1068.25 146.298 1067.91C145.611 1067.57 144.836 1067.4 143.974 1067.4C143.063 1067.4 142.267 1067.59 141.588 1067.96C140.908 1068.34 140.386 1068.86 140.022 1069.54C139.657 1070.22 139.475 1071.02 139.475 1071.93H135.808C135.808 1070.38 136.165 1069.02 136.877 1067.86C137.59 1066.7 138.568 1065.8 139.811 1065.17C141.053 1064.52 142.466 1064.2 144.049 1064.2C145.648 1064.2 147.057 1064.52 148.275 1065.15C149.501 1065.78 150.458 1066.65 151.146 1067.74C151.834 1068.83 152.177 1070.05 152.177 1071.42C152.177 1072.36 151.999 1073.29 151.643 1074.19C151.295 1075.09 150.686 1076.1 149.816 1077.21C148.946 1078.31 147.736 1079.65 146.187 1081.23L141.128 1086.52V1086.71H152.588V1090H135.833ZM169.66 1090.42C167.696 1090.41 166.018 1089.9 164.626 1088.87C163.234 1087.84 162.169 1086.35 161.432 1084.38C160.695 1082.42 160.326 1080.05 160.326 1077.29C160.326 1074.53 160.695 1072.17 161.432 1070.21C162.178 1068.26 163.247 1066.77 164.639 1065.74C166.039 1064.71 167.713 1064.2 169.66 1064.2C171.607 1064.2 173.277 1064.72 174.669 1065.75C176.061 1066.78 177.126 1068.27 177.863 1070.23C178.609 1072.17 178.982 1074.53 178.982 1077.29C178.982 1080.06 178.613 1082.43 177.876 1084.39C177.138 1086.35 176.073 1087.85 174.681 1088.88C173.289 1089.91 171.615 1090.42 169.66 1090.42ZM169.66 1087.1C171.383 1087.1 172.73 1086.26 173.699 1084.58C174.677 1082.9 175.166 1080.47 175.166 1077.29C175.166 1075.17 174.942 1073.39 174.495 1071.93C174.056 1070.46 173.422 1069.35 172.593 1068.6C171.773 1067.83 170.795 1067.45 169.66 1067.45C167.945 1067.45 166.598 1068.3 165.621 1069.99C164.643 1071.68 164.15 1074.11 164.142 1077.29C164.142 1079.41 164.361 1081.2 164.8 1082.67C165.248 1084.13 165.882 1085.23 166.702 1085.99C167.522 1086.73 168.508 1087.1 169.66 1087.1ZM186.891 1090V1087.22L195.504 1078.29C196.424 1077.32 197.182 1076.47 197.779 1075.74C198.384 1075.01 198.835 1074.31 199.133 1073.64C199.432 1072.98 199.581 1072.28 199.581 1071.53C199.581 1070.69 199.382 1069.96 198.984 1069.34C198.587 1068.72 198.044 1068.25 197.356 1067.91C196.668 1067.57 195.894 1067.4 195.032 1067.4C194.12 1067.4 193.325 1067.59 192.646 1067.96C191.966 1068.34 191.444 1068.86 191.079 1069.54C190.715 1070.22 190.533 1071.02 190.533 1071.93H186.866C186.866 1070.38 187.222 1069.02 187.935 1067.86C188.648 1066.7 189.625 1065.8 190.868 1065.17C192.111 1064.52 193.524 1064.2 195.106 1064.2C196.706 1064.2 198.114 1064.52 199.332 1065.15C200.559 1065.78 201.516 1066.65 202.203 1067.74C202.891 1068.83 203.235 1070.05 203.235 1071.42C203.235 1072.36 203.057 1073.29 202.701 1074.19C202.353 1075.09 201.744 1076.1 200.873 1077.21C200.003 1078.31 198.794 1079.65 197.244 1081.23L192.186 1086.52V1086.71H203.645V1090H186.891ZM220.718 1090.42C218.754 1090.41 217.076 1089.9 215.684 1088.87C214.292 1087.84 213.227 1086.35 212.49 1084.38C211.752 1082.42 211.383 1080.05 211.383 1077.29C211.383 1074.53 211.752 1072.17 212.49 1070.21C213.235 1068.26 214.304 1066.77 215.696 1065.74C217.097 1064.71 218.77 1064.2 220.718 1064.2C222.665 1064.2 224.334 1064.72 225.726 1065.75C227.119 1066.78 228.183 1068.27 228.921 1070.23C229.666 1072.17 230.039 1074.53 230.039 1077.29C230.039 1080.06 229.671 1082.43 228.933 1084.39C228.196 1086.35 227.131 1087.85 225.739 1088.88C224.347 1089.91 222.673 1090.42 220.718 1090.42ZM220.718 1087.1C222.441 1087.1 223.788 1086.26 224.757 1084.58C225.735 1082.9 226.224 1080.47 226.224 1077.29C226.224 1075.17 226 1073.39 225.552 1071.93C225.113 1070.46 224.479 1069.35 223.651 1068.6C222.831 1067.83 221.853 1067.45 220.718 1067.45C219.002 1067.45 217.656 1068.3 216.678 1069.99C215.7 1071.68 215.207 1074.11 215.199 1077.29C215.199 1079.41 215.419 1081.2 215.858 1082.67C216.305 1084.13 216.939 1085.23 217.759 1085.99C218.58 1086.73 219.566 1087.1 220.718 1087.1Z" fill="white"/>
<path d="M560.883 1090V1087.22L569.496 1078.29C570.416 1077.32 571.174 1076.47 571.771 1075.74C572.376 1075.01 572.827 1074.31 573.126 1073.64C573.424 1072.98 573.573 1072.28 573.573 1071.53C573.573 1070.69 573.374 1069.96 572.976 1069.34C572.579 1068.72 572.036 1068.25 571.348 1067.91C570.661 1067.57 569.886 1067.4 569.024 1067.4C568.113 1067.4 567.317 1067.59 566.638 1067.96C565.958 1068.34 565.436 1068.86 565.072 1069.54C564.707 1070.22 564.525 1071.02 564.525 1071.93H560.858C560.858 1070.38 561.215 1069.02 561.927 1067.86C562.64 1066.7 563.617 1065.8 564.86 1065.17C566.103 1064.52 567.516 1064.2 569.099 1064.2C570.698 1064.2 572.106 1064.52 573.324 1065.15C574.551 1065.78 575.508 1066.65 576.196 1067.74C576.883 1068.83 577.227 1070.05 577.227 1071.42C577.227 1072.36 577.049 1073.29 576.693 1074.19C576.345 1075.09 575.736 1076.1 574.866 1077.21C573.996 1078.31 572.786 1079.65 571.236 1081.23L566.178 1086.52V1086.71H577.637V1090H560.883ZM594.71 1090.42C592.746 1090.41 591.068 1089.9 589.676 1088.87C588.284 1087.84 587.219 1086.35 586.482 1084.38C585.744 1082.42 585.376 1080.05 585.376 1077.29C585.376 1074.53 585.744 1072.17 586.482 1070.21C587.228 1068.26 588.296 1066.77 589.688 1065.74C591.089 1064.71 592.763 1064.2 594.71 1064.2C596.657 1064.2 598.327 1064.72 599.719 1065.75C601.111 1066.78 602.175 1068.27 602.913 1070.23C603.659 1072.17 604.032 1074.53 604.032 1077.29C604.032 1080.06 603.663 1082.43 602.925 1084.39C602.188 1086.35 601.123 1087.85 599.731 1088.88C598.339 1089.91 596.665 1090.42 594.71 1090.42ZM594.71 1087.1C596.433 1087.1 597.78 1086.26 598.749 1084.58C599.727 1082.9 600.216 1080.47 600.216 1077.29C600.216 1075.17 599.992 1073.39 599.545 1071.93C599.105 1070.46 598.472 1069.35 597.643 1068.6C596.823 1067.83 595.845 1067.45 594.71 1067.45C592.995 1067.45 591.648 1068.3 590.67 1069.99C589.693 1071.68 589.2 1074.11 589.191 1077.29C589.191 1079.41 589.411 1081.2 589.85 1082.67C590.297 1084.13 590.931 1085.23 591.752 1085.99C592.572 1086.73 593.558 1087.1 594.71 1087.1ZM611.941 1090V1087.22L620.554 1078.29C621.474 1077.32 622.232 1076.47 622.828 1075.74C623.433 1075.01 623.885 1074.31 624.183 1073.64C624.482 1072.98 624.631 1072.28 624.631 1071.53C624.631 1070.69 624.432 1069.96 624.034 1069.34C623.636 1068.72 623.094 1068.25 622.406 1067.91C621.718 1067.57 620.943 1067.4 620.082 1067.4C619.17 1067.4 618.375 1067.59 617.695 1067.96C617.016 1068.34 616.494 1068.86 616.129 1069.54C615.765 1070.22 615.582 1071.02 615.582 1071.93H611.916C611.916 1070.38 612.272 1069.02 612.985 1067.86C613.697 1066.7 614.675 1065.8 615.918 1065.17C617.161 1064.52 618.574 1064.2 620.156 1064.2C621.755 1064.2 623.164 1064.52 624.382 1065.15C625.608 1065.78 626.565 1066.65 627.253 1067.74C627.941 1068.83 628.285 1070.05 628.285 1071.42C628.285 1072.36 628.107 1073.29 627.75 1074.19C627.402 1075.09 626.793 1076.1 625.923 1077.21C625.053 1078.31 623.844 1079.65 622.294 1081.23L617.235 1086.52V1086.71H628.695V1090H611.941ZM646.563 1064.55V1090H642.71V1068.4H642.561L636.471 1072.38V1068.7L642.822 1064.55H646.563Z" fill="white"/>
<path d="M1515.87 1090V1087.22L1524.48 1078.29C1525.4 1077.32 1526.16 1076.47 1526.76 1075.74C1527.36 1075.01 1527.81 1074.31 1528.11 1073.64C1528.41 1072.98 1528.56 1072.28 1528.56 1071.53C1528.56 1070.69 1528.36 1069.96 1527.96 1069.34C1527.56 1068.72 1527.02 1068.25 1526.33 1067.91C1525.64 1067.57 1524.87 1067.4 1524.01 1067.4C1523.1 1067.4 1522.3 1067.59 1521.62 1067.96C1520.94 1068.34 1520.42 1068.86 1520.06 1069.54C1519.69 1070.22 1519.51 1071.02 1519.51 1071.93H1515.84C1515.84 1070.38 1516.2 1069.02 1516.91 1067.86C1517.62 1066.7 1518.6 1065.8 1519.84 1065.17C1521.09 1064.52 1522.5 1064.2 1524.08 1064.2C1525.68 1064.2 1527.09 1064.52 1528.31 1065.15C1529.54 1065.78 1530.49 1066.65 1531.18 1067.74C1531.87 1068.83 1532.21 1070.05 1532.21 1071.42C1532.21 1072.36 1532.03 1073.29 1531.68 1074.19C1531.33 1075.09 1530.72 1076.1 1529.85 1077.21C1528.98 1078.31 1527.77 1079.65 1526.22 1081.23L1521.16 1086.52V1086.71H1532.62V1090H1515.87ZM1549.69 1090.42C1547.73 1090.41 1546.05 1089.9 1544.66 1088.87C1543.27 1087.84 1542.2 1086.35 1541.47 1084.38C1540.73 1082.42 1540.36 1080.05 1540.36 1077.29C1540.36 1074.53 1540.73 1072.17 1541.47 1070.21C1542.21 1068.26 1543.28 1066.77 1544.67 1065.74C1546.07 1064.71 1547.75 1064.2 1549.69 1064.2C1551.64 1064.2 1553.31 1064.72 1554.7 1065.75C1556.1 1066.78 1557.16 1068.27 1557.9 1070.23C1558.64 1072.17 1559.02 1074.53 1559.02 1077.29C1559.02 1080.06 1558.65 1082.43 1557.91 1084.39C1557.17 1086.35 1556.11 1087.85 1554.72 1088.88C1553.32 1089.91 1551.65 1090.42 1549.69 1090.42ZM1549.69 1087.1C1551.42 1087.1 1552.76 1086.26 1553.73 1084.58C1554.71 1082.9 1555.2 1080.47 1555.2 1077.29C1555.2 1075.17 1554.98 1073.39 1554.53 1071.93C1554.09 1070.46 1553.46 1069.35 1552.63 1068.6C1551.81 1067.83 1550.83 1067.45 1549.69 1067.45C1547.98 1067.45 1546.63 1068.3 1545.65 1069.99C1544.68 1071.68 1544.18 1074.11 1544.18 1077.29C1544.18 1079.41 1544.4 1081.2 1544.83 1082.67C1545.28 1084.13 1545.92 1085.23 1546.74 1085.99C1547.56 1086.73 1548.54 1087.1 1549.69 1087.1ZM1566.93 1090V1087.22L1575.54 1078.29C1576.46 1077.32 1577.22 1076.47 1577.81 1075.74C1578.42 1075.01 1578.87 1074.31 1579.17 1073.64C1579.47 1072.98 1579.62 1072.28 1579.62 1071.53C1579.62 1070.69 1579.42 1069.96 1579.02 1069.34C1578.62 1068.72 1578.08 1068.25 1577.39 1067.91C1576.7 1067.57 1575.93 1067.4 1575.07 1067.4C1574.15 1067.4 1573.36 1067.59 1572.68 1067.96C1572 1068.34 1571.48 1068.86 1571.11 1069.54C1570.75 1070.22 1570.57 1071.02 1570.57 1071.93H1566.9C1566.9 1070.38 1567.26 1069.02 1567.97 1067.86C1568.68 1066.7 1569.66 1065.8 1570.9 1065.17C1572.15 1064.52 1573.56 1064.2 1575.14 1064.2C1576.74 1064.2 1578.15 1064.52 1579.37 1065.15C1580.59 1065.78 1581.55 1066.65 1582.24 1067.74C1582.93 1068.83 1583.27 1070.05 1583.27 1071.42C1583.27 1072.36 1583.09 1073.29 1582.73 1074.19C1582.39 1075.09 1581.78 1076.1 1580.91 1077.21C1580.04 1078.31 1578.83 1079.65 1577.28 1081.23L1572.22 1086.52V1086.71H1583.68V1090H1566.93ZM1600.75 1090.35C1599.04 1090.35 1597.52 1090.05 1596.18 1089.47C1594.84 1088.88 1593.79 1088.06 1593.01 1087.02C1592.24 1085.96 1591.82 1084.75 1591.77 1083.36H1595.67C1595.72 1084.12 1595.97 1084.77 1596.43 1085.33C1596.89 1085.87 1597.5 1086.3 1598.24 1086.59C1598.99 1086.89 1599.82 1087.04 1600.73 1087.04C1601.73 1087.04 1602.62 1086.87 1603.39 1086.52C1604.17 1086.17 1604.77 1085.69 1605.21 1085.07C1605.65 1084.44 1605.87 1083.71 1605.87 1082.89C1605.87 1082.04 1605.65 1081.29 1605.21 1080.64C1604.78 1079.99 1604.15 1079.47 1603.31 1079.1C1602.48 1078.73 1601.48 1078.54 1600.3 1078.54H1598.15V1075.41H1600.3C1601.25 1075.41 1602.08 1075.24 1602.79 1074.9C1603.51 1074.56 1604.07 1074.09 1604.48 1073.48C1604.89 1072.87 1605.09 1072.15 1605.09 1071.33C1605.09 1070.54 1604.91 1069.86 1604.56 1069.28C1604.21 1068.69 1603.71 1068.23 1603.06 1067.9C1602.43 1067.57 1601.67 1067.4 1600.8 1067.4C1599.97 1067.4 1599.2 1067.56 1598.48 1067.86C1597.76 1068.16 1597.18 1068.59 1596.74 1069.16C1596.29 1069.71 1596.05 1070.38 1596.02 1071.16H1592.3C1592.34 1069.78 1592.75 1068.57 1593.52 1067.53C1594.3 1066.48 1595.32 1065.67 1596.6 1065.08C1597.88 1064.49 1599.29 1064.2 1600.85 1064.2C1602.48 1064.2 1603.89 1064.52 1605.08 1065.15C1606.27 1065.78 1607.19 1066.63 1607.84 1067.68C1608.49 1068.73 1608.81 1069.88 1608.81 1071.13C1608.81 1072.56 1608.42 1073.77 1607.61 1074.76C1606.82 1075.76 1605.76 1076.42 1604.43 1076.76V1076.96C1606.12 1077.22 1607.43 1077.89 1608.36 1078.98C1609.29 1080.06 1609.76 1081.41 1609.75 1083.01C1609.76 1084.42 1609.37 1085.67 1608.58 1086.78C1607.8 1087.89 1606.74 1088.77 1605.39 1089.4C1604.04 1090.03 1602.49 1090.35 1600.75 1090.35Z" fill="white"/>
<path d="M1055.96 1090V1087.22L1064.57 1078.29C1065.49 1077.32 1066.25 1076.47 1066.85 1075.74C1067.45 1075.01 1067.91 1074.31 1068.2 1073.64C1068.5 1072.98 1068.65 1072.28 1068.65 1071.53C1068.65 1070.69 1068.45 1069.96 1068.05 1069.34C1067.66 1068.72 1067.11 1068.25 1066.43 1067.91C1065.74 1067.57 1064.96 1067.4 1064.1 1067.4C1063.19 1067.4 1062.4 1067.59 1061.72 1067.96C1061.04 1068.34 1060.51 1068.86 1060.15 1069.54C1059.79 1070.22 1059.6 1071.02 1059.6 1071.93H1055.94C1055.94 1070.38 1056.29 1069.02 1057.01 1067.86C1057.72 1066.7 1058.7 1065.8 1059.94 1065.17C1061.18 1064.52 1062.59 1064.2 1064.18 1064.2C1065.78 1064.2 1067.18 1064.52 1068.4 1065.15C1069.63 1065.78 1070.59 1066.65 1071.27 1067.74C1071.96 1068.83 1072.31 1070.05 1072.31 1071.42C1072.31 1072.36 1072.13 1073.29 1071.77 1074.19C1071.42 1075.09 1070.81 1076.1 1069.94 1077.21C1069.07 1078.31 1067.86 1079.65 1066.31 1081.23L1061.26 1086.52V1086.71H1072.72V1090H1055.96ZM1089.79 1090.42C1087.82 1090.41 1086.15 1089.9 1084.75 1088.87C1083.36 1087.84 1082.3 1086.35 1081.56 1084.38C1080.82 1082.42 1080.45 1080.05 1080.45 1077.29C1080.45 1074.53 1080.82 1072.17 1081.56 1070.21C1082.31 1068.26 1083.37 1066.77 1084.77 1065.74C1086.17 1064.71 1087.84 1064.2 1089.79 1064.2C1091.74 1064.2 1093.4 1064.72 1094.8 1065.75C1096.19 1066.78 1097.25 1068.27 1097.99 1070.23C1098.74 1072.17 1099.11 1074.53 1099.11 1077.29C1099.11 1080.06 1098.74 1082.43 1098 1084.39C1097.27 1086.35 1096.2 1087.85 1094.81 1088.88C1093.42 1089.91 1091.74 1090.42 1089.79 1090.42ZM1089.79 1087.1C1091.51 1087.1 1092.86 1086.26 1093.83 1084.58C1094.81 1082.9 1095.29 1080.47 1095.29 1077.29C1095.29 1075.17 1095.07 1073.39 1094.62 1071.93C1094.18 1070.46 1093.55 1069.35 1092.72 1068.6C1091.9 1067.83 1090.92 1067.45 1089.79 1067.45C1088.07 1067.45 1086.73 1068.3 1085.75 1069.99C1084.77 1071.68 1084.28 1074.11 1084.27 1077.29C1084.27 1079.41 1084.49 1081.2 1084.93 1082.67C1085.38 1084.13 1086.01 1085.23 1086.83 1085.99C1087.65 1086.73 1088.64 1087.1 1089.79 1087.1ZM1107.02 1090V1087.22L1115.63 1078.29C1116.55 1077.32 1117.31 1076.47 1117.91 1075.74C1118.51 1075.01 1118.96 1074.31 1119.26 1073.64C1119.56 1072.98 1119.71 1072.28 1119.71 1071.53C1119.71 1070.69 1119.51 1069.96 1119.11 1069.34C1118.71 1068.72 1118.17 1068.25 1117.48 1067.91C1116.8 1067.57 1116.02 1067.4 1115.16 1067.4C1114.25 1067.4 1113.45 1067.59 1112.77 1067.96C1112.09 1068.34 1111.57 1068.86 1111.21 1069.54C1110.84 1070.22 1110.66 1071.02 1110.66 1071.93H1106.99C1106.99 1070.38 1107.35 1069.02 1108.06 1067.86C1108.78 1066.7 1109.75 1065.8 1111 1065.17C1112.24 1064.52 1113.65 1064.2 1115.23 1064.2C1116.83 1064.2 1118.24 1064.52 1119.46 1065.15C1120.69 1065.78 1121.64 1066.65 1122.33 1067.74C1123.02 1068.83 1123.36 1070.05 1123.36 1071.42C1123.36 1072.36 1123.18 1073.29 1122.83 1074.19C1122.48 1075.09 1121.87 1076.1 1121 1077.21C1120.13 1078.31 1118.92 1079.65 1117.37 1081.23L1112.31 1086.52V1086.71H1123.77V1090H1107.02ZM1131.98 1090V1087.22L1140.6 1078.29C1141.52 1077.32 1142.27 1076.47 1142.87 1075.74C1143.48 1075.01 1143.93 1074.31 1144.23 1073.64C1144.52 1072.98 1144.67 1072.28 1144.67 1071.53C1144.67 1070.69 1144.47 1069.96 1144.08 1069.34C1143.68 1068.72 1143.14 1068.25 1142.45 1067.91C1141.76 1067.57 1140.99 1067.4 1140.12 1067.4C1139.21 1067.4 1138.42 1067.59 1137.74 1067.96C1137.06 1068.34 1136.54 1068.86 1136.17 1069.54C1135.81 1070.22 1135.63 1071.02 1135.63 1071.93H1131.96C1131.96 1070.38 1132.32 1069.02 1133.03 1067.86C1133.74 1066.7 1134.72 1065.8 1135.96 1065.17C1137.2 1064.52 1138.62 1064.2 1140.2 1064.2C1141.8 1064.2 1143.21 1064.52 1144.43 1065.15C1145.65 1065.78 1146.61 1066.65 1147.3 1067.74C1147.98 1068.83 1148.33 1070.05 1148.33 1071.42C1148.33 1072.36 1148.15 1073.29 1147.79 1074.19C1147.45 1075.09 1146.84 1076.1 1145.97 1077.21C1145.1 1078.31 1143.89 1079.65 1142.34 1081.23L1137.28 1086.52V1086.71H1148.74V1090H1131.98Z" fill="white"/>
</g>
<defs>
<filter id="filter0_d_401_2" x="173.999" y="135.999" width="1818" height="818.002" filterUnits="userSpaceOnUse" color-interpolation-filters="sRGB">
<feFlood flood-opacity="0" result="BackgroundImageFix"/>
<feColorMatrix in="SourceAlpha" type="matrix" values="0 0 0 0 0 0 0 0 0 0 0 0 0 0 0 0 0 0 127 0" result="hardAlpha"/>
<feOffset dy="4"/>
<feGaussianBlur stdDeviation="2"/>
<feComposite in2="hardAlpha" operator="out"/>
<feColorMatrix type="matrix" values="0 0 0 0 0 0 0 0 0 0 0 0 0 0 0 0 0 0 0.25 0"/>
<feBlend mode="normal" in2="BackgroundImageFix" result="effect1_dropShadow_401_2"/>
<feBlend mode="normal" in="SourceGraphic" in2="effect1_dropShadow_401_2" result="shape"/>
</filter>
<linearGradient id="paint0_linear_401_2" x1="0" y1="0" x2="3088.5" y2="1669.5" gradientUnits="userSpaceOnUse">
<stop stop-color="#1A1E2D"/>
<stop offset="1" stop-color="#00387B"/>
</linearGradient>
<linearGradient id="paint1_linear_401_2" x1="1083" y1="-1006" x2="1083.82" y2="976" gradientUnits="userSpaceOnUse">
<stop stop-color="#459AFF"/>
<stop offset="1" stop-color="#459AFF" stop-opacity="0"/>
</linearGradient>
<clipPath id="clip0_401_2">
<rect width="2166" height="1117" fill="white"/>
</clipPath>
</defs>
</svg>
