<svg width="2166" height="1117" viewBox="0 0 2166 1117" fill="none" xmlns="http://www.w3.org/2000/svg">
<g clip-path="url(#clip0_420_40)">
<rect width="2166" height="1117" fill="white"/>
<rect width="2166" height="1117" fill="url(#paint0_linear_420_40)"/>
<path d="M224.837 945.437L192.172 959.13C190.158 959.974 190.761 962.974 192.945 962.974H1980C1981.1 962.974 1982 962.079 1982 960.974V272.963C1982 271.546 1980.57 270.578 1979.25 271.108L1913.65 297.559L1821.13 332.633L1740.99 366.205L1678.53 389.254L1564.22 435.853L1454.62 476.94L1304.36 536.567L1164.7 589.68L1048.62 632.271L892.465 691.397L784.042 732.484L686.814 769.062L571.909 812.153L449.344 860.256L388.061 882.804L299.084 916.876L224.837 945.437Z" fill="url(#paint1_linear_420_40)"/>
<line x1="183" y1="292.709" x2="1983" y2="292.709" stroke="white" stroke-width="2"/>
<line x1="183" y1="180.389" x2="1983" y2="180.389" stroke="white" stroke-width="2"/>
<line x1="183" y1="65.0605" x2="1983" y2="65.0605" stroke="white" stroke-width="2"/>
<line x1="183" y1="408.038" x2="1983" y2="408.038" stroke="white" stroke-width="2"/>
<line x1="183" y1="520.447" x2="1983" y2="520.447" stroke="white" stroke-width="2"/>
<line x1="183" y1="635.065" x2="1983" y2="635.065" stroke="white" stroke-width="2"/>
<line x1="183" y1="749.682" x2="1983" y2="749.682" stroke="white" stroke-width="2"/>
<line x1="183" y1="864.338" x2="1983" y2="864.338" stroke="white" stroke-width="2"/>
<line x1="183" y1="979.666" x2="1983" y2="979.666" stroke="white" stroke-width="2"/>
<path d="M72.4065 534.297V531.513L81.0198 522.589C81.9395 521.619 82.6977 520.77 83.2943 520.041C83.8992 519.303 84.3508 518.603 84.6491 517.94C84.9474 517.277 85.0965 516.573 85.0965 515.827C85.0965 514.982 84.8976 514.253 84.4999 513.64C84.1022 513.018 83.5595 512.542 82.8717 512.211C82.184 511.871 81.4092 511.701 80.5475 511.701C79.636 511.701 78.8406 511.887 78.1611 512.26C77.4817 512.633 76.9597 513.159 76.5951 513.839C76.2305 514.518 76.0482 515.314 76.0482 516.225H72.3817C72.3817 514.676 72.738 513.321 73.4506 512.161C74.1631 511.001 75.1409 510.102 76.3838 509.464C77.6267 508.817 79.0394 508.494 80.6221 508.494C82.2213 508.494 83.6299 508.813 84.8479 509.451C86.0742 510.081 87.0313 510.943 87.719 512.037C88.4068 513.122 88.7506 514.348 88.7506 515.716C88.7506 516.66 88.5725 517.584 88.2162 518.487C87.8682 519.39 87.2591 520.397 86.3891 521.507C85.5191 522.609 84.3093 523.948 82.7599 525.522L77.7013 530.817V531.003H89.1608V534.297H72.4065ZM106.233 534.719C104.269 534.711 102.592 534.193 101.199 533.166C99.8074 532.138 98.7427 530.643 98.0052 528.679C97.2678 526.715 96.8991 524.35 96.8991 521.582C96.8991 518.823 97.2678 516.465 98.0052 514.51C98.751 512.554 99.8199 511.063 101.212 510.036C102.612 509.008 104.286 508.494 106.233 508.494C108.18 508.494 109.85 509.012 111.242 510.048C112.634 511.075 113.699 512.567 114.436 514.522C115.182 516.47 115.555 518.823 115.555 521.582C115.555 524.358 115.186 526.728 114.449 528.691C113.711 530.647 112.647 532.143 111.255 533.178C109.862 534.206 108.189 534.719 106.233 534.719ZM106.233 531.401C107.957 531.401 109.303 530.56 110.273 528.878C111.25 527.196 111.739 524.764 111.739 521.582C111.739 519.469 111.516 517.683 111.068 516.225C110.629 514.759 109.995 513.648 109.166 512.894C108.346 512.132 107.368 511.751 106.233 511.751C104.518 511.751 103.172 512.596 102.194 514.286C101.216 515.977 100.723 518.408 100.715 521.582C100.715 523.703 100.934 525.497 101.373 526.964C101.821 528.422 102.455 529.528 103.275 530.282C104.095 531.028 105.081 531.401 106.233 531.401ZM136.751 529.524V528.182C136.751 527.221 136.95 526.342 137.347 525.547C137.753 524.743 138.342 524.101 139.112 523.62C139.891 523.132 140.832 522.887 141.934 522.887C143.06 522.887 144.005 523.127 144.767 523.608C145.53 524.089 146.106 524.731 146.495 525.534C146.893 526.338 147.092 527.221 147.092 528.182V529.524C147.092 530.485 146.893 531.368 146.495 532.172C146.097 532.967 145.513 533.609 144.743 534.098C143.98 534.579 143.044 534.819 141.934 534.819C140.815 534.819 139.87 534.579 139.1 534.098C138.329 533.609 137.745 532.967 137.347 532.172C136.95 531.368 136.751 530.485 136.751 529.524ZM139.647 528.182V529.524C139.647 530.237 139.817 530.883 140.156 531.463C140.496 532.043 141.088 532.333 141.934 532.333C142.77 532.333 143.355 532.043 143.686 531.463C144.018 530.883 144.183 530.237 144.183 529.524V528.182C144.183 527.469 144.022 526.823 143.699 526.243C143.384 525.663 142.795 525.373 141.934 525.373C141.105 525.373 140.517 525.663 140.169 526.243C139.821 526.823 139.647 527.469 139.647 528.182ZM123.949 514.957V513.615C123.949 512.654 124.148 511.771 124.545 510.968C124.951 510.164 125.54 509.522 126.31 509.041C127.089 508.561 128.03 508.32 129.132 508.32C130.259 508.32 131.203 508.561 131.966 509.041C132.728 509.522 133.304 510.164 133.693 510.968C134.083 511.771 134.277 512.654 134.277 513.615V514.957C134.277 515.919 134.078 516.801 133.681 517.605C133.291 518.4 132.711 519.042 131.941 519.531C131.178 520.012 130.242 520.252 129.132 520.252C128.005 520.252 127.056 520.012 126.286 519.531C125.523 519.042 124.943 518.4 124.545 517.605C124.148 516.801 123.949 515.919 123.949 514.957ZM126.857 513.615V514.957C126.857 515.67 127.023 516.316 127.354 516.896C127.694 517.476 128.287 517.766 129.132 517.766C129.96 517.766 130.54 517.476 130.872 516.896C131.212 516.316 131.381 515.67 131.381 514.957V513.615C131.381 512.902 131.22 512.256 130.897 511.676C130.574 511.096 129.985 510.806 129.132 510.806C128.303 510.806 127.715 511.096 127.367 511.676C127.027 512.256 126.857 512.902 126.857 513.615ZM125.13 534.297L142.63 508.842H145.6L128.1 534.297H125.13Z" fill="white"/>
<path d="M87.8744 623.169V648.623H84.0214V627.021H83.8722L77.782 630.999V627.32L84.1333 623.169H87.8744ZM106.662 648.971C105.104 648.971 103.704 648.673 102.461 648.076C101.226 647.471 100.24 646.643 99.5029 645.59C98.7655 644.538 98.3719 643.337 98.3222 641.986H102.051C102.142 643.08 102.627 643.979 103.505 644.683C104.383 645.387 105.436 645.74 106.662 645.74C107.64 645.74 108.506 645.516 109.26 645.068C110.022 644.613 110.619 643.987 111.049 643.192C111.489 642.396 111.708 641.489 111.708 640.47C111.708 639.434 111.484 638.51 111.037 637.698C110.59 636.886 109.972 636.248 109.185 635.784C108.406 635.32 107.511 635.084 106.5 635.075C105.73 635.075 104.955 635.208 104.176 635.473C103.397 635.738 102.768 636.086 102.287 636.517L98.7696 635.995L100.199 623.169H114.194V626.462H103.393L102.585 633.584H102.734C103.232 633.103 103.89 632.702 104.711 632.378C105.539 632.055 106.426 631.894 107.37 631.894C108.92 631.894 110.3 632.262 111.509 633C112.727 633.737 113.684 634.744 114.38 636.02C115.085 637.288 115.433 638.746 115.424 640.395C115.433 642.044 115.06 643.515 114.306 644.807C113.56 646.1 112.524 647.119 111.199 647.865C109.881 648.602 108.369 648.971 106.662 648.971ZM136.751 643.85V642.508C136.751 641.547 136.95 640.669 137.347 639.873C137.753 639.069 138.342 638.427 139.112 637.947C139.891 637.458 140.832 637.213 141.934 637.213C143.06 637.213 144.005 637.454 144.767 637.934C145.53 638.415 146.106 639.057 146.495 639.861C146.893 640.664 147.092 641.547 147.092 642.508V643.85C147.092 644.811 146.893 645.694 146.495 646.498C146.097 647.293 145.513 647.935 144.743 648.424C143.98 648.905 143.044 649.145 141.934 649.145C140.815 649.145 139.87 648.905 139.1 648.424C138.329 647.935 137.745 647.293 137.347 646.498C136.95 645.694 136.751 644.811 136.751 643.85ZM139.647 642.508V643.85C139.647 644.563 139.817 645.209 140.156 645.789C140.496 646.369 141.088 646.659 141.934 646.659C142.77 646.659 143.355 646.369 143.686 645.789C144.018 645.209 144.183 644.563 144.183 643.85V642.508C144.183 641.795 144.022 641.149 143.699 640.569C143.384 639.989 142.795 639.699 141.934 639.699C141.105 639.699 140.517 639.989 140.169 640.569C139.821 641.149 139.647 641.795 139.647 642.508ZM123.949 629.284V627.941C123.949 626.98 124.148 626.098 124.545 625.294C124.951 624.49 125.54 623.848 126.31 623.367C127.089 622.887 128.03 622.646 129.132 622.646C130.259 622.646 131.203 622.887 131.966 623.367C132.728 623.848 133.304 624.49 133.693 625.294C134.083 626.098 134.277 626.98 134.277 627.941V629.284C134.277 630.245 134.078 631.127 133.681 631.931C133.291 632.726 132.711 633.369 131.941 633.857C131.178 634.338 130.242 634.578 129.132 634.578C128.005 634.578 127.056 634.338 126.286 633.857C125.523 633.369 124.943 632.726 124.545 631.931C124.148 631.127 123.949 630.245 123.949 629.284ZM126.857 627.941V629.284C126.857 629.996 127.023 630.642 127.354 631.222C127.694 631.802 128.287 632.093 129.132 632.093C129.96 632.093 130.54 631.802 130.872 631.222C131.212 630.642 131.381 629.996 131.381 629.284V627.941C131.381 627.229 131.22 626.582 130.897 626.002C130.574 625.422 129.985 625.132 129.132 625.132C128.303 625.132 127.715 625.422 127.367 626.002C127.027 626.582 126.857 627.229 126.857 627.941ZM125.13 648.623L142.63 623.169H145.6L128.1 648.623H125.13Z" fill="white"/>
<path d="M86.9857 738.497V763.951H83.1327V742.35H82.9836L76.8934 746.327V742.648L83.2446 738.497H86.9857ZM106.233 764.374C104.269 764.365 102.592 763.848 101.199 762.82C99.8074 761.793 98.7427 760.297 98.0052 758.333C97.2678 756.369 96.8991 754.004 96.8991 751.236C96.8991 748.477 97.2678 746.12 98.0052 744.164C98.751 742.209 99.8199 740.717 101.212 739.69C102.612 738.662 104.286 738.149 106.233 738.149C108.18 738.149 109.85 738.666 111.242 739.702C112.634 740.73 113.699 742.221 114.436 744.177C115.182 746.124 115.555 748.477 115.555 751.236C115.555 754.012 115.186 756.382 114.449 758.346C113.711 760.301 112.647 761.797 111.255 762.833C109.862 763.86 108.189 764.374 106.233 764.374ZM106.233 761.055C107.957 761.055 109.303 760.214 110.273 758.532C111.25 756.85 111.739 754.418 111.739 751.236C111.739 749.123 111.516 747.338 111.068 745.879C110.629 744.413 109.995 743.302 109.166 742.548C108.346 741.786 107.368 741.405 106.233 741.405C104.518 741.405 103.172 742.25 102.194 743.941C101.216 745.631 100.723 748.063 100.715 751.236C100.715 753.358 100.934 755.151 101.373 756.618C101.821 758.076 102.455 759.183 103.275 759.937C104.095 760.682 105.081 761.055 106.233 761.055ZM136.751 759.178V757.836C136.751 756.875 136.95 755.997 137.347 755.201C137.753 754.397 138.342 753.755 139.112 753.275C139.891 752.786 140.832 752.541 141.934 752.541C143.06 752.541 144.005 752.782 144.767 753.262C145.53 753.743 146.106 754.385 146.495 755.189C146.893 755.992 147.092 756.875 147.092 757.836V759.178C147.092 760.14 146.893 761.022 146.495 761.826C146.097 762.621 145.513 763.263 144.743 763.752C143.98 764.233 143.044 764.473 141.934 764.473C140.815 764.473 139.87 764.233 139.1 763.752C138.329 763.263 137.745 762.621 137.347 761.826C136.95 761.022 136.751 760.14 136.751 759.178ZM139.647 757.836V759.178C139.647 759.891 139.817 760.537 140.156 761.117C140.496 761.697 141.088 761.987 141.934 761.987C142.77 761.987 143.355 761.697 143.686 761.117C144.018 760.537 144.183 759.891 144.183 759.178V757.836C144.183 757.124 144.022 756.477 143.699 755.897C143.384 755.317 142.795 755.027 141.934 755.027C141.105 755.027 140.517 755.317 140.169 755.897C139.821 756.477 139.647 757.124 139.647 757.836ZM123.949 744.612V743.269C123.949 742.308 124.148 741.426 124.545 740.622C124.951 739.818 125.54 739.176 126.31 738.695C127.089 738.215 128.03 737.975 129.132 737.975C130.259 737.975 131.203 738.215 131.966 738.695C132.728 739.176 133.304 739.818 133.693 740.622C134.083 741.426 134.277 742.308 134.277 743.269V744.612C134.277 745.573 134.078 746.455 133.681 747.259C133.291 748.055 132.711 748.697 131.941 749.186C131.178 749.666 130.242 749.906 129.132 749.906C128.005 749.906 127.056 749.666 126.286 749.186C125.523 748.697 124.943 748.055 124.545 747.259C124.148 746.455 123.949 745.573 123.949 744.612ZM126.857 743.269V744.612C126.857 745.324 127.023 745.971 127.354 746.551C127.694 747.131 128.287 747.421 129.132 747.421C129.96 747.421 130.54 747.131 130.872 746.551C131.212 745.971 131.381 745.324 131.381 744.612V743.269C131.381 742.557 131.22 741.91 130.897 741.33C130.574 740.75 129.985 740.46 129.132 740.46C128.303 740.46 127.715 740.75 127.367 741.33C127.027 741.91 126.857 742.557 126.857 743.269ZM125.13 763.951L142.63 738.497H145.6L128.1 763.951H125.13Z" fill="white"/>
<path d="M106.662 878.625C105.104 878.625 103.704 878.327 102.461 877.73C101.226 877.126 100.24 876.297 99.5029 875.245C98.7655 874.192 98.3719 872.991 98.3222 871.64H102.051C102.142 872.734 102.627 873.633 103.505 874.337C104.383 875.042 105.436 875.394 106.662 875.394C107.64 875.394 108.506 875.17 109.26 874.723C110.022 874.267 110.619 873.641 111.049 872.846C111.489 872.05 111.708 871.143 111.708 870.124C111.708 869.088 111.484 868.164 111.037 867.352C110.59 866.54 109.972 865.902 109.185 865.438C108.406 864.974 107.511 864.738 106.5 864.73C105.73 864.73 104.955 864.862 104.176 865.127C103.397 865.393 102.768 865.741 102.287 866.172L98.7696 865.65L100.199 852.823H114.194V856.116H103.393L102.585 863.238H102.734C103.232 862.758 103.89 862.356 104.711 862.033C105.539 861.71 106.426 861.548 107.37 861.548C108.92 861.548 110.3 861.917 111.509 862.654C112.727 863.392 113.684 864.398 114.38 865.674C115.085 866.942 115.433 868.4 115.424 870.049C115.433 871.698 115.06 873.169 114.306 874.462C113.56 875.754 112.524 876.773 111.199 877.519C109.881 878.257 108.369 878.625 106.662 878.625ZM136.751 873.505V872.162C136.751 871.201 136.95 870.323 137.347 869.527C137.753 868.724 138.342 868.081 139.112 867.601C139.891 867.112 140.832 866.868 141.934 866.868C143.06 866.868 144.005 867.108 144.767 867.588C145.53 868.069 146.106 868.711 146.495 869.515C146.893 870.319 147.092 871.201 147.092 872.162V873.505C147.092 874.466 146.893 875.348 146.495 876.152C146.097 876.947 145.513 877.59 144.743 878.078C143.98 878.559 143.044 878.799 141.934 878.799C140.815 878.799 139.87 878.559 139.1 878.078C138.329 877.59 137.745 876.947 137.347 876.152C136.95 875.348 136.751 874.466 136.751 873.505ZM139.647 872.162V873.505C139.647 874.217 139.817 874.864 140.156 875.444C140.496 876.024 141.088 876.314 141.934 876.314C142.77 876.314 143.355 876.024 143.686 875.444C144.018 874.864 144.183 874.217 144.183 873.505V872.162C144.183 871.45 144.022 870.803 143.699 870.223C143.384 869.643 142.795 869.353 141.934 869.353C141.105 869.353 140.517 869.643 140.169 870.223C139.821 870.803 139.647 871.45 139.647 872.162ZM123.949 858.938V857.596C123.949 856.634 124.148 855.752 124.545 854.948C124.951 854.144 125.54 853.502 126.31 853.022C127.089 852.541 128.03 852.301 129.132 852.301C130.259 852.301 131.203 852.541 131.966 853.022C132.728 853.502 133.304 854.144 133.693 854.948C134.083 855.752 134.277 856.634 134.277 857.596V858.938C134.277 859.899 134.078 860.781 133.681 861.585C133.291 862.381 132.711 863.023 131.941 863.512C131.178 863.992 130.242 864.233 129.132 864.233C128.005 864.233 127.056 863.992 126.286 863.512C125.523 863.023 124.943 862.381 124.545 861.585C124.148 860.781 123.949 859.899 123.949 858.938ZM126.857 857.596V858.938C126.857 859.65 127.023 860.297 127.354 860.877C127.694 861.457 128.287 861.747 129.132 861.747C129.96 861.747 130.54 861.457 130.872 860.877C131.212 860.297 131.381 859.65 131.381 858.938V857.596C131.381 856.883 131.22 856.237 130.897 855.657C130.574 855.077 129.985 854.787 129.132 854.787C128.303 854.787 127.715 855.077 127.367 855.657C127.027 856.237 126.857 856.883 126.857 857.596ZM125.13 878.277L142.63 852.823H145.6L128.1 878.277H125.13Z" fill="white"/>
<path d="M106.233 994.028C104.269 994.02 102.592 993.502 101.199 992.474C99.8074 991.447 98.7427 989.951 98.0052 987.988C97.2678 986.024 96.8991 983.658 96.8991 980.891C96.8991 978.131 97.2678 975.774 98.0052 973.819C98.751 971.863 99.8199 970.372 101.212 969.344C102.612 968.317 104.286 967.803 106.233 967.803C108.18 967.803 109.85 968.321 111.242 969.357C112.634 970.384 113.699 971.875 114.436 973.831C115.182 975.778 115.555 978.131 115.555 980.891C115.555 983.666 115.186 986.036 114.449 988C113.711 989.955 112.647 991.451 111.255 992.487C109.862 993.514 108.189 994.028 106.233 994.028ZM106.233 990.71C107.957 990.71 109.303 989.868 110.273 988.186C111.25 986.504 111.739 984.072 111.739 980.891C111.739 978.778 111.516 976.992 111.068 975.534C110.629 974.067 109.995 972.957 109.166 972.203C108.346 971.44 107.368 971.059 106.233 971.059C104.518 971.059 103.172 971.904 102.194 973.595C101.216 975.285 100.723 977.717 100.715 980.891C100.715 983.012 100.934 984.806 101.373 986.272C101.821 987.731 102.455 988.837 103.275 989.591C104.095 990.337 105.081 990.71 106.233 990.71ZM136.751 988.833V987.49C136.751 986.529 136.95 985.651 137.347 984.855C137.753 984.052 138.342 983.41 139.112 982.929C139.891 982.44 140.832 982.196 141.934 982.196C143.06 982.196 144.005 982.436 144.767 982.917C145.53 983.397 146.106 984.039 146.495 984.843C146.893 985.647 147.092 986.529 147.092 987.49V988.833C147.092 989.794 146.893 990.676 146.495 991.48C146.097 992.276 145.513 992.918 144.743 993.407C143.98 993.887 143.044 994.127 141.934 994.127C140.815 994.127 139.87 993.887 139.1 993.407C138.329 992.918 137.745 992.276 137.347 991.48C136.95 990.676 136.751 989.794 136.751 988.833ZM139.647 987.49V988.833C139.647 989.545 139.817 990.192 140.156 990.772C140.496 991.352 141.088 991.642 141.934 991.642C142.77 991.642 143.355 991.352 143.686 990.772C144.018 990.192 144.183 989.545 144.183 988.833V987.49C144.183 986.778 144.022 986.132 143.699 985.551C143.384 984.971 142.795 984.681 141.934 984.681C141.105 984.681 140.517 984.971 140.169 985.551C139.821 986.132 139.647 986.778 139.647 987.49ZM123.949 974.266V972.924C123.949 971.962 124.148 971.08 124.545 970.276C124.951 969.473 125.54 968.83 126.31 968.35C127.089 967.869 128.03 967.629 129.132 967.629C130.259 967.629 131.203 967.869 131.966 968.35C132.728 968.83 133.304 969.473 133.693 970.276C134.083 971.08 134.277 971.962 134.277 972.924V974.266C134.277 975.227 134.078 976.11 133.681 976.913C133.291 977.709 132.711 978.351 131.941 978.84C131.178 979.32 130.242 979.561 129.132 979.561C128.005 979.561 127.056 979.32 126.286 978.84C125.523 978.351 124.943 977.709 124.545 976.913C124.148 976.11 123.949 975.227 123.949 974.266ZM126.857 972.924V974.266C126.857 974.979 127.023 975.625 127.354 976.205C127.694 976.785 128.287 977.075 129.132 977.075C129.96 977.075 130.54 976.785 130.872 976.205C131.212 975.625 131.381 974.979 131.381 974.266V972.924C131.381 972.211 131.22 971.565 130.897 970.985C130.574 970.405 129.985 970.115 129.132 970.115C128.303 970.115 127.715 970.405 127.367 970.985C127.027 971.565 126.857 972.211 126.857 972.924ZM125.13 993.605L142.63 968.151H145.6L128.1 993.605H125.13Z" fill="white"/>
<path d="M73.2952 421.978V419.193L81.9085 410.269C82.8282 409.3 83.5864 408.451 84.183 407.722C84.7878 406.984 85.2394 406.284 85.5377 405.621C85.836 404.958 85.9852 404.254 85.9852 403.508C85.9852 402.663 85.7863 401.934 85.3886 401.321C84.9909 400.699 84.4481 400.223 83.7604 399.891C83.0727 399.552 82.2979 399.382 81.4362 399.382C80.5247 399.382 79.7293 399.568 79.0498 399.941C78.3704 400.314 77.8483 400.84 77.4838 401.519C77.1192 402.199 76.9369 402.994 76.9369 403.906H73.2703C73.2703 402.356 73.6266 401.002 74.3392 399.842C75.0518 398.681 76.0296 397.782 77.2725 397.144C78.5154 396.498 79.9281 396.175 81.5107 396.175C83.1099 396.175 84.5186 396.494 85.7366 397.132C86.9629 397.762 87.92 398.623 88.6077 399.717C89.2954 400.803 89.6393 402.029 89.6393 403.396C89.6393 404.341 89.4611 405.265 89.1048 406.168C88.7568 407.071 88.1478 408.078 87.2778 409.188C86.4078 410.29 85.198 411.628 83.6485 413.203L78.5899 418.497V418.684H90.0494V421.978H73.2952ZM106.662 422.326C105.104 422.326 103.704 422.027 102.461 421.431C101.226 420.826 100.24 419.997 99.5029 418.945C98.7655 417.893 98.3719 416.691 98.3222 415.34H102.051C102.142 416.434 102.627 417.333 103.505 418.038C104.383 418.742 105.436 419.094 106.662 419.094C107.64 419.094 108.506 418.87 109.26 418.423C110.022 417.967 110.619 417.342 111.049 416.546C111.489 415.751 111.708 414.843 111.708 413.824C111.708 412.788 111.484 411.864 111.037 411.052C110.59 410.24 109.972 409.602 109.185 409.138C108.406 408.674 107.511 408.438 106.5 408.43C105.73 408.43 104.955 408.563 104.176 408.828C103.397 409.093 102.768 409.441 102.287 409.872L98.7696 409.35L100.199 396.523H114.194V399.817H103.393L102.585 406.938H102.734C103.232 406.458 103.89 406.056 104.711 405.733C105.539 405.41 106.426 405.248 107.37 405.248C108.92 405.248 110.3 405.617 111.509 406.354C112.727 407.092 113.684 408.099 114.38 409.375C115.085 410.642 115.433 412.101 115.424 413.75C115.433 415.398 115.06 416.869 114.306 418.162C113.56 419.454 112.524 420.474 111.199 421.219C109.881 421.957 108.369 422.326 106.662 422.326ZM136.751 417.205V415.862C136.751 414.901 136.95 414.023 137.347 413.228C137.753 412.424 138.342 411.782 139.112 411.301C139.891 410.812 140.832 410.568 141.934 410.568C143.06 410.568 144.005 410.808 144.767 411.289C145.53 411.769 146.106 412.411 146.495 413.215C146.893 414.019 147.092 414.901 147.092 415.862V417.205C147.092 418.166 146.893 419.048 146.495 419.852C146.097 420.648 145.513 421.29 144.743 421.779C143.98 422.259 143.044 422.5 141.934 422.5C140.815 422.5 139.87 422.259 139.1 421.779C138.329 421.29 137.745 420.648 137.347 419.852C136.95 419.048 136.751 418.166 136.751 417.205ZM139.647 415.862V417.205C139.647 417.917 139.817 418.564 140.156 419.144C140.496 419.724 141.088 420.014 141.934 420.014C142.77 420.014 143.355 419.724 143.686 419.144C144.018 418.564 144.183 417.917 144.183 417.205V415.862C144.183 415.15 144.022 414.504 143.699 413.924C143.384 413.344 142.795 413.054 141.934 413.054C141.105 413.054 140.517 413.344 140.169 413.924C139.821 414.504 139.647 415.15 139.647 415.862ZM123.949 402.638V401.296C123.949 400.335 124.148 399.452 124.545 398.648C124.951 397.845 125.54 397.202 126.31 396.722C127.089 396.241 128.03 396.001 129.132 396.001C130.259 396.001 131.203 396.241 131.966 396.722C132.728 397.202 133.304 397.845 133.693 398.648C134.083 399.452 134.277 400.335 134.277 401.296V402.638C134.277 403.599 134.078 404.482 133.681 405.285C133.291 406.081 132.711 406.723 131.941 407.212C131.178 407.693 130.242 407.933 129.132 407.933C128.005 407.933 127.056 407.693 126.286 407.212C125.523 406.723 124.943 406.081 124.545 405.285C124.148 404.482 123.949 403.599 123.949 402.638ZM126.857 401.296V402.638C126.857 403.351 127.023 403.997 127.354 404.577C127.694 405.157 128.287 405.447 129.132 405.447C129.96 405.447 130.54 405.157 130.872 404.577C131.212 403.997 131.381 403.351 131.381 402.638V401.296C131.381 400.583 131.22 399.937 130.897 399.357C130.574 398.777 129.985 398.487 129.132 398.487C128.303 398.487 127.715 398.777 127.367 399.357C127.027 399.937 126.857 400.583 126.857 401.296ZM125.13 421.978L142.63 396.523H145.6L128.1 421.978H125.13Z" fill="white"/>
<path d="M80.1746 306.996C78.4677 306.996 76.9431 306.702 75.6008 306.114C74.2667 305.526 73.2103 304.71 72.4314 303.665C71.6608 302.613 71.2465 301.395 71.1885 300.011H75.0912C75.1409 300.765 75.3936 301.42 75.8493 301.975C76.3134 302.522 76.9182 302.945 77.664 303.243C78.4097 303.541 79.2383 303.69 80.1498 303.69C81.1524 303.69 82.039 303.516 82.8096 303.168C83.5885 302.82 84.1975 302.336 84.6366 301.714C85.0758 301.084 85.2954 300.359 85.2954 299.539C85.2954 298.686 85.0758 297.936 84.6366 297.289C84.2058 296.635 83.5719 296.121 82.735 295.748C81.9064 295.375 80.9038 295.189 79.7272 295.189H77.577V292.057H79.7272C80.6718 292.057 81.5004 291.887 82.213 291.547C82.9339 291.208 83.4973 290.735 83.9033 290.13C84.3093 289.517 84.5123 288.8 84.5123 287.98C84.5123 287.193 84.3342 286.509 83.9779 285.929C83.6299 285.341 83.1327 284.881 82.4864 284.55C81.8484 284.218 81.0944 284.053 80.2243 284.053C79.3957 284.053 78.621 284.206 77.9001 284.512C77.1875 284.811 76.6075 285.242 76.1601 285.805C75.7126 286.36 75.4723 287.027 75.4392 287.806H71.7229C71.7644 286.431 72.1704 285.221 72.941 284.177C73.7198 283.133 74.7473 282.317 76.0233 281.728C77.2994 281.14 78.7163 280.846 80.2741 280.846C81.9064 280.846 83.315 281.165 84.4999 281.803C85.6931 282.433 86.6128 283.274 87.2591 284.326C87.9137 285.378 88.2369 286.53 88.2286 287.781C88.2369 289.206 87.8392 290.416 87.0354 291.411C86.24 292.405 85.1794 293.072 83.8536 293.412V293.61C85.5439 293.867 86.8531 294.538 87.7812 295.624C88.7175 296.709 89.1815 298.056 89.1732 299.663C89.1815 301.064 88.7921 302.319 88.0049 303.429C87.226 304.54 86.1613 305.414 84.8106 306.052C83.46 306.682 81.9147 306.996 80.1746 306.996ZM106.233 307.071C104.269 307.063 102.592 306.545 101.199 305.517C99.8074 304.49 98.7427 302.994 98.0052 301.031C97.2678 299.067 96.8991 296.701 96.8991 293.934C96.8991 291.174 97.2678 288.817 98.0052 286.862C98.751 284.906 99.8199 283.415 101.212 282.387C102.612 281.36 104.286 280.846 106.233 280.846C108.18 280.846 109.85 281.364 111.242 282.4C112.634 283.427 113.699 284.918 114.436 286.874C115.182 288.821 115.555 291.174 115.555 293.934C115.555 296.709 115.186 299.079 114.449 301.043C113.711 302.998 112.647 304.494 111.255 305.53C109.862 306.557 108.189 307.071 106.233 307.071ZM106.233 303.752C107.957 303.752 109.303 302.911 110.273 301.229C111.25 299.547 111.739 297.115 111.739 293.934C111.739 291.821 111.516 290.035 111.068 288.577C110.629 287.11 109.995 286 109.166 285.246C108.346 284.483 107.368 284.102 106.233 284.102C104.518 284.102 103.172 284.947 102.194 286.638C101.216 288.328 100.723 290.76 100.715 293.934C100.715 296.055 100.934 297.849 101.373 299.315C101.821 300.774 102.455 301.88 103.275 302.634C104.095 303.38 105.081 303.752 106.233 303.752ZM136.751 301.876V300.533C136.751 299.572 136.95 298.694 137.347 297.898C137.753 297.095 138.342 296.453 139.112 295.972C139.891 295.483 140.832 295.239 141.934 295.239C143.06 295.239 144.005 295.479 144.767 295.96C145.53 296.44 146.106 297.082 146.495 297.886C146.893 298.69 147.092 299.572 147.092 300.533V301.876C147.092 302.837 146.893 303.719 146.495 304.523C146.097 305.319 145.513 305.961 144.743 306.45C143.98 306.93 143.044 307.17 141.934 307.17C140.815 307.17 139.87 306.93 139.1 306.45C138.329 305.961 137.745 305.319 137.347 304.523C136.95 303.719 136.751 302.837 136.751 301.876ZM139.647 300.533V301.876C139.647 302.588 139.817 303.235 140.156 303.815C140.496 304.395 141.088 304.685 141.934 304.685C142.77 304.685 143.355 304.395 143.686 303.815C144.018 303.235 144.183 302.588 144.183 301.876V300.533C144.183 299.821 144.022 299.174 143.699 298.594C143.384 298.014 142.795 297.724 141.934 297.724C141.105 297.724 140.517 298.014 140.169 298.594C139.821 299.174 139.647 299.821 139.647 300.533ZM123.949 287.309V285.967C123.949 285.005 124.148 284.123 124.545 283.319C124.951 282.516 125.54 281.873 126.31 281.393C127.089 280.912 128.03 280.672 129.132 280.672C130.259 280.672 131.203 280.912 131.966 281.393C132.728 281.873 133.304 282.516 133.693 283.319C134.083 284.123 134.277 285.005 134.277 285.967V287.309C134.277 288.27 134.078 289.153 133.681 289.956C133.291 290.752 132.711 291.394 131.941 291.883C131.178 292.363 130.242 292.604 129.132 292.604C128.005 292.604 127.056 292.363 126.286 291.883C125.523 291.394 124.943 290.752 124.545 289.956C124.148 289.153 123.949 288.27 123.949 287.309ZM126.857 285.967V287.309C126.857 288.022 127.023 288.668 127.354 289.248C127.694 289.828 128.287 290.118 129.132 290.118C129.96 290.118 130.54 289.828 130.872 289.248C131.212 288.668 131.381 288.022 131.381 287.309V285.967C131.381 285.254 131.22 284.608 130.897 284.028C130.574 283.448 129.985 283.158 129.132 283.158C128.303 283.158 127.715 283.448 127.367 284.028C127.027 284.608 126.857 285.254 126.857 285.967ZM125.13 306.648L142.63 281.194H145.6L128.1 306.648H125.13Z" fill="white"/>
<path d="M81.0633 194.676C79.3564 194.676 77.8318 194.382 76.4894 193.794C75.1554 193.205 74.0989 192.389 73.32 191.345C72.5494 190.293 72.1352 189.075 72.0771 187.691H75.9798C76.0296 188.445 76.2823 189.1 76.738 189.655C77.202 190.202 77.8069 190.624 78.5526 190.923C79.2984 191.221 80.127 191.37 81.0384 191.37C82.041 191.37 82.9276 191.196 83.6982 190.848C84.4771 190.5 85.0861 190.015 85.5253 189.394C85.9645 188.764 86.184 188.039 86.184 187.219C86.184 186.365 85.9645 185.615 85.5253 184.969C85.0944 184.315 84.4606 183.801 83.6237 183.428C82.7951 183.055 81.7925 182.869 80.6159 182.869H78.4656V179.737H80.6159C81.5605 179.737 82.3891 179.567 83.1017 179.227C83.8225 178.887 84.386 178.415 84.792 177.81C85.198 177.197 85.401 176.48 85.401 175.66C85.401 174.873 85.2229 174.189 84.8666 173.609C84.5186 173.021 84.0214 172.561 83.3751 172.229C82.7371 171.898 81.983 171.732 81.113 171.732C80.2844 171.732 79.5097 171.886 78.7888 172.192C78.0762 172.49 77.4962 172.921 77.0487 173.485C76.6013 174.04 76.361 174.707 76.3279 175.486H72.6116C72.653 174.11 73.059 172.901 73.8296 171.857C74.6085 170.812 75.636 169.996 76.912 169.408C78.1881 168.82 79.605 168.526 81.1627 168.526C82.7951 168.526 84.2037 168.845 85.3886 169.483C86.5818 170.112 87.5015 170.953 88.1478 172.006C88.8024 173.058 89.1256 174.21 89.1173 175.461C89.1256 176.886 88.7278 178.096 87.9241 179.09C87.1286 180.085 86.068 180.752 84.7423 181.091V181.29C86.4326 181.547 87.7418 182.218 88.6698 183.304C89.6062 184.389 90.0702 185.736 90.0619 187.343C90.0702 188.743 89.6807 189.999 88.8936 191.109C88.1147 192.219 87.0499 193.094 85.6993 193.732C84.3487 194.361 82.8034 194.676 81.0633 194.676ZM106.662 194.676C105.104 194.676 103.704 194.378 102.461 193.781C101.226 193.176 100.24 192.348 99.5029 191.295C98.7655 190.243 98.3719 189.042 98.3222 187.691H102.051C102.142 188.785 102.627 189.684 103.505 190.388C104.383 191.092 105.436 191.445 106.662 191.445C107.64 191.445 108.506 191.221 109.26 190.773C110.022 190.318 110.619 189.692 111.049 188.897C111.489 188.101 111.708 187.194 111.708 186.175C111.708 185.139 111.484 184.215 111.037 183.403C110.59 182.591 109.972 181.953 109.185 181.489C108.406 181.025 107.511 180.789 106.5 180.781C105.73 180.781 104.955 180.913 104.176 181.178C103.397 181.443 102.768 181.791 102.287 182.222L98.7696 181.7L100.199 168.874H114.194V172.167H103.393L102.585 179.289H102.734C103.232 178.808 103.89 178.407 104.711 178.083C105.539 177.76 106.426 177.599 107.37 177.599C108.92 177.599 110.3 177.967 111.509 178.705C112.727 179.442 113.684 180.449 114.38 181.725C115.085 182.993 115.433 184.451 115.424 186.1C115.433 187.749 115.06 189.22 114.306 190.512C113.56 191.805 112.524 192.824 111.199 193.57C109.881 194.307 108.369 194.676 106.662 194.676ZM136.751 189.555V188.213C136.751 187.252 136.95 186.374 137.347 185.578C137.753 184.774 138.342 184.132 139.112 183.652C139.891 183.163 140.832 182.918 141.934 182.918C143.06 182.918 144.005 183.159 144.767 183.639C145.53 184.12 146.106 184.762 146.495 185.566C146.893 186.369 147.092 187.252 147.092 188.213V189.555C147.092 190.517 146.893 191.399 146.495 192.203C146.097 192.998 145.513 193.64 144.743 194.129C143.98 194.61 143.044 194.85 141.934 194.85C140.815 194.85 139.87 194.61 139.1 194.129C138.329 193.64 137.745 192.998 137.347 192.203C136.95 191.399 136.751 190.517 136.751 189.555ZM139.647 188.213V189.555C139.647 190.268 139.817 190.914 140.156 191.494C140.496 192.074 141.088 192.364 141.934 192.364C142.77 192.364 143.355 192.074 143.686 191.494C144.018 190.914 144.183 190.268 144.183 189.555V188.213C144.183 187.5 144.022 186.854 143.699 186.274C143.384 185.694 142.795 185.404 141.934 185.404C141.105 185.404 140.517 185.694 140.169 186.274C139.821 186.854 139.647 187.5 139.647 188.213ZM123.949 174.989V173.646C123.949 172.685 124.148 171.803 124.545 170.999C124.951 170.195 125.54 169.553 126.31 169.072C127.089 168.592 128.03 168.352 129.132 168.352C130.259 168.352 131.203 168.592 131.966 169.072C132.728 169.553 133.304 170.195 133.693 170.999C134.083 171.803 134.277 172.685 134.277 173.646V174.989C134.277 175.95 134.078 176.832 133.681 177.636C133.291 178.431 132.711 179.074 131.941 179.562C131.178 180.043 130.242 180.283 129.132 180.283C128.005 180.283 127.056 180.043 126.286 179.562C125.523 179.074 124.943 178.431 124.545 177.636C124.148 176.832 123.949 175.95 123.949 174.989ZM126.857 173.646V174.989C126.857 175.701 127.023 176.348 127.354 176.928C127.694 177.508 128.287 177.798 129.132 177.798C129.96 177.798 130.54 177.508 130.872 176.928C131.212 176.348 131.381 175.701 131.381 174.989V173.646C131.381 172.934 131.22 172.287 130.897 171.707C130.574 171.127 129.985 170.837 129.132 170.837C128.303 170.837 127.715 171.127 127.367 171.707C127.027 172.287 126.857 172.934 126.857 173.646ZM125.13 194.328L142.63 168.874H145.6L128.1 194.328H125.13Z" fill="white"/>
<path d="M70.4365 74.0284V70.9212L81.4362 53.5455H83.8847V58.1193H82.3311L74.4635 70.5732V70.772H89.5399V74.0284H70.4365ZM82.5051 79V73.0838L82.5299 71.6669V53.5455H86.1716V79H82.5051ZM106.233 79.4226C104.269 79.4143 102.592 78.8964 101.199 77.869C99.8074 76.8415 98.7427 75.3459 98.0052 73.3821C97.2678 71.4183 96.8991 69.0527 96.8991 66.2852C96.8991 63.5259 97.2678 61.1686 98.0052 59.2131C98.751 57.2576 99.8199 55.7661 101.212 54.7386C102.612 53.7112 104.286 53.1974 106.233 53.1974C108.18 53.1974 109.85 53.7153 111.242 54.7511C112.634 55.7785 113.699 57.27 114.436 59.2255C115.182 61.1727 115.555 63.5259 115.555 66.2852C115.555 69.061 115.186 71.4308 114.449 73.3945C113.711 75.35 112.647 76.8456 111.255 77.8814C109.862 78.9089 108.189 79.4226 106.233 79.4226ZM106.233 76.104C107.957 76.104 109.303 75.263 110.273 73.581C111.25 71.8989 111.739 69.467 111.739 66.2852C111.739 64.1722 111.516 62.3866 111.068 60.9283C110.629 59.4616 109.995 58.3513 109.166 57.5973C108.346 56.835 107.368 56.4538 106.233 56.4538C104.518 56.4538 103.172 57.299 102.194 58.9893C101.216 60.6797 100.723 63.1116 100.715 66.2852C100.715 68.4064 100.934 70.2003 101.373 71.6669C101.821 73.1252 102.455 74.2314 103.275 74.9854C104.095 75.7312 105.081 76.104 106.233 76.104ZM136.751 74.2273V72.8849C136.751 71.9238 136.95 71.0455 137.347 70.25C137.753 69.4463 138.342 68.8041 139.112 68.3235C139.891 67.8346 140.832 67.5902 141.934 67.5902C143.06 67.5902 144.005 67.8305 144.767 68.3111C145.53 68.7917 146.106 69.4338 146.495 70.2376C146.893 71.0413 147.092 71.9238 147.092 72.8849V74.2273C147.092 75.1884 146.893 76.0709 146.495 76.8746C146.097 77.6701 145.513 78.3123 144.743 78.8011C143.98 79.2817 143.044 79.522 141.934 79.522C140.815 79.522 139.87 79.2817 139.1 78.8011C138.329 78.3123 137.745 77.6701 137.347 76.8746C136.95 76.0709 136.751 75.1884 136.751 74.2273ZM139.647 72.8849V74.2273C139.647 74.9399 139.817 75.5862 140.156 76.1662C140.496 76.7462 141.088 77.0362 141.934 77.0362C142.77 77.0362 143.355 76.7462 143.686 76.1662C144.018 75.5862 144.183 74.9399 144.183 74.2273V72.8849C144.183 72.1723 144.022 71.526 143.699 70.946C143.384 70.366 142.795 70.076 141.934 70.076C141.105 70.076 140.517 70.366 140.169 70.946C139.821 71.526 139.647 72.1723 139.647 72.8849ZM123.949 59.6605V58.3182C123.949 57.357 124.148 56.4745 124.545 55.6708C124.951 54.8671 125.54 54.2249 126.31 53.7443C127.089 53.2637 128.03 53.0234 129.132 53.0234C130.259 53.0234 131.203 53.2637 131.966 53.7443C132.728 54.2249 133.304 54.8671 133.693 55.6708C134.083 56.4745 134.277 57.357 134.277 58.3182V59.6605C134.277 60.6217 134.078 61.5041 133.681 62.3079C133.291 63.1033 132.711 63.7455 131.941 64.2344C131.178 64.715 130.242 64.9553 129.132 64.9553C128.005 64.9553 127.056 64.715 126.286 64.2344C125.523 63.7455 124.943 63.1033 124.545 62.3079C124.148 61.5041 123.949 60.6217 123.949 59.6605ZM126.857 58.3182V59.6605C126.857 60.3731 127.023 61.0194 127.354 61.5994C127.694 62.1795 128.287 62.4695 129.132 62.4695C129.96 62.4695 130.54 62.1795 130.872 61.5994C131.212 61.0194 131.381 60.3731 131.381 59.6605V58.3182C131.381 57.6056 131.22 56.9593 130.897 56.3793C130.574 55.7992 129.985 55.5092 129.132 55.5092C128.303 55.5092 127.715 55.7992 127.367 56.3793C127.027 56.9593 126.857 57.6056 126.857 58.3182ZM125.13 79L142.63 53.5455H145.6L128.1 79H125.13Z" fill="white"/>
<line x1="183" y1="1039.81" x2="1983" y2="1039.81" stroke="white" stroke-width="2"/>
<line x1="1561.5" y1="1055.82" x2="1561.5" y2="1025.79" stroke="white" stroke-width="3"/>
<line x1="1100.5" y1="1055.82" x2="1100.5" y2="1025.79" stroke="white" stroke-width="3"/>
<line x1="603.5" y1="1055.82" x2="603.5" y2="1025.79" stroke="white" stroke-width="3"/>
<line x1="181.5" y1="1055.82" x2="181.5" y2="1025.79" stroke="white" stroke-width="3"/>
<path d="M135.833 1089.88V1087.1L144.447 1078.17C145.366 1077.2 146.124 1076.35 146.721 1075.62C147.326 1074.89 147.778 1074.19 148.076 1073.52C148.374 1072.86 148.523 1072.16 148.523 1071.41C148.523 1070.57 148.324 1069.84 147.927 1069.22C147.529 1068.6 146.986 1068.13 146.298 1067.79C145.611 1067.45 144.836 1067.28 143.974 1067.28C143.063 1067.28 142.267 1067.47 141.588 1067.84C140.908 1068.22 140.386 1068.74 140.022 1069.42C139.657 1070.1 139.475 1070.9 139.475 1071.81H135.808C135.808 1070.26 136.165 1068.9 136.877 1067.74C137.59 1066.58 138.568 1065.68 139.811 1065.05C141.053 1064.4 142.466 1064.08 144.049 1064.08C145.648 1064.08 147.057 1064.4 148.275 1065.03C149.501 1065.66 150.458 1066.53 151.146 1067.62C151.834 1068.71 152.177 1069.93 152.177 1071.3C152.177 1072.24 151.999 1073.17 151.643 1074.07C151.295 1074.97 150.686 1075.98 149.816 1077.09C148.946 1078.19 147.736 1079.53 146.187 1081.11L141.128 1086.4V1086.59H152.588V1089.88H135.833ZM169.66 1090.3C167.696 1090.29 166.018 1089.78 164.626 1088.75C163.234 1087.72 162.169 1086.23 161.432 1084.26C160.695 1082.3 160.326 1079.93 160.326 1077.17C160.326 1074.41 160.695 1072.05 161.432 1070.09C162.178 1068.14 163.247 1066.65 164.639 1065.62C166.039 1064.59 167.713 1064.08 169.66 1064.08C171.607 1064.08 173.277 1064.6 174.669 1065.63C176.061 1066.66 177.126 1068.15 177.863 1070.11C178.609 1072.05 178.982 1074.41 178.982 1077.17C178.982 1079.94 178.613 1082.31 177.876 1084.27C177.138 1086.23 176.073 1087.73 174.681 1088.76C173.289 1089.79 171.615 1090.3 169.66 1090.3ZM169.66 1086.98C171.383 1086.98 172.73 1086.14 173.699 1084.46C174.677 1082.78 175.166 1080.35 175.166 1077.17C175.166 1075.05 174.942 1073.27 174.495 1071.81C174.056 1070.34 173.422 1069.23 172.593 1068.48C171.773 1067.71 170.795 1067.33 169.66 1067.33C167.945 1067.33 166.598 1068.18 165.621 1069.87C164.643 1071.56 164.15 1073.99 164.142 1077.17C164.142 1079.29 164.361 1081.08 164.8 1082.55C165.248 1084.01 165.882 1085.11 166.702 1085.87C167.522 1086.61 168.508 1086.98 169.66 1086.98ZM186.891 1089.88V1087.1L195.504 1078.17C196.424 1077.2 197.182 1076.35 197.779 1075.62C198.384 1074.89 198.835 1074.19 199.133 1073.52C199.432 1072.86 199.581 1072.16 199.581 1071.41C199.581 1070.57 199.382 1069.84 198.984 1069.22C198.587 1068.6 198.044 1068.13 197.356 1067.79C196.668 1067.45 195.894 1067.28 195.032 1067.28C194.12 1067.28 193.325 1067.47 192.646 1067.84C191.966 1068.22 191.444 1068.74 191.079 1069.42C190.715 1070.1 190.533 1070.9 190.533 1071.81H186.866C186.866 1070.26 187.222 1068.9 187.935 1067.74C188.648 1066.58 189.625 1065.68 190.868 1065.05C192.111 1064.4 193.524 1064.08 195.106 1064.08C196.706 1064.08 198.114 1064.4 199.332 1065.03C200.559 1065.66 201.516 1066.53 202.203 1067.62C202.891 1068.71 203.235 1069.93 203.235 1071.3C203.235 1072.24 203.057 1073.17 202.701 1074.07C202.353 1074.97 201.744 1075.98 200.873 1077.09C200.003 1078.19 198.794 1079.53 197.244 1081.11L192.186 1086.4V1086.59H203.645V1089.88H186.891ZM220.718 1090.3C218.754 1090.29 217.076 1089.78 215.684 1088.75C214.292 1087.72 213.227 1086.23 212.49 1084.26C211.752 1082.3 211.383 1079.93 211.383 1077.17C211.383 1074.41 211.752 1072.05 212.49 1070.09C213.235 1068.14 214.304 1066.65 215.696 1065.62C217.097 1064.59 218.77 1064.08 220.718 1064.08C222.665 1064.08 224.334 1064.6 225.726 1065.63C227.119 1066.66 228.183 1068.15 228.921 1070.11C229.666 1072.05 230.039 1074.41 230.039 1077.17C230.039 1079.94 229.671 1082.31 228.933 1084.27C228.196 1086.23 227.131 1087.73 225.739 1088.76C224.347 1089.79 222.673 1090.3 220.718 1090.3ZM220.718 1086.98C222.441 1086.98 223.788 1086.14 224.757 1084.46C225.735 1082.78 226.224 1080.35 226.224 1077.17C226.224 1075.05 226 1073.27 225.552 1071.81C225.113 1070.34 224.479 1069.23 223.651 1068.48C222.831 1067.71 221.853 1067.33 220.718 1067.33C219.002 1067.33 217.656 1068.18 216.678 1069.87C215.7 1071.56 215.207 1073.99 215.199 1077.17C215.199 1079.29 215.419 1081.08 215.858 1082.55C216.305 1084.01 216.939 1085.11 217.759 1085.87C218.58 1086.61 219.566 1086.98 220.718 1086.98Z" fill="white"/>
<path d="M563.883 1090V1087.22L572.496 1078.29C573.416 1077.32 574.174 1076.47 574.771 1075.74C575.376 1075.01 575.827 1074.31 576.126 1073.64C576.424 1072.98 576.573 1072.28 576.573 1071.53C576.573 1070.69 576.374 1069.96 575.976 1069.34C575.579 1068.72 575.036 1068.25 574.348 1067.91C573.661 1067.57 572.886 1067.4 572.024 1067.4C571.113 1067.4 570.317 1067.59 569.638 1067.96C568.958 1068.34 568.436 1068.86 568.072 1069.54C567.707 1070.22 567.525 1071.02 567.525 1071.93H563.858C563.858 1070.38 564.215 1069.02 564.927 1067.86C565.64 1066.7 566.617 1065.8 567.86 1065.17C569.103 1064.52 570.516 1064.2 572.099 1064.2C573.698 1064.2 575.106 1064.52 576.324 1065.15C577.551 1065.78 578.508 1066.65 579.196 1067.74C579.883 1068.83 580.227 1070.05 580.227 1071.42C580.227 1072.36 580.049 1073.29 579.693 1074.19C579.345 1075.09 578.736 1076.1 577.866 1077.21C576.996 1078.31 575.786 1079.65 574.236 1081.23L569.178 1086.52V1086.71H580.637V1090H563.883ZM597.71 1090.42C595.746 1090.41 594.068 1089.9 592.676 1088.87C591.284 1087.84 590.219 1086.35 589.482 1084.38C588.744 1082.42 588.376 1080.05 588.376 1077.29C588.376 1074.53 588.744 1072.17 589.482 1070.21C590.228 1068.26 591.296 1066.77 592.688 1065.74C594.089 1064.71 595.763 1064.2 597.71 1064.2C599.657 1064.2 601.327 1064.72 602.719 1065.75C604.111 1066.78 605.175 1068.27 605.913 1070.23C606.659 1072.17 607.032 1074.53 607.032 1077.29C607.032 1080.06 606.663 1082.43 605.925 1084.39C605.188 1086.35 604.123 1087.85 602.731 1088.88C601.339 1089.91 599.665 1090.42 597.71 1090.42ZM597.71 1087.1C599.433 1087.1 600.78 1086.26 601.749 1084.58C602.727 1082.9 603.216 1080.47 603.216 1077.29C603.216 1075.17 602.992 1073.39 602.545 1071.93C602.105 1070.46 601.472 1069.35 600.643 1068.6C599.823 1067.83 598.845 1067.45 597.71 1067.45C595.995 1067.45 594.648 1068.3 593.67 1069.99C592.693 1071.68 592.2 1074.11 592.191 1077.29C592.191 1079.41 592.411 1081.2 592.85 1082.67C593.297 1084.13 593.931 1085.23 594.752 1085.99C595.572 1086.73 596.558 1087.1 597.71 1087.1ZM614.941 1090V1087.22L623.554 1078.29C624.474 1077.32 625.232 1076.47 625.828 1075.74C626.433 1075.01 626.885 1074.31 627.183 1073.64C627.482 1072.98 627.631 1072.28 627.631 1071.53C627.631 1070.69 627.432 1069.96 627.034 1069.34C626.636 1068.72 626.094 1068.25 625.406 1067.91C624.718 1067.57 623.943 1067.4 623.082 1067.4C622.17 1067.4 621.375 1067.59 620.695 1067.96C620.016 1068.34 619.494 1068.86 619.129 1069.54C618.765 1070.22 618.582 1071.02 618.582 1071.93H614.916C614.916 1070.38 615.272 1069.02 615.985 1067.86C616.697 1066.7 617.675 1065.8 618.918 1065.17C620.161 1064.52 621.574 1064.2 623.156 1064.2C624.755 1064.2 626.164 1064.52 627.382 1065.15C628.608 1065.78 629.565 1066.65 630.253 1067.74C630.941 1068.83 631.285 1070.05 631.285 1071.42C631.285 1072.36 631.107 1073.29 630.75 1074.19C630.402 1075.09 629.793 1076.1 628.923 1077.21C628.053 1078.31 626.844 1079.65 625.294 1081.23L620.235 1086.52V1086.71H631.695V1090H614.941ZM649.563 1064.55V1090H645.71V1068.4H645.561L639.471 1072.38V1068.7L645.822 1064.55H649.563Z" fill="white"/>
<path d="M1055.96 1089.88V1087.1L1064.57 1078.17C1065.49 1077.2 1066.25 1076.35 1066.85 1075.62C1067.45 1074.89 1067.91 1074.19 1068.2 1073.52C1068.5 1072.86 1068.65 1072.16 1068.65 1071.41C1068.65 1070.57 1068.45 1069.84 1068.05 1069.22C1067.66 1068.6 1067.11 1068.13 1066.43 1067.79C1065.74 1067.45 1064.96 1067.28 1064.1 1067.28C1063.19 1067.28 1062.4 1067.47 1061.72 1067.84C1061.04 1068.22 1060.51 1068.74 1060.15 1069.42C1059.79 1070.1 1059.6 1070.9 1059.6 1071.81H1055.94C1055.94 1070.26 1056.29 1068.9 1057.01 1067.74C1057.72 1066.58 1058.7 1065.68 1059.94 1065.05C1061.18 1064.4 1062.59 1064.08 1064.18 1064.08C1065.78 1064.08 1067.18 1064.4 1068.4 1065.03C1069.63 1065.66 1070.59 1066.53 1071.27 1067.62C1071.96 1068.71 1072.31 1069.93 1072.31 1071.3C1072.31 1072.24 1072.13 1073.17 1071.77 1074.07C1071.42 1074.97 1070.81 1075.98 1069.94 1077.09C1069.07 1078.19 1067.86 1079.53 1066.31 1081.11L1061.26 1086.4V1086.59H1072.72V1089.88H1055.96ZM1089.79 1090.3C1087.82 1090.29 1086.15 1089.78 1084.75 1088.75C1083.36 1087.72 1082.3 1086.23 1081.56 1084.26C1080.82 1082.3 1080.45 1079.93 1080.45 1077.17C1080.45 1074.41 1080.82 1072.05 1081.56 1070.09C1082.31 1068.14 1083.37 1066.65 1084.77 1065.62C1086.17 1064.59 1087.84 1064.08 1089.79 1064.08C1091.74 1064.08 1093.4 1064.6 1094.8 1065.63C1096.19 1066.66 1097.25 1068.15 1097.99 1070.11C1098.74 1072.05 1099.11 1074.41 1099.11 1077.17C1099.11 1079.94 1098.74 1082.31 1098 1084.27C1097.27 1086.23 1096.2 1087.73 1094.81 1088.76C1093.42 1089.79 1091.74 1090.3 1089.79 1090.3ZM1089.79 1086.98C1091.51 1086.98 1092.86 1086.14 1093.83 1084.46C1094.81 1082.78 1095.29 1080.35 1095.29 1077.17C1095.29 1075.05 1095.07 1073.27 1094.62 1071.81C1094.18 1070.34 1093.55 1069.23 1092.72 1068.48C1091.9 1067.71 1090.92 1067.33 1089.79 1067.33C1088.07 1067.33 1086.73 1068.18 1085.75 1069.87C1084.77 1071.56 1084.28 1073.99 1084.27 1077.17C1084.27 1079.29 1084.49 1081.08 1084.93 1082.55C1085.38 1084.01 1086.01 1085.11 1086.83 1085.87C1087.65 1086.61 1088.64 1086.98 1089.79 1086.98ZM1107.02 1089.88V1087.1L1115.63 1078.17C1116.55 1077.2 1117.31 1076.35 1117.91 1075.62C1118.51 1074.89 1118.96 1074.19 1119.26 1073.52C1119.56 1072.86 1119.71 1072.16 1119.71 1071.41C1119.71 1070.57 1119.51 1069.84 1119.11 1069.22C1118.71 1068.6 1118.17 1068.13 1117.48 1067.79C1116.8 1067.45 1116.02 1067.28 1115.16 1067.28C1114.25 1067.28 1113.45 1067.47 1112.77 1067.84C1112.09 1068.22 1111.57 1068.74 1111.21 1069.42C1110.84 1070.1 1110.66 1070.9 1110.66 1071.81H1106.99C1106.99 1070.26 1107.35 1068.9 1108.06 1067.74C1108.78 1066.58 1109.75 1065.68 1111 1065.05C1112.24 1064.4 1113.65 1064.08 1115.23 1064.08C1116.83 1064.08 1118.24 1064.4 1119.46 1065.03C1120.69 1065.66 1121.64 1066.53 1122.33 1067.62C1123.02 1068.71 1123.36 1069.93 1123.36 1071.3C1123.36 1072.24 1123.18 1073.17 1122.83 1074.07C1122.48 1074.97 1121.87 1075.98 1121 1077.09C1120.13 1078.19 1118.92 1079.53 1117.37 1081.11L1112.31 1086.4V1086.59H1123.77V1089.88H1107.02ZM1131.98 1089.88V1087.1L1140.6 1078.17C1141.52 1077.2 1142.27 1076.35 1142.87 1075.62C1143.48 1074.89 1143.93 1074.19 1144.23 1073.52C1144.52 1072.86 1144.67 1072.16 1144.67 1071.41C1144.67 1070.57 1144.47 1069.84 1144.08 1069.22C1143.68 1068.6 1143.14 1068.13 1142.45 1067.79C1141.76 1067.45 1140.99 1067.28 1140.12 1067.28C1139.21 1067.28 1138.42 1067.47 1137.74 1067.84C1137.06 1068.22 1136.54 1068.74 1136.17 1069.42C1135.81 1070.1 1135.63 1070.9 1135.63 1071.81H1131.96C1131.96 1070.26 1132.32 1068.9 1133.03 1067.74C1133.74 1066.58 1134.72 1065.68 1135.96 1065.05C1137.2 1064.4 1138.62 1064.08 1140.2 1064.08C1141.8 1064.08 1143.21 1064.4 1144.43 1065.03C1145.65 1065.66 1146.61 1066.53 1147.3 1067.62C1147.98 1068.71 1148.33 1069.93 1148.33 1071.3C1148.33 1072.24 1148.15 1073.17 1147.79 1074.07C1147.45 1074.97 1146.84 1075.98 1145.97 1077.09C1145.1 1078.19 1143.89 1079.53 1142.34 1081.11L1137.28 1086.4V1086.59H1148.74V1089.88H1131.98Z" fill="white"/>
<path d="M1515.87 1089.88V1087.1L1524.48 1078.17C1525.4 1077.2 1526.16 1076.35 1526.76 1075.62C1527.36 1074.89 1527.81 1074.19 1528.11 1073.52C1528.41 1072.86 1528.56 1072.16 1528.56 1071.41C1528.56 1070.57 1528.36 1069.84 1527.96 1069.22C1527.56 1068.6 1527.02 1068.13 1526.33 1067.79C1525.64 1067.45 1524.87 1067.28 1524.01 1067.28C1523.1 1067.28 1522.3 1067.47 1521.62 1067.84C1520.94 1068.22 1520.42 1068.74 1520.06 1069.42C1519.69 1070.1 1519.51 1070.9 1519.51 1071.81H1515.84C1515.84 1070.26 1516.2 1068.9 1516.91 1067.74C1517.62 1066.58 1518.6 1065.68 1519.84 1065.05C1521.09 1064.4 1522.5 1064.08 1524.08 1064.08C1525.68 1064.08 1527.09 1064.4 1528.31 1065.03C1529.54 1065.66 1530.49 1066.53 1531.18 1067.62C1531.87 1068.71 1532.21 1069.93 1532.21 1071.3C1532.21 1072.24 1532.03 1073.17 1531.68 1074.07C1531.33 1074.97 1530.72 1075.98 1529.85 1077.09C1528.98 1078.19 1527.77 1079.53 1526.22 1081.11L1521.16 1086.4V1086.59H1532.62V1089.88H1515.87ZM1549.69 1090.3C1547.73 1090.29 1546.05 1089.78 1544.66 1088.75C1543.27 1087.72 1542.2 1086.23 1541.47 1084.26C1540.73 1082.3 1540.36 1079.93 1540.36 1077.17C1540.36 1074.41 1540.73 1072.05 1541.47 1070.09C1542.21 1068.14 1543.28 1066.65 1544.67 1065.62C1546.07 1064.59 1547.75 1064.08 1549.69 1064.08C1551.64 1064.08 1553.31 1064.6 1554.7 1065.63C1556.1 1066.66 1557.16 1068.15 1557.9 1070.11C1558.64 1072.05 1559.02 1074.41 1559.02 1077.17C1559.02 1079.94 1558.65 1082.31 1557.91 1084.27C1557.17 1086.23 1556.11 1087.73 1554.72 1088.76C1553.32 1089.79 1551.65 1090.3 1549.69 1090.3ZM1549.69 1086.98C1551.42 1086.98 1552.76 1086.14 1553.73 1084.46C1554.71 1082.78 1555.2 1080.35 1555.2 1077.17C1555.2 1075.05 1554.98 1073.27 1554.53 1071.81C1554.09 1070.34 1553.46 1069.23 1552.63 1068.48C1551.81 1067.71 1550.83 1067.33 1549.69 1067.33C1547.98 1067.33 1546.63 1068.18 1545.65 1069.87C1544.68 1071.56 1544.18 1073.99 1544.18 1077.17C1544.18 1079.29 1544.4 1081.08 1544.83 1082.55C1545.28 1084.01 1545.92 1085.11 1546.74 1085.87C1547.56 1086.61 1548.54 1086.98 1549.69 1086.98ZM1566.93 1089.88V1087.1L1575.54 1078.17C1576.46 1077.2 1577.22 1076.35 1577.81 1075.62C1578.42 1074.89 1578.87 1074.19 1579.17 1073.52C1579.47 1072.86 1579.62 1072.16 1579.62 1071.41C1579.62 1070.57 1579.42 1069.84 1579.02 1069.22C1578.62 1068.6 1578.08 1068.13 1577.39 1067.79C1576.7 1067.45 1575.93 1067.28 1575.07 1067.28C1574.15 1067.28 1573.36 1067.47 1572.68 1067.84C1572 1068.22 1571.48 1068.74 1571.11 1069.42C1570.75 1070.1 1570.57 1070.9 1570.57 1071.81H1566.9C1566.9 1070.26 1567.26 1068.9 1567.97 1067.74C1568.68 1066.58 1569.66 1065.68 1570.9 1065.05C1572.15 1064.4 1573.56 1064.08 1575.14 1064.08C1576.74 1064.08 1578.15 1064.4 1579.37 1065.03C1580.59 1065.66 1581.55 1066.53 1582.24 1067.62C1582.93 1068.71 1583.27 1069.93 1583.27 1071.3C1583.27 1072.24 1583.09 1073.17 1582.73 1074.07C1582.39 1074.97 1581.78 1075.98 1580.91 1077.09C1580.04 1078.19 1578.83 1079.53 1577.28 1081.11L1572.22 1086.4V1086.59H1583.68V1089.88H1566.93ZM1600.75 1090.23C1599.04 1090.23 1597.52 1089.93 1596.18 1089.35C1594.84 1088.76 1593.79 1087.94 1593.01 1086.9C1592.24 1085.84 1591.82 1084.63 1591.77 1083.24H1595.67C1595.72 1084 1595.97 1084.65 1596.43 1085.21C1596.89 1085.75 1597.5 1086.18 1598.24 1086.47C1598.99 1086.77 1599.82 1086.92 1600.73 1086.92C1601.73 1086.92 1602.62 1086.75 1603.39 1086.4C1604.17 1086.05 1604.77 1085.57 1605.21 1084.95C1605.65 1084.32 1605.87 1083.59 1605.87 1082.77C1605.87 1081.92 1605.65 1081.17 1605.21 1080.52C1604.78 1079.87 1604.15 1079.35 1603.31 1078.98C1602.48 1078.61 1601.48 1078.42 1600.3 1078.42H1598.15V1075.29H1600.3C1601.25 1075.29 1602.08 1075.12 1602.79 1074.78C1603.51 1074.44 1604.07 1073.97 1604.48 1073.36C1604.89 1072.75 1605.09 1072.03 1605.09 1071.21C1605.09 1070.42 1604.91 1069.74 1604.56 1069.16C1604.21 1068.57 1603.71 1068.11 1603.06 1067.78C1602.43 1067.45 1601.67 1067.28 1600.8 1067.28C1599.97 1067.28 1599.2 1067.44 1598.48 1067.74C1597.76 1068.04 1597.18 1068.47 1596.74 1069.04C1596.29 1069.59 1596.05 1070.26 1596.02 1071.04H1592.3C1592.34 1069.66 1592.75 1068.45 1593.52 1067.41C1594.3 1066.36 1595.32 1065.55 1596.6 1064.96C1597.88 1064.37 1599.29 1064.08 1600.85 1064.08C1602.48 1064.08 1603.89 1064.4 1605.08 1065.03C1606.27 1065.66 1607.19 1066.51 1607.84 1067.56C1608.49 1068.61 1608.81 1069.76 1608.81 1071.01C1608.81 1072.44 1608.42 1073.65 1607.61 1074.64C1606.82 1075.64 1605.76 1076.3 1604.43 1076.64V1076.84C1606.12 1077.1 1607.43 1077.77 1608.36 1078.86C1609.29 1079.94 1609.76 1081.29 1609.75 1082.89C1609.76 1084.3 1609.37 1085.55 1608.58 1086.66C1607.8 1087.77 1606.74 1088.65 1605.39 1089.28C1604.04 1089.91 1602.49 1090.23 1600.75 1090.23Z" fill="white"/>
<g filter="url(#filter0_d_420_40)">
<path d="M183 962.614L224.837 945.077L299.084 916.516L388.061 882.443L449.344 859.895L571.909 811.793L686.814 768.701L784.042 732.124L892.465 691.036L1048.62 631.91L1164.7 589.32L1304.36 536.207L1454.62 476.58L1564.22 435.493L1678.53 388.893L1740.99 365.844L1821.13 332.273L1913.65 297.198L1982 269.64" stroke="#459AFF" stroke-width="10" stroke-linecap="round"/>
</g>
</g>
<defs>
<filter id="filter0_d_420_40" x="173.999" y="264.639" width="1817" height="710.977" filterUnits="userSpaceOnUse" color-interpolation-filters="sRGB">
<feFlood flood-opacity="0" result="BackgroundImageFix"/>
<feColorMatrix in="SourceAlpha" type="matrix" values="0 0 0 0 0 0 0 0 0 0 0 0 0 0 0 0 0 0 127 0" result="hardAlpha"/>
<feOffset dy="4"/>
<feGaussianBlur stdDeviation="2"/>
<feComposite in2="hardAlpha" operator="out"/>
<feColorMatrix type="matrix" values="0 0 0 0 0 0 0 0 0 0 0 0 0 0 0 0 0 0 0.25 0"/>
<feBlend mode="normal" in2="BackgroundImageFix" result="effect1_dropShadow_420_40"/>
<feBlend mode="normal" in="SourceGraphic" in2="effect1_dropShadow_420_40" result="shape"/>
</filter>
<linearGradient id="paint0_linear_420_40" x1="0" y1="0" x2="3088.5" y2="1669.5" gradientUnits="userSpaceOnUse">
<stop stop-color="#1A1E2D"/>
<stop offset="1" stop-color="#00387B"/>
</linearGradient>
<linearGradient id="paint1_linear_420_40" x1="1083" y1="-438" x2="1082.5" y2="962.974" gradientUnits="userSpaceOnUse">
<stop stop-color="#459AFF"/>
<stop offset="1" stop-color="#459AFF" stop-opacity="0"/>
</linearGradient>
<clipPath id="clip0_420_40">
<rect width="2166" height="1117" fill="white"/>
</clipPath>
</defs>
</svg>
