<svg width="2166" height="1117" viewBox="0 0 2166 1117" fill="none" xmlns="http://www.w3.org/2000/svg">
<g clip-path="url(#clip0_401_3)">
<rect width="2166" height="1117" fill="white"/>
<rect width="2166" height="1117" fill="url(#paint0_linear_401_3)"/>
<g filter="url(#filter0_d_401_3)">
<path d="M293.036 909.667L191.172 957.188C189.233 958.092 189.878 961 192.018 961H1981C1982.1 961 1983 960.105 1983 959V196.971C1983 195.552 1981.56 194.584 1980.25 195.118L1925.33 217.424L1827.07 256.795L1748.81 289.19L1655.83 325.571L1589.93 351.985L1497.55 389.862L1409.28 426.741L1293.36 474.087L1238.64 498.507L1148.61 534.391L1063.88 571.769L965.02 615.626L896.174 644.033L854.396 662.971L810.264 684.402L753.775 708.324L643.15 754.672L541.941 798.53L456.03 836.406L340.699 888.736L293.036 909.667Z" fill="url(#paint1_linear_401_3)" shape-rendering="crispEdges"/>
</g>
<line x1="183.089" y1="64.96" x2="1983" y2="64.96" stroke="white" stroke-width="2"/>
<line x1="183.089" y1="215.674" x2="1983" y2="215.674" stroke="white" stroke-width="2"/>
<line x1="183.089" y1="368.384" x2="1983" y2="368.384" stroke="white" stroke-width="2"/>
<line x1="183.089" y1="521.094" x2="1983" y2="521.094" stroke="white" stroke-width="2"/>
<line x1="183.089" y1="673.804" x2="1983" y2="673.804" stroke="white" stroke-width="2"/>
<line x1="183.089" y1="826.514" x2="1983" y2="826.514" stroke="white" stroke-width="2"/>
<line x1="183.089" y1="980.221" x2="1983" y2="980.221" stroke="white" stroke-width="2"/>
<path d="M106.233 994.423C104.269 994.414 102.592 993.896 101.199 992.869C99.8074 991.842 98.7427 990.346 98.0052 988.382C97.2678 986.418 96.8991 984.053 96.8991 981.285C96.8991 978.526 97.2678 976.169 98.0052 974.213C98.751 972.258 99.8199 970.766 101.212 969.739C102.612 968.711 104.286 968.197 106.233 968.197C108.18 968.197 109.85 968.715 111.242 969.751C112.634 970.779 113.699 972.27 114.436 974.225C115.182 976.173 115.555 978.526 115.555 981.285C115.555 984.061 115.186 986.431 114.449 988.395C113.711 990.35 112.647 991.846 111.255 992.881C109.862 993.909 108.189 994.423 106.233 994.423ZM106.233 991.104C107.957 991.104 109.303 990.263 110.273 988.581C111.25 986.899 111.739 984.467 111.739 981.285C111.739 979.172 111.516 977.387 111.068 975.928C110.629 974.462 109.995 973.351 109.166 972.597C108.346 971.835 107.368 971.454 106.233 971.454C104.518 971.454 103.172 972.299 102.194 973.989C101.216 975.68 100.723 978.112 100.715 981.285C100.715 983.406 100.934 985.2 101.373 986.667C101.821 988.125 102.455 989.231 103.275 989.985C104.095 990.731 105.081 991.104 106.233 991.104ZM136.751 989.227V987.885C136.751 986.924 136.95 986.045 137.347 985.25C137.753 984.446 138.342 983.804 139.112 983.324C139.891 982.835 140.832 982.59 141.934 982.59C143.06 982.59 144.005 982.83 144.767 983.311C145.53 983.792 146.106 984.434 146.495 985.238C146.893 986.041 147.092 986.924 147.092 987.885V989.227C147.092 990.188 146.893 991.071 146.495 991.875C146.097 992.67 145.513 993.312 144.743 993.801C143.98 994.282 143.044 994.522 141.934 994.522C140.815 994.522 139.87 994.282 139.1 993.801C138.329 993.312 137.745 992.67 137.347 991.875C136.95 991.071 136.751 990.188 136.751 989.227ZM139.647 987.885V989.227C139.647 989.94 139.817 990.586 140.156 991.166C140.496 991.746 141.088 992.036 141.934 992.036C142.77 992.036 143.355 991.746 143.686 991.166C144.018 990.586 144.183 989.94 144.183 989.227V987.885C144.183 987.172 144.022 986.526 143.699 985.946C143.384 985.366 142.795 985.076 141.934 985.076C141.105 985.076 140.517 985.366 140.169 985.946C139.821 986.526 139.647 987.172 139.647 987.885ZM123.949 974.661V973.318C123.949 972.357 124.148 971.475 124.545 970.671C124.951 969.867 125.54 969.225 126.31 968.744C127.089 968.264 128.03 968.023 129.132 968.023C130.259 968.023 131.203 968.264 131.966 968.744C132.728 969.225 133.304 969.867 133.693 970.671C134.083 971.475 134.277 972.357 134.277 973.318V974.661C134.277 975.622 134.078 976.504 133.681 977.308C133.291 978.103 132.711 978.746 131.941 979.234C131.178 979.715 130.242 979.955 129.132 979.955C128.005 979.955 127.056 979.715 126.286 979.234C125.523 978.746 124.943 978.103 124.545 977.308C124.148 976.504 123.949 975.622 123.949 974.661ZM126.857 973.318V974.661C126.857 975.373 127.023 976.019 127.354 976.599C127.694 977.179 128.287 977.469 129.132 977.469C129.96 977.469 130.54 977.179 130.872 976.599C131.212 976.019 131.381 975.373 131.381 974.661V973.318C131.381 972.606 131.22 971.959 130.897 971.379C130.574 970.799 129.985 970.509 129.132 970.509C128.303 970.509 127.715 970.799 127.367 971.379C127.027 971.959 126.857 972.606 126.857 973.318ZM125.13 994L142.63 968.545H145.6L128.1 994H125.13Z" fill="white"/>
<path d="M86.9857 814.545V840H83.1327V818.398H82.9836L76.8934 822.376V818.697L83.2446 814.545H86.9857ZM106.233 840.423C104.269 840.414 102.592 839.896 101.199 838.869C99.8074 837.842 98.7427 836.346 98.0052 834.382C97.2678 832.418 96.8991 830.053 96.8991 827.285C96.8991 824.526 97.2678 822.169 98.0052 820.213C98.751 818.258 99.8199 816.766 101.212 815.739C102.612 814.711 104.286 814.197 106.233 814.197C108.18 814.197 109.85 814.715 111.242 815.751C112.634 816.779 113.699 818.27 114.436 820.225C115.182 822.173 115.555 824.526 115.555 827.285C115.555 830.061 115.186 832.431 114.449 834.395C113.711 836.35 112.647 837.846 111.255 838.881C109.862 839.909 108.189 840.423 106.233 840.423ZM106.233 837.104C107.957 837.104 109.303 836.263 110.273 834.581C111.25 832.899 111.739 830.467 111.739 827.285C111.739 825.172 111.516 823.387 111.068 821.928C110.629 820.462 109.995 819.351 109.166 818.597C108.346 817.835 107.368 817.454 106.233 817.454C104.518 817.454 103.172 818.299 102.194 819.989C101.216 821.68 100.723 824.112 100.715 827.285C100.715 829.406 100.934 831.2 101.373 832.667C101.821 834.125 102.455 835.231 103.275 835.985C104.095 836.731 105.081 837.104 106.233 837.104ZM136.751 835.227V833.885C136.751 832.924 136.95 832.045 137.347 831.25C137.753 830.446 138.342 829.804 139.112 829.324C139.891 828.835 140.832 828.59 141.934 828.59C143.06 828.59 144.005 828.83 144.767 829.311C145.53 829.792 146.106 830.434 146.495 831.238C146.893 832.041 147.092 832.924 147.092 833.885V835.227C147.092 836.188 146.893 837.071 146.495 837.875C146.097 838.67 145.513 839.312 144.743 839.801C143.98 840.282 143.044 840.522 141.934 840.522C140.815 840.522 139.87 840.282 139.1 839.801C138.329 839.312 137.745 838.67 137.347 837.875C136.95 837.071 136.751 836.188 136.751 835.227ZM139.647 833.885V835.227C139.647 835.94 139.817 836.586 140.156 837.166C140.496 837.746 141.088 838.036 141.934 838.036C142.77 838.036 143.355 837.746 143.686 837.166C144.018 836.586 144.183 835.94 144.183 835.227V833.885C144.183 833.172 144.022 832.526 143.699 831.946C143.384 831.366 142.795 831.076 141.934 831.076C141.105 831.076 140.517 831.366 140.169 831.946C139.821 832.526 139.647 833.172 139.647 833.885ZM123.949 820.661V819.318C123.949 818.357 124.148 817.475 124.545 816.671C124.951 815.867 125.54 815.225 126.31 814.744C127.089 814.264 128.03 814.023 129.132 814.023C130.259 814.023 131.203 814.264 131.966 814.744C132.728 815.225 133.304 815.867 133.693 816.671C134.083 817.475 134.277 818.357 134.277 819.318V820.661C134.277 821.622 134.078 822.504 133.681 823.308C133.291 824.103 132.711 824.746 131.941 825.234C131.178 825.715 130.242 825.955 129.132 825.955C128.005 825.955 127.056 825.715 126.286 825.234C125.523 824.746 124.943 824.103 124.545 823.308C124.148 822.504 123.949 821.622 123.949 820.661ZM126.857 819.318V820.661C126.857 821.373 127.023 822.019 127.354 822.599C127.694 823.179 128.287 823.469 129.132 823.469C129.96 823.469 130.54 823.179 130.872 822.599C131.212 822.019 131.381 821.373 131.381 820.661V819.318C131.381 818.606 131.22 817.959 130.897 817.379C130.574 816.799 129.985 816.509 129.132 816.509C128.303 816.509 127.715 816.799 127.367 817.379C127.027 817.959 126.857 818.606 126.857 819.318ZM125.13 840L142.63 814.545H145.6L128.1 840H125.13Z" fill="white"/>
<path d="M72.4065 688V685.216L81.0198 676.292C81.9395 675.322 82.6977 674.473 83.2943 673.744C83.8992 673.007 84.3508 672.306 84.6491 671.643C84.9474 670.981 85.0965 670.276 85.0965 669.531C85.0965 668.685 84.8976 667.956 84.4999 667.343C84.1022 666.722 83.5595 666.245 82.8717 665.914C82.184 665.574 81.4092 665.404 80.5475 665.404C79.636 665.404 78.8406 665.591 78.1611 665.963C77.4817 666.336 76.9597 666.862 76.5951 667.542C76.2305 668.221 76.0482 669.017 76.0482 669.928H72.3817C72.3817 668.379 72.738 667.024 73.4506 665.864C74.1631 664.704 75.1409 663.805 76.3838 663.167C77.6267 662.521 79.0394 662.197 80.6221 662.197C82.2213 662.197 83.6299 662.516 84.8479 663.154C86.0742 663.784 87.0313 664.646 87.719 665.74C88.4068 666.825 88.7506 668.051 88.7506 669.419C88.7506 670.363 88.5725 671.287 88.2162 672.19C87.8682 673.094 87.2591 674.1 86.3891 675.211C85.5191 676.313 84.3093 677.651 82.7599 679.225L77.7013 684.52V684.706H89.1608V688H72.4065ZM106.233 688.423C104.269 688.414 102.592 687.896 101.199 686.869C99.8074 685.842 98.7427 684.346 98.0052 682.382C97.2678 680.418 96.8991 678.053 96.8991 675.285C96.8991 672.526 97.2678 670.169 98.0052 668.213C98.751 666.258 99.8199 664.766 101.212 663.739C102.612 662.711 104.286 662.197 106.233 662.197C108.18 662.197 109.85 662.715 111.242 663.751C112.634 664.779 113.699 666.27 114.436 668.225C115.182 670.173 115.555 672.526 115.555 675.285C115.555 678.061 115.186 680.431 114.449 682.395C113.711 684.35 112.647 685.846 111.255 686.881C109.862 687.909 108.189 688.423 106.233 688.423ZM106.233 685.104C107.957 685.104 109.303 684.263 110.273 682.581C111.25 680.899 111.739 678.467 111.739 675.285C111.739 673.172 111.516 671.387 111.068 669.928C110.629 668.462 109.995 667.351 109.166 666.597C108.346 665.835 107.368 665.454 106.233 665.454C104.518 665.454 103.172 666.299 102.194 667.989C101.216 669.68 100.723 672.112 100.715 675.285C100.715 677.406 100.934 679.2 101.373 680.667C101.821 682.125 102.455 683.231 103.275 683.985C104.095 684.731 105.081 685.104 106.233 685.104ZM136.751 683.227V681.885C136.751 680.924 136.95 680.045 137.347 679.25C137.753 678.446 138.342 677.804 139.112 677.324C139.891 676.835 140.832 676.59 141.934 676.59C143.06 676.59 144.005 676.83 144.767 677.311C145.53 677.792 146.106 678.434 146.495 679.238C146.893 680.041 147.092 680.924 147.092 681.885V683.227C147.092 684.188 146.893 685.071 146.495 685.875C146.097 686.67 145.513 687.312 144.743 687.801C143.98 688.282 143.044 688.522 141.934 688.522C140.815 688.522 139.87 688.282 139.1 687.801C138.329 687.312 137.745 686.67 137.347 685.875C136.95 685.071 136.751 684.188 136.751 683.227ZM139.647 681.885V683.227C139.647 683.94 139.817 684.586 140.156 685.166C140.496 685.746 141.088 686.036 141.934 686.036C142.77 686.036 143.355 685.746 143.686 685.166C144.018 684.586 144.183 683.94 144.183 683.227V681.885C144.183 681.172 144.022 680.526 143.699 679.946C143.384 679.366 142.795 679.076 141.934 679.076C141.105 679.076 140.517 679.366 140.169 679.946C139.821 680.526 139.647 681.172 139.647 681.885ZM123.949 668.661V667.318C123.949 666.357 124.148 665.475 124.545 664.671C124.951 663.867 125.54 663.225 126.31 662.744C127.089 662.264 128.03 662.023 129.132 662.023C130.259 662.023 131.203 662.264 131.966 662.744C132.728 663.225 133.304 663.867 133.693 664.671C134.083 665.475 134.277 666.357 134.277 667.318V668.661C134.277 669.622 134.078 670.504 133.681 671.308C133.291 672.103 132.711 672.746 131.941 673.234C131.178 673.715 130.242 673.955 129.132 673.955C128.005 673.955 127.056 673.715 126.286 673.234C125.523 672.746 124.943 672.103 124.545 671.308C124.148 670.504 123.949 669.622 123.949 668.661ZM126.857 667.318V668.661C126.857 669.373 127.023 670.019 127.354 670.599C127.694 671.179 128.287 671.469 129.132 671.469C129.96 671.469 130.54 671.179 130.872 670.599C131.212 670.019 131.381 669.373 131.381 668.661V667.318C131.381 666.606 131.22 665.959 130.897 665.379C130.574 664.799 129.985 664.509 129.132 664.509C128.303 664.509 127.715 664.799 127.367 665.379C127.027 665.959 126.857 666.606 126.857 667.318ZM125.13 688L142.63 662.545H145.6L128.1 688H125.13Z" fill="white"/>
<path d="M80.1746 535.348C78.4677 535.348 76.9431 535.054 75.6008 534.466C74.2667 533.877 73.2103 533.061 72.4314 532.017C71.6608 530.965 71.2465 529.747 71.1885 528.363H75.0912C75.1409 529.117 75.3936 529.772 75.8493 530.327C76.3134 530.874 76.9182 531.296 77.664 531.594C78.4097 531.893 79.2383 532.042 80.1498 532.042C81.1524 532.042 82.039 531.868 82.8096 531.52C83.5885 531.172 84.1975 530.687 84.6366 530.066C85.0758 529.436 85.2954 528.711 85.2954 527.891C85.2954 527.037 85.0758 526.287 84.6366 525.641C84.2058 524.986 83.5719 524.473 82.735 524.1C81.9064 523.727 80.9038 523.54 79.7272 523.54H77.577V520.408H79.7272C80.6718 520.408 81.5004 520.239 82.213 519.899C82.9339 519.559 83.4973 519.087 83.9033 518.482C84.3093 517.869 84.5123 517.152 84.5123 516.332C84.5123 515.545 84.3342 514.861 83.9779 514.281C83.6299 513.693 83.1327 513.233 82.4864 512.901C81.8484 512.57 81.0944 512.404 80.2243 512.404C79.3957 512.404 78.621 512.557 77.9001 512.864C77.1875 513.162 76.6075 513.593 76.1601 514.157C75.7126 514.712 75.4723 515.379 75.4392 516.158H71.7229C71.7644 514.782 72.1704 513.572 72.941 512.528C73.7198 511.484 74.7473 510.668 76.0233 510.08C77.2994 509.492 78.7163 509.197 80.2741 509.197C81.9064 509.197 83.315 509.516 84.4999 510.154C85.6931 510.784 86.6128 511.625 87.2591 512.678C87.9137 513.73 88.2369 514.882 88.2286 516.133C88.2369 517.558 87.8392 518.768 87.0354 519.762C86.24 520.756 85.1794 521.423 83.8536 521.763V521.962C85.5439 522.219 86.8531 522.89 87.7812 523.975C88.7175 525.061 89.1815 526.407 89.1732 528.015C89.1815 529.415 88.7921 530.671 88.0049 531.781C87.226 532.891 86.1613 533.765 84.8106 534.403C83.46 535.033 81.9147 535.348 80.1746 535.348ZM106.233 535.423C104.269 535.414 102.592 534.896 101.199 533.869C99.8074 532.842 98.7427 531.346 98.0052 529.382C97.2678 527.418 96.8991 525.053 96.8991 522.285C96.8991 519.526 97.2678 517.169 98.0052 515.213C98.751 513.258 99.8199 511.766 101.212 510.739C102.612 509.711 104.286 509.197 106.233 509.197C108.18 509.197 109.85 509.715 111.242 510.751C112.634 511.779 113.699 513.27 114.436 515.225C115.182 517.173 115.555 519.526 115.555 522.285C115.555 525.061 115.186 527.431 114.449 529.395C113.711 531.35 112.647 532.846 111.255 533.881C109.862 534.909 108.189 535.423 106.233 535.423ZM106.233 532.104C107.957 532.104 109.303 531.263 110.273 529.581C111.25 527.899 111.739 525.467 111.739 522.285C111.739 520.172 111.516 518.387 111.068 516.928C110.629 515.462 109.995 514.351 109.166 513.597C108.346 512.835 107.368 512.454 106.233 512.454C104.518 512.454 103.172 513.299 102.194 514.989C101.216 516.68 100.723 519.112 100.715 522.285C100.715 524.406 100.934 526.2 101.373 527.667C101.821 529.125 102.455 530.231 103.275 530.985C104.095 531.731 105.081 532.104 106.233 532.104ZM136.751 530.227V528.885C136.751 527.924 136.95 527.045 137.347 526.25C137.753 525.446 138.342 524.804 139.112 524.324C139.891 523.835 140.832 523.59 141.934 523.59C143.06 523.59 144.005 523.83 144.767 524.311C145.53 524.792 146.106 525.434 146.495 526.238C146.893 527.041 147.092 527.924 147.092 528.885V530.227C147.092 531.188 146.893 532.071 146.495 532.875C146.097 533.67 145.513 534.312 144.743 534.801C143.98 535.282 143.044 535.522 141.934 535.522C140.815 535.522 139.87 535.282 139.1 534.801C138.329 534.312 137.745 533.67 137.347 532.875C136.95 532.071 136.751 531.188 136.751 530.227ZM139.647 528.885V530.227C139.647 530.94 139.817 531.586 140.156 532.166C140.496 532.746 141.088 533.036 141.934 533.036C142.77 533.036 143.355 532.746 143.686 532.166C144.018 531.586 144.183 530.94 144.183 530.227V528.885C144.183 528.172 144.022 527.526 143.699 526.946C143.384 526.366 142.795 526.076 141.934 526.076C141.105 526.076 140.517 526.366 140.169 526.946C139.821 527.526 139.647 528.172 139.647 528.885ZM123.949 515.661V514.318C123.949 513.357 124.148 512.475 124.545 511.671C124.951 510.867 125.54 510.225 126.31 509.744C127.089 509.264 128.03 509.023 129.132 509.023C130.259 509.023 131.203 509.264 131.966 509.744C132.728 510.225 133.304 510.867 133.693 511.671C134.083 512.475 134.277 513.357 134.277 514.318V515.661C134.277 516.622 134.078 517.504 133.681 518.308C133.291 519.103 132.711 519.746 131.941 520.234C131.178 520.715 130.242 520.955 129.132 520.955C128.005 520.955 127.056 520.715 126.286 520.234C125.523 519.746 124.943 519.103 124.545 518.308C124.148 517.504 123.949 516.622 123.949 515.661ZM126.857 514.318V515.661C126.857 516.373 127.023 517.019 127.354 517.599C127.694 518.179 128.287 518.469 129.132 518.469C129.96 518.469 130.54 518.179 130.872 517.599C131.212 517.019 131.381 516.373 131.381 515.661V514.318C131.381 513.606 131.22 512.959 130.897 512.379C130.574 511.799 129.985 511.509 129.132 511.509C128.303 511.509 127.715 511.799 127.367 512.379C127.027 512.959 126.857 513.606 126.857 514.318ZM125.13 535L142.63 509.545H145.6L128.1 535H125.13Z" fill="white"/>
<path d="M70.4365 377.028V373.921L81.4362 356.545H83.8847V361.119H82.3311L74.4635 373.573V373.772H89.5399V377.028H70.4365ZM82.5051 382V376.084L82.5299 374.667V356.545H86.1716V382H82.5051ZM106.233 382.423C104.269 382.414 102.592 381.896 101.199 380.869C99.8074 379.842 98.7427 378.346 98.0052 376.382C97.2678 374.418 96.8991 372.053 96.8991 369.285C96.8991 366.526 97.2678 364.169 98.0052 362.213C98.751 360.258 99.8199 358.766 101.212 357.739C102.612 356.711 104.286 356.197 106.233 356.197C108.18 356.197 109.85 356.715 111.242 357.751C112.634 358.779 113.699 360.27 114.436 362.225C115.182 364.173 115.555 366.526 115.555 369.285C115.555 372.061 115.186 374.431 114.449 376.395C113.711 378.35 112.647 379.846 111.255 380.881C109.862 381.909 108.189 382.423 106.233 382.423ZM106.233 379.104C107.957 379.104 109.303 378.263 110.273 376.581C111.25 374.899 111.739 372.467 111.739 369.285C111.739 367.172 111.516 365.387 111.068 363.928C110.629 362.462 109.995 361.351 109.166 360.597C108.346 359.835 107.368 359.454 106.233 359.454C104.518 359.454 103.172 360.299 102.194 361.989C101.216 363.68 100.723 366.112 100.715 369.285C100.715 371.406 100.934 373.2 101.373 374.667C101.821 376.125 102.455 377.231 103.275 377.985C104.095 378.731 105.081 379.104 106.233 379.104ZM136.751 377.227V375.885C136.751 374.924 136.95 374.045 137.347 373.25C137.753 372.446 138.342 371.804 139.112 371.324C139.891 370.835 140.832 370.59 141.934 370.59C143.06 370.59 144.005 370.83 144.767 371.311C145.53 371.792 146.106 372.434 146.495 373.238C146.893 374.041 147.092 374.924 147.092 375.885V377.227C147.092 378.188 146.893 379.071 146.495 379.875C146.097 380.67 145.513 381.312 144.743 381.801C143.98 382.282 143.044 382.522 141.934 382.522C140.815 382.522 139.87 382.282 139.1 381.801C138.329 381.312 137.745 380.67 137.347 379.875C136.95 379.071 136.751 378.188 136.751 377.227ZM139.647 375.885V377.227C139.647 377.94 139.817 378.586 140.156 379.166C140.496 379.746 141.088 380.036 141.934 380.036C142.77 380.036 143.355 379.746 143.686 379.166C144.018 378.586 144.183 377.94 144.183 377.227V375.885C144.183 375.172 144.022 374.526 143.699 373.946C143.384 373.366 142.795 373.076 141.934 373.076C141.105 373.076 140.517 373.366 140.169 373.946C139.821 374.526 139.647 375.172 139.647 375.885ZM123.949 362.661V361.318C123.949 360.357 124.148 359.475 124.545 358.671C124.951 357.867 125.54 357.225 126.31 356.744C127.089 356.264 128.03 356.023 129.132 356.023C130.259 356.023 131.203 356.264 131.966 356.744C132.728 357.225 133.304 357.867 133.693 358.671C134.083 359.475 134.277 360.357 134.277 361.318V362.661C134.277 363.622 134.078 364.504 133.681 365.308C133.291 366.103 132.711 366.746 131.941 367.234C131.178 367.715 130.242 367.955 129.132 367.955C128.005 367.955 127.056 367.715 126.286 367.234C125.523 366.746 124.943 366.103 124.545 365.308C124.148 364.504 123.949 363.622 123.949 362.661ZM126.857 361.318V362.661C126.857 363.373 127.023 364.019 127.354 364.599C127.694 365.179 128.287 365.469 129.132 365.469C129.96 365.469 130.54 365.179 130.872 364.599C131.212 364.019 131.381 363.373 131.381 362.661V361.318C131.381 360.606 131.22 359.959 130.897 359.379C130.574 358.799 129.985 358.509 129.132 358.509C128.303 358.509 127.715 358.799 127.367 359.379C127.027 359.959 126.857 360.606 126.857 361.318ZM125.13 382L142.63 356.545H145.6L128.1 382H125.13Z" fill="white"/>
<path d="M80.5692 230.348C79.0115 230.348 77.6112 230.05 76.3683 229.453C75.1336 228.848 74.1476 228.02 73.4102 226.967C72.6727 225.915 72.2791 224.714 72.2294 223.363H75.9581C76.0492 224.457 76.534 225.356 77.4123 226.06C78.2906 226.764 79.3429 227.116 80.5692 227.116C81.547 227.116 82.4129 226.893 83.1669 226.445C83.9292 225.99 84.5258 225.364 84.9567 224.569C85.3958 223.773 85.6154 222.866 85.6154 221.847C85.6154 220.811 85.3917 219.887 84.9442 219.075C84.4968 218.263 83.8795 217.625 83.0923 217.161C82.3134 216.697 81.4186 216.461 80.4077 216.452C79.6371 216.452 78.8623 216.585 78.0835 216.85C77.3046 217.115 76.6748 217.463 76.1942 217.894L72.6768 217.372L74.1062 204.545H88.1012V207.839H77.3004L76.4925 214.961H76.6417C77.1388 214.48 77.7976 214.078 78.6179 213.755C79.4465 213.432 80.3331 213.271 81.2777 213.271C82.8272 213.271 84.2068 213.639 85.4165 214.377C86.6346 215.114 87.5916 216.121 88.2876 217.397C88.992 218.665 89.34 220.123 89.3317 221.772C89.34 223.421 88.9671 224.892 88.2131 226.184C87.4673 227.477 86.4316 228.496 85.1058 229.242C83.7884 229.979 82.2762 230.348 80.5692 230.348ZM106.233 230.423C104.269 230.414 102.592 229.896 101.199 228.869C99.8074 227.842 98.7427 226.346 98.0052 224.382C97.2678 222.418 96.8991 220.053 96.8991 217.285C96.8991 214.526 97.2678 212.169 98.0052 210.213C98.751 208.258 99.8199 206.766 101.212 205.739C102.612 204.711 104.286 204.197 106.233 204.197C108.18 204.197 109.85 204.715 111.242 205.751C112.634 206.779 113.699 208.27 114.436 210.225C115.182 212.173 115.555 214.526 115.555 217.285C115.555 220.061 115.186 222.431 114.449 224.395C113.711 226.35 112.647 227.846 111.255 228.881C109.862 229.909 108.189 230.423 106.233 230.423ZM106.233 227.104C107.957 227.104 109.303 226.263 110.273 224.581C111.25 222.899 111.739 220.467 111.739 217.285C111.739 215.172 111.516 213.387 111.068 211.928C110.629 210.462 109.995 209.351 109.166 208.597C108.346 207.835 107.368 207.454 106.233 207.454C104.518 207.454 103.172 208.299 102.194 209.989C101.216 211.68 100.723 214.112 100.715 217.285C100.715 219.406 100.934 221.2 101.373 222.667C101.821 224.125 102.455 225.231 103.275 225.985C104.095 226.731 105.081 227.104 106.233 227.104ZM136.751 225.227V223.885C136.751 222.924 136.95 222.045 137.347 221.25C137.753 220.446 138.342 219.804 139.112 219.324C139.891 218.835 140.832 218.59 141.934 218.59C143.06 218.59 144.005 218.83 144.767 219.311C145.53 219.792 146.106 220.434 146.495 221.238C146.893 222.041 147.092 222.924 147.092 223.885V225.227C147.092 226.188 146.893 227.071 146.495 227.875C146.097 228.67 145.513 229.312 144.743 229.801C143.98 230.282 143.044 230.522 141.934 230.522C140.815 230.522 139.87 230.282 139.1 229.801C138.329 229.312 137.745 228.67 137.347 227.875C136.95 227.071 136.751 226.188 136.751 225.227ZM139.647 223.885V225.227C139.647 225.94 139.817 226.586 140.156 227.166C140.496 227.746 141.088 228.036 141.934 228.036C142.77 228.036 143.355 227.746 143.686 227.166C144.018 226.586 144.183 225.94 144.183 225.227V223.885C144.183 223.172 144.022 222.526 143.699 221.946C143.384 221.366 142.795 221.076 141.934 221.076C141.105 221.076 140.517 221.366 140.169 221.946C139.821 222.526 139.647 223.172 139.647 223.885ZM123.949 210.661V209.318C123.949 208.357 124.148 207.475 124.545 206.671C124.951 205.867 125.54 205.225 126.31 204.744C127.089 204.264 128.03 204.023 129.132 204.023C130.259 204.023 131.203 204.264 131.966 204.744C132.728 205.225 133.304 205.867 133.693 206.671C134.083 207.475 134.277 208.357 134.277 209.318V210.661C134.277 211.622 134.078 212.504 133.681 213.308C133.291 214.103 132.711 214.746 131.941 215.234C131.178 215.715 130.242 215.955 129.132 215.955C128.005 215.955 127.056 215.715 126.286 215.234C125.523 214.746 124.943 214.103 124.545 213.308C124.148 212.504 123.949 211.622 123.949 210.661ZM126.857 209.318V210.661C126.857 211.373 127.023 212.019 127.354 212.599C127.694 213.179 128.287 213.469 129.132 213.469C129.96 213.469 130.54 213.179 130.872 212.599C131.212 212.019 131.381 211.373 131.381 210.661V209.318C131.381 208.606 131.22 207.959 130.897 207.379C130.574 206.799 129.985 206.509 129.132 206.509C128.303 206.509 127.715 206.799 127.367 207.379C127.027 207.959 126.857 208.606 126.857 209.318ZM125.13 230L142.63 204.545H145.6L128.1 230H125.13Z" fill="white"/>
<path d="M80.5071 79.348C79.3719 79.3314 78.2533 79.1243 77.1513 78.7266C76.0575 78.3288 75.0632 77.666 74.1683 76.7379C73.2734 75.8099 72.5567 74.5629 72.0181 72.9968C71.4878 71.4308 71.2227 69.4753 71.2227 67.1303C71.2227 64.9097 71.4422 62.9376 71.8814 61.2141C72.3288 59.4906 72.971 58.0365 73.8079 56.8516C74.6448 55.6584 75.6557 54.7511 76.8406 54.1296C78.0255 53.5082 79.3554 53.1974 80.8303 53.1974C82.3466 53.1974 83.6931 53.4957 84.8697 54.0923C86.0463 54.6889 86.9992 55.5134 87.7283 56.5657C88.4658 57.618 88.9339 58.8153 89.1328 60.1577H85.342C85.0851 59.0971 84.5755 58.2312 83.8132 57.56C83.0509 56.8888 82.0566 56.5533 80.8303 56.5533C78.9659 56.5533 77.5117 57.3653 76.4677 58.9893C75.4319 60.6134 74.9099 62.8713 74.9016 65.7631H75.0881C75.5272 65.0423 76.0658 64.4291 76.7038 63.9237C77.3501 63.4099 78.071 63.0163 78.8665 62.7429C79.6702 62.4612 80.5154 62.3203 81.402 62.3203C82.8769 62.3203 84.2109 62.6808 85.4041 63.4016C86.6056 64.1142 87.5626 65.1003 88.2752 66.3597C88.9878 67.6192 89.3441 69.061 89.3441 70.685C89.3441 72.3091 88.9754 73.7798 88.2379 75.0973C87.5088 76.4148 86.4813 77.4588 85.1555 78.2294C83.8298 78.9917 82.2803 79.3646 80.5071 79.348ZM80.4947 76.1165C81.4724 76.1165 82.3466 75.8762 83.1172 75.3956C83.8878 74.915 84.4968 74.2687 84.9442 73.4567C85.3917 72.6446 85.6154 71.7373 85.6154 70.7347C85.6154 69.757 85.3958 68.8662 84.9567 68.0625C84.5258 67.2588 83.9292 66.6207 83.1669 66.1484C82.4129 65.6761 81.5511 65.44 80.5817 65.44C79.8442 65.44 79.1606 65.5808 78.5309 65.8626C77.9094 66.1443 77.3626 66.5337 76.8903 67.0309C76.418 67.5281 76.0451 68.0998 75.7717 68.7461C75.5065 69.3841 75.3739 70.0594 75.3739 70.772C75.3739 71.7249 75.5935 72.6074 76.0327 73.4194C76.4801 74.2314 77.0891 74.886 77.8597 75.3832C78.6386 75.872 79.5169 76.1165 80.4947 76.1165ZM106.233 79.4226C104.269 79.4143 102.592 78.8964 101.199 77.869C99.8074 76.8415 98.7427 75.3459 98.0052 73.3821C97.2678 71.4183 96.8991 69.0527 96.8991 66.2852C96.8991 63.5259 97.2678 61.1686 98.0052 59.2131C98.751 57.2576 99.8199 55.7661 101.212 54.7386C102.612 53.7112 104.286 53.1974 106.233 53.1974C108.18 53.1974 109.85 53.7153 111.242 54.7511C112.634 55.7785 113.699 57.27 114.436 59.2255C115.182 61.1727 115.555 63.5259 115.555 66.2852C115.555 69.061 115.186 71.4308 114.449 73.3945C113.711 75.35 112.647 76.8456 111.255 77.8814C109.862 78.9089 108.189 79.4226 106.233 79.4226ZM106.233 76.104C107.957 76.104 109.303 75.263 110.273 73.581C111.25 71.8989 111.739 69.467 111.739 66.2852C111.739 64.1722 111.516 62.3866 111.068 60.9283C110.629 59.4616 109.995 58.3513 109.166 57.5973C108.346 56.835 107.368 56.4538 106.233 56.4538C104.518 56.4538 103.172 57.299 102.194 58.9893C101.216 60.6797 100.723 63.1116 100.715 66.2852C100.715 68.4064 100.934 70.2003 101.373 71.6669C101.821 73.1252 102.455 74.2314 103.275 74.9854C104.095 75.7312 105.081 76.104 106.233 76.104ZM136.751 74.2273V72.8849C136.751 71.9238 136.95 71.0455 137.347 70.25C137.753 69.4463 138.342 68.8041 139.112 68.3235C139.891 67.8346 140.832 67.5902 141.934 67.5902C143.06 67.5902 144.005 67.8305 144.767 68.3111C145.53 68.7917 146.106 69.4338 146.495 70.2376C146.893 71.0413 147.092 71.9238 147.092 72.8849V74.2273C147.092 75.1884 146.893 76.0709 146.495 76.8746C146.097 77.6701 145.513 78.3123 144.743 78.8011C143.98 79.2817 143.044 79.522 141.934 79.522C140.815 79.522 139.87 79.2817 139.1 78.8011C138.329 78.3123 137.745 77.6701 137.347 76.8746C136.95 76.0709 136.751 75.1884 136.751 74.2273ZM139.647 72.8849V74.2273C139.647 74.9399 139.817 75.5862 140.156 76.1662C140.496 76.7462 141.088 77.0362 141.934 77.0362C142.77 77.0362 143.355 76.7462 143.686 76.1662C144.018 75.5862 144.183 74.9399 144.183 74.2273V72.8849C144.183 72.1723 144.022 71.526 143.699 70.946C143.384 70.366 142.795 70.076 141.934 70.076C141.105 70.076 140.517 70.366 140.169 70.946C139.821 71.526 139.647 72.1723 139.647 72.8849ZM123.949 59.6605V58.3182C123.949 57.357 124.148 56.4745 124.545 55.6708C124.951 54.8671 125.54 54.2249 126.31 53.7443C127.089 53.2637 128.03 53.0234 129.132 53.0234C130.259 53.0234 131.203 53.2637 131.966 53.7443C132.728 54.2249 133.304 54.8671 133.693 55.6708C134.083 56.4745 134.277 57.357 134.277 58.3182V59.6605C134.277 60.6217 134.078 61.5041 133.681 62.3079C133.291 63.1033 132.711 63.7455 131.941 64.2344C131.178 64.715 130.242 64.9553 129.132 64.9553C128.005 64.9553 127.056 64.715 126.286 64.2344C125.523 63.7455 124.943 63.1033 124.545 62.3079C124.148 61.5041 123.949 60.6217 123.949 59.6605ZM126.857 58.3182V59.6605C126.857 60.3731 127.023 61.0194 127.354 61.5994C127.694 62.1795 128.287 62.4695 129.132 62.4695C129.96 62.4695 130.54 62.1795 130.872 61.5994C131.212 61.0194 131.381 60.3731 131.381 59.6605V58.3182C131.381 57.6056 131.22 56.9593 130.897 56.3793C130.574 55.7992 129.985 55.5092 129.132 55.5092C128.303 55.5092 127.715 55.7992 127.367 56.3793C127.027 56.9593 126.857 57.6056 126.857 58.3182ZM125.13 79L142.63 53.5455H145.6L128.1 79H125.13Z" fill="white"/>
<line x1="183" y1="1040.11" x2="1983" y2="1040.11" stroke="white" stroke-width="2"/>
<line x1="1561.5" y1="1056.08" x2="1561.5" y2="1026.14" stroke="white" stroke-width="3"/>
<line x1="1100.5" y1="1056.08" x2="1100.5" y2="1026.14" stroke="white" stroke-width="3"/>
<line x1="603.5" y1="1056.08" x2="603.5" y2="1026.14" stroke="white" stroke-width="3"/>
<line x1="181.5" y1="1056.08" x2="181.5" y2="1026.14" stroke="white" stroke-width="3"/>
<g filter="url(#filter1_d_401_3)">
<path d="M183 961L293.036 909.667L340.699 888.736L456.03 836.406L541.941 798.53L643.15 754.672L753.775 708.324L810.264 684.402L854.396 662.971L896.174 644.033L965.02 615.626L1063.88 571.769L1148.61 534.391L1238.64 498.507L1293.36 474.087L1409.28 426.741L1497.55 389.862L1589.93 351.985L1655.83 325.571L1748.81 289.19L1827.07 256.795L1925.33 217.424L1983 194" stroke="#459AFF" stroke-width="10" stroke-linecap="round"/>
</g>
<path d="M135.833 1090V1087.22L144.447 1078.29C145.366 1077.32 146.124 1076.47 146.721 1075.74C147.326 1075.01 147.778 1074.31 148.076 1073.64C148.374 1072.98 148.523 1072.28 148.523 1071.53C148.523 1070.69 148.324 1069.96 147.927 1069.34C147.529 1068.72 146.986 1068.25 146.298 1067.91C145.611 1067.57 144.836 1067.4 143.974 1067.4C143.063 1067.4 142.267 1067.59 141.588 1067.96C140.908 1068.34 140.386 1068.86 140.022 1069.54C139.657 1070.22 139.475 1071.02 139.475 1071.93H135.808C135.808 1070.38 136.165 1069.02 136.877 1067.86C137.59 1066.7 138.568 1065.8 139.811 1065.17C141.053 1064.52 142.466 1064.2 144.049 1064.2C145.648 1064.2 147.057 1064.52 148.275 1065.15C149.501 1065.78 150.458 1066.65 151.146 1067.74C151.834 1068.83 152.177 1070.05 152.177 1071.42C152.177 1072.36 151.999 1073.29 151.643 1074.19C151.295 1075.09 150.686 1076.1 149.816 1077.21C148.946 1078.31 147.736 1079.65 146.187 1081.23L141.128 1086.52V1086.71H152.588V1090H135.833ZM169.66 1090.42C167.696 1090.41 166.018 1089.9 164.626 1088.87C163.234 1087.84 162.169 1086.35 161.432 1084.38C160.695 1082.42 160.326 1080.05 160.326 1077.29C160.326 1074.53 160.695 1072.17 161.432 1070.21C162.178 1068.26 163.247 1066.77 164.639 1065.74C166.039 1064.71 167.713 1064.2 169.66 1064.2C171.607 1064.2 173.277 1064.72 174.669 1065.75C176.061 1066.78 177.126 1068.27 177.863 1070.23C178.609 1072.17 178.982 1074.53 178.982 1077.29C178.982 1080.06 178.613 1082.43 177.876 1084.39C177.138 1086.35 176.073 1087.85 174.681 1088.88C173.289 1089.91 171.615 1090.42 169.66 1090.42ZM169.66 1087.1C171.383 1087.1 172.73 1086.26 173.699 1084.58C174.677 1082.9 175.166 1080.47 175.166 1077.29C175.166 1075.17 174.942 1073.39 174.495 1071.93C174.056 1070.46 173.422 1069.35 172.593 1068.6C171.773 1067.83 170.795 1067.45 169.66 1067.45C167.945 1067.45 166.598 1068.3 165.621 1069.99C164.643 1071.68 164.15 1074.11 164.142 1077.29C164.142 1079.41 164.361 1081.2 164.8 1082.67C165.248 1084.13 165.882 1085.23 166.702 1085.99C167.522 1086.73 168.508 1087.1 169.66 1087.1ZM186.891 1090V1087.22L195.504 1078.29C196.424 1077.32 197.182 1076.47 197.779 1075.74C198.384 1075.01 198.835 1074.31 199.133 1073.64C199.432 1072.98 199.581 1072.28 199.581 1071.53C199.581 1070.69 199.382 1069.96 198.984 1069.34C198.587 1068.72 198.044 1068.25 197.356 1067.91C196.668 1067.57 195.894 1067.4 195.032 1067.4C194.12 1067.4 193.325 1067.59 192.646 1067.96C191.966 1068.34 191.444 1068.86 191.079 1069.54C190.715 1070.22 190.533 1071.02 190.533 1071.93H186.866C186.866 1070.38 187.222 1069.02 187.935 1067.86C188.648 1066.7 189.625 1065.8 190.868 1065.17C192.111 1064.52 193.524 1064.2 195.106 1064.2C196.706 1064.2 198.114 1064.52 199.332 1065.15C200.559 1065.78 201.516 1066.65 202.203 1067.74C202.891 1068.83 203.235 1070.05 203.235 1071.42C203.235 1072.36 203.057 1073.29 202.701 1074.19C202.353 1075.09 201.744 1076.1 200.873 1077.21C200.003 1078.31 198.794 1079.65 197.244 1081.23L192.186 1086.52V1086.71H203.645V1090H186.891ZM220.718 1090.42C218.754 1090.41 217.076 1089.9 215.684 1088.87C214.292 1087.84 213.227 1086.35 212.49 1084.38C211.752 1082.42 211.383 1080.05 211.383 1077.29C211.383 1074.53 211.752 1072.17 212.49 1070.21C213.235 1068.26 214.304 1066.77 215.696 1065.74C217.097 1064.71 218.77 1064.2 220.718 1064.2C222.665 1064.2 224.334 1064.72 225.726 1065.75C227.119 1066.78 228.183 1068.27 228.921 1070.23C229.666 1072.17 230.039 1074.53 230.039 1077.29C230.039 1080.06 229.671 1082.43 228.933 1084.39C228.196 1086.35 227.131 1087.85 225.739 1088.88C224.347 1089.91 222.673 1090.42 220.718 1090.42ZM220.718 1087.1C222.441 1087.1 223.788 1086.26 224.757 1084.58C225.735 1082.9 226.224 1080.47 226.224 1077.29C226.224 1075.17 226 1073.39 225.552 1071.93C225.113 1070.46 224.479 1069.35 223.651 1068.6C222.831 1067.83 221.853 1067.45 220.718 1067.45C219.002 1067.45 217.656 1068.3 216.678 1069.99C215.7 1071.68 215.207 1074.11 215.199 1077.29C215.199 1079.41 215.419 1081.2 215.858 1082.67C216.305 1084.13 216.939 1085.23 217.759 1085.99C218.58 1086.73 219.566 1087.1 220.718 1087.1Z" fill="white"/>
<path d="M560.883 1090V1087.22L569.496 1078.29C570.416 1077.32 571.174 1076.47 571.771 1075.74C572.376 1075.01 572.827 1074.31 573.126 1073.64C573.424 1072.98 573.573 1072.28 573.573 1071.53C573.573 1070.69 573.374 1069.96 572.976 1069.34C572.579 1068.72 572.036 1068.25 571.348 1067.91C570.661 1067.57 569.886 1067.4 569.024 1067.4C568.113 1067.4 567.317 1067.59 566.638 1067.96C565.958 1068.34 565.436 1068.86 565.072 1069.54C564.707 1070.22 564.525 1071.02 564.525 1071.93H560.858C560.858 1070.38 561.215 1069.02 561.927 1067.86C562.64 1066.7 563.617 1065.8 564.86 1065.17C566.103 1064.52 567.516 1064.2 569.099 1064.2C570.698 1064.2 572.106 1064.52 573.324 1065.15C574.551 1065.78 575.508 1066.65 576.196 1067.74C576.883 1068.83 577.227 1070.05 577.227 1071.42C577.227 1072.36 577.049 1073.29 576.693 1074.19C576.345 1075.09 575.736 1076.1 574.866 1077.21C573.996 1078.31 572.786 1079.65 571.236 1081.23L566.178 1086.52V1086.71H577.637V1090H560.883ZM594.71 1090.42C592.746 1090.41 591.068 1089.9 589.676 1088.87C588.284 1087.84 587.219 1086.35 586.482 1084.38C585.744 1082.42 585.376 1080.05 585.376 1077.29C585.376 1074.53 585.744 1072.17 586.482 1070.21C587.228 1068.26 588.296 1066.77 589.688 1065.74C591.089 1064.71 592.763 1064.2 594.71 1064.2C596.657 1064.2 598.327 1064.72 599.719 1065.75C601.111 1066.78 602.175 1068.27 602.913 1070.23C603.659 1072.17 604.032 1074.53 604.032 1077.29C604.032 1080.06 603.663 1082.43 602.925 1084.39C602.188 1086.35 601.123 1087.85 599.731 1088.88C598.339 1089.91 596.665 1090.42 594.71 1090.42ZM594.71 1087.1C596.433 1087.1 597.78 1086.26 598.749 1084.58C599.727 1082.9 600.216 1080.47 600.216 1077.29C600.216 1075.17 599.992 1073.39 599.545 1071.93C599.105 1070.46 598.472 1069.35 597.643 1068.6C596.823 1067.83 595.845 1067.45 594.71 1067.45C592.995 1067.45 591.648 1068.3 590.67 1069.99C589.693 1071.68 589.2 1074.11 589.191 1077.29C589.191 1079.41 589.411 1081.2 589.85 1082.67C590.297 1084.13 590.931 1085.23 591.752 1085.99C592.572 1086.73 593.558 1087.1 594.71 1087.1ZM611.941 1090V1087.22L620.554 1078.29C621.474 1077.32 622.232 1076.47 622.828 1075.74C623.433 1075.01 623.885 1074.31 624.183 1073.64C624.482 1072.98 624.631 1072.28 624.631 1071.53C624.631 1070.69 624.432 1069.96 624.034 1069.34C623.636 1068.72 623.094 1068.25 622.406 1067.91C621.718 1067.57 620.943 1067.4 620.082 1067.4C619.17 1067.4 618.375 1067.59 617.695 1067.96C617.016 1068.34 616.494 1068.86 616.129 1069.54C615.765 1070.22 615.582 1071.02 615.582 1071.93H611.916C611.916 1070.38 612.272 1069.02 612.985 1067.86C613.697 1066.7 614.675 1065.8 615.918 1065.17C617.161 1064.52 618.574 1064.2 620.156 1064.2C621.755 1064.2 623.164 1064.52 624.382 1065.15C625.608 1065.78 626.565 1066.65 627.253 1067.74C627.941 1068.83 628.285 1070.05 628.285 1071.42C628.285 1072.36 628.107 1073.29 627.75 1074.19C627.402 1075.09 626.793 1076.1 625.923 1077.21C625.053 1078.31 623.844 1079.65 622.294 1081.23L617.235 1086.52V1086.71H628.695V1090H611.941ZM646.563 1064.55V1090H642.71V1068.4H642.561L636.471 1072.38V1068.7L642.822 1064.55H646.563Z" fill="white"/>
<path d="M1055.96 1090V1087.22L1064.57 1078.29C1065.49 1077.32 1066.25 1076.47 1066.85 1075.74C1067.45 1075.01 1067.91 1074.31 1068.2 1073.64C1068.5 1072.98 1068.65 1072.28 1068.65 1071.53C1068.65 1070.69 1068.45 1069.96 1068.05 1069.34C1067.66 1068.72 1067.11 1068.25 1066.43 1067.91C1065.74 1067.57 1064.96 1067.4 1064.1 1067.4C1063.19 1067.4 1062.4 1067.59 1061.72 1067.96C1061.04 1068.34 1060.51 1068.86 1060.15 1069.54C1059.79 1070.22 1059.6 1071.02 1059.6 1071.93H1055.94C1055.94 1070.38 1056.29 1069.02 1057.01 1067.86C1057.72 1066.7 1058.7 1065.8 1059.94 1065.17C1061.18 1064.52 1062.59 1064.2 1064.18 1064.2C1065.78 1064.2 1067.18 1064.52 1068.4 1065.15C1069.63 1065.78 1070.59 1066.65 1071.27 1067.74C1071.96 1068.83 1072.31 1070.05 1072.31 1071.42C1072.31 1072.36 1072.13 1073.29 1071.77 1074.19C1071.42 1075.09 1070.81 1076.1 1069.94 1077.21C1069.07 1078.31 1067.86 1079.65 1066.31 1081.23L1061.26 1086.52V1086.71H1072.72V1090H1055.96ZM1089.79 1090.42C1087.82 1090.41 1086.15 1089.9 1084.75 1088.87C1083.36 1087.84 1082.3 1086.35 1081.56 1084.38C1080.82 1082.42 1080.45 1080.05 1080.45 1077.29C1080.45 1074.53 1080.82 1072.17 1081.56 1070.21C1082.31 1068.26 1083.37 1066.77 1084.77 1065.74C1086.17 1064.71 1087.84 1064.2 1089.79 1064.2C1091.74 1064.2 1093.4 1064.72 1094.8 1065.75C1096.19 1066.78 1097.25 1068.27 1097.99 1070.23C1098.74 1072.17 1099.11 1074.53 1099.11 1077.29C1099.11 1080.06 1098.74 1082.43 1098 1084.39C1097.27 1086.35 1096.2 1087.85 1094.81 1088.88C1093.42 1089.91 1091.74 1090.42 1089.79 1090.42ZM1089.79 1087.1C1091.51 1087.1 1092.86 1086.26 1093.83 1084.58C1094.81 1082.9 1095.29 1080.47 1095.29 1077.29C1095.29 1075.17 1095.07 1073.39 1094.62 1071.93C1094.18 1070.46 1093.55 1069.35 1092.72 1068.6C1091.9 1067.83 1090.92 1067.45 1089.79 1067.45C1088.07 1067.45 1086.73 1068.3 1085.75 1069.99C1084.77 1071.68 1084.28 1074.11 1084.27 1077.29C1084.27 1079.41 1084.49 1081.2 1084.93 1082.67C1085.38 1084.13 1086.01 1085.23 1086.83 1085.99C1087.65 1086.73 1088.64 1087.1 1089.79 1087.1ZM1107.02 1090V1087.22L1115.63 1078.29C1116.55 1077.32 1117.31 1076.47 1117.91 1075.74C1118.51 1075.01 1118.96 1074.31 1119.26 1073.64C1119.56 1072.98 1119.71 1072.28 1119.71 1071.53C1119.71 1070.69 1119.51 1069.96 1119.11 1069.34C1118.71 1068.72 1118.17 1068.25 1117.48 1067.91C1116.8 1067.57 1116.02 1067.4 1115.16 1067.4C1114.25 1067.4 1113.45 1067.59 1112.77 1067.96C1112.09 1068.34 1111.57 1068.86 1111.21 1069.54C1110.84 1070.22 1110.66 1071.02 1110.66 1071.93H1106.99C1106.99 1070.38 1107.35 1069.02 1108.06 1067.86C1108.78 1066.7 1109.75 1065.8 1111 1065.17C1112.24 1064.52 1113.65 1064.2 1115.23 1064.2C1116.83 1064.2 1118.24 1064.52 1119.46 1065.15C1120.69 1065.78 1121.64 1066.65 1122.33 1067.74C1123.02 1068.83 1123.36 1070.05 1123.36 1071.42C1123.36 1072.36 1123.18 1073.29 1122.83 1074.19C1122.48 1075.09 1121.87 1076.1 1121 1077.21C1120.13 1078.31 1118.92 1079.65 1117.37 1081.23L1112.31 1086.52V1086.71H1123.77V1090H1107.02ZM1131.98 1090V1087.22L1140.6 1078.29C1141.52 1077.32 1142.27 1076.47 1142.87 1075.74C1143.48 1075.01 1143.93 1074.31 1144.23 1073.64C1144.52 1072.98 1144.67 1072.28 1144.67 1071.53C1144.67 1070.69 1144.47 1069.96 1144.08 1069.34C1143.68 1068.72 1143.14 1068.25 1142.45 1067.91C1141.76 1067.57 1140.99 1067.4 1140.12 1067.4C1139.21 1067.4 1138.42 1067.59 1137.74 1067.96C1137.06 1068.34 1136.54 1068.86 1136.17 1069.54C1135.81 1070.22 1135.63 1071.02 1135.63 1071.93H1131.96C1131.96 1070.38 1132.32 1069.02 1133.03 1067.86C1133.74 1066.7 1134.72 1065.8 1135.96 1065.17C1137.2 1064.52 1138.62 1064.2 1140.2 1064.2C1141.8 1064.2 1143.21 1064.52 1144.43 1065.15C1145.65 1065.78 1146.61 1066.65 1147.3 1067.74C1147.98 1068.83 1148.33 1070.05 1148.33 1071.42C1148.33 1072.36 1148.15 1073.29 1147.79 1074.19C1147.45 1075.09 1146.84 1076.1 1145.97 1077.21C1145.1 1078.31 1143.89 1079.65 1142.34 1081.23L1137.28 1086.52V1086.71H1148.74V1090H1131.98Z" fill="white"/>
<path d="M1515.87 1090V1087.22L1524.48 1078.29C1525.4 1077.32 1526.16 1076.47 1526.76 1075.74C1527.36 1075.01 1527.81 1074.31 1528.11 1073.64C1528.41 1072.98 1528.56 1072.28 1528.56 1071.53C1528.56 1070.69 1528.36 1069.96 1527.96 1069.34C1527.56 1068.72 1527.02 1068.25 1526.33 1067.91C1525.64 1067.57 1524.87 1067.4 1524.01 1067.4C1523.1 1067.4 1522.3 1067.59 1521.62 1067.96C1520.94 1068.34 1520.42 1068.86 1520.06 1069.54C1519.69 1070.22 1519.51 1071.02 1519.51 1071.93H1515.84C1515.84 1070.38 1516.2 1069.02 1516.91 1067.86C1517.62 1066.7 1518.6 1065.8 1519.84 1065.17C1521.09 1064.52 1522.5 1064.2 1524.08 1064.2C1525.68 1064.2 1527.09 1064.52 1528.31 1065.15C1529.54 1065.78 1530.49 1066.65 1531.18 1067.74C1531.87 1068.83 1532.21 1070.05 1532.21 1071.42C1532.21 1072.36 1532.03 1073.29 1531.68 1074.19C1531.33 1075.09 1530.72 1076.1 1529.85 1077.21C1528.98 1078.31 1527.77 1079.65 1526.22 1081.23L1521.16 1086.52V1086.71H1532.62V1090H1515.87ZM1549.69 1090.42C1547.73 1090.41 1546.05 1089.9 1544.66 1088.87C1543.27 1087.84 1542.2 1086.35 1541.47 1084.38C1540.73 1082.42 1540.36 1080.05 1540.36 1077.29C1540.36 1074.53 1540.73 1072.17 1541.47 1070.21C1542.21 1068.26 1543.28 1066.77 1544.67 1065.74C1546.07 1064.71 1547.75 1064.2 1549.69 1064.2C1551.64 1064.2 1553.31 1064.72 1554.7 1065.75C1556.1 1066.78 1557.16 1068.27 1557.9 1070.23C1558.64 1072.17 1559.02 1074.53 1559.02 1077.29C1559.02 1080.06 1558.65 1082.43 1557.91 1084.39C1557.17 1086.35 1556.11 1087.85 1554.72 1088.88C1553.32 1089.91 1551.65 1090.42 1549.69 1090.42ZM1549.69 1087.1C1551.42 1087.1 1552.76 1086.26 1553.73 1084.58C1554.71 1082.9 1555.2 1080.47 1555.2 1077.29C1555.2 1075.17 1554.98 1073.39 1554.53 1071.93C1554.09 1070.46 1553.46 1069.35 1552.63 1068.6C1551.81 1067.83 1550.83 1067.45 1549.69 1067.45C1547.98 1067.45 1546.63 1068.3 1545.65 1069.99C1544.68 1071.68 1544.18 1074.11 1544.18 1077.29C1544.18 1079.41 1544.4 1081.2 1544.83 1082.67C1545.28 1084.13 1545.92 1085.23 1546.74 1085.99C1547.56 1086.73 1548.54 1087.1 1549.69 1087.1ZM1566.93 1090V1087.22L1575.54 1078.29C1576.46 1077.32 1577.22 1076.47 1577.81 1075.74C1578.42 1075.01 1578.87 1074.31 1579.17 1073.64C1579.47 1072.98 1579.62 1072.28 1579.62 1071.53C1579.62 1070.69 1579.42 1069.96 1579.02 1069.34C1578.62 1068.72 1578.08 1068.25 1577.39 1067.91C1576.7 1067.57 1575.93 1067.4 1575.07 1067.4C1574.15 1067.4 1573.36 1067.59 1572.68 1067.96C1572 1068.34 1571.48 1068.86 1571.11 1069.54C1570.75 1070.22 1570.57 1071.02 1570.57 1071.93H1566.9C1566.9 1070.38 1567.26 1069.02 1567.97 1067.86C1568.68 1066.7 1569.66 1065.8 1570.9 1065.17C1572.15 1064.52 1573.56 1064.2 1575.14 1064.2C1576.74 1064.2 1578.15 1064.52 1579.37 1065.15C1580.59 1065.78 1581.55 1066.65 1582.24 1067.74C1582.93 1068.83 1583.27 1070.05 1583.27 1071.42C1583.27 1072.36 1583.09 1073.29 1582.73 1074.19C1582.39 1075.09 1581.78 1076.1 1580.91 1077.21C1580.04 1078.31 1578.83 1079.65 1577.28 1081.23L1572.22 1086.52V1086.71H1583.68V1090H1566.93ZM1600.75 1090.35C1599.04 1090.35 1597.52 1090.05 1596.18 1089.47C1594.84 1088.88 1593.79 1088.06 1593.01 1087.02C1592.24 1085.96 1591.82 1084.75 1591.77 1083.36H1595.67C1595.72 1084.12 1595.97 1084.77 1596.43 1085.33C1596.89 1085.87 1597.5 1086.3 1598.24 1086.59C1598.99 1086.89 1599.82 1087.04 1600.73 1087.04C1601.73 1087.04 1602.62 1086.87 1603.39 1086.52C1604.17 1086.17 1604.77 1085.69 1605.21 1085.07C1605.65 1084.44 1605.87 1083.71 1605.87 1082.89C1605.87 1082.04 1605.65 1081.29 1605.21 1080.64C1604.78 1079.99 1604.15 1079.47 1603.31 1079.1C1602.48 1078.73 1601.48 1078.54 1600.3 1078.54H1598.15V1075.41H1600.3C1601.25 1075.41 1602.08 1075.24 1602.79 1074.9C1603.51 1074.56 1604.07 1074.09 1604.48 1073.48C1604.89 1072.87 1605.09 1072.15 1605.09 1071.33C1605.09 1070.54 1604.91 1069.86 1604.56 1069.28C1604.21 1068.69 1603.71 1068.23 1603.06 1067.9C1602.43 1067.57 1601.67 1067.4 1600.8 1067.4C1599.97 1067.4 1599.2 1067.56 1598.48 1067.86C1597.76 1068.16 1597.18 1068.59 1596.74 1069.16C1596.29 1069.71 1596.05 1070.38 1596.02 1071.16H1592.3C1592.34 1069.78 1592.75 1068.57 1593.52 1067.53C1594.3 1066.48 1595.32 1065.67 1596.6 1065.08C1597.88 1064.49 1599.29 1064.2 1600.85 1064.2C1602.48 1064.2 1603.89 1064.52 1605.08 1065.15C1606.27 1065.78 1607.19 1066.63 1607.84 1067.68C1608.49 1068.73 1608.81 1069.88 1608.81 1071.13C1608.81 1072.56 1608.42 1073.77 1607.61 1074.76C1606.82 1075.76 1605.76 1076.42 1604.43 1076.76V1076.96C1606.12 1077.22 1607.43 1077.89 1608.36 1078.98C1609.29 1080.06 1609.76 1081.41 1609.75 1083.01C1609.76 1084.42 1609.37 1085.67 1608.58 1086.78C1607.8 1087.89 1606.74 1088.77 1605.39 1089.4C1604.04 1090.03 1602.49 1090.35 1600.75 1090.35Z" fill="white"/>
</g>
<defs>
<filter id="filter0_d_401_3" x="186.015" y="194.969" width="1800.99" height="774.031" filterUnits="userSpaceOnUse" color-interpolation-filters="sRGB">
<feFlood flood-opacity="0" result="BackgroundImageFix"/>
<feColorMatrix in="SourceAlpha" type="matrix" values="0 0 0 0 0 0 0 0 0 0 0 0 0 0 0 0 0 0 127 0" result="hardAlpha"/>
<feOffset dy="4"/>
<feGaussianBlur stdDeviation="2"/>
<feComposite in2="hardAlpha" operator="out"/>
<feColorMatrix type="matrix" values="0 0 0 0 0 0 0 0 0 0 0 0 0 0 0 0 0 0 0.25 0"/>
<feBlend mode="normal" in2="BackgroundImageFix" result="effect1_dropShadow_401_3"/>
<feBlend mode="normal" in="SourceGraphic" in2="effect1_dropShadow_401_3" result="shape"/>
</filter>
<filter id="filter1_d_401_3" x="173.999" y="188.999" width="1818" height="785.002" filterUnits="userSpaceOnUse" color-interpolation-filters="sRGB">
<feFlood flood-opacity="0" result="BackgroundImageFix"/>
<feColorMatrix in="SourceAlpha" type="matrix" values="0 0 0 0 0 0 0 0 0 0 0 0 0 0 0 0 0 0 127 0" result="hardAlpha"/>
<feOffset dy="4"/>
<feGaussianBlur stdDeviation="2"/>
<feComposite in2="hardAlpha" operator="out"/>
<feColorMatrix type="matrix" values="0 0 0 0 0 0 0 0 0 0 0 0 0 0 0 0 0 0 0.25 0"/>
<feBlend mode="normal" in2="BackgroundImageFix" result="effect1_dropShadow_401_3"/>
<feBlend mode="normal" in="SourceGraphic" in2="effect1_dropShadow_401_3" result="shape"/>
</filter>
<linearGradient id="paint0_linear_401_3" x1="0" y1="0" x2="3088.5" y2="1669.5" gradientUnits="userSpaceOnUse">
<stop stop-color="#1A1E2D"/>
<stop offset="1" stop-color="#00387B"/>
</linearGradient>
<linearGradient id="paint1_linear_401_3" x1="1083" y1="-818.5" x2="1083" y2="961" gradientUnits="userSpaceOnUse">
<stop stop-color="#459AFF"/>
<stop offset="1" stop-color="#459AFF" stop-opacity="0"/>
</linearGradient>
<clipPath id="clip0_401_3">
<rect width="2166" height="1117" fill="white"/>
</clipPath>
</defs>
</svg>
