<svg width="446" height="435" viewBox="0 0 446 435" fill="none" xmlns="http://www.w3.org/2000/svg">
<path d="M62.5298 140.657C73.9904 132.349 86.6904 125.893 100.163 121.525L141.886 249.619L62.5298 140.657Z" fill="#E9693B"/>
<path d="M100.162 121.525C113.635 117.157 127.713 114.932 141.88 114.931L141.886 249.619L100.162 121.525Z" fill="#E9693B"/>
<path d="M32.6677 170.45C40.9947 159.016 51.0736 148.961 62.5346 140.654L141.886 249.619L32.6677 170.45Z" fill="#E9693B"/>
<path d="M13.4912 207.998C17.8689 194.556 24.34 181.886 32.6668 170.451L141.886 249.619L13.4912 207.998Z" fill="#E9693B"/>
<path d="M141.886 384.306C120.581 384.306 99.5788 379.276 80.5961 369.626C61.6135 359.976 45.1895 345.982 32.6669 328.786C20.1443 311.59 11.8787 291.682 8.5459 270.688C5.21311 249.695 6.90775 228.213 13.4913 207.998L141.886 249.619L141.886 384.306Z" fill="#E8D167"/>
<path d="M141.886 384.306C159.614 384.306 177.17 380.822 193.549 374.054C209.928 367.285 224.81 357.364 237.346 344.857C249.883 332.35 259.827 317.502 266.611 301.161C273.396 284.82 276.888 267.306 276.888 249.619C276.888 231.931 273.396 214.417 266.611 198.076C259.827 181.735 249.883 166.887 237.346 154.38C224.81 141.873 209.928 131.952 193.549 125.184C177.17 118.415 159.614 114.931 141.886 114.931V384.306Z" fill="#41A4FF"/>
<path d="M338.182 328.544H339.592V336.248C339.592 337.044 339.404 337.754 339.029 338.379C338.658 339 338.133 339.491 337.455 339.85C336.777 340.206 335.982 340.384 335.069 340.384C334.156 340.384 333.36 340.206 332.682 339.85C332.004 339.491 331.478 339 331.103 338.379C330.732 337.754 330.546 337.044 330.546 336.248V328.544H331.955V336.134C331.955 336.703 332.08 337.208 332.33 337.652C332.58 338.091 332.936 338.438 333.398 338.691C333.864 338.941 334.421 339.066 335.069 339.066C335.717 339.066 336.273 338.941 336.739 338.691C337.205 338.438 337.561 338.091 337.807 337.652C338.057 337.208 338.182 336.703 338.182 336.134V328.544ZM343.565 334.93V340.18H342.224V331.453H343.519V332.816H343.633C343.837 332.373 344.148 332.017 344.565 331.748C344.981 331.475 345.519 331.339 346.178 331.339C346.769 331.339 347.286 331.46 347.729 331.703C348.172 331.941 348.517 332.305 348.763 332.794C349.01 333.278 349.133 333.892 349.133 334.634V340.18H347.792V334.725C347.792 334.04 347.614 333.506 347.258 333.123C346.902 332.737 346.413 332.544 345.792 332.544C345.364 332.544 344.981 332.636 344.644 332.822C344.311 333.008 344.047 333.278 343.854 333.634C343.661 333.991 343.565 334.422 343.565 334.93ZM351.583 340.18V331.453H352.924V340.18H351.583ZM352.265 329.998C352.003 329.998 351.778 329.909 351.589 329.731C351.403 329.553 351.31 329.339 351.31 329.089C351.31 328.839 351.403 328.625 351.589 328.447C351.778 328.269 352.003 328.18 352.265 328.18C352.526 328.18 352.75 328.269 352.935 328.447C353.125 328.625 353.219 328.839 353.219 329.089C353.219 329.339 353.125 329.553 352.935 329.731C352.75 329.909 352.526 329.998 352.265 329.998ZM361.562 333.407L360.357 333.748C360.281 333.547 360.17 333.352 360.022 333.163C359.878 332.97 359.681 332.811 359.431 332.686C359.181 332.561 358.861 332.498 358.471 332.498C357.937 332.498 357.492 332.621 357.136 332.867C356.783 333.11 356.607 333.419 356.607 333.794C356.607 334.127 356.728 334.39 356.971 334.583C357.213 334.777 357.592 334.938 358.107 335.066L359.403 335.384C360.183 335.574 360.764 335.864 361.147 336.254C361.529 336.64 361.721 337.138 361.721 337.748C361.721 338.248 361.577 338.695 361.289 339.089C361.005 339.483 360.607 339.794 360.096 340.021C359.584 340.248 358.99 340.362 358.312 340.362C357.422 340.362 356.685 340.169 356.101 339.782C355.518 339.396 355.149 338.831 354.993 338.089L356.266 337.771C356.387 338.241 356.617 338.593 356.954 338.828C357.295 339.063 357.74 339.18 358.289 339.18C358.914 339.18 359.41 339.047 359.778 338.782C360.149 338.513 360.334 338.191 360.334 337.816C360.334 337.513 360.228 337.259 360.016 337.055C359.804 336.847 359.478 336.691 359.039 336.589L357.584 336.248C356.785 336.059 356.198 335.765 355.823 335.367C355.452 334.966 355.266 334.464 355.266 333.862C355.266 333.369 355.404 332.934 355.681 332.555C355.961 332.176 356.342 331.879 356.823 331.663C357.308 331.447 357.857 331.339 358.471 331.339C359.334 331.339 360.012 331.528 360.505 331.907C361.001 332.286 361.353 332.786 361.562 333.407ZM366.307 340.384C365.754 340.384 365.252 340.28 364.802 340.072C364.351 339.86 363.993 339.555 363.728 339.157C363.463 338.756 363.33 338.271 363.33 337.703C363.33 337.203 363.429 336.797 363.626 336.487C363.823 336.172 364.086 335.926 364.415 335.748C364.745 335.57 365.109 335.438 365.506 335.35C365.908 335.259 366.311 335.188 366.717 335.134C367.247 335.066 367.677 335.015 368.006 334.981C368.34 334.943 368.582 334.881 368.734 334.794C368.889 334.706 368.967 334.555 368.967 334.339V334.294C368.967 333.733 368.813 333.297 368.506 332.987C368.203 332.676 367.743 332.521 367.126 332.521C366.485 332.521 365.984 332.661 365.62 332.941C365.256 333.222 365.001 333.521 364.853 333.839L363.58 333.384C363.807 332.854 364.11 332.441 364.489 332.146C364.872 331.847 365.288 331.638 365.739 331.521C366.194 331.4 366.641 331.339 367.08 331.339C367.36 331.339 367.682 331.373 368.046 331.441C368.413 331.506 368.768 331.64 369.109 331.845C369.453 332.049 369.739 332.358 369.967 332.771C370.194 333.184 370.307 333.737 370.307 334.43V340.18H368.967V338.998H368.898C368.807 339.188 368.656 339.39 368.444 339.606C368.232 339.822 367.949 340.006 367.597 340.157C367.245 340.309 366.815 340.384 366.307 340.384ZM366.512 339.18C367.042 339.18 367.489 339.076 367.853 338.867C368.22 338.659 368.497 338.39 368.682 338.061C368.872 337.731 368.967 337.384 368.967 337.021V335.794C368.91 335.862 368.785 335.924 368.592 335.981C368.402 336.034 368.182 336.081 367.932 336.123C367.686 336.161 367.446 336.195 367.211 336.225C366.98 336.252 366.792 336.275 366.648 336.294C366.3 336.339 365.974 336.413 365.671 336.515C365.372 336.614 365.129 336.763 364.944 336.964C364.762 337.161 364.671 337.43 364.671 337.771C364.671 338.237 364.843 338.589 365.188 338.828C365.537 339.063 365.978 339.18 366.512 339.18ZM374.732 340.18L372.073 331.453H373.482L375.368 338.134H375.459L377.323 331.453H378.755L380.596 338.112H380.687L382.573 331.453H383.982L381.323 340.18H380.005L378.096 333.475H377.959L376.05 340.18H374.732ZM385.755 343.453V331.453H387.05V332.839H387.209C387.308 332.688 387.444 332.494 387.618 332.259C387.797 332.021 388.05 331.809 388.38 331.623C388.713 331.434 389.164 331.339 389.732 331.339C390.467 331.339 391.115 331.523 391.675 331.89C392.236 332.258 392.673 332.778 392.988 333.453C393.302 334.127 393.459 334.922 393.459 335.839C393.459 336.763 393.302 337.564 392.988 338.242C392.673 338.917 392.238 339.439 391.681 339.811C391.124 340.178 390.482 340.362 389.755 340.362C389.194 340.362 388.745 340.269 388.408 340.083C388.071 339.894 387.812 339.68 387.63 339.441C387.448 339.199 387.308 338.998 387.209 338.839H387.096V343.453H385.755ZM387.073 335.816C387.073 336.475 387.17 337.057 387.363 337.561C387.556 338.061 387.838 338.453 388.209 338.737C388.581 339.017 389.035 339.157 389.573 339.157C390.134 339.157 390.601 339.009 390.976 338.714C391.355 338.415 391.639 338.013 391.829 337.509C392.022 337.002 392.118 336.438 392.118 335.816C392.118 335.203 392.024 334.65 391.834 334.157C391.649 333.661 391.367 333.269 390.988 332.981C390.613 332.689 390.141 332.544 389.573 332.544C389.028 332.544 388.569 332.682 388.198 332.958C387.827 333.231 387.547 333.614 387.357 334.106C387.168 334.595 387.073 335.165 387.073 335.816Z" fill="#9291A5"/>
<circle cx="315.029" cy="335.18" r="7.10791" fill="#E9693B"/>
<path d="M407.097 340.63C406.385 340.63 405.745 340.493 405.177 340.22C404.612 339.944 404.162 339.565 403.824 339.084C403.487 338.603 403.307 338.054 403.285 337.436H404.989C405.031 337.936 405.252 338.347 405.654 338.669C406.056 338.991 406.537 339.152 407.097 339.152C407.544 339.152 407.94 339.05 408.285 338.845C408.633 338.637 408.906 338.351 409.103 337.988C409.304 337.624 409.404 337.209 409.404 336.743C409.404 336.27 409.302 335.847 409.097 335.476C408.893 335.105 408.61 334.813 408.251 334.601C407.895 334.389 407.485 334.281 407.023 334.277C406.671 334.277 406.317 334.338 405.961 334.459C405.605 334.58 405.317 334.739 405.097 334.936L403.489 334.698L404.143 328.834H410.54V330.34H405.603L405.234 333.595H405.302C405.529 333.376 405.83 333.192 406.205 333.044C406.584 332.897 406.989 332.823 407.421 332.823C408.129 332.823 408.76 332.991 409.313 333.328C409.87 333.666 410.307 334.126 410.626 334.709C410.948 335.289 411.107 335.955 411.103 336.709C411.107 337.463 410.936 338.135 410.592 338.726C410.251 339.317 409.777 339.783 409.171 340.124C408.569 340.461 407.877 340.63 407.097 340.63ZM419.252 338.289V337.675C419.252 337.236 419.343 336.834 419.525 336.47C419.71 336.103 419.979 335.809 420.332 335.59C420.688 335.366 421.118 335.255 421.621 335.255C422.136 335.255 422.568 335.364 422.917 335.584C423.265 335.804 423.529 336.097 423.707 336.465C423.888 336.832 423.979 337.236 423.979 337.675V338.289C423.979 338.728 423.888 339.131 423.707 339.499C423.525 339.863 423.258 340.156 422.905 340.38C422.557 340.599 422.129 340.709 421.621 340.709C421.11 340.709 420.678 340.599 420.326 340.38C419.974 340.156 419.707 339.863 419.525 339.499C419.343 339.131 419.252 338.728 419.252 338.289ZM420.576 337.675V338.289C420.576 338.614 420.654 338.91 420.809 339.175C420.964 339.44 421.235 339.573 421.621 339.573C422.004 339.573 422.271 339.44 422.422 339.175C422.574 338.91 422.65 338.614 422.65 338.289V337.675C422.65 337.349 422.576 337.054 422.428 336.789C422.284 336.523 422.015 336.391 421.621 336.391C421.243 336.391 420.974 336.523 420.815 336.789C420.655 337.054 420.576 337.349 420.576 337.675ZM413.4 331.63V331.016C413.4 330.577 413.491 330.173 413.672 329.806C413.858 329.438 414.127 329.145 414.479 328.925C414.835 328.705 415.265 328.595 415.769 328.595C416.284 328.595 416.716 328.705 417.065 328.925C417.413 329.145 417.676 329.438 417.854 329.806C418.032 330.173 418.121 330.577 418.121 331.016V331.63C418.121 332.069 418.03 332.472 417.849 332.84C417.671 333.203 417.405 333.497 417.053 333.72C416.705 333.94 416.277 334.05 415.769 334.05C415.254 334.05 414.82 333.94 414.468 333.72C414.119 333.497 413.854 333.203 413.672 332.84C413.491 332.472 413.4 332.069 413.4 331.63ZM414.729 331.016V331.63C414.729 331.955 414.805 332.251 414.957 332.516C415.112 332.781 415.383 332.914 415.769 332.914C416.148 332.914 416.413 332.781 416.565 332.516C416.72 332.251 416.797 331.955 416.797 331.63V331.016C416.797 330.69 416.724 330.395 416.576 330.13C416.428 329.864 416.159 329.732 415.769 329.732C415.39 329.732 415.121 329.864 414.962 330.13C414.807 330.395 414.729 330.69 414.729 331.016ZM413.94 340.47L421.94 328.834H423.297L415.297 340.47H413.94Z" fill="#1E1B39"/>
<path d="M330.546 306.18V294.544H337.569V295.794H331.955V299.725H337.205V300.975H331.955V304.93H337.66V306.18H330.546ZM343.722 297.453V298.589H339.199V297.453H343.722ZM340.518 295.362H341.859V303.68C341.859 304.059 341.913 304.343 342.023 304.532C342.137 304.718 342.281 304.843 342.455 304.907C342.633 304.968 342.821 304.998 343.018 304.998C343.165 304.998 343.287 304.991 343.381 304.975C343.476 304.956 343.552 304.941 343.609 304.93L343.881 306.134C343.79 306.169 343.663 306.203 343.501 306.237C343.338 306.275 343.131 306.294 342.881 306.294C342.502 306.294 342.131 306.212 341.768 306.049C341.408 305.886 341.109 305.638 340.87 305.305C340.635 304.972 340.518 304.551 340.518 304.044V295.362ZM347.268 300.93V306.18H345.927V294.544H347.268V298.816H347.381C347.586 298.366 347.893 298.008 348.302 297.742C348.715 297.473 349.264 297.339 349.949 297.339C350.544 297.339 351.065 297.458 351.512 297.697C351.959 297.932 352.306 298.294 352.552 298.782C352.802 299.267 352.927 299.884 352.927 300.634V306.18H351.586V300.725C351.586 300.032 351.406 299.496 351.046 299.117C350.69 298.735 350.196 298.544 349.563 298.544C349.124 298.544 348.73 298.636 348.381 298.822C348.037 299.008 347.764 299.278 347.563 299.634C347.366 299.991 347.268 300.422 347.268 300.93ZM359.039 306.362C358.198 306.362 357.473 306.176 356.863 305.805C356.257 305.43 355.789 304.907 355.459 304.237C355.134 303.563 354.971 302.778 354.971 301.884C354.971 300.991 355.134 300.203 355.459 299.521C355.789 298.835 356.247 298.301 356.834 297.919C357.425 297.532 358.115 297.339 358.903 297.339C359.357 297.339 359.806 297.415 360.249 297.566C360.692 297.718 361.096 297.964 361.459 298.305C361.823 298.642 362.113 299.089 362.329 299.646C362.545 300.203 362.653 300.888 362.653 301.703V302.271H355.925V301.112H361.289C361.289 300.619 361.19 300.18 360.993 299.794C360.8 299.407 360.524 299.102 360.164 298.879C359.808 298.655 359.387 298.544 358.903 298.544C358.368 298.544 357.906 298.676 357.516 298.941C357.13 299.203 356.833 299.544 356.624 299.964C356.416 300.384 356.312 300.835 356.312 301.316V302.089C356.312 302.748 356.425 303.307 356.653 303.765C356.884 304.22 357.204 304.566 357.613 304.805C358.022 305.04 358.497 305.157 359.039 305.157C359.391 305.157 359.709 305.108 359.993 305.009C360.281 304.907 360.529 304.756 360.738 304.555C360.946 304.35 361.107 304.097 361.221 303.794L362.516 304.157C362.38 304.597 362.151 304.983 361.829 305.316C361.507 305.646 361.109 305.903 360.636 306.089C360.162 306.271 359.63 306.362 359.039 306.362ZM364.692 306.18V297.453H365.988V298.771H366.079C366.238 298.339 366.526 297.989 366.942 297.72C367.359 297.451 367.829 297.316 368.351 297.316C368.45 297.316 368.573 297.318 368.721 297.322C368.868 297.326 368.98 297.331 369.056 297.339V298.703C369.011 298.691 368.906 298.674 368.743 298.652C368.584 298.625 368.416 298.612 368.238 298.612C367.814 298.612 367.435 298.701 367.101 298.879C366.772 299.053 366.511 299.295 366.317 299.606C366.128 299.913 366.033 300.263 366.033 300.657V306.18H364.692ZM376.145 302.612V297.453H377.486V306.18H376.145V304.703H376.055C375.85 305.146 375.532 305.523 375.1 305.833C374.668 306.14 374.123 306.294 373.464 306.294C372.918 306.294 372.433 306.174 372.009 305.936C371.585 305.693 371.252 305.33 371.009 304.845C370.767 304.356 370.645 303.741 370.645 302.998V297.453H371.986V302.907C371.986 303.544 372.164 304.051 372.52 304.43C372.88 304.809 373.339 304.998 373.895 304.998C374.229 304.998 374.568 304.913 374.913 304.742C375.261 304.572 375.553 304.311 375.788 303.958C376.026 303.606 376.145 303.157 376.145 302.612ZM379.942 306.18V297.453H381.238V298.816H381.351C381.533 298.35 381.827 297.989 382.232 297.731C382.637 297.47 383.124 297.339 383.692 297.339C384.268 297.339 384.747 297.47 385.13 297.731C385.516 297.989 385.817 298.35 386.033 298.816H386.124C386.348 298.366 386.683 298.008 387.13 297.742C387.577 297.473 388.113 297.339 388.738 297.339C389.518 297.339 390.156 297.583 390.653 298.072C391.149 298.557 391.397 299.313 391.397 300.339V306.18H390.056V300.339C390.056 299.695 389.88 299.235 389.528 298.958C389.175 298.682 388.761 298.544 388.283 298.544C387.67 298.544 387.194 298.729 386.857 299.1C386.52 299.468 386.351 299.934 386.351 300.498V306.18H384.988V300.203C384.988 299.706 384.827 299.307 384.505 299.004C384.183 298.697 383.768 298.544 383.261 298.544C382.912 298.544 382.586 298.636 382.283 298.822C381.984 299.008 381.742 299.265 381.556 299.595C381.374 299.92 381.283 300.297 381.283 300.725V306.18H379.942Z" fill="#9291A5"/>
<circle cx="315.029" cy="301.18" r="7.10791" fill="#E9693B"/>
<path d="M405.097 306.63C404.385 306.63 403.745 306.493 403.177 306.22C402.612 305.944 402.162 305.565 401.824 305.084C401.487 304.603 401.307 304.054 401.285 303.436H402.989C403.031 303.936 403.252 304.347 403.654 304.669C404.056 304.991 404.537 305.152 405.097 305.152C405.544 305.152 405.94 305.05 406.285 304.845C406.633 304.637 406.906 304.351 407.103 303.988C407.304 303.624 407.404 303.209 407.404 302.743C407.404 302.27 407.302 301.847 407.097 301.476C406.893 301.105 406.61 300.813 406.251 300.601C405.895 300.389 405.485 300.281 405.023 300.277C404.671 300.277 404.317 300.338 403.961 300.459C403.605 300.58 403.317 300.739 403.097 300.936L401.489 300.698L402.143 294.834H408.54V296.34H403.603L403.234 299.595H403.302C403.529 299.376 403.83 299.192 404.205 299.044C404.584 298.897 404.989 298.823 405.421 298.823C406.129 298.823 406.76 298.991 407.313 299.328C407.87 299.666 408.307 300.126 408.626 300.709C408.948 301.289 409.107 301.955 409.103 302.709C409.107 303.463 408.936 304.135 408.592 304.726C408.251 305.317 407.777 305.783 407.171 306.124C406.569 306.461 405.877 306.63 405.097 306.63ZM417.252 304.289V303.675C417.252 303.236 417.343 302.834 417.525 302.47C417.71 302.103 417.979 301.809 418.332 301.59C418.688 301.366 419.118 301.255 419.621 301.255C420.136 301.255 420.568 301.364 420.917 301.584C421.265 301.804 421.529 302.097 421.707 302.465C421.888 302.832 421.979 303.236 421.979 303.675V304.289C421.979 304.728 421.888 305.131 421.707 305.499C421.525 305.863 421.258 306.156 420.905 306.38C420.557 306.599 420.129 306.709 419.621 306.709C419.11 306.709 418.678 306.599 418.326 306.38C417.974 306.156 417.707 305.863 417.525 305.499C417.343 305.131 417.252 304.728 417.252 304.289ZM418.576 303.675V304.289C418.576 304.614 418.654 304.91 418.809 305.175C418.964 305.44 419.235 305.573 419.621 305.573C420.004 305.573 420.271 305.44 420.422 305.175C420.574 304.91 420.65 304.614 420.65 304.289V303.675C420.65 303.349 420.576 303.054 420.428 302.789C420.284 302.523 420.015 302.391 419.621 302.391C419.243 302.391 418.974 302.523 418.815 302.789C418.655 303.054 418.576 303.349 418.576 303.675ZM411.4 297.63V297.016C411.4 296.577 411.491 296.173 411.672 295.806C411.858 295.438 412.127 295.145 412.479 294.925C412.835 294.705 413.265 294.595 413.769 294.595C414.284 294.595 414.716 294.705 415.065 294.925C415.413 295.145 415.676 295.438 415.854 295.806C416.032 296.173 416.121 296.577 416.121 297.016V297.63C416.121 298.069 416.03 298.472 415.849 298.84C415.671 299.203 415.405 299.497 415.053 299.72C414.705 299.94 414.277 300.05 413.769 300.05C413.254 300.05 412.82 299.94 412.468 299.72C412.119 299.497 411.854 299.203 411.672 298.84C411.491 298.472 411.4 298.069 411.4 297.63ZM412.729 297.016V297.63C412.729 297.955 412.805 298.251 412.957 298.516C413.112 298.781 413.383 298.914 413.769 298.914C414.148 298.914 414.413 298.781 414.565 298.516C414.72 298.251 414.797 297.955 414.797 297.63V297.016C414.797 296.69 414.724 296.395 414.576 296.13C414.428 295.864 414.159 295.732 413.769 295.732C413.39 295.732 413.121 295.864 412.962 296.13C412.807 296.395 412.729 296.69 412.729 297.016ZM411.94 306.47L419.94 294.834H421.297L413.297 306.47H411.94Z" fill="#1E1B39"/>
<path d="M339.91 264.18H338.501C338.417 263.775 338.271 263.419 338.063 263.112C337.859 262.805 337.609 262.548 337.313 262.339C337.021 262.127 336.698 261.968 336.342 261.862C335.985 261.756 335.614 261.703 335.228 261.703C334.523 261.703 333.885 261.881 333.313 262.237C332.745 262.593 332.292 263.118 331.955 263.811C331.622 264.504 331.455 265.354 331.455 266.362C331.455 267.37 331.622 268.22 331.955 268.913C332.292 269.606 332.745 270.131 333.313 270.487C333.885 270.843 334.523 271.021 335.228 271.021C335.614 271.021 335.985 270.968 336.342 270.862C336.698 270.756 337.021 270.599 337.313 270.39C337.609 270.178 337.859 269.919 338.063 269.612C338.271 269.301 338.417 268.945 338.501 268.544H339.91C339.804 269.139 339.61 269.671 339.33 270.14C339.05 270.61 338.701 271.01 338.285 271.339C337.868 271.665 337.4 271.913 336.881 272.084C336.366 272.254 335.815 272.339 335.228 272.339C334.235 272.339 333.353 272.097 332.58 271.612C331.807 271.127 331.199 270.438 330.756 269.544C330.313 268.65 330.092 267.589 330.092 266.362C330.092 265.135 330.313 264.074 330.756 263.18C331.199 262.286 331.807 261.597 332.58 261.112C333.353 260.627 334.235 260.385 335.228 260.385C335.815 260.385 336.366 260.47 336.881 260.64C337.4 260.811 337.868 261.061 338.285 261.39C338.701 261.716 339.05 262.114 339.33 262.584C339.61 263.049 339.804 263.582 339.91 264.18ZM343.346 266.93V272.18H342.005V260.544H343.346V264.817H343.459C343.664 264.366 343.971 264.008 344.38 263.743C344.793 263.474 345.342 263.339 346.028 263.339C346.622 263.339 347.143 263.459 347.59 263.697C348.037 263.932 348.384 264.294 348.63 264.782C348.88 265.267 349.005 265.885 349.005 266.635V272.18H347.664V266.726C347.664 266.032 347.484 265.496 347.124 265.118C346.768 264.735 346.274 264.544 345.641 264.544C345.202 264.544 344.808 264.637 344.459 264.822C344.115 265.008 343.842 265.279 343.641 265.635C343.444 265.991 343.346 266.423 343.346 266.93ZM354.026 272.385C353.473 272.385 352.971 272.281 352.52 272.072C352.07 271.86 351.712 271.555 351.447 271.157C351.181 270.756 351.049 270.271 351.049 269.703C351.049 269.203 351.147 268.798 351.344 268.487C351.541 268.173 351.805 267.926 352.134 267.748C352.464 267.57 352.827 267.438 353.225 267.351C353.627 267.26 354.03 267.188 354.435 267.135C354.966 267.067 355.395 267.015 355.725 266.981C356.058 266.943 356.301 266.881 356.452 266.794C356.608 266.707 356.685 266.555 356.685 266.339V266.294C356.685 265.733 356.532 265.298 356.225 264.987C355.922 264.676 355.462 264.521 354.844 264.521C354.204 264.521 353.702 264.661 353.339 264.942C352.975 265.222 352.719 265.521 352.572 265.839L351.299 265.385C351.526 264.854 351.829 264.442 352.208 264.146C352.591 263.847 353.007 263.639 353.458 263.521C353.913 263.4 354.36 263.339 354.799 263.339C355.079 263.339 355.401 263.373 355.765 263.442C356.132 263.506 356.486 263.64 356.827 263.845C357.172 264.049 357.458 264.358 357.685 264.771C357.913 265.184 358.026 265.737 358.026 266.43V272.18H356.685V270.998H356.617C356.526 271.188 356.375 271.39 356.163 271.606C355.95 271.822 355.668 272.006 355.316 272.157C354.964 272.309 354.534 272.385 354.026 272.385ZM354.231 271.18C354.761 271.18 355.208 271.076 355.572 270.868C355.939 270.659 356.216 270.39 356.401 270.061C356.591 269.731 356.685 269.385 356.685 269.021V267.794C356.628 267.862 356.503 267.924 356.31 267.981C356.121 268.034 355.901 268.082 355.651 268.123C355.405 268.161 355.164 268.195 354.93 268.226C354.699 268.252 354.511 268.275 354.367 268.294C354.019 268.339 353.693 268.413 353.39 268.515C353.091 268.614 352.848 268.764 352.663 268.964C352.481 269.161 352.39 269.43 352.39 269.771C352.39 270.237 352.562 270.589 352.907 270.828C353.255 271.063 353.697 271.18 354.231 271.18ZM360.474 272.18V263.453H361.815V272.18H360.474ZM361.155 261.998C360.894 261.998 360.669 261.909 360.479 261.731C360.294 261.553 360.201 261.339 360.201 261.089C360.201 260.839 360.294 260.625 360.479 260.447C360.669 260.269 360.894 260.18 361.155 260.18C361.417 260.18 361.64 260.269 361.826 260.447C362.015 260.625 362.11 260.839 362.11 261.089C362.11 261.339 362.015 261.553 361.826 261.731C361.64 261.909 361.417 261.998 361.155 261.998ZM365.611 266.93V272.18H364.27V263.453H365.566V264.817H365.68C365.884 264.373 366.195 264.017 366.611 263.748C367.028 263.476 367.566 263.339 368.225 263.339C368.816 263.339 369.333 263.46 369.776 263.703C370.219 263.942 370.564 264.305 370.81 264.794C371.056 265.279 371.18 265.892 371.18 266.635V272.18H369.839V266.726C369.839 266.04 369.661 265.506 369.305 265.123C368.949 264.737 368.46 264.544 367.839 264.544C367.411 264.544 367.028 264.637 366.691 264.822C366.358 265.008 366.094 265.279 365.901 265.635C365.708 265.991 365.611 266.423 365.611 266.93ZM373.812 272.18V260.544H375.221V270.93H380.63V272.18H373.812ZM382.63 272.18V263.453H383.971V272.18H382.63ZM383.312 261.998C383.05 261.998 382.825 261.909 382.636 261.731C382.45 261.553 382.357 261.339 382.357 261.089C382.357 260.839 382.45 260.625 382.636 260.447C382.825 260.269 383.05 260.18 383.312 260.18C383.573 260.18 383.797 260.269 383.982 260.447C384.172 260.625 384.266 260.839 384.266 261.089C384.266 261.339 384.172 261.553 383.982 261.731C383.797 261.909 383.573 261.998 383.312 261.998ZM387.768 266.93V272.18H386.427V263.453H387.722V264.817H387.836C388.04 264.373 388.351 264.017 388.768 263.748C389.184 263.476 389.722 263.339 390.381 263.339C390.972 263.339 391.489 263.46 391.932 263.703C392.376 263.942 392.72 264.305 392.967 264.794C393.213 265.279 393.336 265.892 393.336 266.635V272.18H391.995V266.726C391.995 266.04 391.817 265.506 391.461 265.123C391.105 264.737 390.616 264.544 389.995 264.544C389.567 264.544 389.184 264.637 388.847 264.822C388.514 265.008 388.251 265.279 388.057 265.635C387.864 265.991 387.768 266.423 387.768 266.93ZM397.036 268.998L397.013 267.339H397.286L401.104 263.453H402.763L398.695 267.567H398.582L397.036 268.998ZM395.786 272.18V260.544H397.127V272.18H395.786ZM401.332 272.18L397.922 267.862L398.877 266.93L403.036 272.18H401.332Z" fill="#9291A5"/>
<circle cx="315.029" cy="267.18" r="7.10791" fill="#E9693B"/>
<path d="M416.097 272.63C415.385 272.63 414.745 272.493 414.177 272.221C413.612 271.944 413.162 271.565 412.824 271.084C412.487 270.603 412.307 270.054 412.285 269.437H413.989C414.031 269.937 414.252 270.348 414.654 270.67C415.056 270.992 415.537 271.153 416.097 271.153C416.544 271.153 416.94 271.05 417.285 270.846C417.633 270.637 417.906 270.351 418.103 269.988C418.304 269.624 418.404 269.209 418.404 268.743C418.404 268.27 418.302 267.848 418.097 267.476C417.893 267.105 417.61 266.814 417.251 266.601C416.895 266.389 416.485 266.281 416.023 266.278C415.671 266.278 415.317 266.338 414.961 266.459C414.605 266.581 414.317 266.74 414.097 266.937L412.489 266.698L413.143 260.834H419.54V262.34H414.603L414.234 265.596H414.302C414.529 265.376 414.83 265.192 415.205 265.045C415.584 264.897 415.989 264.823 416.421 264.823C417.129 264.823 417.76 264.992 418.313 265.329C418.87 265.666 419.307 266.126 419.626 266.709C419.948 267.289 420.107 267.956 420.103 268.709C420.107 269.463 419.936 270.135 419.592 270.726C419.251 271.317 418.777 271.783 418.171 272.124C417.569 272.461 416.877 272.63 416.097 272.63ZM428.252 270.289V269.675C428.252 269.236 428.343 268.834 428.525 268.471C428.71 268.103 428.979 267.81 429.332 267.59C429.688 267.367 430.118 267.255 430.621 267.255C431.136 267.255 431.568 267.365 431.917 267.584C432.265 267.804 432.529 268.098 432.707 268.465C432.888 268.832 432.979 269.236 432.979 269.675V270.289C432.979 270.728 432.888 271.132 432.707 271.499C432.525 271.863 432.258 272.156 431.905 272.38C431.557 272.599 431.129 272.709 430.621 272.709C430.11 272.709 429.678 272.599 429.326 272.38C428.974 272.156 428.707 271.863 428.525 271.499C428.343 271.132 428.252 270.728 428.252 270.289ZM429.576 269.675V270.289C429.576 270.615 429.654 270.91 429.809 271.175C429.964 271.44 430.235 271.573 430.621 271.573C431.004 271.573 431.271 271.44 431.422 271.175C431.574 270.91 431.65 270.615 431.65 270.289V269.675C431.65 269.349 431.576 269.054 431.428 268.789C431.284 268.524 431.015 268.391 430.621 268.391C430.243 268.391 429.974 268.524 429.815 268.789C429.655 269.054 429.576 269.349 429.576 269.675ZM422.4 263.63V263.016C422.4 262.577 422.491 262.173 422.672 261.806C422.858 261.439 423.127 261.145 423.479 260.925C423.835 260.706 424.265 260.596 424.769 260.596C425.284 260.596 425.716 260.706 426.065 260.925C426.413 261.145 426.676 261.439 426.854 261.806C427.032 262.173 427.121 262.577 427.121 263.016V263.63C427.121 264.069 427.03 264.473 426.849 264.84C426.671 265.204 426.405 265.497 426.053 265.721C425.705 265.94 425.277 266.05 424.769 266.05C424.254 266.05 423.82 265.94 423.468 265.721C423.119 265.497 422.854 265.204 422.672 264.84C422.491 264.473 422.4 264.069 422.4 263.63ZM423.729 263.016V263.63C423.729 263.956 423.805 264.251 423.957 264.516C424.112 264.781 424.383 264.914 424.769 264.914C425.148 264.914 425.413 264.781 425.565 264.516C425.72 264.251 425.797 263.956 425.797 263.63V263.016C425.797 262.69 425.724 262.395 425.576 262.13C425.428 261.865 425.159 261.732 424.769 261.732C424.39 261.732 424.121 261.865 423.962 262.13C423.807 262.395 423.729 262.69 423.729 263.016ZM422.94 272.471L430.94 260.834H432.297L424.297 272.471H422.94Z" fill="#1E1B39"/>
<path d="M331.023 238.18H329.546L333.819 226.544H335.273L339.546 238.18H338.069L334.592 228.384H334.501L331.023 238.18ZM331.569 233.634H337.523V234.884H331.569V233.634ZM343.745 238.384C343.192 238.384 342.69 238.28 342.239 238.072C341.788 237.86 341.431 237.555 341.165 237.157C340.9 236.756 340.768 236.271 340.768 235.703C340.768 235.203 340.866 234.797 341.063 234.487C341.26 234.172 341.523 233.926 341.853 233.748C342.182 233.57 342.546 233.438 342.944 233.35C343.345 233.259 343.749 233.188 344.154 233.134C344.684 233.066 345.114 233.015 345.444 232.981C345.777 232.943 346.02 232.881 346.171 232.794C346.326 232.706 346.404 232.555 346.404 232.339V232.294C346.404 231.733 346.251 231.297 345.944 230.987C345.641 230.676 345.181 230.521 344.563 230.521C343.923 230.521 343.421 230.661 343.057 230.941C342.694 231.222 342.438 231.521 342.29 231.839L341.018 231.384C341.245 230.854 341.548 230.441 341.927 230.146C342.309 229.847 342.726 229.638 343.177 229.521C343.631 229.4 344.078 229.339 344.518 229.339C344.798 229.339 345.12 229.373 345.484 229.441C345.851 229.506 346.205 229.64 346.546 229.845C346.891 230.049 347.177 230.358 347.404 230.771C347.631 231.184 347.745 231.737 347.745 232.43V238.18H346.404V236.998H346.336C346.245 237.188 346.093 237.39 345.881 237.606C345.669 237.822 345.387 238.006 345.035 238.157C344.682 238.309 344.252 238.384 343.745 238.384ZM343.949 237.18C344.48 237.18 344.927 237.076 345.29 236.867C345.658 236.659 345.934 236.39 346.12 236.061C346.309 235.731 346.404 235.384 346.404 235.021V233.794C346.347 233.862 346.222 233.924 346.029 233.981C345.84 234.034 345.62 234.081 345.37 234.123C345.124 234.161 344.883 234.195 344.648 234.225C344.417 234.252 344.23 234.275 344.086 234.294C343.737 234.339 343.412 234.413 343.109 234.515C342.809 234.614 342.567 234.763 342.381 234.964C342.199 235.161 342.109 235.43 342.109 235.771C342.109 236.237 342.281 236.589 342.626 236.828C342.974 237.063 343.415 237.18 343.949 237.18ZM357.016 229.453L353.789 238.18H352.425L349.198 229.453H350.653L353.062 236.407H353.153L355.562 229.453H357.016ZM362.133 238.362C361.292 238.362 360.566 238.176 359.957 237.805C359.351 237.43 358.883 236.907 358.553 236.237C358.227 235.563 358.065 234.778 358.065 233.884C358.065 232.991 358.227 232.203 358.553 231.521C358.883 230.835 359.341 230.301 359.928 229.919C360.519 229.532 361.208 229.339 361.996 229.339C362.451 229.339 362.9 229.415 363.343 229.566C363.786 229.718 364.19 229.964 364.553 230.305C364.917 230.642 365.207 231.089 365.422 231.646C365.638 232.203 365.746 232.888 365.746 233.703V234.271H359.019V233.112H364.383C364.383 232.619 364.284 232.18 364.087 231.794C363.894 231.407 363.618 231.102 363.258 230.879C362.902 230.655 362.481 230.544 361.996 230.544C361.462 230.544 361 230.676 360.61 230.941C360.224 231.203 359.926 231.544 359.718 231.964C359.51 232.384 359.405 232.835 359.405 233.316V234.089C359.405 234.748 359.519 235.307 359.746 235.765C359.977 236.22 360.297 236.566 360.707 236.805C361.116 237.04 361.591 237.157 362.133 237.157C362.485 237.157 362.803 237.108 363.087 237.009C363.375 236.907 363.623 236.756 363.832 236.555C364.04 236.35 364.201 236.097 364.315 235.794L365.61 236.157C365.474 236.597 365.244 236.983 364.922 237.316C364.601 237.646 364.203 237.903 363.729 238.089C363.256 238.271 362.724 238.362 362.133 238.362Z" fill="#9291A5"/>
<circle cx="315.029" cy="233.18" r="7.10791" fill="#E9693B"/>
<path d="M379.097 238.63C378.385 238.63 377.745 238.493 377.177 238.22C376.612 237.944 376.162 237.565 375.824 237.084C375.487 236.603 375.307 236.054 375.285 235.436H376.989C377.031 235.936 377.252 236.347 377.654 236.669C378.056 236.991 378.537 237.152 379.097 237.152C379.544 237.152 379.94 237.05 380.285 236.845C380.633 236.637 380.906 236.351 381.103 235.988C381.304 235.624 381.404 235.209 381.404 234.743C381.404 234.27 381.302 233.847 381.097 233.476C380.893 233.105 380.61 232.813 380.251 232.601C379.895 232.389 379.485 232.281 379.023 232.277C378.671 232.277 378.317 232.338 377.961 232.459C377.605 232.58 377.317 232.739 377.097 232.936L375.489 232.698L376.143 226.834H382.54V228.34H377.603L377.234 231.595H377.302C377.529 231.376 377.83 231.192 378.205 231.044C378.584 230.897 378.989 230.823 379.421 230.823C380.129 230.823 380.76 230.991 381.313 231.328C381.87 231.666 382.307 232.126 382.626 232.709C382.948 233.289 383.107 233.955 383.103 234.709C383.107 235.463 382.936 236.135 382.592 236.726C382.251 237.317 381.777 237.783 381.171 238.124C380.569 238.461 379.877 238.63 379.097 238.63ZM391.252 236.289V235.675C391.252 235.236 391.343 234.834 391.525 234.47C391.71 234.103 391.979 233.809 392.332 233.59C392.688 233.366 393.118 233.255 393.621 233.255C394.136 233.255 394.568 233.364 394.917 233.584C395.265 233.804 395.529 234.097 395.707 234.465C395.888 234.832 395.979 235.236 395.979 235.675V236.289C395.979 236.728 395.888 237.131 395.707 237.499C395.525 237.863 395.258 238.156 394.905 238.38C394.557 238.599 394.129 238.709 393.621 238.709C393.11 238.709 392.678 238.599 392.326 238.38C391.974 238.156 391.707 237.863 391.525 237.499C391.343 237.131 391.252 236.728 391.252 236.289ZM392.576 235.675V236.289C392.576 236.614 392.654 236.91 392.809 237.175C392.964 237.44 393.235 237.573 393.621 237.573C394.004 237.573 394.271 237.44 394.422 237.175C394.574 236.91 394.65 236.614 394.65 236.289V235.675C394.65 235.349 394.576 235.054 394.428 234.789C394.284 234.523 394.015 234.391 393.621 234.391C393.243 234.391 392.974 234.523 392.815 234.789C392.655 235.054 392.576 235.349 392.576 235.675ZM385.4 229.63V229.016C385.4 228.577 385.491 228.173 385.672 227.806C385.858 227.438 386.127 227.145 386.479 226.925C386.835 226.705 387.265 226.595 387.769 226.595C388.284 226.595 388.716 226.705 389.065 226.925C389.413 227.145 389.676 227.438 389.854 227.806C390.032 228.173 390.121 228.577 390.121 229.016V229.63C390.121 230.069 390.03 230.472 389.849 230.84C389.671 231.203 389.405 231.497 389.053 231.72C388.705 231.94 388.277 232.05 387.769 232.05C387.254 232.05 386.82 231.94 386.468 231.72C386.119 231.497 385.854 231.203 385.672 230.84C385.491 230.472 385.4 230.069 385.4 229.63ZM386.729 229.016V229.63C386.729 229.955 386.805 230.251 386.957 230.516C387.112 230.781 387.383 230.914 387.769 230.914C388.148 230.914 388.413 230.781 388.565 230.516C388.72 230.251 388.797 229.955 388.797 229.63V229.016C388.797 228.69 388.724 228.395 388.576 228.13C388.428 227.864 388.159 227.732 387.769 227.732C387.39 227.732 387.121 227.864 386.962 228.13C386.807 228.395 386.729 228.69 386.729 229.016ZM385.94 238.47L393.94 226.834H395.297L387.297 238.47H385.94Z" fill="#1E1B39"/>
<path d="M333.606 204.18H330.015V192.544H333.765C334.894 192.544 335.86 192.777 336.663 193.243C337.466 193.705 338.081 194.37 338.509 195.237C338.937 196.101 339.151 197.135 339.151 198.339C339.151 199.551 338.935 200.595 338.503 201.47C338.072 202.341 337.443 203.012 336.617 203.481C335.791 203.947 334.788 204.18 333.606 204.18ZM331.424 202.93H333.515C334.477 202.93 335.274 202.745 335.907 202.373C336.539 202.002 337.011 201.474 337.322 200.788C337.632 200.103 337.788 199.286 337.788 198.339C337.788 197.4 337.634 196.591 337.327 195.913C337.02 195.231 336.562 194.709 335.952 194.345C335.342 193.978 334.583 193.794 333.674 193.794H331.424V202.93ZM344.878 204.362C344.091 204.362 343.399 204.174 342.805 203.799C342.214 203.424 341.752 202.9 341.418 202.226C341.089 201.551 340.924 200.764 340.924 199.862C340.924 198.953 341.089 198.159 341.418 197.481C341.752 196.803 342.214 196.277 342.805 195.902C343.399 195.527 344.091 195.339 344.878 195.339C345.666 195.339 346.356 195.527 346.947 195.902C347.541 196.277 348.003 196.803 348.333 197.481C348.666 198.159 348.833 198.953 348.833 199.862C348.833 200.764 348.666 201.551 348.333 202.226C348.003 202.9 347.541 203.424 346.947 203.799C346.356 204.174 345.666 204.362 344.878 204.362ZM344.878 203.157C345.477 203.157 345.969 203.004 346.356 202.697C346.742 202.39 347.028 201.987 347.214 201.487C347.399 200.987 347.492 200.445 347.492 199.862C347.492 199.279 347.399 198.735 347.214 198.231C347.028 197.728 346.742 197.32 346.356 197.01C345.969 196.699 345.477 196.544 344.878 196.544C344.28 196.544 343.788 196.699 343.401 197.01C343.015 197.32 342.729 197.728 342.543 198.231C342.358 198.735 342.265 199.279 342.265 199.862C342.265 200.445 342.358 200.987 342.543 201.487C342.729 201.987 343.015 202.39 343.401 202.697C343.788 203.004 344.28 203.157 344.878 203.157ZM344.265 194.271L345.651 191.635H347.219L345.447 194.271H344.265ZM352.221 192.544V204.18H350.88V192.544H352.221ZM357.245 204.385C356.692 204.385 356.19 204.281 355.739 204.072C355.288 203.86 354.931 203.555 354.665 203.157C354.4 202.756 354.268 202.271 354.268 201.703C354.268 201.203 354.366 200.798 354.563 200.487C354.76 200.173 355.023 199.926 355.353 199.748C355.682 199.57 356.046 199.438 356.444 199.351C356.845 199.26 357.249 199.188 357.654 199.135C358.184 199.067 358.614 199.015 358.944 198.981C359.277 198.943 359.52 198.881 359.671 198.794C359.826 198.707 359.904 198.555 359.904 198.339V198.294C359.904 197.733 359.751 197.298 359.444 196.987C359.141 196.676 358.681 196.521 358.063 196.521C357.423 196.521 356.921 196.661 356.557 196.942C356.194 197.222 355.938 197.521 355.79 197.839L354.518 197.385C354.745 196.854 355.048 196.442 355.427 196.146C355.809 195.847 356.226 195.639 356.677 195.521C357.131 195.4 357.578 195.339 358.018 195.339C358.298 195.339 358.62 195.373 358.984 195.442C359.351 195.506 359.705 195.64 360.046 195.845C360.391 196.049 360.677 196.358 360.904 196.771C361.131 197.184 361.245 197.737 361.245 198.43V204.18H359.904V202.998H359.836C359.745 203.188 359.593 203.39 359.381 203.606C359.169 203.822 358.887 204.006 358.535 204.157C358.182 204.309 357.752 204.385 357.245 204.385ZM357.449 203.18C357.98 203.18 358.427 203.076 358.79 202.868C359.158 202.659 359.434 202.39 359.62 202.061C359.809 201.731 359.904 201.385 359.904 201.021V199.794C359.847 199.862 359.722 199.924 359.529 199.981C359.34 200.034 359.12 200.082 358.87 200.123C358.624 200.161 358.383 200.195 358.148 200.226C357.917 200.252 357.73 200.275 357.586 200.294C357.237 200.339 356.912 200.413 356.609 200.515C356.309 200.614 356.067 200.764 355.881 200.964C355.699 201.161 355.609 201.43 355.609 201.771C355.609 202.237 355.781 202.589 356.126 202.828C356.474 203.063 356.915 203.18 357.449 203.18ZM363.692 204.18V195.453H364.988V196.771H365.079C365.238 196.339 365.526 195.989 365.942 195.72C366.359 195.451 366.829 195.317 367.351 195.317C367.45 195.317 367.573 195.318 367.721 195.322C367.868 195.326 367.98 195.332 368.056 195.339V196.703C368.011 196.692 367.906 196.674 367.743 196.652C367.584 196.625 367.416 196.612 367.238 196.612C366.814 196.612 366.435 196.701 366.101 196.879C365.772 197.053 365.511 197.296 365.317 197.606C365.128 197.913 365.033 198.264 365.033 198.657V204.18H363.692Z" fill="#9291A5"/>
<circle cx="314.498" cy="199.18" r="7.10791" fill="#E8D167"/>
<path d="M380.776 204.63C379.996 204.63 379.299 204.495 378.685 204.226C378.075 203.957 377.592 203.584 377.236 203.107C376.884 202.626 376.695 202.069 376.668 201.437H378.452C378.475 201.781 378.591 202.081 378.799 202.334C379.011 202.584 379.288 202.778 379.628 202.914C379.969 203.05 380.348 203.118 380.765 203.118C381.223 203.118 381.628 203.039 381.981 202.88C382.337 202.721 382.615 202.499 382.816 202.215C383.017 201.927 383.117 201.596 383.117 201.221C383.117 200.831 383.017 200.488 382.816 200.192C382.619 199.893 382.329 199.658 381.947 199.488C381.568 199.317 381.11 199.232 380.572 199.232H379.589V197.8H380.572C381.003 197.8 381.382 197.723 381.708 197.567C382.038 197.412 382.295 197.196 382.481 196.92C382.666 196.639 382.759 196.312 382.759 195.937C382.759 195.577 382.678 195.264 382.515 194.999C382.356 194.73 382.128 194.52 381.833 194.368C381.541 194.217 381.197 194.141 380.799 194.141C380.42 194.141 380.066 194.211 379.736 194.351C379.411 194.488 379.145 194.685 378.941 194.942C378.736 195.196 378.627 195.501 378.611 195.857H376.913C376.931 195.228 377.117 194.675 377.469 194.198C377.825 193.721 378.295 193.348 378.878 193.079C379.462 192.81 380.11 192.675 380.822 192.675C381.568 192.675 382.212 192.821 382.753 193.113C383.299 193.401 383.719 193.785 384.015 194.266C384.314 194.747 384.462 195.274 384.458 195.846C384.462 196.497 384.28 197.05 383.913 197.505C383.549 197.959 383.064 198.264 382.458 198.42V198.51C383.231 198.628 383.829 198.935 384.253 199.431C384.681 199.927 384.894 200.543 384.89 201.278C384.894 201.918 384.716 202.492 384.356 202.999C384 203.507 383.513 203.906 382.895 204.198C382.278 204.486 381.572 204.63 380.776 204.63ZM391.089 204.664C390.191 204.66 389.424 204.423 388.788 203.954C388.151 203.484 387.664 202.8 387.327 201.903C386.99 201.005 386.822 199.923 386.822 198.658C386.822 197.397 386.99 196.319 387.327 195.425C387.668 194.531 388.157 193.849 388.793 193.38C389.433 192.91 390.199 192.675 391.089 192.675C391.979 192.675 392.742 192.912 393.378 193.385C394.015 193.855 394.502 194.537 394.839 195.431C395.18 196.321 395.35 197.397 395.35 198.658C395.35 199.927 395.181 201.01 394.844 201.908C394.507 202.802 394.02 203.486 393.384 203.959C392.748 204.429 391.983 204.664 391.089 204.664ZM391.089 203.147C391.877 203.147 392.492 202.762 392.935 201.993C393.382 201.224 393.606 200.113 393.606 198.658C393.606 197.692 393.503 196.876 393.299 196.209C393.098 195.539 392.808 195.031 392.43 194.687C392.055 194.338 391.608 194.164 391.089 194.164C390.305 194.164 389.689 194.55 389.242 195.323C388.795 196.096 388.57 197.207 388.566 198.658C388.566 199.628 388.666 200.448 388.867 201.118C389.072 201.785 389.361 202.291 389.736 202.635C390.111 202.976 390.562 203.147 391.089 203.147ZM403.44 202.289V201.675C403.44 201.236 403.53 200.834 403.712 200.471C403.898 200.103 404.167 199.81 404.519 199.59C404.875 199.367 405.305 199.255 405.809 199.255C406.324 199.255 406.756 199.365 407.104 199.584C407.453 199.804 407.716 200.098 407.894 200.465C408.076 200.832 408.167 201.236 408.167 201.675V202.289C408.167 202.728 408.076 203.132 407.894 203.499C407.712 203.863 407.445 204.156 407.093 204.38C406.744 204.599 406.316 204.709 405.809 204.709C405.297 204.709 404.866 204.599 404.513 204.38C404.161 204.156 403.894 203.863 403.712 203.499C403.53 203.132 403.44 202.728 403.44 202.289ZM404.763 201.675V202.289C404.763 202.615 404.841 202.91 404.996 203.175C405.152 203.44 405.422 203.573 405.809 203.573C406.191 203.573 406.458 203.44 406.61 203.175C406.761 202.91 406.837 202.615 406.837 202.289V201.675C406.837 201.349 406.763 201.054 406.616 200.789C406.472 200.524 406.203 200.391 405.809 200.391C405.43 200.391 405.161 200.524 405.002 200.789C404.843 201.054 404.763 201.349 404.763 201.675ZM397.587 195.63V195.016C397.587 194.577 397.678 194.173 397.86 193.806C398.046 193.439 398.315 193.145 398.667 192.925C399.023 192.706 399.453 192.596 399.957 192.596C400.472 192.596 400.904 192.706 401.252 192.925C401.601 193.145 401.864 193.439 402.042 193.806C402.22 194.173 402.309 194.577 402.309 195.016V195.63C402.309 196.069 402.218 196.473 402.036 196.84C401.858 197.204 401.593 197.497 401.241 197.721C400.892 197.94 400.464 198.05 399.957 198.05C399.441 198.05 399.008 197.94 398.655 197.721C398.307 197.497 398.042 197.204 397.86 196.84C397.678 196.473 397.587 196.069 397.587 195.63ZM398.917 195.016V195.63C398.917 195.956 398.993 196.251 399.144 196.516C399.299 196.781 399.57 196.914 399.957 196.914C400.335 196.914 400.601 196.781 400.752 196.516C400.907 196.251 400.985 195.956 400.985 195.63V195.016C400.985 194.69 400.911 194.395 400.763 194.13C400.616 193.865 400.347 193.732 399.957 193.732C399.578 193.732 399.309 193.865 399.15 194.13C398.994 194.395 398.917 194.69 398.917 195.016ZM398.127 204.471L406.127 192.834H407.485L399.485 204.471H398.127Z" fill="#1E1B39"/>
<path d="M329.482 160.085V158.835H338.209V160.085H334.55V170.471H333.141V160.085H329.482ZM340.384 170.471V158.835H341.793V169.221H347.202V170.471H340.384ZM347.201 160.085V158.835H355.928V160.085H352.269V170.471H350.86V160.085H347.201Z" fill="#9291A5"/>
<circle cx="315.029" cy="165.18" r="7.10791" fill="#4A3AFF"/>
<path d="M368.242 170.63C367.53 170.63 366.889 170.493 366.321 170.22C365.757 169.944 365.306 169.565 364.969 169.084C364.632 168.603 364.452 168.054 364.429 167.436H366.134C366.175 167.936 366.397 168.347 366.799 168.669C367.2 168.991 367.681 169.152 368.242 169.152C368.689 169.152 369.085 169.05 369.429 168.845C369.778 168.637 370.05 168.351 370.247 167.988C370.448 167.624 370.549 167.209 370.549 166.743C370.549 166.27 370.446 165.847 370.242 165.476C370.037 165.105 369.755 164.813 369.395 164.601C369.039 164.389 368.63 164.281 368.168 164.277C367.816 164.277 367.461 164.338 367.105 164.459C366.749 164.58 366.461 164.739 366.242 164.936L364.634 164.698L365.287 158.834H371.685V160.34H366.747L366.378 163.595H366.446C366.674 163.376 366.975 163.192 367.35 163.044C367.728 162.897 368.134 162.823 368.566 162.823C369.274 162.823 369.905 162.991 370.458 163.328C371.014 163.666 371.452 164.126 371.77 164.709C372.092 165.289 372.251 165.955 372.247 166.709C372.251 167.463 372.081 168.135 371.736 168.726C371.395 169.317 370.922 169.783 370.316 170.124C369.713 170.461 369.022 170.63 368.242 170.63ZM378.374 170.664C377.476 170.66 376.709 170.423 376.073 169.953C375.436 169.484 374.95 168.8 374.612 167.902C374.275 167.005 374.107 165.923 374.107 164.658C374.107 163.397 374.275 162.319 374.612 161.425C374.953 160.531 375.442 159.849 376.078 159.38C376.719 158.91 377.484 158.675 378.374 158.675C379.264 158.675 380.027 158.912 380.664 159.385C381.3 159.855 381.787 160.537 382.124 161.431C382.465 162.321 382.635 163.397 382.635 164.658C382.635 165.927 382.467 167.01 382.13 167.908C381.792 168.802 381.306 169.486 380.669 169.959C380.033 170.429 379.268 170.664 378.374 170.664ZM378.374 169.147C379.162 169.147 379.777 168.762 380.22 167.993C380.667 167.224 380.891 166.113 380.891 164.658C380.891 163.692 380.789 162.876 380.584 162.209C380.383 161.539 380.094 161.031 379.715 160.686C379.34 160.338 378.893 160.164 378.374 160.164C377.59 160.164 376.974 160.55 376.527 161.323C376.08 162.095 375.855 163.207 375.851 164.658C375.851 165.628 375.951 166.448 376.152 167.118C376.357 167.785 376.647 168.291 377.022 168.635C377.397 168.976 377.847 169.147 378.374 169.147ZM390.725 168.289V167.675C390.725 167.236 390.816 166.834 390.997 166.47C391.183 166.103 391.452 165.809 391.804 165.59C392.16 165.366 392.59 165.255 393.094 165.255C393.609 165.255 394.041 165.364 394.389 165.584C394.738 165.804 395.001 166.097 395.179 166.465C395.361 166.832 395.452 167.236 395.452 167.675V168.289C395.452 168.728 395.361 169.131 395.179 169.499C394.997 169.863 394.73 170.156 394.378 170.38C394.03 170.599 393.602 170.709 393.094 170.709C392.583 170.709 392.151 170.599 391.799 170.38C391.446 170.156 391.179 169.863 390.997 169.499C390.816 169.131 390.725 168.728 390.725 168.289ZM392.049 167.675V168.289C392.049 168.614 392.126 168.91 392.281 169.175C392.437 169.44 392.708 169.573 393.094 169.573C393.477 169.573 393.744 169.44 393.895 169.175C394.047 168.91 394.122 168.614 394.122 168.289V167.675C394.122 167.349 394.049 167.054 393.901 166.789C393.757 166.523 393.488 166.391 393.094 166.391C392.715 166.391 392.446 166.523 392.287 166.789C392.128 167.054 392.049 167.349 392.049 167.675ZM384.872 161.63V161.016C384.872 160.577 384.963 160.173 385.145 159.806C385.331 159.438 385.6 159.145 385.952 158.925C386.308 158.705 386.738 158.595 387.242 158.595C387.757 158.595 388.189 158.705 388.537 158.925C388.886 159.145 389.149 159.438 389.327 159.806C389.505 160.173 389.594 160.577 389.594 161.016V161.63C389.594 162.069 389.503 162.472 389.321 162.84C389.143 163.203 388.878 163.497 388.526 163.72C388.177 163.94 387.749 164.05 387.242 164.05C386.727 164.05 386.293 163.94 385.941 163.72C385.592 163.497 385.327 163.203 385.145 162.84C384.963 162.472 384.872 162.069 384.872 161.63ZM386.202 161.016V161.63C386.202 161.955 386.278 162.251 386.429 162.516C386.585 162.781 386.855 162.914 387.242 162.914C387.621 162.914 387.886 162.781 388.037 162.516C388.192 162.251 388.27 161.955 388.27 161.63V161.016C388.27 160.69 388.196 160.395 388.049 160.13C387.901 159.864 387.632 159.732 387.242 159.732C386.863 159.732 386.594 159.864 386.435 160.13C386.28 160.395 386.202 160.69 386.202 161.016ZM385.412 170.47L393.412 158.834H394.77L386.77 170.47H385.412Z" fill="#1E1B39"/>
<line y1="75.5" x2="446" y2="75.5" stroke="#E5E5EF"/>
<path d="M384.837 46V43.3409L391.05 37.5881C391.578 37.0767 392.021 36.6165 392.379 36.2074C392.743 35.7983 393.018 35.3977 393.206 35.0057C393.393 34.608 393.487 34.179 393.487 33.7188C393.487 33.2074 393.371 32.767 393.138 32.3977C392.905 32.0227 392.587 31.7358 392.183 31.5369C391.78 31.3324 391.322 31.2301 390.811 31.2301C390.277 31.2301 389.811 31.3381 389.413 31.554C389.016 31.7699 388.709 32.0795 388.493 32.483C388.277 32.8864 388.169 33.3665 388.169 33.9233H384.666C384.666 32.7812 384.925 31.7898 385.442 30.9489C385.959 30.108 386.683 29.4574 387.615 28.9972C388.547 28.5369 389.621 28.3068 390.837 28.3068C392.087 28.3068 393.175 28.5284 394.101 28.9716C395.033 29.4091 395.757 30.017 396.274 30.7955C396.791 31.5739 397.05 32.4659 397.05 33.4716C397.05 34.1307 396.919 34.7812 396.658 35.4233C396.402 36.0653 395.945 36.7784 395.286 37.5625C394.626 38.3409 393.697 39.2756 392.499 40.3665L389.95 42.8636V42.983H397.28V46H384.837ZM406.798 46.3835C405.332 46.3778 404.07 46.017 403.013 45.3011C401.962 44.5852 401.153 43.5483 400.585 42.1903C400.022 40.8324 399.744 39.1989 399.749 37.2898C399.749 35.3864 400.031 33.7642 400.593 32.4233C401.161 31.0824 401.971 30.0625 403.022 29.3636C404.079 28.6591 405.337 28.3068 406.798 28.3068C408.258 28.3068 409.513 28.6591 410.565 29.3636C411.621 30.0682 412.434 31.0909 413.002 32.4318C413.57 33.767 413.852 35.3864 413.846 37.2898C413.846 39.2045 413.562 40.8409 412.994 42.1989C412.431 43.5568 411.624 44.5937 410.573 45.3097C409.522 46.0256 408.263 46.3835 406.798 46.3835ZM406.798 43.3239C407.798 43.3239 408.596 42.821 409.192 41.8153C409.789 40.8097 410.085 39.3011 410.079 37.2898C410.079 35.9659 409.942 34.8636 409.67 33.983C409.403 33.1023 409.022 32.4403 408.528 31.9972C408.039 31.554 407.462 31.3324 406.798 31.3324C405.803 31.3324 405.008 31.8295 404.411 32.8239C403.815 33.8182 403.513 35.3068 403.508 37.2898C403.508 38.6307 403.641 39.75 403.908 40.6477C404.181 41.5398 404.565 42.2102 405.059 42.6591C405.553 43.1023 406.133 43.3239 406.798 43.3239ZM416.477 46V43.3409L422.69 37.5881C423.219 37.0767 423.662 36.6165 424.02 36.2074C424.384 35.7983 424.659 35.3977 424.847 35.0057C425.034 34.608 425.128 34.179 425.128 33.7188C425.128 33.2074 425.011 32.767 424.778 32.3977C424.545 32.0227 424.227 31.7358 423.824 31.5369C423.42 31.3324 422.963 31.2301 422.452 31.2301C421.918 31.2301 421.452 31.3381 421.054 31.554C420.656 31.7699 420.349 32.0795 420.134 32.483C419.918 32.8864 419.81 33.3665 419.81 33.9233H416.307C416.307 32.7812 416.565 31.7898 417.082 30.9489C417.599 30.108 418.324 29.4574 419.256 28.9972C420.188 28.5369 421.261 28.3068 422.477 28.3068C423.727 28.3068 424.815 28.5284 425.741 28.9716C426.673 29.4091 427.398 30.017 427.915 30.7955C428.432 31.5739 428.69 32.4659 428.69 33.4716C428.69 34.1307 428.56 34.7812 428.298 35.4233C428.043 36.0653 427.585 36.7784 426.926 37.5625C426.267 38.3409 425.338 39.2756 424.139 40.3665L421.591 42.8636V42.983H428.92V46H416.477ZM438.046 46.2386C436.773 46.2386 435.64 46.0199 434.646 45.5824C433.657 45.1392 432.876 44.5312 432.302 43.7585C431.734 42.9801 431.441 42.0824 431.424 41.0653H435.14C435.163 41.4915 435.302 41.8665 435.558 42.1903C435.819 42.5085 436.165 42.7557 436.597 42.9318C437.029 43.108 437.515 43.196 438.055 43.196C438.617 43.196 439.114 43.0966 439.546 42.8977C439.978 42.6989 440.316 42.4233 440.56 42.071C440.805 41.7187 440.927 41.3125 440.927 40.8523C440.927 40.3864 440.796 39.9744 440.535 39.6165C440.279 39.2528 439.91 38.9687 439.427 38.7642C438.95 38.5597 438.381 38.4574 437.722 38.4574H436.094V35.7472H437.722C438.279 35.7472 438.771 35.6506 439.197 35.4574C439.629 35.2642 439.964 34.9972 440.202 34.6562C440.441 34.3097 440.56 33.9062 440.56 33.446C440.56 33.0085 440.455 32.625 440.245 32.2955C440.04 31.9602 439.751 31.6989 439.376 31.5114C439.006 31.3239 438.575 31.2301 438.08 31.2301C437.58 31.2301 437.123 31.321 436.708 31.5028C436.293 31.679 435.961 31.9318 435.711 32.2614C435.461 32.5909 435.327 32.9773 435.31 33.4205H431.773C431.79 32.4148 432.077 31.5284 432.634 30.7614C433.191 29.9943 433.941 29.3949 434.884 28.9631C435.833 28.5256 436.904 28.3068 438.097 28.3068C439.302 28.3068 440.356 28.5256 441.259 28.9631C442.163 29.4006 442.864 29.9915 443.364 30.7358C443.87 31.4744 444.12 32.304 444.114 33.2244C444.12 34.2017 443.816 35.017 443.202 35.6705C442.594 36.3239 441.802 36.7386 440.825 36.9148V37.0511C442.109 37.2159 443.086 37.6619 443.756 38.3892C444.433 39.1108 444.768 40.0142 444.762 41.0994C444.768 42.0938 444.481 42.9773 443.901 43.75C443.327 44.5227 442.535 45.1307 441.523 45.5739C440.512 46.017 439.353 46.2386 438.046 46.2386Z" fill="#1E1B39"/>
<path d="M369.917 3.90909V17H368.383L361.249 6.72159H361.122V17H359.536V3.90909H361.07L368.23 14.2131H368.357V3.90909H369.917ZM376.873 17.2045C375.987 17.2045 375.209 16.9936 374.54 16.5717C373.875 16.1499 373.355 15.5597 372.98 14.8011C372.61 14.0426 372.424 13.1562 372.424 12.142C372.424 11.1193 372.61 10.2266 372.98 9.46378C373.355 8.70099 373.875 8.10866 374.54 7.68679C375.209 7.26491 375.987 7.05398 376.873 7.05398C377.76 7.05398 378.535 7.26491 379.2 7.68679C379.869 8.10866 380.389 8.70099 380.76 9.46378C381.135 10.2266 381.322 11.1193 381.322 12.142C381.322 13.1562 381.135 14.0426 380.76 14.8011C380.389 15.5597 379.869 16.1499 379.2 16.5717C378.535 16.9936 377.76 17.2045 376.873 17.2045ZM376.873 15.8494C377.547 15.8494 378.1 15.6768 378.535 15.3317C378.97 14.9865 379.292 14.5327 379.5 13.9702C379.709 13.4077 379.814 12.7983 379.814 12.142C379.814 11.4858 379.709 10.8743 379.5 10.3075C379.292 9.74077 378.97 9.28267 378.535 8.93324C378.1 8.58381 377.547 8.40909 376.873 8.40909C376.2 8.40909 375.646 8.58381 375.211 8.93324C374.777 9.28267 374.455 9.74077 374.246 10.3075C374.037 10.8743 373.933 11.4858 373.933 12.142C373.933 12.7983 374.037 13.4077 374.246 13.9702C374.455 14.5327 374.777 14.9865 375.211 15.3317C375.646 15.6768 376.2 15.8494 376.873 15.8494ZM391.302 7.18182L387.671 17H386.137L382.506 7.18182H384.143L386.853 15.0057H386.955L389.665 7.18182H391.302ZM397.058 17.2045C396.112 17.2045 395.296 16.9957 394.61 16.5781C393.928 16.1562 393.401 15.5682 393.031 14.8139C392.664 14.0554 392.481 13.1733 392.481 12.1676C392.481 11.1619 392.664 10.2756 393.031 9.50852C393.401 8.73722 393.917 8.13636 394.578 7.70597C395.242 7.27131 396.018 7.05398 396.904 7.05398C397.416 7.05398 397.921 7.1392 398.419 7.30966C398.918 7.48011 399.372 7.7571 399.781 8.14062C400.19 8.51989 400.516 9.02273 400.759 9.64915C401.002 10.2756 401.123 11.0469 401.123 11.9631V12.6023H393.555V11.2983H399.589C399.589 10.7443 399.478 10.25 399.257 9.81534C399.039 9.38068 398.728 9.03764 398.323 8.78622C397.923 8.5348 397.45 8.40909 396.904 8.40909C396.303 8.40909 395.784 8.55824 395.345 8.85653C394.91 9.15057 394.575 9.53409 394.341 10.0071C394.107 10.4801 393.99 10.9872 393.99 11.5284V12.3977C393.99 13.1392 394.117 13.7678 394.373 14.2834C394.633 14.7947 394.993 15.1847 395.453 15.4531C395.914 15.7173 396.448 15.8494 397.058 15.8494C397.454 15.8494 397.812 15.794 398.132 15.6832C398.455 15.5682 398.735 15.3977 398.969 15.1719C399.203 14.9418 399.384 14.6562 399.512 14.3153L400.97 14.7244C400.816 15.2188 400.558 15.6534 400.196 16.0284C399.834 16.3991 399.387 16.6889 398.854 16.8977C398.321 17.1023 397.722 17.2045 397.058 17.2045ZM403.418 17V7.18182H404.875V8.71591H405.003C405.208 8.19176 405.538 7.7848 405.994 7.49503C406.45 7.20099 406.997 7.05398 407.637 7.05398C408.284 7.05398 408.823 7.20099 409.254 7.49503C409.688 7.7848 410.027 8.19176 410.27 8.71591H410.372C410.624 8.20881 411.001 7.80611 411.504 7.50781C412.007 7.20526 412.61 7.05398 413.313 7.05398C414.191 7.05398 414.909 7.32884 415.467 7.87855C416.025 8.42401 416.304 9.27415 416.304 10.429V17H414.796V10.429C414.796 9.70455 414.597 9.18679 414.201 8.87571C413.805 8.56463 413.338 8.40909 412.801 8.40909C412.111 8.40909 411.576 8.6179 411.197 9.03551C410.818 9.44886 410.628 9.97301 410.628 10.608V17H409.094V10.2756C409.094 9.71733 408.913 9.26776 408.551 8.92685C408.188 8.58168 407.722 8.40909 407.151 8.40909C406.759 8.40909 406.392 8.51349 406.051 8.7223C405.715 8.93111 405.442 9.22088 405.233 9.59162C405.029 9.9581 404.926 10.3821 404.926 10.8636V17H403.418ZM419.267 17V3.90909H420.775V8.74148H420.903C421.014 8.57102 421.167 8.35369 421.363 8.08949C421.564 7.82102 421.849 7.58239 422.22 7.37358C422.595 7.16051 423.102 7.05398 423.741 7.05398C424.568 7.05398 425.297 7.26065 425.927 7.67401C426.558 8.08736 427.05 8.6733 427.404 9.43182C427.758 10.1903 427.934 11.0852 427.934 12.1165C427.934 13.1562 427.758 14.0575 427.404 14.8203C427.05 15.5788 426.56 16.1669 425.934 16.5845C425.307 16.9979 424.585 17.2045 423.767 17.2045C423.136 17.2045 422.631 17.1001 422.252 16.8913C421.873 16.6783 421.581 16.4375 421.376 16.169C421.172 15.8963 421.014 15.6705 420.903 15.4915H420.724V17H419.267ZM420.75 12.0909C420.75 12.8324 420.858 13.4865 421.076 14.0533C421.293 14.6158 421.611 15.0568 422.028 15.3764C422.446 15.6918 422.957 15.8494 423.562 15.8494C424.193 15.8494 424.719 15.6832 425.141 15.3509C425.567 15.0142 425.887 14.5625 426.1 13.9957C426.317 13.4247 426.426 12.7898 426.426 12.0909C426.426 11.4006 426.319 10.7784 426.106 10.2244C425.898 9.66619 425.58 9.22514 425.154 8.90128C424.732 8.57315 424.202 8.40909 423.562 8.40909C422.949 8.40909 422.433 8.56463 422.015 8.87571C421.598 9.18253 421.282 9.61293 421.069 10.1669C420.856 10.7166 420.75 11.358 420.75 12.0909ZM430.242 17V7.18182H431.699V8.66477H431.802C431.981 8.17898 432.305 7.7848 432.773 7.48224C433.242 7.17969 433.77 7.02841 434.358 7.02841C434.469 7.02841 434.608 7.03054 434.774 7.0348C434.94 7.03906 435.066 7.04545 435.151 7.05398V8.58807C435.1 8.57528 434.983 8.55611 434.8 8.53054C434.621 8.50071 434.431 8.4858 434.231 8.4858C433.753 8.4858 433.327 8.58594 432.952 8.78622C432.581 8.98224 432.287 9.25497 432.07 9.6044C431.857 9.94957 431.751 10.3437 431.751 10.7869V17H430.242ZM440.629 17.2045C439.743 17.2045 438.965 16.9936 438.296 16.5717C437.631 16.1499 437.111 15.5597 436.736 14.8011C436.366 14.0426 436.18 13.1562 436.18 12.142C436.18 11.1193 436.366 10.2266 436.736 9.46378C437.111 8.70099 437.631 8.10866 438.296 7.68679C438.965 7.26491 439.743 7.05398 440.629 7.05398C441.515 7.05398 442.291 7.26491 442.956 7.68679C443.625 8.10866 444.145 8.70099 444.515 9.46378C444.89 10.2266 445.078 11.1193 445.078 12.142C445.078 13.1562 444.89 14.0426 444.515 14.8011C444.145 15.5597 443.625 16.1499 442.956 16.5717C442.291 16.9936 441.515 17.2045 440.629 17.2045ZM440.629 15.8494C441.302 15.8494 441.856 15.6768 442.291 15.3317C442.726 14.9865 443.047 14.5327 443.256 13.9702C443.465 13.4077 443.569 12.7983 443.569 12.142C443.569 11.4858 443.465 10.8743 443.256 10.3075C443.047 9.74077 442.726 9.28267 442.291 8.93324C441.856 8.58381 441.302 8.40909 440.629 8.40909C439.956 8.40909 439.402 8.58381 438.967 8.93324C438.532 9.28267 438.211 9.74077 438.002 10.3075C437.793 10.8743 437.689 11.4858 437.689 12.142C437.689 12.7983 437.793 13.4077 438.002 13.9702C438.211 14.5327 438.532 14.9865 438.967 15.3317C439.402 15.6768 439.956 15.8494 440.629 15.8494Z" fill="#9291A5"/>
<path d="M12 35.1719C11.8906 34.7917 11.737 34.4557 11.5391 34.1641C11.3411 33.8672 11.099 33.6172 10.8125 33.4141C10.5313 33.2057 10.2083 33.0469 9.84375 32.9375C9.48438 32.8281 9.08594 32.7734 8.64844 32.7734C7.83073 32.7734 7.11198 32.9766 6.49219 33.3828C5.8776 33.7891 5.39844 34.3802 5.05469 35.1562C4.71094 35.9271 4.53906 36.8698 4.53906 37.9844C4.53906 39.099 4.70833 40.0469 5.04688 40.8281C5.38542 41.6094 5.86458 42.2057 6.48437 42.6172C7.10417 43.0234 7.83594 43.2266 8.67969 43.2266C9.44531 43.2266 10.099 43.0911 10.6406 42.8203C11.1875 42.5443 11.6042 42.1562 11.8906 41.6562C12.1823 41.1562 12.3281 40.5651 12.3281 39.8828L13.0156 39.9844H8.89063V37.4375H15.5859V39.4531C15.5859 40.8594 15.2891 42.0677 14.6953 43.0781C14.1016 44.0833 13.2839 44.8594 12.2422 45.4062C11.2005 45.9479 10.0078 46.2187 8.66406 46.2187C7.16406 46.2187 5.84635 45.888 4.71094 45.2266C3.57552 44.5599 2.6901 43.6146 2.05469 42.3906C1.42448 41.1615 1.10938 39.7031 1.10938 38.0156C1.10938 36.7187 1.29688 35.5625 1.67188 34.5469C2.05208 33.526 2.58333 32.6615 3.26562 31.9531C3.94792 31.2448 4.74219 30.7057 5.64844 30.3359C6.55469 29.9661 7.53646 29.7812 8.59375 29.7812C9.5 29.7812 10.3438 29.9141 11.125 30.1797C11.9063 30.4401 12.599 30.8099 13.2031 31.2891C13.8125 31.7682 14.3099 32.3385 14.6953 33C15.0807 33.6562 15.3281 34.3802 15.4375 35.1719H12ZM23.5332 46.2344C22.2988 46.2344 21.2363 45.9844 20.3457 45.4844C19.4603 44.9792 18.778 44.2656 18.2988 43.3437C17.8197 42.4167 17.5801 41.3203 17.5801 40.0547C17.5801 38.8203 17.8197 37.737 18.2988 36.8047C18.778 35.8724 19.4525 35.1458 20.3223 34.625C21.1973 34.1042 22.2233 33.8438 23.4004 33.8438C24.1921 33.8438 24.929 33.9714 25.6113 34.2266C26.2988 34.4766 26.8978 34.8542 27.4082 35.3594C27.9238 35.8646 28.3249 36.5 28.6113 37.2656C28.8978 38.026 29.041 38.9167 29.041 39.9375V40.8516H18.9082V38.7891H25.9082C25.9082 38.3099 25.804 37.8854 25.5957 37.5156C25.3874 37.1458 25.0983 36.8568 24.7285 36.6484C24.3639 36.4349 23.9395 36.3281 23.4551 36.3281C22.9499 36.3281 22.502 36.4453 22.1113 36.6797C21.7259 36.9089 21.4238 37.2187 21.2051 37.6094C20.9863 37.9948 20.8743 38.4245 20.8691 38.8984V40.8594C20.8691 41.4531 20.9785 41.9661 21.1973 42.3984C21.4212 42.8307 21.7363 43.1641 22.1426 43.3984C22.5488 43.6328 23.0306 43.75 23.5879 43.75C23.9577 43.75 24.2962 43.6979 24.6035 43.5938C24.9108 43.4896 25.1738 43.3333 25.3926 43.125C25.6113 42.9167 25.778 42.6615 25.8926 42.3594L28.9707 42.5625C28.8145 43.3021 28.4941 43.9479 28.0098 44.5C27.5306 45.0469 26.9108 45.474 26.1504 45.7813C25.3952 46.0833 24.5228 46.2344 23.5332 46.2344ZM31.2129 46V34H34.4395V36.0937H34.5645C34.7832 35.349 35.1504 34.7865 35.666 34.4063C36.1816 34.0208 36.7754 33.8281 37.4473 33.8281C37.6139 33.8281 37.7936 33.8385 37.9863 33.8594C38.179 33.8802 38.3483 33.9089 38.4941 33.9453V36.8984C38.3379 36.8516 38.1217 36.8099 37.8457 36.7734C37.5697 36.737 37.3171 36.7188 37.0879 36.7188C36.5983 36.7188 36.1608 36.8255 35.7754 37.0391C35.3952 37.2474 35.0931 37.5391 34.8691 37.9141C34.6504 38.2891 34.541 38.7214 34.541 39.2109V46H31.2129ZM45.125 46.2344C43.8906 46.2344 42.8281 45.9844 41.9375 45.4844C41.0521 44.9792 40.3698 44.2656 39.8906 43.3437C39.4115 42.4167 39.1719 41.3203 39.1719 40.0547C39.1719 38.8203 39.4115 37.737 39.8906 36.8047C40.3698 35.8724 41.0443 35.1458 41.9141 34.625C42.7891 34.1042 43.8151 33.8438 44.9922 33.8438C45.7839 33.8438 46.5208 33.9714 47.2031 34.2266C47.8906 34.4766 48.4896 34.8542 49 35.3594C49.5156 35.8646 49.9167 36.5 50.2031 37.2656C50.4896 38.026 50.6328 38.9167 50.6328 39.9375V40.8516H40.5V38.7891H47.5C47.5 38.3099 47.3958 37.8854 47.1875 37.5156C46.9792 37.1458 46.6901 36.8568 46.3203 36.6484C45.9557 36.4349 45.5313 36.3281 45.0469 36.3281C44.5417 36.3281 44.0938 36.4453 43.7031 36.6797C43.3177 36.9089 43.0156 37.2187 42.7969 37.6094C42.5781 37.9948 42.4661 38.4245 42.4609 38.8984V40.8594C42.4609 41.4531 42.5703 41.9661 42.7891 42.3984C43.013 42.8307 43.3281 43.1641 43.7344 43.3984C44.1406 43.6328 44.6224 43.75 45.1797 43.75C45.5495 43.75 45.888 43.6979 46.1953 43.5938C46.5026 43.4896 46.7656 43.3333 46.9844 43.125C47.2031 42.9167 47.3698 42.6615 47.4844 42.3594L50.5625 42.5625C50.4063 43.3021 50.0859 43.9479 49.6016 44.5C49.1224 45.0469 48.5026 45.474 47.7422 45.7813C46.987 46.0833 46.1146 46.2344 45.125 46.2344ZM56.1328 39.0625V46H52.8047V34H55.9766V36.1172H56.1172C56.3828 35.4193 56.8281 34.8672 57.4531 34.4609C58.0781 34.0495 58.8359 33.8438 59.7266 33.8438C60.5599 33.8438 61.2865 34.026 61.9063 34.3906C62.526 34.7552 63.0078 35.276 63.3516 35.9531C63.6953 36.625 63.8672 37.4271 63.8672 38.3594V46H60.5391V38.9531C60.5443 38.2187 60.3568 37.6458 59.9766 37.2344C59.5964 36.8177 59.0729 36.6094 58.4063 36.6094C57.9583 36.6094 57.5625 36.7057 57.2188 36.8984C56.8802 37.0911 56.6146 37.3724 56.4219 37.7422C56.2344 38.1068 56.138 38.5469 56.1328 39.0625ZM71.9121 46.2344C70.6829 46.2344 69.6257 45.974 68.7402 45.4531C67.86 44.9271 67.1829 44.1979 66.709 43.2656C66.2402 42.3333 66.0059 41.2604 66.0059 40.0469C66.0059 38.8177 66.2428 37.7396 66.7168 36.8125C67.196 35.8802 67.8757 35.1536 68.7559 34.6328C69.6361 34.1068 70.6829 33.8438 71.8965 33.8438C72.9434 33.8438 73.86 34.0339 74.6465 34.4141C75.4329 34.7943 76.0553 35.3281 76.5137 36.0156C76.972 36.7031 77.2246 37.5104 77.2715 38.4375H74.1309C74.0423 37.8385 73.8079 37.3568 73.4277 36.9922C73.0527 36.6224 72.5605 36.4375 71.9512 36.4375C71.4355 36.4375 70.985 36.5781 70.5996 36.8594C70.2194 37.1354 69.9225 37.5391 69.709 38.0703C69.4954 38.6016 69.3887 39.2448 69.3887 40C69.3887 40.7656 69.4928 41.4167 69.7012 41.9531C69.9147 42.4896 70.2142 42.8984 70.5996 43.1797C70.985 43.4609 71.4355 43.6016 71.9512 43.6016C72.3314 43.6016 72.6725 43.5234 72.9746 43.3672C73.2819 43.2109 73.5345 42.9844 73.7324 42.6875C73.9355 42.3854 74.0684 42.0234 74.1309 41.6016H77.2715C77.2194 42.5182 76.9694 43.3255 76.5215 44.0234C76.0788 44.7161 75.4668 45.2578 74.6855 45.6484C73.9043 46.0391 72.9798 46.2344 71.9121 46.2344ZM79.4023 46V34H82.7305V46H79.4023ZM81.0742 32.4531C80.5794 32.4531 80.1549 32.2891 79.8008 31.9609C79.4518 31.6276 79.2773 31.2292 79.2773 30.7656C79.2773 30.3073 79.4518 29.9141 79.8008 29.5859C80.1549 29.2526 80.5794 29.0859 81.0742 29.0859C81.569 29.0859 81.9909 29.2526 82.3398 29.5859C82.694 29.9141 82.8711 30.3073 82.8711 30.7656C82.8711 31.2292 82.694 31.6276 82.3398 31.9609C81.9909 32.2891 81.569 32.4531 81.0742 32.4531ZM88.8184 46.2266C88.0527 46.2266 87.3704 46.0938 86.7715 45.8281C86.1725 45.5573 85.6986 45.1589 85.3496 44.6328C85.0059 44.1016 84.834 43.4401 84.834 42.6484C84.834 41.9818 84.9564 41.4219 85.2012 40.9687C85.446 40.5156 85.7793 40.151 86.2012 39.875C86.623 39.599 87.1022 39.3906 87.6387 39.25C88.1803 39.1094 88.748 39.0104 89.3418 38.9531C90.0397 38.8802 90.6022 38.8125 91.0293 38.75C91.4564 38.6823 91.7663 38.5833 91.959 38.4531C92.1517 38.3229 92.248 38.1302 92.248 37.875V37.8281C92.248 37.3333 92.0918 36.9505 91.7793 36.6797C91.472 36.4089 91.0345 36.2734 90.4668 36.2734C89.8678 36.2734 89.3913 36.4062 89.0371 36.6719C88.6829 36.9323 88.4486 37.2604 88.334 37.6562L85.2559 37.4062C85.4121 36.6771 85.7194 36.0469 86.1777 35.5156C86.6361 34.9792 87.2272 34.5677 87.9512 34.2812C88.6803 33.9896 89.5241 33.8438 90.4824 33.8438C91.1491 33.8438 91.7871 33.9219 92.3965 34.0781C93.0111 34.2344 93.5553 34.4766 94.0293 34.8047C94.5085 35.1328 94.8861 35.5547 95.1621 36.0703C95.4382 36.5807 95.5762 37.1927 95.5762 37.9062V46H92.4199V44.3359H92.3262C92.1335 44.7109 91.8757 45.0417 91.5527 45.3281C91.2298 45.6094 90.8418 45.8307 90.3887 45.9922C89.9355 46.1484 89.4121 46.2266 88.8184 46.2266ZM89.7715 43.9297C90.2611 43.9297 90.6934 43.8333 91.0684 43.6406C91.4434 43.4427 91.7376 43.1771 91.9512 42.8438C92.1647 42.5104 92.2715 42.1328 92.2715 41.7109V40.4375C92.1673 40.5052 92.0241 40.5677 91.8418 40.625C91.6647 40.6771 91.4642 40.7266 91.2402 40.7734C91.0163 40.8151 90.7923 40.8542 90.5684 40.8906C90.3444 40.9219 90.1413 40.9505 89.959 40.9766C89.5684 41.0339 89.2272 41.125 88.9355 41.25C88.6439 41.375 88.4173 41.5443 88.2559 41.7578C88.0944 41.9661 88.0137 42.2266 88.0137 42.5391C88.0137 42.9922 88.1777 43.3385 88.5059 43.5781C88.8392 43.8125 89.2611 43.9297 89.7715 43.9297ZM98.1582 46V34H101.33V36.1172H101.471C101.721 35.4141 102.137 34.8594 102.721 34.4531C103.304 34.0469 104.002 33.8438 104.814 33.8438C105.637 33.8438 106.338 34.0495 106.916 34.4609C107.494 34.8672 107.88 35.4193 108.072 36.1172H108.197C108.442 35.4297 108.885 34.8802 109.525 34.4687C110.171 34.0521 110.934 33.8438 111.814 33.8438C112.934 33.8438 113.843 34.2005 114.541 34.9141C115.244 35.6224 115.596 36.6276 115.596 37.9297V46H112.275V38.5859C112.275 37.9193 112.098 37.4193 111.744 37.0859C111.39 36.7526 110.947 36.5859 110.416 36.5859C109.812 36.5859 109.34 36.7786 109.002 37.1641C108.663 37.5443 108.494 38.0469 108.494 38.6719V46H105.268V38.5156C105.268 37.9271 105.098 37.4583 104.76 37.1094C104.426 36.7604 103.986 36.5859 103.439 36.5859C103.07 36.5859 102.736 36.6797 102.439 36.8672C102.148 37.0495 101.916 37.3073 101.744 37.6406C101.572 37.9687 101.486 38.3542 101.486 38.7969V46H98.1582ZM123.693 46.2344C122.459 46.2344 121.396 45.9844 120.506 45.4844C119.62 44.9792 118.938 44.2656 118.459 43.3437C117.98 42.4167 117.74 41.3203 117.74 40.0547C117.74 38.8203 117.98 37.737 118.459 36.8047C118.938 35.8724 119.613 35.1458 120.482 34.625C121.357 34.1042 122.383 33.8438 123.561 33.8438C124.352 33.8438 125.089 33.9714 125.771 34.2266C126.459 34.4766 127.058 34.8542 127.568 35.3594C128.084 35.8646 128.485 36.5 128.771 37.2656C129.058 38.026 129.201 38.9167 129.201 39.9375V40.8516H119.068V38.7891H126.068C126.068 38.3099 125.964 37.8854 125.756 37.5156C125.548 37.1458 125.258 36.8568 124.889 36.6484C124.524 36.4349 124.1 36.3281 123.615 36.3281C123.11 36.3281 122.662 36.4453 122.271 36.6797C121.886 36.9089 121.584 37.2187 121.365 37.6094C121.146 37.9948 121.035 38.4245 121.029 38.8984V40.8594C121.029 41.4531 121.139 41.9661 121.357 42.3984C121.581 42.8307 121.896 43.1641 122.303 43.3984C122.709 43.6328 123.191 43.75 123.748 43.75C124.118 43.75 124.456 43.6979 124.764 43.5938C125.071 43.4896 125.334 43.3333 125.553 43.125C125.771 42.9167 125.938 42.6615 126.053 42.3594L129.131 42.5625C128.975 43.3021 128.654 43.9479 128.17 44.5C127.691 45.0469 127.071 45.474 126.311 45.7813C125.555 46.0833 124.683 46.2344 123.693 46.2344ZM134.701 39.0625V46H131.373V34H134.545V36.1172H134.686C134.951 35.4193 135.396 34.8672 136.021 34.4609C136.646 34.0495 137.404 33.8438 138.295 33.8438C139.128 33.8438 139.855 34.026 140.475 34.3906C141.094 34.7552 141.576 35.276 141.92 35.9531C142.264 36.625 142.436 37.4271 142.436 38.3594V46H139.107V38.9531C139.113 38.2187 138.925 37.6458 138.545 37.2344C138.165 36.8177 137.641 36.6094 136.975 36.6094C136.527 36.6094 136.131 36.7057 135.787 36.8984C135.449 37.0911 135.183 37.3724 134.99 37.7422C134.803 38.1068 134.706 38.5469 134.701 39.0625ZM151.441 34V36.5H144.215V34H151.441ZM145.855 31.125H149.184V42.3125C149.184 42.6198 149.23 42.8594 149.324 43.0312C149.418 43.1979 149.548 43.3151 149.715 43.3828C149.887 43.4505 150.085 43.4844 150.309 43.4844C150.465 43.4844 150.621 43.4714 150.777 43.4453C150.934 43.4141 151.053 43.3906 151.137 43.375L151.66 45.8516C151.493 45.9036 151.259 45.9635 150.957 46.0313C150.655 46.1042 150.288 46.1484 149.855 46.1641C149.053 46.1953 148.35 46.0885 147.746 45.8437C147.147 45.599 146.681 45.2187 146.348 44.7031C146.014 44.1875 145.85 43.5365 145.855 42.75V31.125ZM158.902 46.2344C157.689 46.2344 156.639 45.9766 155.754 45.4609C154.874 44.9401 154.194 44.2161 153.715 43.2891C153.236 42.3568 152.996 41.276 152.996 40.0469C152.996 38.8073 153.236 37.724 153.715 36.7969C154.194 35.8646 154.874 35.1406 155.754 34.625C156.639 34.1042 157.689 33.8438 158.902 33.8438C160.116 33.8438 161.163 34.1042 162.043 34.625C162.928 35.1406 163.611 35.8646 164.09 36.7969C164.569 37.724 164.809 38.8073 164.809 40.0469C164.809 41.276 164.569 42.3568 164.09 43.2891C163.611 44.2161 162.928 44.9401 162.043 45.4609C161.163 45.9766 160.116 46.2344 158.902 46.2344ZM158.918 43.6562C159.47 43.6562 159.931 43.5 160.301 43.1875C160.671 42.8698 160.949 42.4375 161.137 41.8906C161.329 41.3437 161.426 40.7214 161.426 40.0234C161.426 39.3255 161.329 38.7031 161.137 38.1562C160.949 37.6094 160.671 37.1771 160.301 36.8594C159.931 36.5417 159.47 36.3828 158.918 36.3828C158.361 36.3828 157.892 36.5417 157.512 36.8594C157.137 37.1771 156.853 37.6094 156.66 38.1562C156.473 38.7031 156.379 39.3255 156.379 40.0234C156.379 40.7214 156.473 41.3437 156.66 41.8906C156.853 42.4375 157.137 42.8698 157.512 43.1875C157.892 43.5 158.361 43.6562 158.918 43.6562ZM176.486 46.1953C175.575 46.1953 174.749 45.9609 174.01 45.4922C173.275 45.0182 172.692 44.3229 172.26 43.4062C171.833 42.4844 171.619 41.3542 171.619 40.0156C171.619 38.6406 171.84 37.4974 172.283 36.5859C172.726 35.6693 173.314 34.9844 174.049 34.5313C174.788 34.0729 175.598 33.8438 176.479 33.8438C177.15 33.8438 177.71 33.9583 178.158 34.1875C178.611 34.4115 178.976 34.6927 179.252 35.0312C179.533 35.3646 179.747 35.6927 179.893 36.0156H179.994V30H183.314V46H180.033V44.0781H179.893C179.736 44.4115 179.515 44.7422 179.229 45.0703C178.947 45.3932 178.58 45.6615 178.127 45.875C177.679 46.0885 177.132 46.1953 176.486 46.1953ZM177.541 43.5469C178.077 43.5469 178.531 43.401 178.9 43.1094C179.275 42.8125 179.562 42.3984 179.76 41.8672C179.963 41.3359 180.064 40.7135 180.064 40C180.064 39.2865 179.965 38.6667 179.768 38.1406C179.57 37.6146 179.283 37.2083 178.908 36.9219C178.533 36.6354 178.077 36.4922 177.541 36.4922C176.994 36.4922 176.533 36.6406 176.158 36.9375C175.783 37.2344 175.499 37.6458 175.307 38.1719C175.114 38.6979 175.018 39.3073 175.018 40C175.018 40.6979 175.114 41.3151 175.307 41.8516C175.505 42.3828 175.788 42.7995 176.158 43.1016C176.533 43.3984 176.994 43.5469 177.541 43.5469ZM191.52 46.2344C190.285 46.2344 189.223 45.9844 188.332 45.4844C187.447 44.9792 186.764 44.2656 186.285 43.3437C185.806 42.4167 185.566 41.3203 185.566 40.0547C185.566 38.8203 185.806 37.737 186.285 36.8047C186.764 35.8724 187.439 35.1458 188.309 34.625C189.184 34.1042 190.21 33.8438 191.387 33.8438C192.178 33.8438 192.915 33.9714 193.598 34.2266C194.285 34.4766 194.884 34.8542 195.395 35.3594C195.91 35.8646 196.311 36.5 196.598 37.2656C196.884 38.026 197.027 38.9167 197.027 39.9375V40.8516H186.895V38.7891H193.895C193.895 38.3099 193.79 37.8854 193.582 37.5156C193.374 37.1458 193.085 36.8568 192.715 36.6484C192.35 36.4349 191.926 36.3281 191.441 36.3281C190.936 36.3281 190.488 36.4453 190.098 36.6797C189.712 36.9089 189.41 37.2187 189.191 37.6094C188.973 37.9948 188.861 38.4245 188.855 38.8984V40.8594C188.855 41.4531 188.965 41.9661 189.184 42.3984C189.408 42.8307 189.723 43.1641 190.129 43.3984C190.535 43.6328 191.017 43.75 191.574 43.75C191.944 43.75 192.283 43.6979 192.59 43.5938C192.897 43.4896 193.16 43.3333 193.379 43.125C193.598 42.9167 193.764 42.6615 193.879 42.3594L196.957 42.5625C196.801 43.3021 196.48 43.9479 195.996 44.5C195.517 45.0469 194.897 45.474 194.137 45.7813C193.382 46.0833 192.509 46.2344 191.52 46.2344ZM204.291 46V34H207.518V36.0937H207.643C207.861 35.349 208.229 34.7865 208.744 34.4063C209.26 34.0208 209.854 33.8281 210.525 33.8281C210.692 33.8281 210.872 33.8385 211.064 33.8594C211.257 33.8802 211.426 33.9089 211.572 33.9453V36.8984C211.416 36.8516 211.2 36.8099 210.924 36.7734C210.648 36.737 210.395 36.7188 210.166 36.7188C209.676 36.7188 209.239 36.8255 208.854 37.0391C208.473 37.2474 208.171 37.5391 207.947 37.9141C207.729 38.2891 207.619 38.7214 207.619 39.2109V46H204.291ZM213.293 46V34H216.621V46H213.293ZM214.965 32.4531C214.47 32.4531 214.046 32.2891 213.691 31.9609C213.342 31.6276 213.168 31.2292 213.168 30.7656C213.168 30.3073 213.342 29.9141 213.691 29.5859C214.046 29.2526 214.47 29.0859 214.965 29.0859C215.46 29.0859 215.882 29.2526 216.23 29.5859C216.585 29.9141 216.762 30.3073 216.762 30.7656C216.762 31.2292 216.585 31.6276 216.23 31.9609C215.882 32.2891 215.46 32.4531 214.965 32.4531ZM229.271 37.4219L226.225 37.6094C226.173 37.349 226.061 37.1146 225.889 36.9062C225.717 36.6927 225.49 36.5234 225.209 36.3984C224.933 36.2682 224.602 36.2031 224.217 36.2031C223.701 36.2031 223.266 36.3125 222.912 36.5312C222.558 36.7448 222.381 37.0312 222.381 37.3906C222.381 37.6771 222.495 37.9193 222.725 38.1172C222.954 38.3151 223.347 38.474 223.904 38.5937L226.076 39.0312C227.243 39.2708 228.113 39.6562 228.686 40.1875C229.258 40.7187 229.545 41.4167 229.545 42.2812C229.545 43.0677 229.313 43.7578 228.85 44.3516C228.391 44.9453 227.761 45.4089 226.959 45.7422C226.162 46.0703 225.243 46.2344 224.201 46.2344C222.613 46.2344 221.347 45.9036 220.404 45.2422C219.467 44.5755 218.917 43.6693 218.756 42.5234L222.029 42.3516C222.128 42.8359 222.368 43.2057 222.748 43.4609C223.128 43.7109 223.615 43.8359 224.209 43.8359C224.792 43.8359 225.261 43.724 225.615 43.5C225.975 43.2708 226.157 42.9766 226.162 42.6172C226.157 42.3151 226.029 42.0677 225.779 41.875C225.529 41.6771 225.144 41.526 224.623 41.4219L222.545 41.0078C221.373 40.7734 220.501 40.3672 219.928 39.7891C219.36 39.2109 219.076 38.474 219.076 37.5781C219.076 36.8073 219.285 36.1432 219.701 35.5859C220.123 35.0286 220.714 34.599 221.475 34.2969C222.24 33.9948 223.136 33.8438 224.162 33.8438C225.678 33.8438 226.87 34.1641 227.74 34.8047C228.615 35.4453 229.126 36.3177 229.271 37.4219ZM237.063 46.2344C235.833 46.2344 234.776 45.974 233.891 45.4531C233.01 44.9271 232.333 44.1979 231.859 43.2656C231.391 42.3333 231.156 41.2604 231.156 40.0469C231.156 38.8177 231.393 37.7396 231.867 36.8125C232.346 35.8802 233.026 35.1536 233.906 34.6328C234.786 34.1068 235.833 33.8438 237.047 33.8438C238.094 33.8438 239.01 34.0339 239.797 34.4141C240.583 34.7943 241.206 35.3281 241.664 36.0156C242.122 36.7031 242.375 37.5104 242.422 38.4375H239.281C239.193 37.8385 238.958 37.3568 238.578 36.9922C238.203 36.6224 237.711 36.4375 237.102 36.4375C236.586 36.4375 236.135 36.5781 235.75 36.8594C235.37 37.1354 235.073 37.5391 234.859 38.0703C234.646 38.6016 234.539 39.2448 234.539 40C234.539 40.7656 234.643 41.4167 234.852 41.9531C235.065 42.4896 235.365 42.8984 235.75 43.1797C236.135 43.4609 236.586 43.6016 237.102 43.6016C237.482 43.6016 237.823 43.5234 238.125 43.3672C238.432 43.2109 238.685 42.9844 238.883 42.6875C239.086 42.3854 239.219 42.0234 239.281 41.6016H242.422C242.37 42.5182 242.12 43.3255 241.672 44.0234C241.229 44.7161 240.617 45.2578 239.836 45.6484C239.055 46.0391 238.13 46.2344 237.063 46.2344ZM249.975 46.2344C248.761 46.2344 247.712 45.9766 246.826 45.4609C245.946 44.9401 245.266 44.2161 244.787 43.2891C244.308 42.3568 244.068 41.276 244.068 40.0469C244.068 38.8073 244.308 37.724 244.787 36.7969C245.266 35.8646 245.946 35.1406 246.826 34.625C247.712 34.1042 248.761 33.8438 249.975 33.8438C251.188 33.8438 252.235 34.1042 253.115 34.625C254.001 35.1406 254.683 35.8646 255.162 36.7969C255.641 37.724 255.881 38.8073 255.881 40.0469C255.881 41.276 255.641 42.3568 255.162 43.2891C254.683 44.2161 254.001 44.9401 253.115 45.4609C252.235 45.9766 251.188 46.2344 249.975 46.2344ZM249.99 43.6562C250.542 43.6562 251.003 43.5 251.373 43.1875C251.743 42.8698 252.021 42.4375 252.209 41.8906C252.402 41.3437 252.498 40.7214 252.498 40.0234C252.498 39.3255 252.402 38.7031 252.209 38.1562C252.021 37.6094 251.743 37.1771 251.373 36.8594C251.003 36.5417 250.542 36.3828 249.99 36.3828C249.433 36.3828 248.964 36.5417 248.584 36.8594C248.209 37.1771 247.925 37.6094 247.732 38.1562C247.545 38.7031 247.451 39.3255 247.451 40.0234C247.451 40.7214 247.545 41.3437 247.732 41.8906C247.925 42.4375 248.209 42.8698 248.584 43.1875C248.964 43.5 249.433 43.6562 249.99 43.6562Z" fill="#1E1B39"/>
<path d="M2.12216 17H0.460227L5.26705 3.90909H6.90341L11.7102 17H10.0483L6.13636 5.98011H6.03409L2.12216 17ZM2.7358 11.8864H9.43466V13.2926H2.7358V11.8864ZM17.1994 7.18182V8.46023H12.1113V7.18182H17.1994ZM13.5943 4.82955H15.1028V14.1875C15.1028 14.6136 15.1646 14.9332 15.2882 15.1463C15.416 15.3551 15.5779 15.4957 15.774 15.5682C15.9743 15.6364 16.1852 15.6705 16.4068 15.6705C16.573 15.6705 16.7093 15.6619 16.8159 15.6449C16.9224 15.6236 17.0076 15.6065 17.0716 15.5938L17.3784 16.9489C17.2761 16.9872 17.1333 17.0256 16.9501 17.0639C16.7669 17.1065 16.5346 17.1278 16.2534 17.1278C15.8272 17.1278 15.4096 17.0362 15.0005 16.853C14.5957 16.6697 14.2591 16.3906 13.9906 16.0156C13.7264 15.6406 13.5943 15.1676 13.5943 14.5966V4.82955ZM19.4686 17V7.18182H20.9771V17H19.4686ZM20.2356 5.54545C19.9416 5.54545 19.688 5.44531 19.475 5.24503C19.2662 5.04474 19.1618 4.80398 19.1618 4.52273C19.1618 4.24148 19.2662 4.00071 19.475 3.80043C19.688 3.60014 19.9416 3.5 20.2356 3.5C20.5297 3.5 20.7811 3.60014 20.9899 3.80043C21.2029 4.00071 21.3095 4.24148 21.3095 4.52273C21.3095 4.80398 21.2029 5.04474 20.9899 5.24503C20.7811 5.44531 20.5297 5.54545 20.2356 5.54545ZM31.7685 7.18182L28.1378 17H26.6037L22.973 7.18182H24.6094L27.3196 15.0057H27.4219L30.1321 7.18182H31.7685ZM37.3967 17.2045C36.5103 17.2045 35.7326 16.9936 35.0636 16.5717C34.3988 16.1499 33.8789 15.5597 33.5039 14.8011C33.1332 14.0426 32.9478 13.1562 32.9478 12.142C32.9478 11.1193 33.1332 10.2266 33.5039 9.46378C33.8789 8.70099 34.3988 8.10866 35.0636 7.68679C35.7326 7.26491 36.5103 7.05398 37.3967 7.05398C38.283 7.05398 39.0586 7.26491 39.7234 7.68679C40.3924 8.10866 40.9123 8.70099 41.283 9.46378C41.658 10.2266 41.8455 11.1193 41.8455 12.142C41.8455 13.1562 41.658 14.0426 41.283 14.8011C40.9123 15.5597 40.3924 16.1499 39.7234 16.5717C39.0586 16.9936 38.283 17.2045 37.3967 17.2045ZM37.3967 15.8494C38.07 15.8494 38.6239 15.6768 39.0586 15.3317C39.4933 14.9865 39.815 14.5327 40.0238 13.9702C40.2326 13.4077 40.337 12.7983 40.337 12.142C40.337 11.4858 40.2326 10.8743 40.0238 10.3075C39.815 9.74077 39.4933 9.28267 39.0586 8.93324C38.6239 8.58381 38.07 8.40909 37.3967 8.40909C36.7234 8.40909 36.1694 8.58381 35.7347 8.93324C35.3001 9.28267 34.9783 9.74077 34.7695 10.3075C34.5607 10.8743 34.4563 11.4858 34.4563 12.142C34.4563 12.7983 34.5607 13.4077 34.7695 13.9702C34.9783 14.5327 35.3001 14.9865 35.7347 15.3317C36.1694 15.6768 36.7234 15.8494 37.3967 15.8494ZM51.1028 9.38068L49.7477 9.7642C49.6625 9.53835 49.5368 9.31889 49.3706 9.10582C49.2086 8.88849 48.987 8.70952 48.7058 8.56889C48.4245 8.42827 48.0645 8.35795 47.6255 8.35795C47.0247 8.35795 46.524 8.49645 46.1234 8.77344C45.7271 9.04616 45.5289 9.39347 45.5289 9.81534C45.5289 10.1903 45.6653 10.4865 45.938 10.7038C46.2108 10.9212 46.6369 11.1023 47.2164 11.2472L48.6738 11.6051C49.5517 11.8182 50.2058 12.1442 50.6362 12.5831C51.0666 13.0178 51.2818 13.5781 51.2818 14.2642C51.2818 14.8267 51.1199 15.3295 50.796 15.7727C50.4764 16.2159 50.0289 16.5653 49.4537 16.821C48.8784 17.0767 48.2093 17.2045 47.4466 17.2045C46.4451 17.2045 45.6163 16.9872 44.96 16.5526C44.3038 16.1179 43.8883 15.483 43.7136 14.6477L45.1454 14.2898C45.2818 14.8182 45.5396 15.2145 45.9189 15.4787C46.3024 15.7429 46.8031 15.875 47.421 15.875C48.1241 15.875 48.6824 15.7259 49.0957 15.4276C49.5133 15.125 49.7221 14.7628 49.7221 14.3409C49.7221 14 49.6028 13.7145 49.3642 13.4844C49.1255 13.25 48.7591 13.0753 48.2647 12.9602L46.6284 12.5767C45.7292 12.3636 45.0687 12.0334 44.6468 11.5859C44.2292 11.1342 44.0204 10.5696 44.0204 9.89205C44.0204 9.33807 44.176 8.84801 44.487 8.42188C44.8024 7.99574 45.2306 7.66122 45.7718 7.41832C46.3173 7.17543 46.9352 7.05398 47.6255 7.05398C48.5971 7.05398 49.3599 7.26705 49.9139 7.69318C50.4721 8.11932 50.8684 8.68182 51.1028 9.38068Z" fill="#9291A5"/>
</svg>
