<svg width="465" height="384" viewBox="0 0 465 384" fill="none" xmlns="http://www.w3.org/2000/svg">
<path d="M373.057 43.2725V34.5452H376.108C376.716 34.5452 377.217 34.6503 377.612 34.8605C378.007 35.0679 378.301 35.3477 378.494 35.7C378.688 36.0494 378.784 36.4372 378.784 36.8634C378.784 37.2384 378.717 37.548 378.584 37.7923C378.453 38.0367 378.28 38.2298 378.064 38.3719C377.851 38.5139 377.619 38.6191 377.369 38.6872V38.7725C377.636 38.7895 377.905 38.8833 378.175 39.0537C378.445 39.2242 378.67 39.4685 378.852 39.7867C379.034 40.1048 379.125 40.4941 379.125 40.9543C379.125 41.3918 379.026 41.7852 378.827 42.1347C378.628 42.4841 378.314 42.7611 377.885 42.9656C377.456 43.1702 376.898 43.2725 376.21 43.2725H373.057ZM374.114 42.335H376.21C376.901 42.335 377.391 42.2014 377.68 41.9344C377.973 41.6645 378.119 41.3378 378.119 40.9543C378.119 40.6588 378.044 40.3861 377.893 40.1361C377.743 39.8833 377.528 39.6816 377.25 39.531C376.972 39.3776 376.642 39.3009 376.261 39.3009H374.114V42.335ZM374.114 38.3804H376.074C376.392 38.3804 376.679 38.3179 376.935 38.1929C377.193 38.0679 377.398 37.8918 377.548 37.6645C377.702 37.4372 377.778 37.1702 377.778 36.8634C377.778 36.4798 377.645 36.1546 377.378 35.8875C377.111 35.6176 376.688 35.4827 376.108 35.4827H374.114V38.3804ZM381.731 34.5452V43.2725H380.725V34.5452H381.731ZM386.232 43.4088C385.641 43.4088 385.123 43.2682 384.676 42.9869C384.233 42.7057 383.887 42.3122 383.637 41.8066C383.39 41.3009 383.266 40.71 383.266 40.0338C383.266 39.352 383.39 38.7568 383.637 38.2483C383.887 37.7398 384.233 37.3449 384.676 37.0637C385.123 36.7824 385.641 36.6418 386.232 36.6418C386.823 36.6418 387.34 36.7824 387.783 37.0637C388.229 37.3449 388.576 37.7398 388.823 38.2483C389.073 38.7568 389.198 39.352 389.198 40.0338C389.198 40.71 389.073 41.3009 388.823 41.8066C388.576 42.3122 388.229 42.7057 387.783 42.9869C387.34 43.2682 386.823 43.4088 386.232 43.4088ZM386.232 42.5054C386.681 42.5054 387.05 42.3904 387.34 42.1602C387.63 41.9301 387.844 41.6276 387.983 41.2526C388.123 40.8776 388.192 40.4713 388.192 40.0338C388.192 39.5963 388.123 39.1887 387.983 38.8108C387.844 38.433 387.63 38.1276 387.34 37.8946C387.05 37.6617 386.681 37.5452 386.232 37.5452C385.783 37.5452 385.414 37.6617 385.124 37.8946C384.834 38.1276 384.62 38.433 384.48 38.8108C384.341 39.1887 384.272 39.5963 384.272 40.0338C384.272 40.4713 384.341 40.8776 384.48 41.2526C384.62 41.6276 384.834 41.9301 385.124 42.1602C385.414 42.3904 385.783 42.5054 386.232 42.5054ZM393.392 43.4088C392.778 43.4088 392.25 43.2639 391.807 42.9742C391.364 42.6844 391.023 42.2852 390.784 41.7767C390.545 41.2682 390.426 40.6872 390.426 40.0338C390.426 39.3691 390.548 38.7824 390.793 38.2739C391.04 37.7625 391.384 37.3634 391.824 37.0764C392.267 36.7867 392.784 36.6418 393.375 36.6418C393.835 36.6418 394.25 36.727 394.619 36.8975C394.989 37.0679 395.291 37.3066 395.527 37.6134C395.763 37.9202 395.909 38.2781 395.966 38.6872H394.96C394.884 38.3889 394.713 38.1247 394.449 37.8946C394.188 37.6617 393.835 37.5452 393.392 37.5452C393 37.5452 392.656 37.6475 392.361 37.852C392.068 38.0537 391.839 38.3392 391.675 38.7085C391.513 39.075 391.432 39.5054 391.432 39.9997C391.432 40.5054 391.511 40.9458 391.67 41.3208C391.832 41.6958 392.06 41.9869 392.352 42.1943C392.648 42.4017 392.994 42.5054 393.392 42.5054C393.653 42.5054 393.891 42.46 394.104 42.3691C394.317 42.2781 394.497 42.1475 394.645 41.977C394.793 41.8066 394.898 41.602 394.96 41.3634H395.966C395.909 41.7497 395.768 42.0977 395.544 42.4074C395.322 42.7142 395.028 42.9585 394.662 43.1404C394.298 43.3193 393.875 43.4088 393.392 43.4088ZM398.374 40.8861L398.357 39.6418H398.561L401.425 36.727H402.669L399.618 39.8122H399.533L398.374 40.8861ZM397.436 43.2725V34.5452H398.442V43.2725H397.436ZM401.595 43.2725L399.038 40.0338L399.754 39.335L402.874 43.2725H401.595ZM406.353 43.4088C405.739 43.4088 405.211 43.2639 404.768 42.9742C404.325 42.6844 403.984 42.2852 403.745 41.7767C403.506 41.2682 403.387 40.6872 403.387 40.0338C403.387 39.3691 403.509 38.7824 403.754 38.2739C404.001 37.7625 404.344 37.3634 404.785 37.0764C405.228 36.7867 405.745 36.6418 406.336 36.6418C406.796 36.6418 407.211 36.727 407.58 36.8975C407.95 37.0679 408.252 37.3066 408.488 37.6134C408.724 37.9202 408.87 38.2781 408.927 38.6872H407.921C407.844 38.3889 407.674 38.1247 407.41 37.8946C407.148 37.6617 406.796 37.5452 406.353 37.5452C405.961 37.5452 405.617 37.6475 405.322 37.852C405.029 38.0537 404.8 38.3392 404.636 38.7085C404.474 39.075 404.393 39.5054 404.393 39.9997C404.393 40.5054 404.472 40.9458 404.631 41.3208C404.793 41.6958 405.021 41.9869 405.313 42.1943C405.609 42.4017 405.955 42.5054 406.353 42.5054C406.614 42.5054 406.852 42.46 407.065 42.3691C407.278 42.2781 407.458 42.1475 407.606 41.977C407.754 41.8066 407.859 41.602 407.921 41.3634H408.927C408.87 41.7497 408.729 42.0977 408.505 42.4074C408.283 42.7142 407.989 42.9585 407.623 43.1404C407.259 43.3193 406.836 43.4088 406.353 43.4088ZM411.403 39.335V43.2725H410.397V34.5452H411.403V37.7497H411.488C411.641 37.4117 411.871 37.1432 412.178 36.9443C412.488 36.7426 412.9 36.6418 413.414 36.6418C413.86 36.6418 414.251 36.7313 414.586 36.9102C414.921 37.0864 415.181 37.3577 415.366 37.7242C415.553 38.0878 415.647 38.5509 415.647 39.1134V43.2725H414.641V39.1816C414.641 38.6617 414.506 38.2597 414.237 37.9756C413.969 37.6887 413.599 37.5452 413.124 37.5452C412.795 37.5452 412.499 37.6148 412.238 37.754C411.979 37.8932 411.775 38.0963 411.624 38.3634C411.477 38.6304 411.403 38.9543 411.403 39.335ZM419.413 43.4259C418.998 43.4259 418.622 43.3477 418.284 43.1915C417.946 43.0324 417.677 42.8037 417.478 42.5054C417.279 42.2043 417.18 41.8406 417.18 41.4145C417.18 41.0395 417.254 40.7355 417.402 40.5026C417.549 40.2668 417.747 40.0821 417.994 39.9486C418.241 39.8151 418.514 39.7156 418.812 39.6503C419.113 39.5821 419.416 39.5281 419.72 39.4884C420.118 39.4372 420.44 39.3989 420.687 39.3733C420.937 39.3449 421.119 39.298 421.233 39.2327C421.349 39.1673 421.407 39.0537 421.407 38.8918V38.8577C421.407 38.4372 421.292 38.1105 421.062 37.8776C420.835 37.6446 420.49 37.5281 420.027 37.5281C419.547 37.5281 419.17 37.6333 418.897 37.8435C418.625 38.0537 418.433 38.2781 418.322 38.5168L417.368 38.1759C417.538 37.7781 417.765 37.4685 418.049 37.2469C418.336 37.0225 418.649 36.8662 418.987 36.7781C419.328 36.6872 419.663 36.6418 419.993 36.6418C420.203 36.6418 420.444 36.6673 420.717 36.7185C420.993 36.7668 421.258 36.8676 421.514 37.021C421.772 37.1744 421.987 37.406 422.157 37.7156C422.328 38.0253 422.413 38.4401 422.413 38.96V43.2725H421.407V42.3861H421.356C421.288 42.5281 421.174 42.6801 421.015 42.8421C420.856 43.004 420.645 43.1418 420.38 43.2554C420.116 43.3691 419.794 43.4259 419.413 43.4259ZM419.566 42.5225C419.964 42.5225 420.299 42.4443 420.572 42.2881C420.848 42.1318 421.055 41.9301 421.194 41.683C421.336 41.4358 421.407 41.1759 421.407 40.9031V39.9827C421.365 40.0338 421.271 40.0807 421.126 40.1233C420.984 40.1631 420.819 40.1986 420.632 40.2298C420.447 40.2583 420.267 40.2838 420.091 40.3066C419.917 40.3264 419.777 40.3435 419.669 40.3577C419.407 40.3918 419.163 40.4472 418.936 40.5239C418.711 40.5977 418.529 40.71 418.39 40.8605C418.254 41.0083 418.186 41.21 418.186 41.4656C418.186 41.8151 418.315 42.0793 418.574 42.2583C418.835 42.4344 419.166 42.5225 419.566 42.5225ZM424.249 43.2725V36.727H425.254V43.2725H424.249ZM424.76 35.6361C424.564 35.6361 424.395 35.5693 424.253 35.4358C424.114 35.3023 424.044 35.1418 424.044 34.9543C424.044 34.7668 424.114 34.6063 424.253 34.4727C424.395 34.3392 424.564 34.2725 424.76 34.2725C424.956 34.2725 425.124 34.3392 425.263 34.4727C425.405 34.6063 425.476 34.7668 425.476 34.9543C425.476 35.1418 425.405 35.3023 425.263 35.4358C425.124 35.5693 424.956 35.6361 424.76 35.6361ZM428.102 39.335V43.2725H427.096V36.727H428.068V37.7497H428.153C428.306 37.4173 428.539 37.1503 428.852 36.9486C429.164 36.7441 429.568 36.6418 430.062 36.6418C430.505 36.6418 430.893 36.7327 431.225 36.9145C431.558 37.0935 431.816 37.3662 432.001 37.7327C432.186 38.0963 432.278 38.5566 432.278 39.1134V43.2725H431.272V39.1816C431.272 38.6673 431.139 38.2668 430.872 37.9798C430.605 37.6901 430.238 37.5452 429.772 37.5452C429.451 37.5452 429.164 37.6148 428.912 37.754C428.662 37.8932 428.464 38.0963 428.319 38.3634C428.174 38.6304 428.102 38.9543 428.102 39.335Z" fill="#615E83"/>
<path d="M363.25 38.5C363.25 42.2279 360.228 45.25 356.5 45.25C352.772 45.25 349.75 42.2279 349.75 38.5C349.75 34.7721 352.772 31.75 356.5 31.75C360.228 31.75 363.25 34.7721 363.25 38.5Z" fill="#464444" stroke="#464444" stroke-width="1.5"/>
<path d="M373.057 22.2725V13.5452H378.324V14.4827H374.114V17.4316H378.051V18.3691H374.114V21.335H378.392V22.2725H373.057ZM385.956 13.5452H387.013V19.3236C387.013 19.9202 386.872 20.4529 386.591 20.9216C386.313 21.3875 385.919 21.7554 385.411 22.0253C384.902 22.2923 384.305 22.4259 383.621 22.4259C382.936 22.4259 382.339 22.2923 381.831 22.0253C381.322 21.7554 380.928 21.3875 380.646 20.9216C380.368 20.4529 380.229 19.9202 380.229 19.3236V13.5452H381.286V19.2384C381.286 19.6645 381.379 20.0438 381.567 20.3762C381.754 20.7057 382.021 20.9656 382.368 21.156C382.717 21.3435 383.135 21.4372 383.621 21.4372C384.107 21.4372 384.524 21.3435 384.874 21.156C385.223 20.9656 385.49 20.7057 385.675 20.3762C385.862 20.0438 385.956 19.6645 385.956 19.2384V13.5452ZM389.481 22.2725H388.373L391.578 13.5452H392.669L395.873 22.2725H394.765L392.157 14.9259H392.089L389.481 22.2725ZM389.89 18.8634H394.356V19.8009H389.89V18.8634Z" fill="#615E83"/>
<path d="M363.25 17.5C363.25 21.2279 360.228 24.25 356.5 24.25C352.772 24.25 349.75 21.2279 349.75 17.5C349.75 13.7721 352.772 10.75 356.5 10.75C360.228 10.75 363.25 13.7721 363.25 17.5Z" fill="#41A4FF" stroke="#41A4FF" stroke-width="1.5"/>
<path d="M374 249.5C374 221.118 365.022 193.463 348.35 170.494C331.678 147.524 308.167 130.417 281.182 121.622L239.5 249.5H374Z" fill="#464444"/>
<path d="M374 249.5C374 277.909 365.004 305.589 348.303 328.571C331.601 351.553 308.052 368.656 281.03 377.428C254.009 386.2 224.904 386.191 197.889 377.401C170.873 368.612 147.334 351.494 130.647 328.502C113.96 305.51 104.982 277.824 105 249.415C105.018 221.005 114.031 193.331 130.747 170.36C147.464 147.389 171.024 130.301 198.051 121.546C225.078 112.791 254.183 112.819 281.193 121.625L239.5 249.5H374Z" fill="#41A4FF"/>
<path d="M49.5078 35.6016H46.0859C46.0234 35.1589 45.8958 34.7656 45.7031 34.4219C45.5104 34.0729 45.263 33.776 44.9609 33.5312C44.6589 33.2865 44.3099 33.099 43.9141 32.9687C43.5234 32.8385 43.099 32.7734 42.6406 32.7734C41.8125 32.7734 41.0911 32.9792 40.4766 33.3906C39.862 33.7969 39.3854 34.3906 39.0469 35.1719C38.7083 35.9479 38.5391 36.8906 38.5391 38C38.5391 39.1406 38.7083 40.099 39.0469 40.875C39.3906 41.651 39.8698 42.237 40.4844 42.6328C41.099 43.0286 41.8099 43.2266 42.6172 43.2266C43.0703 43.2266 43.4896 43.1667 43.875 43.0469C44.2656 42.9271 44.612 42.7526 44.9141 42.5234C45.2161 42.2891 45.4661 42.0052 45.6641 41.6719C45.8672 41.3385 46.0078 40.9583 46.0859 40.5312L49.5078 40.5469C49.4193 41.2812 49.1979 41.9896 48.8438 42.6719C48.4948 43.349 48.0234 43.9557 47.4297 44.4922C46.8411 45.0234 46.138 45.4453 45.3203 45.7578C44.5078 46.0651 43.5885 46.2187 42.5625 46.2187C41.1354 46.2187 39.8594 45.8958 38.7344 45.25C37.6146 44.6042 36.7292 43.6693 36.0781 42.4453C35.4323 41.2214 35.1094 39.7396 35.1094 38C35.1094 36.2552 35.4375 34.7708 36.0938 33.5469C36.75 32.3229 37.6406 31.3906 38.7656 30.75C39.8906 30.1042 41.1563 29.7812 42.5625 29.7812C43.4896 29.7812 44.349 29.9115 45.1406 30.1719C45.9375 30.4323 46.6432 30.8125 47.2578 31.3125C47.8724 31.8073 48.3724 32.4141 48.7578 33.1328C49.1484 33.8516 49.3984 34.6745 49.5078 35.6016ZM55.1992 30V46H51.8711V30H55.1992ZM61.2871 46.2266C60.5215 46.2266 59.8392 46.0938 59.2402 45.8281C58.6413 45.5573 58.1673 45.1589 57.8184 44.6328C57.4746 44.1016 57.3027 43.4401 57.3027 42.6484C57.3027 41.9818 57.4251 41.4219 57.6699 40.9687C57.9147 40.5156 58.248 40.151 58.6699 39.875C59.0918 39.599 59.571 39.3906 60.1074 39.25C60.6491 39.1094 61.2168 39.0104 61.8105 38.9531C62.5085 38.8802 63.071 38.8125 63.498 38.75C63.9251 38.6823 64.235 38.5833 64.4277 38.4531C64.6204 38.3229 64.7168 38.1302 64.7168 37.875V37.8281C64.7168 37.3333 64.5605 36.9505 64.248 36.6797C63.9408 36.4089 63.5033 36.2734 62.9355 36.2734C62.3366 36.2734 61.86 36.4062 61.5059 36.6719C61.1517 36.9323 60.9173 37.2604 60.8027 37.6562L57.7246 37.4062C57.8809 36.6771 58.1882 36.0469 58.6465 35.5156C59.1048 34.9792 59.696 34.5677 60.4199 34.2812C61.1491 33.9896 61.9928 33.8438 62.9512 33.8438C63.6178 33.8438 64.2559 33.9219 64.8652 34.0781C65.4798 34.2344 66.0241 34.4766 66.498 34.8047C66.9772 35.1328 67.3548 35.5547 67.6309 36.0703C67.9069 36.5807 68.0449 37.1927 68.0449 37.9062V46H64.8887V44.3359H64.7949C64.6022 44.7109 64.3444 45.0417 64.0215 45.3281C63.6986 45.6094 63.3105 45.8307 62.8574 45.9922C62.4043 46.1484 61.8809 46.2266 61.2871 46.2266ZM62.2402 43.9297C62.7298 43.9297 63.1621 43.8333 63.5371 43.6406C63.9121 43.4427 64.2064 43.1771 64.4199 42.8438C64.6335 42.5104 64.7402 42.1328 64.7402 41.7109V40.4375C64.6361 40.5052 64.4928 40.5677 64.3105 40.625C64.1335 40.6771 63.9329 40.7266 63.709 40.7734C63.485 40.8151 63.2611 40.8542 63.0371 40.8906C62.8132 40.9219 62.61 40.9505 62.4277 40.9766C62.0371 41.0339 61.696 41.125 61.4043 41.25C61.1126 41.375 60.8861 41.5443 60.7246 41.7578C60.5632 41.9661 60.4824 42.2266 60.4824 42.5391C60.4824 42.9922 60.6465 43.3385 60.9746 43.5781C61.3079 43.8125 61.7298 43.9297 62.2402 43.9297ZM80.6113 37.4219L77.5645 37.6094C77.5124 37.349 77.4004 37.1146 77.2285 36.9062C77.0566 36.6927 76.8301 36.5234 76.5488 36.3984C76.2728 36.2682 75.9421 36.2031 75.5566 36.2031C75.041 36.2031 74.6061 36.3125 74.252 36.5312C73.8978 36.7448 73.7207 37.0312 73.7207 37.3906C73.7207 37.6771 73.8353 37.9193 74.0645 38.1172C74.2936 38.3151 74.6868 38.474 75.2441 38.5937L77.416 39.0312C78.5827 39.2708 79.4525 39.6562 80.0254 40.1875C80.5983 40.7187 80.8848 41.4167 80.8848 42.2812C80.8848 43.0677 80.653 43.7578 80.1895 44.3516C79.7311 44.9453 79.1009 45.4089 78.2988 45.7422C77.502 46.0703 76.5827 46.2344 75.541 46.2344C73.9525 46.2344 72.6868 45.9036 71.7441 45.2422C70.8066 44.5755 70.2572 43.6693 70.0957 42.5234L73.3691 42.3516C73.4681 42.8359 73.7077 43.2057 74.0879 43.4609C74.4681 43.7109 74.9551 43.8359 75.5488 43.8359C76.1322 43.8359 76.6009 43.724 76.9551 43.5C77.3145 43.2708 77.4967 42.9766 77.502 42.6172C77.4967 42.3151 77.3691 42.0677 77.1191 41.875C76.8691 41.6771 76.4837 41.526 75.9629 41.4219L73.8848 41.0078C72.7129 40.7734 71.8405 40.3672 71.2676 39.7891C70.6999 39.2109 70.416 38.474 70.416 37.5781C70.416 36.8073 70.6243 36.1432 71.041 35.5859C71.4629 35.0286 72.054 34.599 72.8145 34.2969C73.5801 33.9948 74.4759 33.8438 75.502 33.8438C77.0176 33.8438 78.2103 34.1641 79.0801 34.8047C79.9551 35.4453 80.4655 36.3177 80.6113 37.4219ZM92.9648 37.4219L89.918 37.6094C89.8659 37.349 89.7539 37.1146 89.582 36.9062C89.4102 36.6927 89.1836 36.5234 88.9023 36.3984C88.6263 36.2682 88.2956 36.2031 87.9102 36.2031C87.3945 36.2031 86.9596 36.3125 86.6055 36.5312C86.2513 36.7448 86.0742 37.0312 86.0742 37.3906C86.0742 37.6771 86.1888 37.9193 86.418 38.1172C86.6471 38.3151 87.0404 38.474 87.5977 38.5937L89.7695 39.0312C90.9362 39.2708 91.806 39.6562 92.3789 40.1875C92.9518 40.7187 93.2383 41.4167 93.2383 42.2812C93.2383 43.0677 93.0065 43.7578 92.543 44.3516C92.0846 44.9453 91.4544 45.4089 90.6523 45.7422C89.8555 46.0703 88.9362 46.2344 87.8945 46.2344C86.306 46.2344 85.0404 45.9036 84.0977 45.2422C83.1602 44.5755 82.6107 43.6693 82.4492 42.5234L85.7227 42.3516C85.8216 42.8359 86.0612 43.2057 86.4414 43.4609C86.8216 43.7109 87.3086 43.8359 87.9023 43.8359C88.4857 43.8359 88.9544 43.724 89.3086 43.5C89.668 43.2708 89.8503 42.9766 89.8555 42.6172C89.8503 42.3151 89.7227 42.0677 89.4727 41.875C89.2227 41.6771 88.8372 41.526 88.3164 41.4219L86.2383 41.0078C85.0664 40.7734 84.194 40.3672 83.6211 39.7891C83.0534 39.2109 82.7695 38.474 82.7695 37.5781C82.7695 36.8073 82.9779 36.1432 83.3945 35.5859C83.8164 35.0286 84.4076 34.599 85.168 34.2969C85.9336 33.9948 86.8294 33.8438 87.8555 33.8438C89.3711 33.8438 90.5638 34.1641 91.4336 34.8047C92.3086 35.4453 92.819 36.3177 92.9648 37.4219ZM100.803 46.2344C99.5684 46.2344 98.5059 45.9844 97.6152 45.4844C96.7298 44.9792 96.0475 44.2656 95.5684 43.3437C95.0892 42.4167 94.8496 41.3203 94.8496 40.0547C94.8496 38.8203 95.0892 37.737 95.5684 36.8047C96.0475 35.8724 96.722 35.1458 97.5918 34.625C98.4668 34.1042 99.4928 33.8438 100.67 33.8438C101.462 33.8438 102.199 33.9714 102.881 34.2266C103.568 34.4766 104.167 34.8542 104.678 35.3594C105.193 35.8646 105.594 36.5 105.881 37.2656C106.167 38.026 106.311 38.9167 106.311 39.9375V40.8516H96.1777V38.7891H103.178C103.178 38.3099 103.074 37.8854 102.865 37.5156C102.657 37.1458 102.368 36.8568 101.998 36.6484C101.633 36.4349 101.209 36.3281 100.725 36.3281C100.219 36.3281 99.7715 36.4453 99.3809 36.6797C98.9954 36.9089 98.6934 37.2187 98.4746 37.6094C98.2559 37.9948 98.1439 38.4245 98.1387 38.8984V40.8594C98.1387 41.4531 98.248 41.9661 98.4668 42.3984C98.6908 42.8307 99.0059 43.1641 99.4121 43.3984C99.8184 43.6328 100.3 43.75 100.857 43.75C101.227 43.75 101.566 43.6979 101.873 43.5938C102.18 43.4896 102.443 43.3333 102.662 43.125C102.881 42.9167 103.048 42.6615 103.162 42.3594L106.24 42.5625C106.084 43.3021 105.764 43.9479 105.279 44.5C104.8 45.0469 104.18 45.474 103.42 45.7813C102.665 46.0833 101.792 46.2344 100.803 46.2344ZM118.467 37.4219L115.42 37.6094C115.368 37.349 115.256 37.1146 115.084 36.9062C114.912 36.6927 114.686 36.5234 114.404 36.3984C114.128 36.2682 113.798 36.2031 113.412 36.2031C112.896 36.2031 112.462 36.3125 112.107 36.5312C111.753 36.7448 111.576 37.0312 111.576 37.3906C111.576 37.6771 111.691 37.9193 111.92 38.1172C112.149 38.3151 112.542 38.474 113.1 38.5937L115.271 39.0312C116.438 39.2708 117.308 39.6562 117.881 40.1875C118.454 40.7187 118.74 41.4167 118.74 42.2812C118.74 43.0677 118.508 43.7578 118.045 44.3516C117.587 44.9453 116.956 45.4089 116.154 45.7422C115.357 46.0703 114.438 46.2344 113.396 46.2344C111.808 46.2344 110.542 45.9036 109.6 45.2422C108.662 44.5755 108.113 43.6693 107.951 42.5234L111.225 42.3516C111.324 42.8359 111.563 43.2057 111.943 43.4609C112.324 43.7109 112.811 43.8359 113.404 43.8359C113.988 43.8359 114.456 43.724 114.811 43.5C115.17 43.2708 115.352 42.9766 115.357 42.6172C115.352 42.3151 115.225 42.0677 114.975 41.875C114.725 41.6771 114.339 41.526 113.818 41.4219L111.74 41.0078C110.568 40.7734 109.696 40.3672 109.123 39.7891C108.555 39.2109 108.271 38.474 108.271 37.5781C108.271 36.8073 108.48 36.1432 108.896 35.5859C109.318 35.0286 109.91 34.599 110.67 34.2969C111.436 33.9948 112.331 33.8438 113.357 33.8438C114.873 33.8438 116.066 34.1641 116.936 34.8047C117.811 35.4453 118.321 36.3177 118.467 37.4219Z" fill="#1E1B39"/>
<path d="M36.1222 17H34.4602L39.267 3.90909H40.9034L45.7102 17H44.0483L40.1364 5.98011H40.0341L36.1222 17ZM36.7358 11.8864H43.4347V13.2926H36.7358V11.8864ZM51.1994 7.18182V8.46023H46.1113V7.18182H51.1994ZM47.5943 4.82955H49.1028V14.1875C49.1028 14.6136 49.1646 14.9332 49.2882 15.1463C49.416 15.3551 49.5779 15.4957 49.774 15.5682C49.9743 15.6364 50.1852 15.6705 50.4068 15.6705C50.573 15.6705 50.7093 15.6619 50.8159 15.6449C50.9224 15.6236 51.0076 15.6065 51.0716 15.5938L51.3784 16.9489C51.2761 16.9872 51.1333 17.0256 50.9501 17.0639C50.7669 17.1065 50.5346 17.1278 50.2534 17.1278C49.8272 17.1278 49.4096 17.0362 49.0005 16.853C48.5957 16.6697 48.2591 16.3906 47.9906 16.0156C47.7264 15.6406 47.5943 15.1676 47.5943 14.5966V4.82955ZM53.4686 17V7.18182H54.9771V17H53.4686ZM54.2356 5.54545C53.9416 5.54545 53.688 5.44531 53.475 5.24503C53.2662 5.04474 53.1618 4.80398 53.1618 4.52273C53.1618 4.24148 53.2662 4.00071 53.475 3.80043C53.688 3.60014 53.9416 3.5 54.2356 3.5C54.5297 3.5 54.7811 3.60014 54.9899 3.80043C55.2029 4.00071 55.3095 4.24148 55.3095 4.52273C55.3095 4.80398 55.2029 5.04474 54.9899 5.24503C54.7811 5.44531 54.5297 5.54545 54.2356 5.54545ZM65.7685 7.18182L62.1378 17H60.6037L56.973 7.18182H58.6094L61.3196 15.0057H61.4219L64.1321 7.18182H65.7685ZM71.3967 17.2045C70.5103 17.2045 69.7326 16.9936 69.0636 16.5717C68.3988 16.1499 67.8789 15.5597 67.5039 14.8011C67.1332 14.0426 66.9478 13.1562 66.9478 12.142C66.9478 11.1193 67.1332 10.2266 67.5039 9.46378C67.8789 8.70099 68.3988 8.10866 69.0636 7.68679C69.7326 7.26491 70.5103 7.05398 71.3967 7.05398C72.283 7.05398 73.0586 7.26491 73.7234 7.68679C74.3924 8.10866 74.9123 8.70099 75.283 9.46378C75.658 10.2266 75.8455 11.1193 75.8455 12.142C75.8455 13.1562 75.658 14.0426 75.283 14.8011C74.9123 15.5597 74.3924 16.1499 73.7234 16.5717C73.0586 16.9936 72.283 17.2045 71.3967 17.2045ZM71.3967 15.8494C72.07 15.8494 72.6239 15.6768 73.0586 15.3317C73.4933 14.9865 73.815 14.5327 74.0238 13.9702C74.2326 13.4077 74.337 12.7983 74.337 12.142C74.337 11.4858 74.2326 10.8743 74.0238 10.3075C73.815 9.74077 73.4933 9.28267 73.0586 8.93324C72.6239 8.58381 72.07 8.40909 71.3967 8.40909C70.7234 8.40909 70.1694 8.58381 69.7347 8.93324C69.3001 9.28267 68.9783 9.74077 68.7695 10.3075C68.5607 10.8743 68.4563 11.4858 68.4563 12.142C68.4563 12.7983 68.5607 13.4077 68.7695 13.9702C68.9783 14.5327 69.3001 14.9865 69.7347 15.3317C70.1694 15.6768 70.7234 15.8494 71.3967 15.8494ZM85.1028 9.38068L83.7477 9.7642C83.6625 9.53835 83.5368 9.31889 83.3706 9.10582C83.2086 8.88849 82.987 8.70952 82.7058 8.56889C82.4245 8.42827 82.0645 8.35795 81.6255 8.35795C81.0247 8.35795 80.524 8.49645 80.1234 8.77344C79.7271 9.04616 79.5289 9.39347 79.5289 9.81534C79.5289 10.1903 79.6653 10.4865 79.938 10.7038C80.2108 10.9212 80.6369 11.1023 81.2164 11.2472L82.6738 11.6051C83.5517 11.8182 84.2058 12.1442 84.6362 12.5831C85.0666 13.0178 85.2818 13.5781 85.2818 14.2642C85.2818 14.8267 85.1199 15.3295 84.796 15.7727C84.4764 16.2159 84.0289 16.5653 83.4537 16.821C82.8784 17.0767 82.2093 17.2045 81.4466 17.2045C80.4451 17.2045 79.6163 16.9872 78.96 16.5526C78.3038 16.1179 77.8883 15.483 77.7136 14.6477L79.1454 14.2898C79.2818 14.8182 79.5396 15.2145 79.9189 15.4787C80.3024 15.7429 80.8031 15.875 81.421 15.875C82.1241 15.875 82.6824 15.7259 83.0957 15.4276C83.5133 15.125 83.7221 14.7628 83.7221 14.3409C83.7221 14 83.6028 13.7145 83.3642 13.4844C83.1255 13.25 82.7591 13.0753 82.2647 12.9602L80.6284 12.5767C79.7292 12.3636 79.0687 12.0334 78.6468 11.5859C78.2292 11.1342 78.0204 10.5696 78.0204 9.89205C78.0204 9.33807 78.176 8.84801 78.487 8.42188C78.8024 7.99574 79.2306 7.66122 79.7718 7.41832C80.3173 7.17543 80.9352 7.05398 81.6255 7.05398C82.5971 7.05398 83.3599 7.26705 83.9139 7.69318C84.4721 8.11932 84.8684 8.68182 85.1028 9.38068Z" fill="#9291A5"/>
</svg>
