<svg width="643" height="484" viewBox="0 0 643 484" fill="none" xmlns="http://www.w3.org/2000/svg">
<path d="M40.2064 425.727H41.0871V430.926C41.0871 431.39 41.0018 431.784 40.8314 432.109C40.6609 432.433 40.4206 432.679 40.1105 432.847C39.8004 433.015 39.4346 433.099 39.0132 433.099C38.6155 433.099 38.2615 433.027 37.9514 432.883C37.6413 432.736 37.3974 432.528 37.2199 432.258C37.0423 431.988 36.9535 431.667 36.9535 431.295H37.82C37.82 431.501 37.8709 431.681 37.9727 431.835C38.0769 431.987 38.2189 432.105 38.3988 432.19C38.5788 432.275 38.7836 432.318 39.0132 432.318C39.2665 432.318 39.4819 432.265 39.6595 432.158C39.8371 432.052 39.972 431.895 40.0643 431.69C40.159 431.481 40.2064 431.227 40.2064 430.926V425.727ZM43.7503 433H42.827L45.4974 425.727H46.4065L49.077 433H48.1537L45.9804 426.878H45.9236L43.7503 433ZM44.0912 430.159H47.8128V430.94H44.0912V430.159ZM56.5768 425.727V433H55.7246L51.7615 427.29H51.6905V433H50.8098V425.727H51.6621L55.6393 431.452H55.7104V425.727H56.5768Z" fill="#615E83"/>
<path d="M88.9789 433V425.727H93.3397V426.508H89.8596V428.966H93.013V429.747H89.8596V433H88.9789ZM95.4481 433V425.727H99.8373V426.508H96.3287V428.966H99.61V429.747H96.3287V432.219H99.8941V433H95.4481ZM102.323 425.727L104.482 431.849H104.567L106.726 425.727H107.65L104.979 433H104.07L101.4 425.727H102.323Z" fill="#615E83"/>
<path d="M139.255 425.727H140.306L142.778 431.764H142.863L145.335 425.727H146.386V433H145.562V427.474H145.491L143.218 433H142.423L140.15 427.474H140.079V433H139.255V425.727ZM149.05 433H148.127L150.797 425.727H151.706L154.377 433H153.453L151.28 426.878H151.223L149.05 433ZM149.391 430.159H153.113V430.94H149.391V430.159ZM156.11 433V425.727H158.567C159.135 425.727 159.602 425.824 159.966 426.018C160.331 426.21 160.601 426.474 160.776 426.81C160.951 427.146 161.039 427.529 161.039 427.957C161.039 428.386 160.951 428.766 160.776 429.097C160.601 429.429 160.332 429.689 159.97 429.878C159.607 430.065 159.145 430.159 158.581 430.159H156.593V429.364H158.553C158.941 429.364 159.254 429.307 159.49 429.193C159.729 429.079 159.902 428.918 160.009 428.71C160.118 428.499 160.172 428.248 160.172 427.957C160.172 427.666 160.118 427.412 160.009 427.194C159.9 426.976 159.726 426.808 159.487 426.69C159.248 426.569 158.932 426.508 158.539 426.508H156.99V433H156.11ZM159.533 429.733L161.323 433H160.3L158.539 429.733H159.533Z" fill="#615E83"/>
<path d="M191.75 433H190.827L193.497 425.727H194.406L197.077 433H196.153L193.98 426.878H193.923L191.75 433ZM192.091 430.159H195.812V430.94H192.091V430.159ZM198.809 433V425.727H201.352C201.859 425.727 202.276 425.815 202.606 425.99C202.935 426.163 203.18 426.396 203.341 426.69C203.502 426.981 203.582 427.304 203.582 427.659C203.582 427.971 203.526 428.23 203.415 428.433C203.306 428.637 203.162 428.798 202.982 428.916C202.804 429.034 202.611 429.122 202.403 429.179V429.25C202.626 429.264 202.849 429.342 203.074 429.484C203.299 429.626 203.487 429.83 203.639 430.095C203.79 430.36 203.866 430.685 203.866 431.068C203.866 431.433 203.783 431.761 203.618 432.052C203.452 432.343 203.19 432.574 202.833 432.744C202.475 432.915 202.01 433 201.437 433H198.809ZM199.69 432.219H201.437C202.013 432.219 202.421 432.107 202.662 431.885C202.906 431.66 203.028 431.388 203.028 431.068C203.028 430.822 202.965 430.595 202.84 430.386C202.714 430.176 202.536 430.007 202.304 429.882C202.072 429.754 201.797 429.69 201.48 429.69H199.69V432.219ZM199.69 428.923H201.324C201.589 428.923 201.828 428.871 202.041 428.767C202.256 428.663 202.427 428.516 202.552 428.327C202.68 428.137 202.744 427.915 202.744 427.659C202.744 427.339 202.633 427.068 202.41 426.846C202.188 426.621 201.835 426.508 201.352 426.508H199.69V428.923ZM205.913 433V425.727H208.371C208.939 425.727 209.405 425.824 209.77 426.018C210.134 426.21 210.404 426.474 210.579 426.81C210.755 427.146 210.842 427.529 210.842 427.957C210.842 428.386 210.755 428.766 210.579 429.097C210.404 429.429 210.136 429.689 209.773 429.878C209.411 430.065 208.948 430.159 208.385 430.159H206.396V429.364H208.356C208.745 429.364 209.057 429.307 209.294 429.193C209.533 429.079 209.706 428.918 209.812 428.71C209.921 428.499 209.976 428.248 209.976 427.957C209.976 427.666 209.921 427.412 209.812 427.194C209.704 426.976 209.53 426.808 209.29 426.69C209.051 426.569 208.735 426.508 208.342 426.508H206.794V433H205.913ZM209.337 429.733L211.126 433H210.104L208.342 429.733H209.337Z" fill="#615E83"/>
<path d="M244.13 425.727H245.181L247.653 431.764H247.738L250.21 425.727H251.261V433H250.437V427.474H250.366L248.093 433H247.298L245.025 427.474H244.954V433H244.13V425.727ZM253.925 433H253.002L255.672 425.727H256.581L259.252 433H258.328L256.155 426.878H256.098L253.925 433ZM254.266 430.159H257.988V430.94H254.266V430.159ZM261.865 425.727V433H260.985V425.727H261.865Z" fill="#615E83"/>
<path d="M296.879 425.727H297.76V430.926C297.76 431.39 297.675 431.784 297.504 432.109C297.334 432.433 297.093 432.679 296.783 432.847C296.473 433.015 296.107 433.099 295.686 433.099C295.288 433.099 294.934 433.027 294.624 432.883C294.314 432.736 294.07 432.528 293.893 432.258C293.715 431.988 293.626 431.667 293.626 431.295H294.493C294.493 431.501 294.544 431.681 294.646 431.835C294.75 431.987 294.892 432.105 295.072 432.19C295.252 432.275 295.456 432.318 295.686 432.318C295.939 432.318 296.155 432.265 296.332 432.158C296.51 432.052 296.645 431.895 296.737 431.69C296.832 431.481 296.879 431.227 296.879 430.926V425.727ZM304.898 425.727H305.778V430.542C305.778 431.04 305.661 431.484 305.427 431.874C305.195 432.262 304.867 432.569 304.443 432.794C304.019 433.016 303.522 433.128 302.952 433.128C302.381 433.128 301.884 433.016 301.46 432.794C301.036 432.569 300.707 432.262 300.473 431.874C300.241 431.484 300.125 431.04 300.125 430.542V425.727H301.006V430.471C301.006 430.827 301.084 431.143 301.24 431.42C301.396 431.694 301.619 431.911 301.907 432.069C302.199 432.226 302.547 432.304 302.952 432.304C303.356 432.304 303.704 432.226 303.996 432.069C304.287 431.911 304.509 431.694 304.663 431.42C304.819 431.143 304.898 430.827 304.898 430.471V425.727ZM313.904 425.727V433H313.052L309.089 427.29H309.018V433H308.137V425.727H308.989L312.966 431.452H313.037V425.727H313.904Z" fill="#615E83"/>
<path d="M349.831 425.727H350.712V430.926C350.712 431.39 350.627 431.784 350.456 432.109C350.286 432.433 350.046 432.679 349.735 432.847C349.425 433.015 349.06 433.099 348.638 433.099C348.24 433.099 347.887 433.027 347.576 432.883C347.266 432.736 347.022 432.528 346.845 432.258C346.667 431.988 346.579 431.667 346.579 431.295H347.445C347.445 431.501 347.496 431.681 347.598 431.835C347.702 431.987 347.844 432.105 348.024 432.19C348.204 432.275 348.409 432.318 348.638 432.318C348.892 432.318 349.107 432.265 349.284 432.158C349.462 432.052 349.597 431.895 349.689 431.69C349.784 431.481 349.831 431.227 349.831 430.926V425.727ZM357.85 425.727H358.73V430.542C358.73 431.04 358.613 431.484 358.379 431.874C358.147 432.262 357.819 432.569 357.395 432.794C356.971 433.016 356.474 433.128 355.904 433.128C355.333 433.128 354.836 433.016 354.412 432.794C353.988 432.569 353.659 432.262 353.425 431.874C353.193 431.484 353.077 431.04 353.077 430.542V425.727H353.958V430.471C353.958 430.827 354.036 431.143 354.192 431.42C354.348 431.694 354.571 431.911 354.86 432.069C355.151 432.226 355.499 432.304 355.904 432.304C356.309 432.304 356.657 432.226 356.948 432.069C357.239 431.911 357.461 431.694 357.615 431.42C357.772 431.143 357.85 430.827 357.85 430.471V425.727ZM361.089 433V425.727H361.97V432.219H365.35V433H361.089Z" fill="#615E83"/>
<path d="M396.847 433H395.923L398.594 425.727H399.503L402.173 433H401.25L399.077 426.878H399.02L396.847 433ZM397.187 430.159H400.909V430.94H397.187V430.159ZM408.536 428C408.458 427.761 408.355 427.547 408.227 427.357C408.101 427.165 407.951 427.002 407.776 426.867C407.603 426.732 407.407 426.629 407.186 426.558C406.966 426.487 406.725 426.452 406.462 426.452C406.031 426.452 405.639 426.563 405.287 426.785C404.934 427.008 404.653 427.336 404.445 427.769C404.237 428.202 404.132 428.734 404.132 429.364C404.132 429.993 404.238 430.525 404.449 430.958C404.659 431.391 404.944 431.719 405.304 431.942C405.664 432.164 406.069 432.275 406.519 432.275C406.935 432.275 407.302 432.187 407.62 432.009C407.939 431.829 408.188 431.576 408.365 431.249C408.545 430.92 408.635 430.533 408.635 430.088L408.905 430.145H406.718V429.364H409.488V430.145C409.488 430.744 409.36 431.265 409.104 431.707C408.851 432.15 408.5 432.493 408.053 432.737C407.608 432.979 407.096 433.099 406.519 433.099C405.875 433.099 405.309 432.948 404.821 432.645C404.336 432.342 403.957 431.911 403.685 431.352C403.415 430.793 403.28 430.131 403.28 429.364C403.28 428.788 403.357 428.271 403.511 427.812C403.667 427.35 403.887 426.957 404.172 426.633C404.456 426.308 404.792 426.06 405.18 425.887C405.568 425.714 405.996 425.628 406.462 425.628C406.846 425.628 407.203 425.686 407.534 425.802C407.868 425.915 408.165 426.078 408.426 426.288C408.689 426.497 408.908 426.746 409.083 427.038C409.258 427.326 409.379 427.647 409.445 428H408.536ZM417.732 429.364C417.732 430.131 417.594 430.793 417.317 431.352C417.04 431.911 416.66 432.342 416.177 432.645C415.694 432.948 415.142 433.099 414.522 433.099C413.902 433.099 413.35 432.948 412.867 432.645C412.384 432.342 412.004 431.911 411.727 431.352C411.45 430.793 411.312 430.131 411.312 429.364C411.312 428.596 411.45 427.934 411.727 427.375C412.004 426.816 412.384 426.385 412.867 426.082C413.35 425.779 413.902 425.628 414.522 425.628C415.142 425.628 415.694 425.779 416.177 426.082C416.66 426.385 417.04 426.816 417.317 427.375C417.594 427.934 417.732 428.596 417.732 429.364ZM416.88 429.364C416.88 428.734 416.775 428.202 416.564 427.769C416.356 427.336 416.073 427.008 415.715 426.785C415.36 426.563 414.962 426.452 414.522 426.452C414.082 426.452 413.683 426.563 413.325 426.785C412.97 427.008 412.687 427.336 412.477 427.769C412.268 428.202 412.164 428.734 412.164 429.364C412.164 429.993 412.268 430.525 412.477 430.958C412.687 431.391 412.97 431.719 413.325 431.942C413.683 432.164 414.082 432.275 414.522 432.275C414.962 432.275 415.36 432.164 415.715 431.942C416.073 431.719 416.356 431.391 416.564 430.958C416.775 430.525 416.88 429.993 416.88 429.364Z" fill="#615E83"/>
<path d="M453.873 427.545C453.831 427.185 453.658 426.906 453.355 426.707C453.052 426.508 452.68 426.409 452.24 426.409C451.918 426.409 451.636 426.461 451.394 426.565C451.155 426.669 450.968 426.813 450.833 426.995C450.701 427.177 450.635 427.384 450.635 427.616C450.635 427.81 450.681 427.977 450.773 428.117C450.868 428.254 450.988 428.369 451.135 428.462C451.282 428.551 451.436 428.626 451.597 428.685C451.758 428.742 451.906 428.788 452.041 428.824L452.779 429.023C452.969 429.072 453.18 429.141 453.412 429.229C453.646 429.316 453.87 429.436 454.083 429.587C454.298 429.736 454.476 429.928 454.615 430.163C454.755 430.397 454.825 430.685 454.825 431.025C454.825 431.418 454.722 431.774 454.516 432.091C454.312 432.408 454.014 432.66 453.621 432.847C453.23 433.034 452.756 433.128 452.197 433.128C451.676 433.128 451.225 433.044 450.844 432.876C450.465 432.708 450.167 432.473 449.949 432.172C449.734 431.872 449.612 431.523 449.583 431.125H450.493C450.516 431.399 450.609 431.627 450.769 431.807C450.933 431.984 451.139 432.117 451.387 432.204C451.638 432.29 451.908 432.332 452.197 432.332C452.533 432.332 452.835 432.278 453.103 432.169C453.37 432.058 453.582 431.904 453.738 431.707C453.894 431.508 453.973 431.276 453.973 431.011C453.973 430.77 453.905 430.573 453.77 430.422C453.635 430.27 453.458 430.147 453.238 430.052C453.017 429.958 452.779 429.875 452.524 429.804L451.629 429.548C451.061 429.385 450.611 429.152 450.279 428.849C449.948 428.546 449.782 428.149 449.782 427.659C449.782 427.252 449.892 426.897 450.113 426.594C450.335 426.288 450.633 426.051 451.007 425.883C451.384 425.713 451.804 425.628 452.268 425.628C452.737 425.628 453.153 425.712 453.518 425.88C453.883 426.046 454.171 426.273 454.385 426.562C454.6 426.85 454.714 427.178 454.725 427.545H453.873ZM456.873 433V425.727H461.262V426.508H457.754V428.966H461.035V429.747H457.754V432.219H461.319V433H456.873ZM463.052 426.508V425.727H468.506V426.508H466.219V433H465.339V426.508H463.052Z" fill="#615E83"/>
<path d="M505.694 429.364C505.694 430.131 505.556 430.793 505.279 431.352C505.002 431.911 504.622 432.342 504.139 432.645C503.656 432.948 503.104 433.099 502.484 433.099C501.864 433.099 501.312 432.948 500.829 432.645C500.346 432.342 499.966 431.911 499.689 431.352C499.412 430.793 499.274 430.131 499.274 429.364C499.274 428.596 499.412 427.934 499.689 427.375C499.966 426.816 500.346 426.385 500.829 426.082C501.312 425.779 501.864 425.628 502.484 425.628C503.104 425.628 503.656 425.779 504.139 426.082C504.622 426.385 505.002 426.816 505.279 427.375C505.556 427.934 505.694 428.596 505.694 429.364ZM504.842 429.364C504.842 428.734 504.737 428.202 504.526 427.769C504.318 427.336 504.035 427.008 503.677 426.785C503.322 426.563 502.925 426.452 502.484 426.452C502.044 426.452 501.645 426.563 501.287 426.785C500.932 427.008 500.649 427.336 500.439 427.769C500.23 428.202 500.126 428.734 500.126 429.364C500.126 429.993 500.23 430.525 500.439 430.958C500.649 431.391 500.932 431.719 501.287 431.942C501.645 432.164 502.044 432.275 502.484 432.275C502.925 432.275 503.322 432.164 503.677 431.942C504.035 431.719 504.318 431.391 504.526 430.958C504.737 430.525 504.842 429.993 504.842 429.364ZM512.548 425.727H513.429V430.542C513.429 431.04 513.311 431.484 513.077 431.874C512.845 432.262 512.517 432.569 512.093 432.794C511.67 433.016 511.172 433.128 510.602 433.128C510.031 433.128 509.534 433.016 509.11 432.794C508.687 432.569 508.358 432.262 508.123 431.874C507.891 431.484 507.775 431.04 507.775 430.542V425.727H508.656V430.471C508.656 430.827 508.734 431.143 508.89 431.42C509.047 431.694 509.269 431.911 509.558 432.069C509.849 432.226 510.197 432.304 510.602 432.304C511.007 432.304 511.355 432.226 511.646 432.069C511.937 431.911 512.16 431.694 512.314 431.42C512.47 431.143 512.548 430.827 512.548 430.471V425.727ZM515.39 426.508V425.727H520.844V426.508H518.557V433H517.677V426.508H515.39Z" fill="#615E83"/>
<path d="M557.266 425.727V433H556.414L552.451 427.29H552.38V433H551.499V425.727H552.352L556.329 431.452H556.4V425.727H557.266ZM565.765 429.364C565.765 430.131 565.627 430.793 565.35 431.352C565.073 431.911 564.693 432.342 564.21 432.645C563.727 432.948 563.175 433.099 562.555 433.099C561.935 433.099 561.383 432.948 560.9 432.645C560.417 432.342 560.037 431.911 559.76 431.352C559.483 430.793 559.345 430.131 559.345 429.364C559.345 428.596 559.483 427.934 559.76 427.375C560.037 426.816 560.417 426.385 560.9 426.082C561.383 425.779 561.935 425.628 562.555 425.628C563.175 425.628 563.727 425.779 564.21 426.082C564.693 426.385 565.073 426.816 565.35 427.375C565.627 427.934 565.765 428.596 565.765 429.364ZM564.913 429.364C564.913 428.734 564.807 428.202 564.597 427.769C564.388 427.336 564.106 427.008 563.748 426.785C563.393 426.563 562.995 426.452 562.555 426.452C562.115 426.452 561.716 426.563 561.358 426.785C561.003 427.008 560.72 427.336 560.509 427.769C560.301 428.202 560.197 428.734 560.197 429.364C560.197 429.993 560.301 430.525 560.509 430.958C560.72 431.391 561.003 431.719 561.358 431.942C561.716 432.164 562.115 432.275 562.555 432.275C562.995 432.275 563.393 432.164 563.748 431.942C564.106 431.719 564.388 431.391 564.597 430.958C564.807 430.525 564.913 429.993 564.913 429.364ZM567.802 425.727L569.962 431.849H570.047L572.206 425.727H573.129L570.459 433H569.55L566.879 425.727H567.802Z" fill="#615E83"/>
<path d="M603.818 433H601.574V425.727H603.917C604.623 425.727 605.227 425.873 605.728 426.164C606.23 426.453 606.615 426.868 606.883 427.41C607.15 427.95 607.284 428.596 607.284 429.349C607.284 430.107 607.149 430.759 606.879 431.306C606.609 431.85 606.216 432.27 605.7 432.563C605.184 432.854 604.557 433 603.818 433ZM602.454 432.219H603.761C604.362 432.219 604.861 432.103 605.256 431.871C605.652 431.639 605.946 431.308 606.14 430.88C606.335 430.451 606.432 429.941 606.432 429.349C606.432 428.762 606.336 428.257 606.144 427.833C605.952 427.407 605.666 427.08 605.285 426.853C604.903 426.623 604.429 426.508 603.861 426.508H602.454V432.219ZM609.361 433V425.727H613.75V426.508H610.242V428.966H613.523V429.747H610.242V432.219H613.807V433H609.361ZM615.696 433V432.361L619.617 426.508H615.654V425.727H620.668V426.366L616.747 432.219H620.71V433H615.696Z" fill="#615E83"/>
<path d="M11.2384 127.727V135H10.3577V128.651H10.3151L8.53951 129.83V128.935L10.3577 127.727H11.2384ZM14.1645 134.006L14.1077 134.389C14.0674 134.659 14.0059 134.948 13.923 135.256C13.8425 135.564 13.7585 135.854 13.6709 136.126C13.5833 136.398 13.5111 136.615 13.4543 136.776H12.8151C12.8459 136.624 12.8861 136.424 12.9358 136.176C12.9855 135.927 13.0352 135.649 13.085 135.341C13.137 135.036 13.1797 134.723 13.2128 134.404L13.2554 134.006H14.1645ZM17.8213 135.1C17.2863 135.1 16.8305 134.954 16.4541 134.663C16.0777 134.369 15.79 133.944 15.5912 133.388C15.3923 132.829 15.2929 132.154 15.2929 131.364C15.2929 130.578 15.3923 129.907 15.5912 129.35C15.7924 128.792 16.0812 128.365 16.4577 128.072C16.8364 127.776 17.291 127.628 17.8213 127.628C18.3516 127.628 18.805 127.776 19.1814 128.072C19.5602 128.365 19.849 128.792 20.0479 129.35C20.2491 129.907 20.3497 130.578 20.3497 131.364C20.3497 132.154 20.2503 132.829 20.0514 133.388C19.8525 133.944 19.5649 134.369 19.1885 134.663C18.8121 134.954 18.3563 135.1 17.8213 135.1ZM17.8213 134.318C18.3516 134.318 18.7635 134.063 19.0571 133.551C19.3506 133.04 19.4974 132.311 19.4974 131.364C19.4974 130.734 19.43 130.198 19.295 129.755C19.1624 129.312 18.9707 128.975 18.7197 128.743C18.4711 128.511 18.1717 128.395 17.8213 128.395C17.2957 128.395 16.885 128.654 16.589 129.173C16.2931 129.689 16.1452 130.419 16.1452 131.364C16.1452 131.993 16.2114 132.529 16.344 132.969C16.4766 133.409 16.6672 133.744 16.9157 133.974C17.1667 134.203 17.4685 134.318 17.8213 134.318ZM25.4065 133.636V133.253C25.4065 132.988 25.461 132.745 25.5699 132.525C25.6811 132.302 25.8421 132.125 26.0528 131.992C26.2659 131.857 26.5239 131.79 26.827 131.79C27.1347 131.79 27.3928 131.857 27.6011 131.992C27.8095 132.125 27.9669 132.302 28.0734 132.525C28.18 132.745 28.2332 132.988 28.2332 133.253V133.636C28.2332 133.902 28.1788 134.145 28.0699 134.368C27.9633 134.588 27.8047 134.766 27.594 134.901C27.3857 135.033 27.13 135.1 26.827 135.1C26.5192 135.1 26.26 135.033 26.0493 134.901C25.8386 134.766 25.6788 134.588 25.5699 134.368C25.461 134.145 25.4065 133.902 25.4065 133.636ZM26.1309 133.253V133.636C26.1309 133.857 26.183 134.054 26.2872 134.23C26.3914 134.402 26.5713 134.489 26.827 134.489C27.0756 134.489 27.2507 134.402 27.3525 134.23C27.4567 134.054 27.5088 133.857 27.5088 133.636V133.253C27.5088 133.033 27.4591 132.836 27.3596 132.663C27.2602 132.488 27.0827 132.401 26.827 132.401C26.5784 132.401 26.3997 132.488 26.2907 132.663C26.1842 132.836 26.1309 133.033 26.1309 133.253ZM21.7844 129.475V129.091C21.7844 128.826 21.8388 128.583 21.9477 128.363C22.059 128.141 22.22 127.963 22.4307 127.83C22.6437 127.695 22.9018 127.628 23.2048 127.628C23.5126 127.628 23.7706 127.695 23.979 127.83C24.1873 127.963 24.3447 128.141 24.4513 128.363C24.5578 128.583 24.6111 128.826 24.6111 129.091V129.475C24.6111 129.74 24.5566 129.984 24.4477 130.206C24.3412 130.426 24.1826 130.604 23.9719 130.739C23.7635 130.871 23.5078 130.938 23.2048 130.938C22.897 130.938 22.6378 130.871 22.4271 130.739C22.2164 130.604 22.0566 130.426 21.9477 130.206C21.8388 129.984 21.7844 129.74 21.7844 129.475ZM22.5088 129.091V129.475C22.5088 129.695 22.5609 129.892 22.665 130.068C22.7692 130.24 22.9491 130.327 23.2048 130.327C23.4534 130.327 23.6286 130.24 23.7304 130.068C23.8345 129.892 23.8866 129.695 23.8866 129.475V129.091C23.8866 128.871 23.8369 128.674 23.7375 128.502C23.6381 128.326 23.4605 128.239 23.2048 128.239C22.9562 128.239 22.7775 128.326 22.6686 128.502C22.5621 128.674 22.5088 128.871 22.5088 129.091ZM22.0542 135L27.0542 127.727H27.8639L22.8639 135H22.0542Z" fill="#615E83"/>
<path d="M10.1943 188.6C9.6593 188.6 9.20357 188.454 8.82715 188.163C8.45073 187.869 8.16309 187.444 7.96422 186.888C7.76536 186.329 7.66593 185.654 7.66593 184.864C7.66593 184.078 7.76536 183.407 7.96422 182.85C8.16545 182.292 8.45428 181.865 8.8307 181.572C9.20949 181.276 9.66403 181.128 10.1943 181.128C10.7246 181.128 11.178 181.276 11.5544 181.572C11.9332 181.865 12.222 182.292 12.4209 182.85C12.6221 183.407 12.7227 184.078 12.7227 184.864C12.7227 185.654 12.6233 186.329 12.4244 186.888C12.2256 187.444 11.9379 187.869 11.5615 188.163C11.1851 188.454 10.7294 188.6 10.1943 188.6ZM10.1943 187.818C10.7246 187.818 11.1366 187.563 11.4301 187.051C11.7237 186.54 11.8705 185.811 11.8705 184.864C11.8705 184.234 11.803 183.698 11.6681 183.255C11.5355 182.812 11.3437 182.475 11.0928 182.243C10.8442 182.011 10.5447 181.895 10.1943 181.895C9.66877 181.895 9.25802 182.154 8.96209 182.673C8.66616 183.189 8.5182 183.919 8.5182 184.864C8.5182 185.493 8.58449 186.029 8.71706 186.469C8.84964 186.909 9.04022 187.244 9.2888 187.474C9.53974 187.703 9.84159 187.818 10.1943 187.818ZM15.0825 187.506L15.0257 187.889C14.9854 188.159 14.9239 188.448 14.841 188.756C14.7605 189.064 14.6765 189.354 14.5889 189.626C14.5013 189.898 14.4291 190.115 14.3722 190.276H13.733C13.7638 190.124 13.8041 189.924 13.8538 189.676C13.9035 189.427 13.9532 189.149 14.0029 188.841C14.055 188.536 14.0976 188.223 14.1308 187.904L14.1734 187.506H15.0825ZM18.7259 188.6C18.2383 188.6 17.8074 188.513 17.4333 188.34C17.0616 188.165 16.7716 187.925 16.5633 187.619C16.355 187.312 16.252 186.961 16.2544 186.568C16.252 186.261 16.3124 185.976 16.4355 185.716C16.5586 185.453 16.7267 185.234 16.9397 185.059C17.1552 184.882 17.3954 184.769 17.6606 184.722V184.679C17.3126 184.589 17.0356 184.394 16.8296 184.093C16.6237 183.79 16.5219 183.446 16.5242 183.06C16.5219 182.69 16.6154 182.36 16.8048 182.069C16.9942 181.778 17.2546 181.548 17.586 181.38C17.9198 181.212 18.2998 181.128 18.7259 181.128C19.1473 181.128 19.5238 181.212 19.8552 181.38C20.1866 181.548 20.4471 181.778 20.6365 182.069C20.8282 182.36 20.9253 182.69 20.9276 183.06C20.9253 183.446 20.8199 183.79 20.6116 184.093C20.4056 184.394 20.1322 184.589 19.7913 184.679V184.722C20.0541 184.769 20.2908 184.882 20.5015 185.059C20.7122 185.234 20.8803 185.453 21.0058 185.716C21.1312 185.976 21.1952 186.261 21.1975 186.568C21.1952 186.961 21.0886 187.312 20.8779 187.619C20.6696 187.925 20.3796 188.165 20.0079 188.34C19.6386 188.513 19.2113 188.6 18.7259 188.6ZM18.7259 187.818C19.055 187.818 19.3391 187.765 19.5782 187.659C19.8173 187.552 20.002 187.402 20.1322 187.208C20.2624 187.013 20.3287 186.786 20.3311 186.526C20.3287 186.251 20.2577 186.008 20.118 185.798C19.9783 185.587 19.7877 185.421 19.5463 185.301C19.3071 185.18 19.0337 185.119 18.7259 185.119C18.4158 185.119 18.1388 185.18 17.895 185.301C17.6535 185.421 17.4629 185.587 17.3232 185.798C17.1859 186.008 17.1185 186.251 17.1208 186.526C17.1185 186.786 17.1812 187.013 17.309 187.208C17.4392 187.402 17.6251 187.552 17.8666 187.659C18.108 187.765 18.3945 187.818 18.7259 187.818ZM18.7259 184.367C18.9864 184.367 19.2172 184.315 19.4184 184.21C19.622 184.106 19.7818 183.961 19.8978 183.774C20.0138 183.587 20.073 183.368 20.0754 183.117C20.073 182.87 20.015 182.656 19.9014 182.474C19.7877 182.289 19.6303 182.147 19.4291 182.048C19.2278 181.946 18.9935 181.895 18.7259 181.895C18.4537 181.895 18.2158 181.946 18.0122 182.048C17.8086 182.147 17.6511 182.289 17.5399 182.474C17.4286 182.656 17.3741 182.87 17.3765 183.117C17.3741 183.368 17.4298 183.587 17.5434 183.774C17.6594 183.961 17.8192 184.106 18.0228 184.21C18.2264 184.315 18.4608 184.367 18.7259 184.367ZM26.2659 187.136V186.753C26.2659 186.488 26.3203 186.245 26.4292 186.025C26.5405 185.802 26.7015 185.625 26.9122 185.492C27.1253 185.357 27.3833 185.29 27.6863 185.29C27.9941 185.29 28.2522 185.357 28.4605 185.492C28.6688 185.625 28.8263 185.802 28.9328 186.025C29.0393 186.245 29.0926 186.488 29.0926 186.753V187.136C29.0926 187.402 29.0381 187.645 28.9292 187.868C28.8227 188.088 28.6641 188.266 28.4534 188.401C28.2451 188.533 27.9894 188.6 27.6863 188.6C27.3786 188.6 27.1193 188.533 26.9086 188.401C26.6979 188.266 26.5381 188.088 26.4292 187.868C26.3203 187.645 26.2659 187.402 26.2659 187.136ZM26.9903 186.753V187.136C26.9903 187.357 27.0424 187.554 27.1466 187.73C27.2507 187.902 27.4307 187.989 27.6863 187.989C27.9349 187.989 28.1101 187.902 28.2119 187.73C28.3161 187.554 28.3682 187.357 28.3682 187.136V186.753C28.3682 186.533 28.3184 186.336 28.219 186.163C28.1196 185.988 27.942 185.901 27.6863 185.901C27.4378 185.901 27.259 185.988 27.1501 186.163C27.0436 186.336 26.9903 186.533 26.9903 186.753ZM22.6437 182.975V182.591C22.6437 182.326 22.6982 182.083 22.8071 181.863C22.9184 181.641 23.0793 181.463 23.29 181.33C23.5031 181.195 23.7612 181.128 24.0642 181.128C24.372 181.128 24.63 181.195 24.8383 181.33C25.0467 181.463 25.2041 181.641 25.3106 181.863C25.4172 182.083 25.4704 182.326 25.4704 182.591V182.975C25.4704 183.24 25.416 183.484 25.3071 183.706C25.2006 183.926 25.0419 184.104 24.8312 184.239C24.6229 184.371 24.3672 184.438 24.0642 184.438C23.7564 184.438 23.4972 184.371 23.2865 184.239C23.0758 184.104 22.916 183.926 22.8071 183.706C22.6982 183.484 22.6437 183.24 22.6437 182.975ZM23.3682 182.591V182.975C23.3682 183.195 23.4202 183.392 23.5244 183.568C23.6286 183.74 23.8085 183.827 24.0642 183.827C24.3128 183.827 24.488 183.74 24.5898 183.568C24.6939 183.392 24.746 183.195 24.746 182.975V182.591C24.746 182.371 24.6963 182.174 24.5969 182.002C24.4974 181.826 24.3199 181.739 24.0642 181.739C23.8156 181.739 23.6369 181.826 23.528 182.002C23.4214 182.174 23.3682 182.371 23.3682 182.591ZM22.9136 188.5L27.9136 181.227H28.7233L23.7233 188.5H22.9136Z" fill="#615E83"/>
<path d="M10.1699 242.1C9.63488 242.1 9.17915 241.954 8.80273 241.663C8.42631 241.369 8.13867 240.944 7.93981 240.388C7.74094 239.829 7.64151 239.154 7.64151 238.364C7.64151 237.578 7.74094 236.907 7.93981 236.35C8.14104 235.792 8.42987 235.365 8.80629 235.072C9.18507 234.776 9.63962 234.628 10.1699 234.628C10.7002 234.628 11.1536 234.776 11.53 235.072C11.9088 235.365 12.1976 235.792 12.3965 236.35C12.5977 236.907 12.6983 237.578 12.6983 238.364C12.6983 239.154 12.5989 239.829 12.4 240.388C12.2012 240.944 11.9135 241.369 11.5371 241.663C11.1607 241.954 10.705 242.1 10.1699 242.1ZM10.1699 241.318C10.7002 241.318 11.1122 241.063 11.4057 240.551C11.6993 240.04 11.8461 239.311 11.8461 238.364C11.8461 237.734 11.7786 237.198 11.6436 236.755C11.5111 236.312 11.3193 235.975 11.0684 235.743C10.8198 235.511 10.5203 235.395 10.1699 235.395C9.64435 235.395 9.23361 235.654 8.93768 236.173C8.64175 236.689 8.49379 237.419 8.49379 238.364C8.49379 238.993 8.56007 239.529 8.69265 239.969C8.82522 240.409 9.0158 240.744 9.26438 240.974C9.51533 241.203 9.81718 241.318 10.1699 241.318ZM15.0581 241.006L15.0012 241.389C14.961 241.659 14.8994 241.948 14.8166 242.256C14.7361 242.564 14.652 242.854 14.5645 243.126C14.4769 243.398 14.4047 243.615 14.3478 243.776H13.7086C13.7394 243.624 13.7797 243.424 13.8294 243.176C13.8791 242.927 13.9288 242.649 13.9785 242.341C14.0306 242.036 14.0732 241.723 14.1064 241.404L14.149 241.006H15.0581ZM18.7575 242.1C18.4592 242.095 18.1609 242.038 17.8626 241.929C17.5643 241.82 17.292 241.637 17.0458 241.379C16.7996 241.118 16.6019 240.767 16.4528 240.324C16.3036 239.879 16.229 239.32 16.229 238.648C16.229 238.004 16.2894 237.433 16.4102 236.936C16.5309 236.437 16.7061 236.016 16.9357 235.676C17.1654 235.332 17.4424 235.072 17.7667 234.894C18.0934 234.717 18.4615 234.628 18.8711 234.628C19.2783 234.628 19.6405 234.71 19.9577 234.873C20.2773 235.034 20.5378 235.259 20.739 235.548C20.9402 235.837 21.0704 236.169 21.1296 236.546H20.2631C20.1826 236.219 20.0264 235.948 19.7944 235.732C19.5624 235.517 19.2546 235.409 18.8711 235.409C18.3076 235.409 17.8638 235.654 17.5394 236.144C17.2174 236.634 17.0553 237.322 17.0529 238.208H17.1097C17.2423 238.006 17.3997 237.835 17.582 237.693C17.7667 237.548 17.9703 237.437 18.1928 237.359C18.4154 237.281 18.6509 237.242 18.8995 237.242C19.3162 237.242 19.6973 237.346 20.043 237.554C20.3886 237.76 20.6656 238.045 20.8739 238.41C21.0823 238.772 21.1864 239.188 21.1864 239.656C21.1864 240.106 21.0858 240.518 20.8846 240.892C20.6834 241.264 20.4004 241.56 20.0359 241.78C19.6737 241.998 19.2475 242.104 18.7575 242.1ZM18.7575 241.318C19.0558 241.318 19.3233 241.244 19.56 241.095C19.7991 240.945 19.9873 240.745 20.1246 240.494C20.2643 240.243 20.3342 239.964 20.3342 239.656C20.3342 239.356 20.2667 239.082 20.1317 238.836C19.9992 238.587 19.8157 238.39 19.5813 238.243C19.3493 238.096 19.0842 238.023 18.7859 238.023C18.561 238.023 18.3514 238.068 18.1573 238.158C17.9632 238.245 17.7927 238.366 17.646 238.52C17.5015 238.674 17.3879 238.85 17.305 239.049C17.2222 239.246 17.1808 239.453 17.1808 239.671C17.1808 239.959 17.2482 240.229 17.3832 240.48C17.5205 240.731 17.7075 240.934 17.9442 241.087C18.1834 241.241 18.4544 241.318 18.7575 241.318ZM26.2903 240.636V240.253C26.2903 239.988 26.3448 239.745 26.4537 239.525C26.5649 239.302 26.7259 239.125 26.9366 238.992C27.1497 238.857 27.4077 238.79 27.7108 238.79C28.0185 238.79 28.2766 238.857 28.4849 238.992C28.6932 239.125 28.8507 239.302 28.9572 239.525C29.0637 239.745 29.117 239.988 29.117 240.253V240.636C29.117 240.902 29.0626 241.145 28.9537 241.368C28.8471 241.588 28.6885 241.766 28.4778 241.901C28.2695 242.033 28.0138 242.1 27.7108 242.1C27.403 242.1 27.1438 242.033 26.9331 241.901C26.7224 241.766 26.5626 241.588 26.4537 241.368C26.3448 241.145 26.2903 240.902 26.2903 240.636ZM27.0147 240.253V240.636C27.0147 240.857 27.0668 241.054 27.171 241.23C27.2752 241.402 27.4551 241.489 27.7108 241.489C27.9593 241.489 28.1345 241.402 28.2363 241.23C28.3405 241.054 28.3926 240.857 28.3926 240.636V240.253C28.3926 240.033 28.3429 239.836 28.2434 239.663C28.144 239.488 27.9664 239.401 27.7108 239.401C27.4622 239.401 27.2834 239.488 27.1745 239.663C27.068 239.836 27.0147 240.033 27.0147 240.253ZM22.6681 236.475V236.091C22.6681 235.826 22.7226 235.583 22.8315 235.363C22.9428 235.141 23.1038 234.963 23.3145 234.83C23.5275 234.695 23.7856 234.628 24.0886 234.628C24.3964 234.628 24.6544 234.695 24.8627 234.83C25.0711 234.963 25.2285 235.141 25.335 235.363C25.4416 235.583 25.4949 235.826 25.4949 236.091V236.475C25.4949 236.74 25.4404 236.984 25.3315 237.206C25.225 237.426 25.0663 237.604 24.8556 237.739C24.6473 237.871 24.3916 237.938 24.0886 237.938C23.7808 237.938 23.5216 237.871 23.3109 237.739C23.1002 237.604 22.9404 237.426 22.8315 237.206C22.7226 236.984 22.6681 236.74 22.6681 236.475ZM23.3926 236.091V236.475C23.3926 236.695 23.4447 236.892 23.5488 237.068C23.653 237.24 23.8329 237.327 24.0886 237.327C24.3372 237.327 24.5124 237.24 24.6142 237.068C24.7183 236.892 24.7704 236.695 24.7704 236.475V236.091C24.7704 235.871 24.7207 235.674 24.6213 235.502C24.5218 235.326 24.3443 235.239 24.0886 235.239C23.84 235.239 23.6613 235.326 23.5524 235.502C23.4458 235.674 23.3926 235.871 23.3926 236.091ZM22.938 242L27.938 234.727H28.7477L23.7477 242H22.938Z" fill="#615E83"/>
<path d="M9.95508 295.6C9.42004 295.6 8.96431 295.454 8.58789 295.163C8.21147 294.869 7.92383 294.444 7.72496 293.888C7.5261 293.329 7.42667 292.654 7.42667 291.864C7.42667 291.078 7.5261 290.407 7.72496 289.85C7.9262 289.292 8.21502 288.865 8.59144 288.572C8.97023 288.276 9.42478 288.128 9.95508 288.128C10.4854 288.128 10.9387 288.276 11.3152 288.572C11.694 288.865 11.9828 289.292 12.1816 289.85C12.3829 290.407 12.4835 291.078 12.4835 291.864C12.4835 292.654 12.3841 293.329 12.1852 293.888C11.9863 294.444 11.6987 294.869 11.3223 295.163C10.9458 295.454 10.4901 295.6 9.95508 295.6ZM9.95508 294.818C10.4854 294.818 10.8973 294.563 11.1909 294.051C11.4844 293.54 11.6312 292.811 11.6312 291.864C11.6312 291.234 11.5637 290.698 11.4288 290.255C11.2962 289.812 11.1045 289.475 10.8535 289.243C10.6049 289.011 10.3055 288.895 9.95508 288.895C9.42951 288.895 9.01876 289.154 8.72283 289.673C8.42691 290.189 8.27894 290.919 8.27894 291.864C8.27894 292.493 8.34523 293.029 8.47781 293.469C8.61038 293.909 8.80096 294.244 9.04954 294.474C9.30049 294.703 9.60233 294.818 9.95508 294.818ZM14.8432 294.506L14.7864 294.889C14.7462 295.159 14.6846 295.448 14.6017 295.756C14.5212 296.064 14.4372 296.354 14.3496 296.626C14.262 296.898 14.1898 297.115 14.133 297.276H13.4938C13.5246 297.124 13.5648 296.924 13.6145 296.676C13.6642 296.427 13.714 296.149 13.7637 295.841C13.8158 295.536 13.8584 295.223 13.8915 294.904L13.9341 294.506H14.8432ZM16.2113 294.009V293.284L19.4073 288.227H19.9329V289.35H19.5778L17.163 293.171V293.227H21.467V294.009H16.2113ZM19.6346 295.5V293.788V293.451V288.227H20.4727V295.5H19.6346ZM26.5051 294.136V293.753C26.5051 293.488 26.5596 293.245 26.6685 293.025C26.7798 292.802 26.9408 292.625 27.1515 292.492C27.3645 292.357 27.6226 292.29 27.9256 292.29C28.2334 292.29 28.4914 292.357 28.6998 292.492C28.9081 292.625 29.0655 292.802 29.1721 293.025C29.2786 293.245 29.3319 293.488 29.3319 293.753V294.136C29.3319 294.402 29.2774 294.645 29.1685 294.868C29.062 295.088 28.9034 295.266 28.6926 295.401C28.4843 295.533 28.2286 295.6 27.9256 295.6C27.6178 295.6 27.3586 295.533 27.1479 295.401C26.9372 295.266 26.7774 295.088 26.6685 294.868C26.5596 294.645 26.5051 294.402 26.5051 294.136ZM27.2296 293.753V294.136C27.2296 294.357 27.2817 294.554 27.3858 294.73C27.49 294.902 27.6699 294.989 27.9256 294.989C28.1742 294.989 28.3494 294.902 28.4512 294.73C28.5553 294.554 28.6074 294.357 28.6074 294.136V293.753C28.6074 293.533 28.5577 293.336 28.4583 293.163C28.3588 292.988 28.1813 292.901 27.9256 292.901C27.677 292.901 27.4983 292.988 27.3894 293.163C27.2828 293.336 27.2296 293.533 27.2296 293.753ZM22.883 289.975V289.591C22.883 289.326 22.9374 289.083 23.0463 288.863C23.1576 288.641 23.3186 288.463 23.5293 288.33C23.7424 288.195 24.0004 288.128 24.3034 288.128C24.6112 288.128 24.8693 288.195 25.0776 288.33C25.2859 288.463 25.4434 288.641 25.5499 288.863C25.6564 289.083 25.7097 289.326 25.7097 289.591V289.975C25.7097 290.24 25.6552 290.484 25.5463 290.706C25.4398 290.926 25.2812 291.104 25.0705 291.239C24.8622 291.371 24.6065 291.438 24.3034 291.438C23.9957 291.438 23.7364 291.371 23.5257 291.239C23.315 291.104 23.1552 290.926 23.0463 290.706C22.9374 290.484 22.883 290.24 22.883 289.975ZM23.6074 289.591V289.975C23.6074 290.195 23.6595 290.392 23.7637 290.568C23.8678 290.74 24.0478 290.827 24.3034 290.827C24.552 290.827 24.7272 290.74 24.829 290.568C24.9332 290.392 24.9853 290.195 24.9853 289.975V289.591C24.9853 289.371 24.9355 289.174 24.8361 289.002C24.7367 288.826 24.5591 288.739 24.3034 288.739C24.0549 288.739 23.8761 288.826 23.7672 289.002C23.6607 289.174 23.6074 289.371 23.6074 289.591ZM23.1529 295.5L28.1529 288.227H28.9625L23.9625 295.5H23.1529Z" fill="#615E83"/>
<path d="M10.1357 349.1C9.6007 349.1 9.14498 348.954 8.76855 348.663C8.39213 348.369 8.10449 347.944 7.90563 347.388C7.70676 346.829 7.60733 346.154 7.60733 345.364C7.60733 344.578 7.70676 343.907 7.90563 343.35C8.10686 342.792 8.39569 342.365 8.77211 342.072C9.15089 341.776 9.60544 341.628 10.1357 341.628C10.666 341.628 11.1194 341.776 11.4958 342.072C11.8746 342.365 12.1634 342.792 12.3623 343.35C12.5635 343.907 12.6642 344.578 12.6642 345.364C12.6642 346.154 12.5647 346.829 12.3659 347.388C12.167 347.944 11.8794 348.369 11.5029 348.663C11.1265 348.954 10.6708 349.1 10.1357 349.1ZM10.1357 348.318C10.666 348.318 11.078 348.063 11.3715 347.551C11.6651 347.04 11.8119 346.311 11.8119 345.364C11.8119 344.734 11.7444 344.198 11.6095 343.755C11.4769 343.312 11.2851 342.975 11.0342 342.743C10.7856 342.511 10.4861 342.395 10.1357 342.395C9.61017 342.395 9.19943 342.654 8.9035 343.173C8.60757 343.689 8.45961 344.419 8.45961 345.364C8.45961 345.993 8.52589 346.529 8.65847 346.969C8.79105 347.409 8.98162 347.744 9.2302 347.974C9.48115 348.203 9.783 348.318 10.1357 348.318ZM15.0239 348.006L14.9671 348.389C14.9268 348.659 14.8653 348.948 14.7824 349.256C14.7019 349.564 14.6179 349.854 14.5303 350.126C14.4427 350.398 14.3705 350.615 14.3137 350.776H13.6744C13.7052 350.624 13.7455 350.424 13.7952 350.176C13.8449 349.927 13.8946 349.649 13.9443 349.341C13.9964 349.036 14.039 348.723 14.0722 348.404L14.1148 348.006H15.0239ZM16.5624 349V348.361L18.963 345.733C19.2447 345.425 19.4767 345.158 19.659 344.931C19.8413 344.701 19.9762 344.485 20.0638 344.284C20.1538 344.081 20.1988 343.868 20.1988 343.645C20.1988 343.389 20.1372 343.168 20.0141 342.981C19.8934 342.794 19.7277 342.65 19.517 342.548C19.3063 342.446 19.0695 342.395 18.8067 342.395C18.5274 342.395 18.2835 342.453 18.0752 342.569C17.8692 342.683 17.7094 342.842 17.5958 343.048C17.4845 343.254 17.4289 343.496 17.4289 343.773H16.5908C16.5908 343.347 16.6891 342.973 16.8856 342.651C17.0821 342.329 17.3496 342.078 17.6881 341.898C18.029 341.718 18.4114 341.628 18.8351 341.628C19.2613 341.628 19.6389 341.718 19.968 341.898C20.297 342.078 20.5551 342.32 20.7421 342.626C20.9291 342.931 21.0226 343.271 21.0226 343.645C21.0226 343.913 20.9741 344.174 20.877 344.43C20.7823 344.683 20.6166 344.966 20.3799 345.279C20.1455 345.589 19.82 345.967 19.4033 346.415L17.7698 348.162V348.219H21.1505V349H16.5624ZM26.3245 347.636V347.253C26.3245 346.988 26.3789 346.745 26.4878 346.525C26.5991 346.302 26.7601 346.125 26.9708 345.992C27.1839 345.857 27.4419 345.79 27.7449 345.79C28.0527 345.79 28.3108 345.857 28.5191 345.992C28.7274 346.125 28.8849 346.302 28.9914 346.525C29.0979 346.745 29.1512 346.988 29.1512 347.253V347.636C29.1512 347.902 29.0967 348.145 28.9878 348.368C28.8813 348.588 28.7227 348.766 28.512 348.901C28.3037 349.033 28.048 349.1 27.7449 349.1C27.4372 349.1 27.1779 349.033 26.9672 348.901C26.7565 348.766 26.5967 348.588 26.4878 348.368C26.3789 348.145 26.3245 347.902 26.3245 347.636ZM27.0489 347.253V347.636C27.0489 347.857 27.101 348.054 27.2052 348.23C27.3093 348.402 27.4893 348.489 27.7449 348.489C27.9935 348.489 28.1687 348.402 28.2705 348.23C28.3747 348.054 28.4268 347.857 28.4268 347.636V347.253C28.4268 347.033 28.377 346.836 28.2776 346.663C28.1782 346.488 28.0006 346.401 27.7449 346.401C27.4964 346.401 27.3176 346.488 27.2087 346.663C27.1022 346.836 27.0489 347.033 27.0489 347.253ZM22.7023 343.475V343.091C22.7023 342.826 22.7568 342.583 22.8657 342.363C22.9769 342.141 23.1379 341.963 23.3486 341.83C23.5617 341.695 23.8198 341.628 24.1228 341.628C24.4305 341.628 24.6886 341.695 24.8969 341.83C25.1053 341.963 25.2627 342.141 25.3692 342.363C25.4758 342.583 25.529 342.826 25.529 343.091V343.475C25.529 343.74 25.4746 343.984 25.3657 344.206C25.2591 344.426 25.1005 344.604 24.8898 344.739C24.6815 344.871 24.4258 344.938 24.1228 344.938C23.815 344.938 23.5558 344.871 23.3451 344.739C23.1344 344.604 22.9746 344.426 22.8657 344.206C22.7568 343.984 22.7023 343.74 22.7023 343.475ZM23.4268 343.091V343.475C23.4268 343.695 23.4788 343.892 23.583 344.068C23.6872 344.24 23.8671 344.327 24.1228 344.327C24.3714 344.327 24.5465 344.24 24.6483 344.068C24.7525 343.892 24.8046 343.695 24.8046 343.475V343.091C24.8046 342.871 24.7549 342.674 24.6555 342.502C24.556 342.326 24.3785 342.239 24.1228 342.239C23.8742 342.239 23.6955 342.326 23.5866 342.502C23.48 342.674 23.4268 342.871 23.4268 343.091ZM22.9722 349L27.9722 341.727H28.7819L23.7819 349H22.9722Z" fill="#615E83"/>
<path d="M10.165 402.6C9.63 402.6 9.17427 402.454 8.79785 402.163C8.42143 401.869 8.13379 401.444 7.93493 400.888C7.73606 400.329 7.63663 399.654 7.63663 398.864C7.63663 398.078 7.73606 397.407 7.93493 396.85C8.13616 396.292 8.42498 395.865 8.8014 395.572C9.18019 395.276 9.63474 395.128 10.165 395.128C10.6953 395.128 11.1487 395.276 11.5251 395.572C11.9039 395.865 12.1927 396.292 12.3916 396.85C12.5928 397.407 12.6934 398.078 12.6934 398.864C12.6934 399.654 12.594 400.329 12.3952 400.888C12.1963 401.444 11.9086 401.869 11.5322 402.163C11.1558 402.454 10.7001 402.6 10.165 402.6ZM10.165 401.818C10.6953 401.818 11.1073 401.563 11.4008 401.051C11.6944 400.54 11.8412 399.811 11.8412 398.864C11.8412 398.234 11.7737 397.698 11.6388 397.255C11.5062 396.812 11.3144 396.475 11.0635 396.243C10.8149 396.011 10.5154 395.895 10.165 395.895C9.63947 395.895 9.22872 396.154 8.93279 396.673C8.63687 397.189 8.4889 397.919 8.4889 398.864C8.4889 399.493 8.55519 400.029 8.68777 400.469C8.82034 400.909 9.01092 401.244 9.2595 401.474C9.51045 401.703 9.81229 401.818 10.165 401.818ZM15.0532 401.506L14.9964 401.889C14.9561 402.159 14.8946 402.448 14.8117 402.756C14.7312 403.064 14.6472 403.354 14.5596 403.626C14.472 403.898 14.3998 404.115 14.343 404.276H13.7037C13.7345 404.124 13.7748 403.924 13.8245 403.676C13.8742 403.427 13.9239 403.149 13.9736 402.841C14.0257 402.536 14.0683 402.223 14.1015 401.904L14.1441 401.506H15.0532ZM18.71 402.6C18.1749 402.6 17.7192 402.454 17.3428 402.163C16.9664 401.869 16.6787 401.444 16.4798 400.888C16.281 400.329 16.1816 399.654 16.1816 398.864C16.1816 398.078 16.281 397.407 16.4798 396.85C16.6811 396.292 16.9699 395.865 17.3463 395.572C17.7251 395.276 18.1797 395.128 18.71 395.128C19.2403 395.128 19.6936 395.276 20.07 395.572C20.4488 395.865 20.7377 396.292 20.9365 396.85C21.1378 397.407 21.2384 398.078 21.2384 398.864C21.2384 399.654 21.1389 400.329 20.9401 400.888C20.7412 401.444 20.4536 401.869 20.0771 402.163C19.7007 402.454 19.245 402.6 18.71 402.6ZM18.71 401.818C19.2403 401.818 19.6522 401.563 19.9458 401.051C20.2393 400.54 20.3861 399.811 20.3861 398.864C20.3861 398.234 20.3186 397.698 20.1837 397.255C20.0511 396.812 19.8593 396.475 19.6084 396.243C19.3598 396.011 19.0603 395.895 18.71 395.895C18.1844 395.895 17.7736 396.154 17.4777 396.673C17.1818 397.189 17.0338 397.919 17.0338 398.864C17.0338 399.493 17.1001 400.029 17.2327 400.469C17.3653 400.909 17.5558 401.244 17.8044 401.474C18.0554 401.703 18.3572 401.818 18.71 401.818ZM26.2952 401.136V400.753C26.2952 400.488 26.3496 400.245 26.4585 400.025C26.5698 399.802 26.7308 399.625 26.9415 399.492C27.1546 399.357 27.4126 399.29 27.7156 399.29C28.0234 399.29 28.2815 399.357 28.4898 399.492C28.6981 399.625 28.8556 399.802 28.9621 400.025C29.0686 400.245 29.1219 400.488 29.1219 400.753V401.136C29.1219 401.402 29.0674 401.645 28.9585 401.868C28.852 402.088 28.6934 402.266 28.4827 402.401C28.2744 402.533 28.0187 402.6 27.7156 402.6C27.4079 402.6 27.1486 402.533 26.9379 402.401C26.7272 402.266 26.5674 402.088 26.4585 401.868C26.3496 401.645 26.2952 401.402 26.2952 401.136ZM27.0196 400.753V401.136C27.0196 401.357 27.0717 401.554 27.1759 401.73C27.28 401.902 27.46 401.989 27.7156 401.989C27.9642 401.989 28.1394 401.902 28.2412 401.73C28.3454 401.554 28.3975 401.357 28.3975 401.136V400.753C28.3975 400.533 28.3477 400.336 28.2483 400.163C28.1489 399.988 27.9713 399.901 27.7156 399.901C27.4671 399.901 27.2883 399.988 27.1794 400.163C27.0729 400.336 27.0196 400.533 27.0196 400.753ZM22.673 396.975V396.591C22.673 396.326 22.7275 396.083 22.8364 395.863C22.9477 395.641 23.1086 395.463 23.3193 395.33C23.5324 395.195 23.7905 395.128 24.0935 395.128C24.4012 395.128 24.6593 395.195 24.8676 395.33C25.076 395.463 25.2334 395.641 25.3399 395.863C25.4465 396.083 25.4997 396.326 25.4997 396.591V396.975C25.4997 397.24 25.4453 397.484 25.3364 397.706C25.2298 397.926 25.0712 398.104 24.8605 398.239C24.6522 398.371 24.3965 398.438 24.0935 398.438C23.7857 398.438 23.5265 398.371 23.3158 398.239C23.1051 398.104 22.9453 397.926 22.8364 397.706C22.7275 397.484 22.673 397.24 22.673 396.975ZM23.3975 396.591V396.975C23.3975 397.195 23.4495 397.392 23.5537 397.568C23.6579 397.74 23.8378 397.827 24.0935 397.827C24.3421 397.827 24.5173 397.74 24.6191 397.568C24.7232 397.392 24.7753 397.195 24.7753 396.975V396.591C24.7753 396.371 24.7256 396.174 24.6262 396.002C24.5267 395.826 24.3492 395.739 24.0935 395.739C23.8449 395.739 23.6662 395.826 23.5573 396.002C23.4507 396.174 23.3975 396.371 23.3975 396.591ZM22.9429 402.5L27.9429 395.227H28.7526L23.7526 402.5H22.9429Z" fill="#615E83"/>
<line x1="42.1572" y1="399.432" x2="620.063" y2="399.432" stroke="#E5E5EF" stroke-width="1.5" stroke-linecap="round"/>
<line x1="41.75" y1="344.25" x2="619.656" y2="344.25" stroke="#E5E5EF" stroke-width="1.5" stroke-linecap="round" stroke-dasharray="4 7"/>
<line x1="41.75" y1="291.25" x2="619.656" y2="291.25" stroke="#E5E5EF" stroke-width="1.5" stroke-linecap="round" stroke-dasharray="4 7"/>
<line x1="41.75" y1="238.25" x2="619.656" y2="238.25" stroke="#E5E5EF" stroke-width="1.5" stroke-linecap="round" stroke-dasharray="4 7"/>
<line x1="41.75" y1="185.25" x2="619.656" y2="185.25" stroke="#E5E5EF" stroke-width="1.5" stroke-linecap="round" stroke-dasharray="4 7"/>
<line x1="41.75" y1="132.25" x2="619.656" y2="132.25" stroke="#E5E5EF" stroke-width="1.5" stroke-linecap="round" stroke-dasharray="4 7"/>
<rect x="41" y="262" width="13" height="137" rx="3" fill="#41A4FF"/>
<rect x="92" y="246" width="13" height="153" rx="3" fill="#41A4FF"/>
<rect x="144" y="262" width="13" height="137" rx="3" fill="#41A4FF"/>
<rect x="195" y="337" width="13" height="62" rx="3" fill="#41A4FF"/>
<rect x="247" y="323" width="13" height="76" rx="3" fill="#41A4FF"/>
<rect x="298" y="335" width="13" height="64" rx="3" fill="#41A4FF"/>
<rect x="350" y="341" width="13" height="58" rx="3" fill="#41A4FF"/>
<rect x="401" y="205" width="13" height="194" rx="3" fill="#41A4FF"/>
<rect x="453" y="335" width="13" height="64" rx="3" fill="#41A4FF"/>
<rect x="504" y="369" width="13" height="30" rx="3" fill="#41A4FF"/>
<rect x="556" y="398" width="13" height="1" rx="0.5" fill="#0085FF"/>
<rect x="607" y="398" width="13" height="1" rx="0.5" fill="#0085FF"/>
<line x1="19.7087" y1="95.0338" x2="623.291" y2="95.0338" stroke="#E5E5EF"/>
<path d="M27.0625 72H21.3906V56H27.1094C28.7188 56 30.1042 56.3203 31.2656 56.9609C32.4271 57.5964 33.3203 58.5104 33.9453 59.7031C34.5755 60.8958 34.8906 62.3229 34.8906 63.9844C34.8906 65.651 34.5755 67.0833 33.9453 68.2812C33.3203 69.4792 32.4219 70.3984 31.25 71.0391C30.0833 71.6797 28.6875 72 27.0625 72ZM24.7734 69.1016H26.9219C27.9219 69.1016 28.763 68.9245 29.4453 68.5703C30.1328 68.2109 30.6484 67.6562 30.9922 66.9062C31.3411 66.151 31.5156 65.1771 31.5156 63.9844C31.5156 62.8021 31.3411 61.8359 30.9922 61.0859C30.6484 60.3359 30.1354 59.7839 29.4531 59.4297C28.7708 59.0755 27.9297 58.8984 26.9297 58.8984H24.7734V69.1016ZM37.334 72V60H40.6621V72H37.334ZM39.0059 58.4531C38.5111 58.4531 38.0866 58.2891 37.7324 57.9609C37.3835 57.6276 37.209 57.2292 37.209 56.7656C37.209 56.3073 37.3835 55.9141 37.7324 55.5859C38.0866 55.2526 38.5111 55.0859 39.0059 55.0859C39.5007 55.0859 39.9225 55.2526 40.2715 55.5859C40.6257 55.9141 40.8027 56.3073 40.8027 56.7656C40.8027 57.2292 40.6257 57.6276 40.2715 57.9609C39.9225 58.2891 39.5007 58.4531 39.0059 58.4531ZM54.5156 60L50.3203 72H46.5703L42.375 60H45.8906L48.3828 68.5859H48.5078L50.9922 60H54.5156ZM56.2188 72V60H59.5469V72H56.2188ZM57.8906 58.4531C57.3958 58.4531 56.9714 58.2891 56.6172 57.9609C56.2682 57.6276 56.0938 57.2292 56.0938 56.7656C56.0938 56.3073 56.2682 55.9141 56.6172 55.5859C56.9714 55.2526 57.3958 55.0859 57.8906 55.0859C58.3854 55.0859 58.8073 55.2526 59.1563 55.5859C59.5104 55.9141 59.6875 56.3073 59.6875 56.7656C59.6875 57.2292 59.5104 57.6276 59.1563 57.9609C58.8073 58.2891 58.3854 58.4531 57.8906 58.4531ZM66.6348 72.1953C65.7233 72.1953 64.8978 71.9609 64.1582 71.4922C63.4238 71.0182 62.8405 70.3229 62.4082 69.4062C61.9811 68.4844 61.7676 67.3542 61.7676 66.0156C61.7676 64.6406 61.9889 63.4974 62.4316 62.5859C62.8743 61.6693 63.4629 60.9844 64.1973 60.5313C64.9368 60.0729 65.7467 59.8438 66.627 59.8438C67.2988 59.8438 67.8587 59.9583 68.3066 60.1875C68.7598 60.4115 69.1243 60.6927 69.4004 61.0312C69.6816 61.3646 69.8952 61.6927 70.041 62.0156H70.1426V56H73.4629V72H70.1816V70.0781H70.041C69.8848 70.4115 69.6634 70.7422 69.377 71.0703C69.0957 71.3932 68.7285 71.6615 68.2754 71.875C67.8275 72.0885 67.2806 72.1953 66.6348 72.1953ZM67.6895 69.5469C68.2259 69.5469 68.679 69.401 69.0488 69.1094C69.4238 68.8125 69.7103 68.3984 69.9082 67.8672C70.1113 67.3359 70.2129 66.7135 70.2129 66C70.2129 65.2865 70.1139 64.6667 69.916 64.1406C69.7181 63.6146 69.4316 63.2083 69.0566 62.9219C68.6816 62.6354 68.2259 62.4922 67.6895 62.4922C67.1426 62.4922 66.6816 62.6406 66.3066 62.9375C65.9316 63.2344 65.6478 63.6458 65.4551 64.1719C65.2624 64.6979 65.166 65.3073 65.166 66C65.166 66.6979 65.2624 67.3151 65.4551 67.8516C65.653 68.3828 65.9368 68.7995 66.3066 69.1016C66.6816 69.3984 67.1426 69.5469 67.6895 69.5469ZM81.668 72.2344C80.4336 72.2344 79.3711 71.9844 78.4805 71.4844C77.5951 70.9792 76.9128 70.2656 76.4336 69.3437C75.9544 68.4167 75.7148 67.3203 75.7148 66.0547C75.7148 64.8203 75.9544 63.737 76.4336 62.8047C76.9128 61.8724 77.5872 61.1458 78.457 60.625C79.332 60.1042 80.3581 59.8438 81.5352 59.8438C82.3268 59.8438 83.0638 59.9714 83.7461 60.2266C84.4336 60.4766 85.0326 60.8542 85.543 61.3594C86.0586 61.8646 86.4596 62.5 86.7461 63.2656C87.0326 64.026 87.1758 64.9167 87.1758 65.9375V66.8516H77.043V64.7891H84.043C84.043 64.3099 83.9388 63.8854 83.7305 63.5156C83.5221 63.1458 83.2331 62.8568 82.8633 62.6484C82.4987 62.4349 82.0742 62.3281 81.5898 62.3281C81.0846 62.3281 80.6367 62.4453 80.2461 62.6797C79.8607 62.9089 79.5586 63.2187 79.3398 63.6094C79.1211 63.9948 79.0091 64.4245 79.0039 64.8984V66.8594C79.0039 67.4531 79.1133 67.9661 79.332 68.3984C79.556 68.8307 79.8711 69.1641 80.2773 69.3984C80.6836 69.6328 81.1654 69.75 81.7227 69.75C82.0924 69.75 82.431 69.6979 82.7383 69.5938C83.0456 69.4896 83.3086 69.3333 83.5273 69.125C83.7461 68.9167 83.9128 68.6615 84.0273 68.3594L87.1055 68.5625C86.9492 69.3021 86.6289 69.9479 86.1445 70.5C85.6654 71.0469 85.0456 71.474 84.2852 71.7813C83.5299 72.0833 82.6576 72.2344 81.668 72.2344ZM92.6758 65.0625V72H89.3477V60H92.5195V62.1172H92.6602C92.9258 61.4193 93.3711 60.8672 93.9961 60.4609C94.6211 60.0495 95.3789 59.8438 96.2695 59.8438C97.1029 59.8438 97.8294 60.026 98.4492 60.3906C99.069 60.7552 99.5508 61.276 99.8945 61.9531C100.238 62.625 100.41 63.4271 100.41 64.3594V72H97.082V64.9531C97.0872 64.2187 96.8997 63.6458 96.5195 63.2344C96.1393 62.8177 95.6159 62.6094 94.9492 62.6094C94.5013 62.6094 94.1055 62.7057 93.7617 62.8984C93.4232 63.0911 93.1576 63.3724 92.9648 63.7422C92.7773 64.1068 92.681 64.5469 92.6758 65.0625ZM107.455 72.1953C106.544 72.1953 105.718 71.9609 104.979 71.4922C104.244 71.0182 103.661 70.3229 103.229 69.4062C102.801 68.4844 102.588 67.3542 102.588 66.0156C102.588 64.6406 102.809 63.4974 103.252 62.5859C103.695 61.6693 104.283 60.9844 105.018 60.5313C105.757 60.0729 106.567 59.8438 107.447 59.8438C108.119 59.8438 108.679 59.9583 109.127 60.1875C109.58 60.4115 109.945 60.6927 110.221 61.0312C110.502 61.3646 110.715 61.6927 110.861 62.0156H110.963V56H114.283V72H111.002V70.0781H110.861C110.705 70.4115 110.484 70.7422 110.197 71.0703C109.916 71.3932 109.549 71.6615 109.096 71.875C108.648 72.0885 108.101 72.1953 107.455 72.1953ZM108.51 69.5469C109.046 69.5469 109.499 69.401 109.869 69.1094C110.244 68.8125 110.531 68.3984 110.729 67.8672C110.932 67.3359 111.033 66.7135 111.033 66C111.033 65.2865 110.934 64.6667 110.736 64.1406C110.538 63.6146 110.252 63.2083 109.877 62.9219C109.502 62.6354 109.046 62.4922 108.51 62.4922C107.963 62.4922 107.502 62.6406 107.127 62.9375C106.752 63.2344 106.468 63.6458 106.275 64.1719C106.083 64.6979 105.986 65.3073 105.986 66C105.986 66.6979 106.083 67.3151 106.275 67.8516C106.473 68.3828 106.757 68.7995 107.127 69.1016C107.502 69.3984 107.963 69.5469 108.51 69.5469ZM121.236 56H125.025L128.674 62.8906H128.83L132.479 56H136.268L130.432 66.3437V72H127.072V66.3437L121.236 56ZM141.008 72.2344C139.773 72.2344 138.711 71.9844 137.82 71.4844C136.935 70.9792 136.253 70.2656 135.773 69.3437C135.294 68.4167 135.055 67.3203 135.055 66.0547C135.055 64.8203 135.294 63.737 135.773 62.8047C136.253 61.8724 136.927 61.1458 137.797 60.625C138.672 60.1042 139.698 59.8438 140.875 59.8438C141.667 59.8438 142.404 59.9714 143.086 60.2266C143.773 60.4766 144.372 60.8542 144.883 61.3594C145.398 61.8646 145.799 62.5 146.086 63.2656C146.372 64.026 146.516 64.9167 146.516 65.9375V66.8516H136.383V64.7891H143.383C143.383 64.3099 143.279 63.8854 143.07 63.5156C142.862 63.1458 142.573 62.8568 142.203 62.6484C141.839 62.4349 141.414 62.3281 140.93 62.3281C140.424 62.3281 139.977 62.4453 139.586 62.6797C139.201 62.9089 138.898 63.2187 138.68 63.6094C138.461 63.9948 138.349 64.4245 138.344 64.8984V66.8594C138.344 67.4531 138.453 67.9661 138.672 68.3984C138.896 68.8307 139.211 69.1641 139.617 69.3984C140.023 69.6328 140.505 69.75 141.062 69.75C141.432 69.75 141.771 69.6979 142.078 69.5938C142.385 69.4896 142.648 69.3333 142.867 69.125C143.086 68.9167 143.253 68.6615 143.367 68.3594L146.445 68.5625C146.289 69.3021 145.969 69.9479 145.484 70.5C145.005 71.0469 144.385 71.474 143.625 71.7813C142.87 72.0833 141.997 72.2344 141.008 72.2344ZM152.016 56V72H148.688V56H152.016ZM159.104 72.1953C158.192 72.1953 157.367 71.9609 156.627 71.4922C155.893 71.0182 155.309 70.3229 154.877 69.4062C154.45 68.4844 154.236 67.3542 154.236 66.0156C154.236 64.6406 154.458 63.4974 154.9 62.5859C155.343 61.6693 155.932 60.9844 156.666 60.5313C157.406 60.0729 158.215 59.8438 159.096 59.8438C159.768 59.8438 160.327 59.9583 160.775 60.1875C161.229 60.4115 161.593 60.6927 161.869 61.0312C162.15 61.3646 162.364 61.6927 162.51 62.0156H162.611V56H165.932V72H162.65V70.0781H162.51C162.354 70.4115 162.132 70.7422 161.846 71.0703C161.564 71.3932 161.197 71.6615 160.744 71.875C160.296 72.0885 159.749 72.1953 159.104 72.1953ZM160.158 69.5469C160.695 69.5469 161.148 69.401 161.518 69.1094C161.893 68.8125 162.179 68.3984 162.377 67.8672C162.58 67.3359 162.682 66.7135 162.682 66C162.682 65.2865 162.583 64.6667 162.385 64.1406C162.187 63.6146 161.9 63.2083 161.525 62.9219C161.15 62.6354 160.695 62.4922 160.158 62.4922C159.611 62.4922 159.15 62.6406 158.775 62.9375C158.4 63.2344 158.117 63.6458 157.924 64.1719C157.731 64.6979 157.635 65.3073 157.635 66C157.635 66.6979 157.731 67.3151 157.924 67.8516C158.122 68.3828 158.406 68.7995 158.775 69.1016C159.15 69.3984 159.611 69.5469 160.158 69.5469ZM178.182 72.1953C177.27 72.1953 176.445 71.9609 175.705 71.4922C174.971 71.0182 174.387 70.3229 173.955 69.4062C173.528 68.4844 173.314 67.3542 173.314 66.0156C173.314 64.6406 173.536 63.4974 173.979 62.5859C174.421 61.6693 175.01 60.9844 175.744 60.5313C176.484 60.0729 177.294 59.8438 178.174 59.8438C178.846 59.8438 179.406 59.9583 179.854 60.1875C180.307 60.4115 180.671 60.6927 180.947 61.0312C181.229 61.3646 181.442 61.6927 181.588 62.0156H181.689V56H185.01V72H181.729V70.0781H181.588C181.432 70.4115 181.21 70.7422 180.924 71.0703C180.643 71.3932 180.275 71.6615 179.822 71.875C179.374 72.0885 178.827 72.1953 178.182 72.1953ZM179.236 69.5469C179.773 69.5469 180.226 69.401 180.596 69.1094C180.971 68.8125 181.257 68.3984 181.455 67.8672C181.658 67.3359 181.76 66.7135 181.76 66C181.76 65.2865 181.661 64.6667 181.463 64.1406C181.265 63.6146 180.979 63.2083 180.604 62.9219C180.229 62.6354 179.773 62.4922 179.236 62.4922C178.689 62.4922 178.229 62.6406 177.854 62.9375C177.479 63.2344 177.195 63.6458 177.002 64.1719C176.809 64.6979 176.713 65.3073 176.713 66C176.713 66.6979 176.809 67.3151 177.002 67.8516C177.2 68.3828 177.484 68.7995 177.854 69.1016C178.229 69.3984 178.689 69.5469 179.236 69.5469ZM191.168 72.2266C190.402 72.2266 189.72 72.0938 189.121 71.8281C188.522 71.5573 188.048 71.1589 187.699 70.6328C187.355 70.1016 187.184 69.4401 187.184 68.6484C187.184 67.9818 187.306 67.4219 187.551 66.9687C187.796 66.5156 188.129 66.151 188.551 65.875C188.973 65.599 189.452 65.3906 189.988 65.25C190.53 65.1094 191.098 65.0104 191.691 64.9531C192.389 64.8802 192.952 64.8125 193.379 64.75C193.806 64.6823 194.116 64.5833 194.309 64.4531C194.501 64.3229 194.598 64.1302 194.598 63.875V63.8281C194.598 63.3333 194.441 62.9505 194.129 62.6797C193.822 62.4089 193.384 62.2734 192.816 62.2734C192.217 62.2734 191.741 62.4062 191.387 62.6719C191.033 62.9323 190.798 63.2604 190.684 63.6562L187.605 63.4062C187.762 62.6771 188.069 62.0469 188.527 61.5156C188.986 60.9792 189.577 60.5677 190.301 60.2812C191.03 59.9896 191.874 59.8438 192.832 59.8438C193.499 59.8438 194.137 59.9219 194.746 60.0781C195.361 60.2344 195.905 60.4766 196.379 60.8047C196.858 61.1328 197.236 61.5547 197.512 62.0703C197.788 62.5807 197.926 63.1927 197.926 63.9062V72H194.77V70.3359H194.676C194.483 70.7109 194.225 71.0417 193.902 71.3281C193.579 71.6094 193.191 71.8307 192.738 71.9922C192.285 72.1484 191.762 72.2266 191.168 72.2266ZM192.121 69.9297C192.611 69.9297 193.043 69.8333 193.418 69.6406C193.793 69.4427 194.087 69.1771 194.301 68.8438C194.514 68.5104 194.621 68.1328 194.621 67.7109V66.4375C194.517 66.5052 194.374 66.5677 194.191 66.625C194.014 66.6771 193.814 66.7266 193.59 66.7734C193.366 66.8151 193.142 66.8542 192.918 66.8906C192.694 66.9219 192.491 66.9505 192.309 66.9766C191.918 67.0339 191.577 67.125 191.285 67.25C190.993 67.375 190.767 67.5443 190.605 67.7578C190.444 67.9661 190.363 68.2266 190.363 68.5391C190.363 68.9922 190.527 69.3385 190.855 69.5781C191.189 69.8125 191.611 69.9297 192.121 69.9297ZM219.779 61.6016H216.357C216.295 61.1589 216.167 60.7656 215.975 60.4219C215.782 60.0729 215.535 59.776 215.232 59.5312C214.93 59.2865 214.581 59.099 214.186 58.9687C213.795 58.8385 213.37 58.7734 212.912 58.7734C212.084 58.7734 211.363 58.9792 210.748 59.3906C210.133 59.7969 209.657 60.3906 209.318 61.1719C208.98 61.9479 208.811 62.8906 208.811 64C208.811 65.1406 208.98 66.099 209.318 66.875C209.662 67.651 210.141 68.237 210.756 68.6328C211.37 69.0286 212.081 69.2266 212.889 69.2266C213.342 69.2266 213.761 69.1667 214.146 69.0469C214.537 68.9271 214.883 68.7526 215.186 68.5234C215.488 68.2891 215.738 68.0052 215.936 67.6719C216.139 67.3385 216.279 66.9583 216.357 66.5312L219.779 66.5469C219.691 67.2812 219.469 67.9896 219.115 68.6719C218.766 69.349 218.295 69.9557 217.701 70.4922C217.113 71.0234 216.41 71.4453 215.592 71.7578C214.779 72.0651 213.86 72.2187 212.834 72.2187C211.407 72.2187 210.131 71.8958 209.006 71.25C207.886 70.6042 207.001 69.6693 206.35 68.4453C205.704 67.2214 205.381 65.7396 205.381 64C205.381 62.2552 205.709 60.7708 206.365 59.5469C207.021 58.3229 207.912 57.3906 209.037 56.75C210.162 56.1042 211.428 55.7812 212.834 55.7812C213.761 55.7812 214.62 55.9115 215.412 56.1719C216.209 56.4323 216.915 56.8125 217.529 57.3125C218.144 57.8073 218.644 58.4141 219.029 59.1328C219.42 59.8516 219.67 60.6745 219.779 61.6016ZM225.564 72.2266C224.799 72.2266 224.117 72.0938 223.518 71.8281C222.919 71.5573 222.445 71.1589 222.096 70.6328C221.752 70.1016 221.58 69.4401 221.58 68.6484C221.58 67.9818 221.702 67.4219 221.947 66.9687C222.192 66.5156 222.525 66.151 222.947 65.875C223.369 65.599 223.848 65.3906 224.385 65.25C224.926 65.1094 225.494 65.0104 226.088 64.9531C226.786 64.8802 227.348 64.8125 227.775 64.75C228.202 64.6823 228.512 64.5833 228.705 64.4531C228.898 64.3229 228.994 64.1302 228.994 63.875V63.8281C228.994 63.3333 228.838 62.9505 228.525 62.6797C228.218 62.4089 227.781 62.2734 227.213 62.2734C226.614 62.2734 226.137 62.4062 225.783 62.6719C225.429 62.9323 225.195 63.2604 225.08 63.6562L222.002 63.4062C222.158 62.6771 222.465 62.0469 222.924 61.5156C223.382 60.9792 223.973 60.5677 224.697 60.2812C225.426 59.9896 226.27 59.8438 227.229 59.8438C227.895 59.8438 228.533 59.9219 229.143 60.0781C229.757 60.2344 230.301 60.4766 230.775 60.8047C231.255 61.1328 231.632 61.5547 231.908 62.0703C232.184 62.5807 232.322 63.1927 232.322 63.9062V72H229.166V70.3359H229.072C228.88 70.7109 228.622 71.0417 228.299 71.3281C227.976 71.6094 227.588 71.8307 227.135 71.9922C226.682 72.1484 226.158 72.2266 225.564 72.2266ZM226.518 69.9297C227.007 69.9297 227.439 69.8333 227.814 69.6406C228.189 69.4427 228.484 69.1771 228.697 68.8438C228.911 68.5104 229.018 68.1328 229.018 67.7109V66.4375C228.913 66.5052 228.77 66.5677 228.588 66.625C228.411 66.6771 228.21 66.7266 227.986 66.7734C227.762 66.8151 227.538 66.8542 227.314 66.8906C227.09 66.9219 226.887 66.9505 226.705 66.9766C226.314 67.0339 225.973 67.125 225.682 67.25C225.39 67.375 225.163 67.5443 225.002 67.7578C224.84 67.9661 224.76 68.2266 224.76 68.5391C224.76 68.9922 224.924 69.3385 225.252 69.5781C225.585 69.8125 226.007 69.9297 226.518 69.9297ZM234.904 72V60H238.131V62.0937H238.256C238.475 61.349 238.842 60.7865 239.357 60.4063C239.873 60.0208 240.467 59.8281 241.139 59.8281C241.305 59.8281 241.485 59.8385 241.678 59.8594C241.87 59.8802 242.04 59.9089 242.186 59.9453V62.8984C242.029 62.8516 241.813 62.8099 241.537 62.7734C241.261 62.737 241.008 62.7188 240.779 62.7188C240.29 62.7188 239.852 62.8255 239.467 63.0391C239.087 63.2474 238.785 63.5391 238.561 63.9141C238.342 64.2891 238.232 64.7214 238.232 65.2109V72H234.904ZM250.891 60V62.5H243.664V60H250.891ZM245.305 57.125H248.633V68.3125C248.633 68.6198 248.68 68.8594 248.773 69.0312C248.867 69.1979 248.997 69.3151 249.164 69.3828C249.336 69.4505 249.534 69.4844 249.758 69.4844C249.914 69.4844 250.07 69.4714 250.227 69.4453C250.383 69.4141 250.503 69.3906 250.586 69.375L251.109 71.8516C250.943 71.9036 250.708 71.9635 250.406 72.0313C250.104 72.1042 249.737 72.1484 249.305 72.1641C248.503 72.1953 247.799 72.0885 247.195 71.8437C246.596 71.599 246.13 71.2187 245.797 70.7031C245.464 70.1875 245.299 69.5365 245.305 68.75V57.125ZM258.398 72.2344C257.164 72.2344 256.102 71.9844 255.211 71.4844C254.326 70.9792 253.643 70.2656 253.164 69.3437C252.685 68.4167 252.445 67.3203 252.445 66.0547C252.445 64.8203 252.685 63.737 253.164 62.8047C253.643 61.8724 254.318 61.1458 255.188 60.625C256.063 60.1042 257.089 59.8438 258.266 59.8438C259.057 59.8438 259.794 59.9714 260.477 60.2266C261.164 60.4766 261.763 60.8542 262.273 61.3594C262.789 61.8646 263.19 62.5 263.477 63.2656C263.763 64.026 263.906 64.9167 263.906 65.9375V66.8516H253.773V64.7891H260.773C260.773 64.3099 260.669 63.8854 260.461 63.5156C260.253 63.1458 259.964 62.8568 259.594 62.6484C259.229 62.4349 258.805 62.3281 258.32 62.3281C257.815 62.3281 257.367 62.4453 256.977 62.6797C256.591 62.9089 256.289 63.2187 256.07 63.6094C255.852 63.9948 255.74 64.4245 255.734 64.8984V66.8594C255.734 67.4531 255.844 67.9661 256.063 68.3984C256.286 68.8307 256.602 69.1641 257.008 69.3984C257.414 69.6328 257.896 69.75 258.453 69.75C258.823 69.75 259.161 69.6979 259.469 69.5938C259.776 69.4896 260.039 69.3333 260.258 69.125C260.477 68.9167 260.643 68.6615 260.758 68.3594L263.836 68.5625C263.68 69.3021 263.359 69.9479 262.875 70.5C262.396 71.0469 261.776 71.474 261.016 71.7813C260.26 72.0833 259.388 72.2344 258.398 72.2344ZM266.078 72V60H269.406V72H266.078ZM267.75 58.4531C267.255 58.4531 266.831 58.2891 266.477 57.9609C266.128 57.6276 265.953 57.2292 265.953 56.7656C265.953 56.3073 266.128 55.9141 266.477 55.5859C266.831 55.2526 267.255 55.0859 267.75 55.0859C268.245 55.0859 268.667 55.2526 269.016 55.5859C269.37 55.9141 269.547 56.3073 269.547 56.7656C269.547 57.2292 269.37 57.6276 269.016 57.9609C268.667 58.2891 268.245 58.4531 267.75 58.4531ZM272.072 72V60H275.299V62.0937H275.424C275.643 61.349 276.01 60.7865 276.525 60.4063C277.041 60.0208 277.635 59.8281 278.307 59.8281C278.473 59.8281 278.653 59.8385 278.846 59.8594C279.038 59.8802 279.208 59.9089 279.354 59.9453V62.8984C279.197 62.8516 278.981 62.8099 278.705 62.7734C278.429 62.737 278.176 62.7188 277.947 62.7188C277.458 62.7188 277.02 62.8255 276.635 63.0391C276.255 63.2474 275.952 63.5391 275.729 63.9141C275.51 64.2891 275.4 64.7214 275.4 65.2109V72H272.072ZM284.152 72.2266C283.387 72.2266 282.704 72.0938 282.105 71.8281C281.507 71.5573 281.033 71.1589 280.684 70.6328C280.34 70.1016 280.168 69.4401 280.168 68.6484C280.168 67.9818 280.29 67.4219 280.535 66.9687C280.78 66.5156 281.113 66.151 281.535 65.875C281.957 65.599 282.436 65.3906 282.973 65.25C283.514 65.1094 284.082 65.0104 284.676 64.9531C285.374 64.8802 285.936 64.8125 286.363 64.75C286.79 64.6823 287.1 64.5833 287.293 64.4531C287.486 64.3229 287.582 64.1302 287.582 63.875V63.8281C287.582 63.3333 287.426 62.9505 287.113 62.6797C286.806 62.4089 286.368 62.2734 285.801 62.2734C285.202 62.2734 284.725 62.4062 284.371 62.6719C284.017 62.9323 283.783 63.2604 283.668 63.6562L280.59 63.4062C280.746 62.6771 281.053 62.0469 281.512 61.5156C281.97 60.9792 282.561 60.5677 283.285 60.2812C284.014 59.9896 284.858 59.8438 285.816 59.8438C286.483 59.8438 287.121 59.9219 287.73 60.0781C288.345 60.2344 288.889 60.4766 289.363 60.8047C289.842 61.1328 290.22 61.5547 290.496 62.0703C290.772 62.5807 290.91 63.1927 290.91 63.9062V72H287.754V70.3359H287.66C287.467 70.7109 287.21 71.0417 286.887 71.3281C286.564 71.6094 286.176 71.8307 285.723 71.9922C285.27 72.1484 284.746 72.2266 284.152 72.2266ZM285.105 69.9297C285.595 69.9297 286.027 69.8333 286.402 69.6406C286.777 69.4427 287.072 69.1771 287.285 68.8438C287.499 68.5104 287.605 68.1328 287.605 67.7109V66.4375C287.501 66.5052 287.358 66.5677 287.176 66.625C286.999 66.6771 286.798 66.7266 286.574 66.7734C286.35 66.8151 286.126 66.8542 285.902 66.8906C285.678 66.9219 285.475 66.9505 285.293 66.9766C284.902 67.0339 284.561 67.125 284.27 67.25C283.978 67.375 283.751 67.5443 283.59 67.7578C283.428 67.9661 283.348 68.2266 283.348 68.5391C283.348 68.9922 283.512 69.3385 283.84 69.5781C284.173 69.8125 284.595 69.9297 285.105 69.9297Z" fill="#1E1B39"/>
<rect opacity="0.5" x="41" y="306" width="579" height="3" rx="1" fill="#FF0000"/>
<path d="M569.057 58.5449H570.318L573.284 65.7893H573.386L576.352 58.5449H577.614V67.2722H576.625V60.6415H576.54L573.812 67.2722H572.858L570.131 60.6415H570.045V67.2722H569.057V58.5449ZM582.341 67.4086C581.71 67.4086 581.166 67.2694 580.708 66.991C580.254 66.7097 579.903 66.3177 579.656 65.8148C579.412 65.3091 579.289 64.7211 579.289 64.0506C579.289 63.3802 579.412 62.7893 579.656 62.2779C579.903 61.7637 580.247 61.3631 580.687 61.0762C581.13 60.7864 581.647 60.6415 582.238 60.6415C582.579 60.6415 582.916 60.6984 583.248 60.812C583.581 60.9256 583.883 61.1103 584.156 61.366C584.429 61.6188 584.646 61.954 584.808 62.3716C584.97 62.7893 585.051 63.3035 585.051 63.9143V64.3404H580.005V63.4711H584.028C584.028 63.1018 583.954 62.7722 583.806 62.4824C583.662 62.1927 583.454 61.964 583.184 61.7964C582.917 61.6288 582.602 61.5449 582.238 61.5449C581.838 61.5449 581.491 61.6444 581.199 61.8432C580.909 62.0393 580.686 62.2949 580.529 62.6103C580.373 62.9256 580.295 63.2637 580.295 63.6245V64.204C580.295 64.6984 580.38 65.1174 580.551 65.4611C580.724 65.802 580.964 66.062 581.271 66.241C581.578 66.4171 581.934 66.5052 582.341 66.5052C582.605 66.5052 582.843 66.4682 583.056 66.3944C583.272 66.3177 583.458 66.204 583.615 66.0535C583.771 65.9001 583.892 65.7097 583.977 65.4824L584.949 65.7552C584.846 66.0847 584.674 66.3745 584.433 66.6245C584.191 66.8716 583.893 67.0648 583.538 67.204C583.183 67.3404 582.784 67.4086 582.341 67.4086ZM581.727 59.8404L582.767 57.8631H583.943L582.613 59.8404H581.727ZM589.052 67.4086C588.507 67.4086 588.025 67.2708 587.608 66.9952C587.19 66.7168 586.863 66.3248 586.627 65.8191C586.392 65.3106 586.274 64.7097 586.274 64.0165C586.274 63.329 586.392 62.7324 586.627 62.2268C586.863 61.7211 587.191 61.3305 587.612 61.0549C588.032 60.7793 588.518 60.6415 589.069 60.6415C589.495 60.6415 589.832 60.7126 590.079 60.8546C590.329 60.9938 590.52 61.1529 590.65 61.3319C590.784 61.508 590.887 61.6529 590.961 61.7665H591.047V58.5449H592.052V67.2722H591.081V66.2665H590.961C590.887 66.3859 590.782 66.5364 590.646 66.7182C590.51 66.8972 590.315 67.0577 590.062 67.1998C589.809 67.339 589.473 67.4086 589.052 67.4086ZM589.189 66.5052C589.592 66.5052 589.933 66.4001 590.211 66.1898C590.49 65.9768 590.701 65.6827 590.846 65.3077C590.991 64.9299 591.064 64.4938 591.064 63.9995C591.064 63.5109 590.993 63.0833 590.85 62.7168C590.708 62.3475 590.498 62.0606 590.22 61.856C589.941 61.6486 589.598 61.5449 589.189 61.5449C588.762 61.5449 588.407 61.6543 588.123 61.8731C587.842 62.089 587.63 62.383 587.488 62.7552C587.349 63.1245 587.279 63.5393 587.279 63.9995C587.279 64.4654 587.35 64.8887 587.493 65.2694C587.637 65.6472 587.85 65.9484 588.132 66.1728C588.416 66.3944 588.768 66.5052 589.189 66.5052ZM594.034 67.2722V60.7268H595.039V67.2722H594.034ZM594.545 59.6359C594.349 59.6359 594.18 59.5691 594.038 59.4356C593.899 59.302 593.829 59.1415 593.829 58.954C593.829 58.7665 593.899 58.606 594.038 58.4725C594.18 58.339 594.349 58.2722 594.545 58.2722C594.741 58.2722 594.909 58.339 595.048 58.4725C595.19 58.606 595.261 58.7665 595.261 58.954C595.261 59.1415 595.19 59.302 595.048 59.4356C594.909 59.5691 594.741 59.6359 594.545 59.6359ZM598.808 67.4256C598.393 67.4256 598.016 67.3475 597.678 67.1913C597.34 67.0322 597.072 66.8035 596.873 66.5052C596.674 66.204 596.575 65.8404 596.575 65.4143C596.575 65.0393 596.648 64.7353 596.796 64.5023C596.944 64.2665 597.141 64.0819 597.388 63.9484C597.636 63.8148 597.908 63.7154 598.207 63.6501C598.508 63.5819 598.81 63.5279 599.114 63.4881C599.512 63.437 599.835 63.3986 600.082 63.3731C600.332 63.3447 600.513 63.2978 600.627 63.2324C600.744 63.1671 600.802 63.0535 600.802 62.8915V62.8574C600.802 62.437 600.687 62.1103 600.457 61.8773C600.229 61.6444 599.884 61.5279 599.421 61.5279C598.941 61.5279 598.565 61.633 598.292 61.8432C598.019 62.0535 597.827 62.2779 597.717 62.5165L596.762 62.1756C596.933 61.7779 597.16 61.4682 597.444 61.2466C597.731 61.0222 598.043 60.866 598.381 60.7779C598.722 60.687 599.058 60.6415 599.387 60.6415C599.597 60.6415 599.839 60.6671 600.112 60.7182C600.387 60.7665 600.653 60.8674 600.908 61.0208C601.167 61.1742 601.381 61.4057 601.552 61.7154C601.722 62.0251 601.808 62.4398 601.808 62.9597V67.2722H600.802V66.3859H600.751C600.683 66.5279 600.569 66.6799 600.41 66.8418C600.251 67.0038 600.039 67.1415 599.775 67.2552C599.511 67.3688 599.188 67.4256 598.808 67.4256ZM598.961 66.5222C599.359 66.5222 599.694 66.4441 599.967 66.2878C600.242 66.1316 600.45 65.9299 600.589 65.6827C600.731 65.4356 600.802 65.1756 600.802 64.9029V63.9824C600.759 64.0336 600.665 64.0805 600.521 64.1231C600.379 64.1628 600.214 64.1984 600.026 64.2296C599.842 64.258 599.661 64.2836 599.485 64.3063C599.312 64.3262 599.171 64.3432 599.063 64.3574C598.802 64.3915 598.558 64.4469 598.33 64.5236C598.106 64.5975 597.924 64.7097 597.785 64.8603C597.648 65.008 597.58 65.2097 597.58 65.4654C597.58 65.8148 597.71 66.079 597.968 66.258C598.229 66.4341 598.56 66.5222 598.961 66.5222Z" fill="#615E83"/>
<path opacity="0.5" d="M559.25 62.5C559.25 66.2279 556.228 69.25 552.5 69.25C548.772 69.25 545.75 66.2279 545.75 62.5C545.75 58.7721 548.772 55.75 552.5 55.75C556.228 55.75 559.25 58.7721 559.25 62.5Z" fill="#FF0000" stroke="#FF0000" stroke-width="1.5"/>
<path d="M444.75 67.2722H442.057V58.5449H444.869C445.716 58.5449 446.44 58.7197 447.043 59.0691C447.645 59.4157 448.107 59.9143 448.428 60.5648C448.749 61.2126 448.909 61.9881 448.909 62.8915C448.909 63.8006 448.747 64.5833 448.423 65.2395C448.099 65.893 447.628 66.3958 447.009 66.7481C446.389 67.0975 445.636 67.2722 444.75 67.2722ZM443.114 66.3347H444.682C445.403 66.3347 446.001 66.1955 446.476 65.9171C446.95 65.6387 447.304 65.2424 447.537 64.7282C447.77 64.214 447.886 63.6018 447.886 62.8915C447.886 62.187 447.771 61.5805 447.541 61.0719C447.311 60.5606 446.967 60.1685 446.51 59.8958C446.053 59.6202 445.483 59.4824 444.801 59.4824H443.114V66.3347ZM450.545 67.2722V60.7268H451.551V67.2722H450.545ZM451.057 59.6359C450.861 59.6359 450.692 59.5691 450.55 59.4356C450.411 59.302 450.341 59.1415 450.341 58.954C450.341 58.7665 450.411 58.606 450.55 58.4725C450.692 58.339 450.861 58.2722 451.057 58.2722C451.253 58.2722 451.42 58.339 451.56 58.4725C451.702 58.606 451.773 58.7665 451.773 58.954C451.773 59.1415 451.702 59.302 451.56 59.4356C451.42 59.5691 451.253 59.6359 451.057 59.6359ZM458.745 60.7268L456.325 67.2722H455.302L452.882 60.7268H453.973L455.779 65.9427H455.848L457.654 60.7268H458.745ZM460.073 67.2722V60.7268H461.078V67.2722H460.073ZM460.584 59.6359C460.388 59.6359 460.219 59.5691 460.077 59.4356C459.938 59.302 459.868 59.1415 459.868 58.954C459.868 58.7665 459.938 58.606 460.077 58.4725C460.219 58.339 460.388 58.2722 460.584 58.2722C460.78 58.2722 460.948 58.339 461.087 58.4725C461.229 58.606 461.3 58.7665 461.3 58.954C461.3 59.1415 461.229 59.302 461.087 59.4356C460.948 59.5691 460.78 59.6359 460.584 59.6359ZM465.392 67.4086C464.847 67.4086 464.365 67.2708 463.947 66.9952C463.53 66.7168 463.203 66.3248 462.967 65.8191C462.732 65.3106 462.614 64.7097 462.614 64.0165C462.614 63.329 462.732 62.7324 462.967 62.2268C463.203 61.7211 463.531 61.3305 463.952 61.0549C464.372 60.7793 464.858 60.6415 465.409 60.6415C465.835 60.6415 466.172 60.7126 466.419 60.8546C466.669 60.9938 466.859 61.1529 466.99 61.3319C467.124 61.508 467.227 61.6529 467.301 61.7665H467.386V58.5449H468.392V67.2722H467.42V66.2665H467.301C467.227 66.3859 467.122 66.5364 466.986 66.7182C466.849 66.8972 466.655 67.0577 466.402 67.1998C466.149 67.339 465.813 67.4086 465.392 67.4086ZM465.528 66.5052C465.932 66.5052 466.273 66.4001 466.551 66.1898C466.83 65.9768 467.041 65.6827 467.186 65.3077C467.331 64.9299 467.403 64.4938 467.403 63.9995C467.403 63.5109 467.332 63.0833 467.19 62.7168C467.048 62.3475 466.838 62.0606 466.56 61.856C466.281 61.6486 465.938 61.5449 465.528 61.5449C465.102 61.5449 464.747 61.6543 464.463 61.8731C464.182 62.089 463.97 62.383 463.828 62.7552C463.689 63.1245 463.619 63.5393 463.619 63.9995C463.619 64.4654 463.69 64.8887 463.832 65.2694C463.977 65.6472 464.19 65.9484 464.472 66.1728C464.756 66.3944 465.108 66.5052 465.528 66.5052ZM473.118 67.4086C472.487 67.4086 471.943 67.2694 471.486 66.991C471.031 66.7097 470.68 66.3177 470.433 65.8148C470.189 65.3091 470.067 64.7211 470.067 64.0506C470.067 63.3802 470.189 62.7893 470.433 62.2779C470.68 61.7637 471.024 61.3631 471.464 61.0762C471.908 60.7864 472.425 60.6415 473.016 60.6415C473.357 60.6415 473.693 60.6984 474.026 60.812C474.358 60.9256 474.661 61.1103 474.933 61.366C475.206 61.6188 475.423 61.954 475.585 62.3716C475.747 62.7893 475.828 63.3035 475.828 63.9143V64.3404H470.783V63.4711H474.805C474.805 63.1018 474.732 62.7722 474.584 62.4824C474.439 62.1927 474.232 61.964 473.962 61.7964C473.695 61.6288 473.379 61.5449 473.016 61.5449C472.615 61.5449 472.268 61.6444 471.976 61.8432C471.686 62.0393 471.463 62.2949 471.307 62.6103C471.151 62.9256 471.072 63.2637 471.072 63.6245V64.204C471.072 64.6984 471.158 65.1174 471.328 65.4611C471.501 65.802 471.741 66.062 472.048 66.241C472.355 66.4171 472.712 66.5052 473.118 66.5052C473.382 66.5052 473.621 66.4682 473.834 66.3944C474.05 66.3177 474.236 66.204 474.392 66.0535C474.548 65.9001 474.669 65.7097 474.754 65.4824L475.726 65.7552C475.624 66.0847 475.452 66.3745 475.21 66.6245C474.969 66.8716 474.67 67.0648 474.315 67.204C473.96 67.3404 473.561 67.4086 473.118 67.4086ZM478.364 63.3347V67.2722H477.358V60.7268H478.33V61.7495H478.415C478.568 61.4171 478.801 61.1501 479.114 60.9484C479.426 60.7438 479.83 60.6415 480.324 60.6415C480.767 60.6415 481.155 60.7324 481.487 60.9143C481.82 61.0932 482.078 61.366 482.263 61.7324C482.447 62.0961 482.54 62.5563 482.54 63.1131V67.2722H481.534V63.1813C481.534 62.6671 481.401 62.2665 481.134 61.9796C480.866 61.6898 480.5 61.5449 480.034 61.5449C479.713 61.5449 479.426 61.6145 479.173 61.7538C478.923 61.893 478.726 62.0961 478.581 62.3631C478.436 62.6302 478.364 62.954 478.364 63.3347ZM486.849 67.4086C486.304 67.4086 485.822 67.2708 485.404 66.9952C484.987 66.7168 484.66 66.3248 484.424 65.8191C484.189 65.3106 484.071 64.7097 484.071 64.0165C484.071 63.329 484.189 62.7324 484.424 62.2268C484.66 61.7211 484.988 61.3305 485.409 61.0549C485.829 60.7793 486.315 60.6415 486.866 60.6415C487.292 60.6415 487.629 60.7126 487.876 60.8546C488.126 60.9938 488.316 61.1529 488.447 61.3319C488.581 61.508 488.684 61.6529 488.758 61.7665H488.843V58.5449H489.849V67.2722H488.877V66.2665H488.758C488.684 66.3859 488.579 66.5364 488.443 66.7182C488.306 66.8972 488.112 67.0577 487.859 67.1998C487.606 67.339 487.27 67.4086 486.849 67.4086ZM486.985 66.5052C487.389 66.5052 487.73 66.4001 488.008 66.1898C488.287 65.9768 488.498 65.6827 488.643 65.3077C488.788 64.9299 488.86 64.4938 488.86 63.9995C488.86 63.5109 488.789 63.0833 488.647 62.7168C488.505 62.3475 488.295 62.0606 488.017 61.856C487.738 61.6486 487.395 61.5449 486.985 61.5449C486.559 61.5449 486.204 61.6543 485.92 61.8731C485.639 62.089 485.427 62.383 485.285 62.7552C485.146 63.1245 485.076 63.5393 485.076 63.9995C485.076 64.4654 485.147 64.8887 485.289 65.2694C485.434 65.6472 485.647 65.9484 485.929 66.1728C486.213 66.3944 486.565 66.5052 486.985 66.5052ZM494.592 58.5449H495.802L498.223 62.6188H498.325L500.745 58.5449H501.956L498.802 63.6756V67.2722H497.745V63.6756L494.592 58.5449ZM505.005 67.4086C504.374 67.4086 503.83 67.2694 503.373 66.991C502.918 66.7097 502.567 66.3177 502.32 65.8148C502.076 65.3091 501.953 64.7211 501.953 64.0506C501.953 63.3802 502.076 62.7893 502.32 62.2779C502.567 61.7637 502.911 61.3631 503.351 61.0762C503.794 60.7864 504.311 60.6415 504.902 60.6415C505.243 60.6415 505.58 60.6984 505.912 60.812C506.245 60.9256 506.547 61.1103 506.82 61.366C507.093 61.6188 507.31 61.954 507.472 62.3716C507.634 62.7893 507.715 63.3035 507.715 63.9143V64.3404H502.669V63.4711H506.692C506.692 63.1018 506.618 62.7722 506.471 62.4824C506.326 62.1927 506.118 61.964 505.848 61.7964C505.581 61.6288 505.266 61.5449 504.902 61.5449C504.502 61.5449 504.155 61.6444 503.863 61.8432C503.573 62.0393 503.35 62.2949 503.194 62.6103C503.037 62.9256 502.959 63.2637 502.959 63.6245V64.204C502.959 64.6984 503.044 65.1174 503.215 65.4611C503.388 65.802 503.628 66.062 503.935 66.241C504.242 66.4171 504.598 66.5052 505.005 66.5052C505.269 66.5052 505.507 66.4682 505.721 66.3944C505.936 66.3177 506.123 66.204 506.279 66.0535C506.435 65.9001 506.556 65.7097 506.641 65.4824L507.613 65.7552C507.51 66.0847 507.338 66.3745 507.097 66.6245C506.855 66.8716 506.557 67.0648 506.202 67.204C505.847 67.3404 505.448 67.4086 505.005 67.4086ZM510.25 58.5449V67.2722H509.245V58.5449H510.25ZM514.564 67.4086C514.018 67.4086 513.537 67.2708 513.119 66.9952C512.702 66.7168 512.375 66.3248 512.139 65.8191C511.903 65.3106 511.786 64.7097 511.786 64.0165C511.786 63.329 511.903 62.7324 512.139 62.2268C512.375 61.7211 512.703 61.3305 513.124 61.0549C513.544 60.7793 514.03 60.6415 514.581 60.6415C515.007 60.6415 515.344 60.7126 515.591 60.8546C515.841 60.9938 516.031 61.1529 516.162 61.3319C516.295 61.508 516.399 61.6529 516.473 61.7665H516.558V58.5449H517.564V67.2722H516.592V66.2665H516.473C516.399 66.3859 516.294 66.5364 516.158 66.7182C516.021 66.8972 515.827 67.0577 515.574 67.1998C515.321 67.339 514.984 67.4086 514.564 67.4086ZM514.7 66.5052C515.104 66.5052 515.445 66.4001 515.723 66.1898C516.001 65.9768 516.213 65.6827 516.358 65.3077C516.503 64.9299 516.575 64.4938 516.575 63.9995C516.575 63.5109 516.504 63.0833 516.362 62.7168C516.22 62.3475 516.01 62.0606 515.732 61.856C515.453 61.6486 515.109 61.5449 514.7 61.5449C514.274 61.5449 513.919 61.6543 513.635 61.8731C513.354 62.089 513.142 62.383 513 62.7552C512.861 63.1245 512.791 63.5393 512.791 63.9995C512.791 64.4654 512.862 64.8887 513.004 65.2694C513.149 65.6472 513.362 65.9484 513.643 66.1728C513.928 66.3944 514.28 66.5052 514.7 66.5052Z" fill="#615E83"/>
<path d="M432.25 62.5C432.25 66.2279 429.228 69.25 425.5 69.25C421.772 69.25 418.75 66.2279 418.75 62.5C418.75 58.7721 421.772 55.75 425.5 55.75C429.228 55.75 432.25 58.7721 432.25 62.5Z" fill="#41A4FF" stroke="#41A4FF" stroke-width="1.5"/>
</svg>
