<svg width="1351" height="681" viewBox="0 0 1351 681" fill="none" xmlns="http://www.w3.org/2000/svg">
<path d="M19.4656 479.174V478.407L22.3462 475.254C22.6843 474.885 22.9627 474.564 23.1815 474.291C23.4002 474.015 23.5622 473.757 23.6673 473.515C23.7752 473.271 23.8292 473.015 23.8292 472.748C23.8292 472.441 23.7553 472.176 23.6076 471.951C23.4627 471.727 23.2639 471.554 23.011 471.431C22.7582 471.309 22.4741 471.248 22.1587 471.248C21.8235 471.248 21.5309 471.318 21.2809 471.457C21.0337 471.593 20.842 471.785 20.7056 472.032C20.5721 472.279 20.5053 472.569 20.5053 472.902H19.4997C19.4997 472.39 19.6176 471.941 19.8533 471.555C20.0891 471.169 20.4102 470.867 20.8164 470.652C21.2255 470.436 21.6843 470.328 22.1928 470.328C22.7042 470.328 23.1573 470.436 23.5522 470.652C23.9471 470.867 24.2568 471.159 24.4812 471.525C24.7056 471.892 24.8178 472.299 24.8178 472.748C24.8178 473.069 24.7596 473.383 24.6431 473.69C24.5295 473.994 24.3306 474.333 24.0465 474.708C23.7653 475.081 23.3747 475.535 22.8747 476.072L20.9144 478.169V478.237H24.9712V479.174H19.4656ZM30.2978 479.294C29.6557 479.294 29.1089 479.119 28.6572 478.769C28.2054 478.417 27.8603 477.907 27.6216 477.24C27.383 476.569 27.2637 475.76 27.2637 474.811C27.2637 473.867 27.383 473.062 27.6216 472.394C27.8631 471.724 28.2097 471.213 28.6614 470.86C29.116 470.505 29.6614 470.328 30.2978 470.328C30.9341 470.328 31.4782 470.505 31.9299 470.86C32.3844 471.213 32.731 471.724 32.9697 472.394C33.2111 473.062 33.3319 473.867 33.3319 474.811C33.3319 475.76 33.2126 476.569 32.9739 477.24C32.7353 477.907 32.3901 478.417 31.9384 478.769C31.4867 479.119 30.9398 479.294 30.2978 479.294ZM30.2978 478.356C30.9341 478.356 31.4285 478.049 31.7807 477.436C32.133 476.822 32.3091 475.947 32.3091 474.811C32.3091 474.055 32.2282 473.412 32.0662 472.88C31.9072 472.349 31.677 471.944 31.3759 471.666C31.0776 471.387 30.7182 471.248 30.2978 471.248C29.6671 471.248 29.1742 471.559 28.8191 472.181C28.464 472.801 28.2864 473.677 28.2864 474.811C28.2864 475.566 28.366 476.208 28.5251 476.737C28.6841 477.265 28.9128 477.667 29.2111 477.943C29.5123 478.218 29.8745 478.356 30.2978 478.356ZM35.6712 479.174V478.407L38.5519 475.254C38.8899 474.885 39.1683 474.564 39.3871 474.291C39.6058 474.015 39.7678 473.757 39.8729 473.515C39.9808 473.271 40.0348 473.015 40.0348 472.748C40.0348 472.441 39.961 472.176 39.8132 471.951C39.6683 471.727 39.4695 471.554 39.2166 471.431C38.9638 471.309 38.6797 471.248 38.3644 471.248C38.0291 471.248 37.7365 471.318 37.4865 471.457C37.2394 471.593 37.0476 471.785 36.9112 472.032C36.7777 472.279 36.711 472.569 36.711 472.902H35.7053C35.7053 472.39 35.8232 471.941 36.059 471.555C36.2948 471.169 36.6158 470.867 37.022 470.652C37.4311 470.436 37.8899 470.328 38.3985 470.328C38.9098 470.328 39.3629 470.436 39.7578 470.652C40.1527 470.867 40.4624 471.159 40.6868 471.525C40.9112 471.892 41.0235 472.299 41.0235 472.748C41.0235 473.069 40.9652 473.383 40.8487 473.69C40.7351 473.994 40.5362 474.333 40.2522 474.708C39.9709 475.081 39.5803 475.535 39.0803 476.072L37.12 478.169V478.237H41.1769V479.174H35.6712ZM43.6568 479.174V478.407L46.5375 475.254C46.8756 474.885 47.154 474.564 47.3727 474.291C47.5915 474.015 47.7534 473.757 47.8585 473.515C47.9665 473.271 48.0204 473.015 48.0204 472.748C48.0204 472.441 47.9466 472.176 47.7989 471.951C47.654 471.727 47.4551 471.554 47.2023 471.431C46.9494 471.309 46.6653 471.248 46.35 471.248C46.0148 471.248 45.7222 471.318 45.4722 471.457C45.225 471.593 45.0332 471.785 44.8969 472.032C44.7633 472.279 44.6966 472.569 44.6966 472.902H43.6909C43.6909 472.39 43.8088 471.941 44.0446 471.555C44.2804 471.169 44.6014 470.867 45.0077 470.652C45.4168 470.436 45.8756 470.328 46.3841 470.328C46.8954 470.328 47.3486 470.436 47.7435 470.652C48.1383 470.867 48.448 471.159 48.6724 471.525C48.8969 471.892 49.0091 472.299 49.0091 472.748C49.0091 473.069 48.9508 473.383 48.8344 473.69C48.7207 473.994 48.5219 474.333 48.2378 474.708C47.9565 475.081 47.5659 475.535 47.0659 476.072L45.1057 478.169V478.237H49.1625V479.174H43.6568ZM55.4095 474.342V475.279H51.5913V474.342H55.4095ZM61.2058 476.447H62.3649L63.3365 477.725L63.5922 478.066L65.0411 479.992H63.882L62.9274 478.714L62.6888 478.39L61.2058 476.447ZM65.399 474.811C65.399 475.731 65.2328 476.527 64.9004 477.197C64.568 477.867 64.1121 478.385 63.5325 478.748C62.953 479.112 62.2911 479.294 61.5467 479.294C60.8024 479.294 60.1405 479.112 59.5609 478.748C58.9814 478.385 58.5254 477.867 58.193 477.197C57.8607 476.527 57.6945 475.731 57.6945 474.811C57.6945 473.89 57.8607 473.095 58.193 472.424C58.5254 471.754 58.9814 471.237 59.5609 470.873C60.1405 470.51 60.8024 470.328 61.5467 470.328C62.2911 470.328 62.953 470.51 63.5325 470.873C64.1121 471.237 64.568 471.754 64.9004 472.424C65.2328 473.095 65.399 473.89 65.399 474.811ZM64.3763 474.811C64.3763 474.055 64.2499 473.417 63.997 472.897C63.747 472.377 63.4075 471.984 62.9786 471.717C62.5524 471.45 62.0751 471.316 61.5467 471.316C61.0183 471.316 60.5396 471.45 60.1107 471.717C59.6845 471.984 59.345 472.377 59.0922 472.897C58.8422 473.417 58.7172 474.055 58.7172 474.811C58.7172 475.566 58.8422 476.204 59.0922 476.724C59.345 477.244 59.6845 477.637 60.1107 477.904C60.5396 478.171 61.0183 478.305 61.5467 478.305C62.0751 478.305 62.5524 478.171 62.9786 477.904C63.4075 477.637 63.747 477.244 63.997 476.724C64.2499 476.204 64.3763 475.566 64.3763 474.811ZM70.8108 470.447V479.174H69.754V471.555H69.7028L67.5721 472.97V471.896L69.754 470.447H70.8108Z" fill="#615E83"/>
<path d="M214.459 479.174V478.407L217.34 475.254C217.678 474.885 217.956 474.564 218.175 474.291C218.394 474.015 218.556 473.757 218.661 473.515C218.769 473.271 218.823 473.015 218.823 472.748C218.823 472.441 218.749 472.176 218.601 471.951C218.456 471.727 218.258 471.554 218.005 471.431C217.752 471.309 217.468 471.248 217.152 471.248C216.817 471.248 216.525 471.318 216.275 471.457C216.027 471.593 215.836 471.785 215.699 472.032C215.566 472.279 215.499 472.569 215.499 472.902H214.493C214.493 472.39 214.611 471.941 214.847 471.555C215.083 471.169 215.404 470.867 215.81 470.652C216.219 470.436 216.678 470.328 217.186 470.328C217.698 470.328 218.151 470.436 218.546 470.652C218.941 470.867 219.25 471.159 219.475 471.525C219.699 471.892 219.811 472.299 219.811 472.748C219.811 473.069 219.753 473.383 219.637 473.69C219.523 473.994 219.324 474.333 219.04 474.708C218.759 475.081 218.368 475.535 217.868 476.072L215.908 478.169V478.237H219.965V479.174H214.459ZM225.291 479.294C224.649 479.294 224.103 479.119 223.651 478.769C223.199 478.417 222.854 477.907 222.615 477.24C222.377 476.569 222.257 475.76 222.257 474.811C222.257 473.867 222.377 473.062 222.615 472.394C222.857 471.724 223.203 471.213 223.655 470.86C224.11 470.505 224.655 470.328 225.291 470.328C225.928 470.328 226.472 470.505 226.924 470.86C227.378 471.213 227.725 471.724 227.963 472.394C228.205 473.062 228.326 473.867 228.326 474.811C228.326 475.76 228.206 476.569 227.968 477.24C227.729 477.907 227.384 478.417 226.932 478.769C226.48 479.119 225.933 479.294 225.291 479.294ZM225.291 478.356C225.928 478.356 226.422 478.049 226.774 477.436C227.127 476.822 227.303 475.947 227.303 474.811C227.303 474.055 227.222 473.412 227.06 472.88C226.901 472.349 226.671 471.944 226.37 471.666C226.071 471.387 225.712 471.248 225.291 471.248C224.661 471.248 224.168 471.559 223.813 472.181C223.458 472.801 223.28 473.677 223.28 474.811C223.28 475.566 223.36 476.208 223.519 476.737C223.678 477.265 223.906 477.667 224.205 477.943C224.506 478.218 224.868 478.356 225.291 478.356ZM230.665 479.174V478.407L233.546 475.254C233.884 474.885 234.162 474.564 234.381 474.291C234.599 474.015 234.761 473.757 234.867 473.515C234.974 473.271 235.028 473.015 235.028 472.748C235.028 472.441 234.955 472.176 234.807 471.951C234.662 471.727 234.463 471.554 234.21 471.431C233.957 471.309 233.673 471.248 233.358 471.248C233.023 471.248 232.73 471.318 232.48 471.457C232.233 471.593 232.041 471.785 231.905 472.032C231.771 472.279 231.705 472.569 231.705 472.902H230.699C230.699 472.39 230.817 471.941 231.053 471.555C231.288 471.169 231.609 470.867 232.016 470.652C232.425 470.436 232.884 470.328 233.392 470.328C233.903 470.328 234.357 470.436 234.751 470.652C235.146 470.867 235.456 471.159 235.68 471.525C235.905 471.892 236.017 472.299 236.017 472.748C236.017 473.069 235.959 473.383 235.842 473.69C235.729 473.994 235.53 474.333 235.246 474.708C234.965 475.081 234.574 475.535 234.074 476.072L232.114 478.169V478.237H236.171V479.174H230.665ZM238.65 479.174V478.407L241.531 475.254C241.869 474.885 242.148 474.564 242.366 474.291C242.585 474.015 242.747 473.757 242.852 473.515C242.96 473.271 243.014 473.015 243.014 472.748C243.014 472.441 242.94 472.176 242.793 471.951C242.648 471.727 242.449 471.554 242.196 471.431C241.943 471.309 241.659 471.248 241.344 471.248C241.008 471.248 240.716 471.318 240.466 471.457C240.219 471.593 240.027 471.785 239.891 472.032C239.757 472.279 239.69 472.569 239.69 472.902H238.685C238.685 472.39 238.802 471.941 239.038 471.555C239.274 471.169 239.595 470.867 240.001 470.652C240.41 470.436 240.869 470.328 241.378 470.328C241.889 470.328 242.342 470.436 242.737 470.652C243.132 470.867 243.442 471.159 243.666 471.525C243.891 471.892 244.003 472.299 244.003 472.748C244.003 473.069 243.944 473.383 243.828 473.69C243.714 473.994 243.516 474.333 243.231 474.708C242.95 475.081 242.56 475.535 242.06 476.072L240.099 478.169V478.237H244.156V479.174H238.65ZM250.403 474.342V475.279H246.585V474.342H250.403ZM256.199 476.447H257.359L258.33 477.725L258.586 478.066L260.035 479.992H258.876L257.921 478.714L257.682 478.39L256.199 476.447ZM260.393 474.811C260.393 475.731 260.226 476.527 259.894 477.197C259.562 477.867 259.106 478.385 258.526 478.748C257.947 479.112 257.285 479.294 256.54 479.294C255.796 479.294 255.134 479.112 254.555 478.748C253.975 478.385 253.519 477.867 253.187 477.197C252.854 476.527 252.688 475.731 252.688 474.811C252.688 473.89 252.854 473.095 253.187 472.424C253.519 471.754 253.975 471.237 254.555 470.873C255.134 470.51 255.796 470.328 256.54 470.328C257.285 470.328 257.947 470.51 258.526 470.873C259.106 471.237 259.562 471.754 259.894 472.424C260.226 473.095 260.393 473.89 260.393 474.811ZM259.37 474.811C259.37 474.055 259.244 473.417 258.991 472.897C258.741 472.377 258.401 471.984 257.972 471.717C257.546 471.45 257.069 471.316 256.54 471.316C256.012 471.316 255.533 471.45 255.104 471.717C254.678 471.984 254.339 472.377 254.086 472.897C253.836 473.417 253.711 474.055 253.711 474.811C253.711 475.566 253.836 476.204 254.086 476.724C254.339 477.244 254.678 477.637 255.104 477.904C255.533 478.171 256.012 478.305 256.54 478.305C257.069 478.305 257.546 478.171 257.972 477.904C258.401 477.637 258.741 477.244 258.991 476.724C259.244 476.204 259.37 475.566 259.37 474.811ZM262.736 479.174V478.407L265.617 475.254C265.955 474.885 266.233 474.564 266.452 474.291C266.671 474.015 266.833 473.757 266.938 473.515C267.046 473.271 267.1 473.015 267.1 472.748C267.1 472.441 267.026 472.176 266.878 471.951C266.733 471.727 266.535 471.554 266.282 471.431C266.029 471.309 265.745 471.248 265.429 471.248C265.094 471.248 264.802 471.318 264.552 471.457C264.304 471.593 264.113 471.785 263.976 472.032C263.843 472.279 263.776 472.569 263.776 472.902H262.77C262.77 472.39 262.888 471.941 263.124 471.555C263.36 471.169 263.681 470.867 264.087 470.652C264.496 470.436 264.955 470.328 265.464 470.328C265.975 470.328 266.428 470.436 266.823 470.652C267.218 470.867 267.527 471.159 267.752 471.525C267.976 471.892 268.089 472.299 268.089 472.748C268.089 473.069 268.03 473.383 267.914 473.69C267.8 473.994 267.601 474.333 267.317 474.708C267.036 475.081 266.645 475.535 266.145 476.072L264.185 478.169V478.237H268.242V479.174H262.736Z" fill="#615E83"/>
<path d="M410.109 479.174V478.407L412.99 475.254C413.328 474.885 413.606 474.564 413.825 474.291C414.044 474.015 414.205 473.757 414.311 473.515C414.419 473.271 414.473 473.015 414.473 472.748C414.473 472.441 414.399 472.176 414.251 471.951C414.106 471.727 413.907 471.554 413.654 471.431C413.401 471.309 413.117 471.248 412.802 471.248C412.467 471.248 412.174 471.318 411.924 471.457C411.677 471.593 411.485 471.785 411.349 472.032C411.215 472.279 411.149 472.569 411.149 472.902H410.143C410.143 472.39 410.261 471.941 410.497 471.555C410.732 471.169 411.053 470.867 411.46 470.652C411.869 470.436 412.328 470.328 412.836 470.328C413.348 470.328 413.801 470.436 414.196 470.652C414.59 470.867 414.9 471.159 415.124 471.525C415.349 471.892 415.461 472.299 415.461 472.748C415.461 473.069 415.403 473.383 415.286 473.69C415.173 473.994 414.974 474.333 414.69 474.708C414.409 475.081 414.018 475.535 413.518 476.072L411.558 478.169V478.237H415.615V479.174H410.109ZM420.941 479.294C420.299 479.294 419.752 479.119 419.3 478.769C418.849 478.417 418.504 477.907 418.265 477.24C418.026 476.569 417.907 475.76 417.907 474.811C417.907 473.867 418.026 473.062 418.265 472.394C418.506 471.724 418.853 471.213 419.305 470.86C419.759 470.505 420.305 470.328 420.941 470.328C421.577 470.328 422.121 470.505 422.573 470.86C423.028 471.213 423.374 471.724 423.613 472.394C423.854 473.062 423.975 473.867 423.975 474.811C423.975 475.76 423.856 476.569 423.617 477.24C423.379 477.907 423.033 478.417 422.582 478.769C422.13 479.119 421.583 479.294 420.941 479.294ZM420.941 478.356C421.577 478.356 422.072 478.049 422.424 477.436C422.776 476.822 422.952 475.947 422.952 474.811C422.952 474.055 422.871 473.412 422.71 472.88C422.55 472.349 422.32 471.944 422.019 471.666C421.721 471.387 421.362 471.248 420.941 471.248C420.31 471.248 419.818 471.559 419.462 472.181C419.107 472.801 418.93 473.677 418.93 474.811C418.93 475.566 419.009 476.208 419.168 476.737C419.327 477.265 419.556 477.667 419.854 477.943C420.156 478.218 420.518 478.356 420.941 478.356ZM426.314 479.174V478.407L429.195 475.254C429.533 474.885 429.812 474.564 430.03 474.291C430.249 474.015 430.411 473.757 430.516 473.515C430.624 473.271 430.678 473.015 430.678 472.748C430.678 472.441 430.604 472.176 430.457 471.951C430.312 471.727 430.113 471.554 429.86 471.431C429.607 471.309 429.323 471.248 429.008 471.248C428.672 471.248 428.38 471.318 428.13 471.457C427.883 471.593 427.691 471.785 427.555 472.032C427.421 472.279 427.354 472.569 427.354 472.902H426.349C426.349 472.39 426.466 471.941 426.702 471.555C426.938 471.169 427.259 470.867 427.665 470.652C428.074 470.436 428.533 470.328 429.042 470.328C429.553 470.328 430.006 470.436 430.401 470.652C430.796 470.867 431.106 471.159 431.33 471.525C431.555 471.892 431.667 472.299 431.667 472.748C431.667 473.069 431.609 473.383 431.492 473.69C431.378 473.994 431.18 474.333 430.895 474.708C430.614 475.081 430.224 475.535 429.724 476.072L427.763 478.169V478.237H431.82V479.174H426.314ZM434.3 479.174V478.407L437.181 475.254C437.519 474.885 437.797 474.564 438.016 474.291C438.235 474.015 438.397 473.757 438.502 473.515C438.61 473.271 438.664 473.015 438.664 472.748C438.664 472.441 438.59 472.176 438.442 471.951C438.297 471.727 438.098 471.554 437.846 471.431C437.593 471.309 437.309 471.248 436.993 471.248C436.658 471.248 436.365 471.318 436.115 471.457C435.868 471.593 435.677 471.785 435.54 472.032C435.407 472.279 435.34 472.569 435.34 472.902H434.334C434.334 472.39 434.452 471.941 434.688 471.555C434.924 471.169 435.245 470.867 435.651 470.652C436.06 470.436 436.519 470.328 437.027 470.328C437.539 470.328 437.992 470.436 438.387 470.652C438.782 470.867 439.091 471.159 439.316 471.525C439.54 471.892 439.652 472.299 439.652 472.748C439.652 473.069 439.594 473.383 439.478 473.69C439.364 473.994 439.165 474.333 438.881 474.708C438.6 475.081 438.209 475.535 437.709 476.072L435.749 478.169V478.237H439.806V479.174H434.3ZM446.053 474.342V475.279H442.235V474.342H446.053ZM451.849 476.447H453.008L453.98 477.725L454.236 478.066L455.684 479.992H454.525L453.571 478.714L453.332 478.39L451.849 476.447ZM456.042 474.811C456.042 475.731 455.876 476.527 455.544 477.197C455.211 477.867 454.755 478.385 454.176 478.748C453.596 479.112 452.934 479.294 452.19 479.294C451.446 479.294 450.784 479.112 450.204 478.748C449.625 478.385 449.169 477.867 448.836 477.197C448.504 476.527 448.338 475.731 448.338 474.811C448.338 473.89 448.504 473.095 448.836 472.424C449.169 471.754 449.625 471.237 450.204 470.873C450.784 470.51 451.446 470.328 452.19 470.328C452.934 470.328 453.596 470.51 454.176 470.873C454.755 471.237 455.211 471.754 455.544 472.424C455.876 473.095 456.042 473.89 456.042 474.811ZM455.02 474.811C455.02 474.055 454.893 473.417 454.64 472.897C454.39 472.377 454.051 471.984 453.622 471.717C453.196 471.45 452.718 471.316 452.19 471.316C451.662 471.316 451.183 471.45 450.754 471.717C450.328 471.984 449.988 472.377 449.736 472.897C449.486 473.417 449.361 474.055 449.361 474.811C449.361 475.566 449.486 476.204 449.736 476.724C449.988 477.244 450.328 477.637 450.754 477.904C451.183 478.171 451.662 478.305 452.19 478.305C452.718 478.305 453.196 478.171 453.622 477.904C454.051 477.637 454.39 477.244 454.64 476.724C454.893 476.204 455.02 475.566 455.02 474.811ZM461.335 479.294C460.772 479.294 460.271 479.197 459.831 479.004C459.393 478.811 459.045 478.542 458.786 478.198C458.531 477.852 458.392 477.45 458.369 476.992H459.443C459.465 477.274 459.562 477.517 459.732 477.721C459.903 477.923 460.126 478.079 460.402 478.19C460.677 478.301 460.982 478.356 461.318 478.356C461.693 478.356 462.025 478.291 462.315 478.16C462.605 478.029 462.832 477.848 462.997 477.615C463.161 477.382 463.244 477.112 463.244 476.805C463.244 476.484 463.164 476.201 463.005 475.957C462.846 475.71 462.613 475.517 462.306 475.377C462 475.238 461.625 475.169 461.181 475.169H460.482V474.231H461.181C461.528 474.231 461.832 474.169 462.093 474.044C462.357 473.919 462.563 473.742 462.711 473.515C462.862 473.288 462.937 473.021 462.937 472.714C462.937 472.419 462.872 472.162 462.741 471.943C462.61 471.724 462.426 471.554 462.187 471.431C461.951 471.309 461.673 471.248 461.352 471.248C461.051 471.248 460.767 471.304 460.5 471.414C460.235 471.522 460.019 471.68 459.852 471.887C459.684 472.092 459.593 472.339 459.579 472.629H458.556C458.573 472.171 458.711 471.771 458.97 471.427C459.228 471.081 459.566 470.811 459.984 470.617C460.404 470.424 460.866 470.328 461.369 470.328C461.909 470.328 462.372 470.437 462.758 470.656C463.144 470.872 463.441 471.157 463.649 471.512C463.856 471.867 463.96 472.251 463.96 472.663C463.96 473.154 463.831 473.573 463.572 473.92C463.316 474.267 462.968 474.507 462.528 474.64V474.708C463.079 474.799 463.509 475.034 463.819 475.412C464.129 475.787 464.284 476.251 464.284 476.805C464.284 477.279 464.154 477.706 463.896 478.083C463.64 478.458 463.291 478.754 462.848 478.97C462.404 479.186 461.9 479.294 461.335 479.294Z" fill="#615E83"/>
<path d="M605.917 479.174V478.407L608.797 475.254C609.135 474.885 609.414 474.564 609.633 474.291C609.851 474.015 610.013 473.757 610.118 473.515C610.226 473.271 610.28 473.015 610.28 472.748C610.28 472.441 610.207 472.176 610.059 471.951C609.914 471.727 609.715 471.554 609.462 471.431C609.209 471.309 608.925 471.248 608.61 471.248C608.275 471.248 607.982 471.318 607.732 471.457C607.485 471.593 607.293 471.785 607.157 472.032C607.023 472.279 606.957 472.569 606.957 472.902H605.951C605.951 472.39 606.069 471.941 606.305 471.555C606.54 471.169 606.861 470.867 607.268 470.652C607.677 470.436 608.135 470.328 608.644 470.328C609.155 470.328 609.608 470.436 610.003 470.652C610.398 470.867 610.708 471.159 610.932 471.525C611.157 471.892 611.269 472.299 611.269 472.748C611.269 473.069 611.211 473.383 611.094 473.69C610.981 473.994 610.782 474.333 610.498 474.708C610.216 475.081 609.826 475.535 609.326 476.072L607.366 478.169V478.237H611.422V479.174H605.917ZM616.749 479.294C616.107 479.294 615.56 479.119 615.108 478.769C614.657 478.417 614.311 477.907 614.073 477.24C613.834 476.569 613.715 475.76 613.715 474.811C613.715 473.867 613.834 473.062 614.073 472.394C614.314 471.724 614.661 471.213 615.113 470.86C615.567 470.505 616.113 470.328 616.749 470.328C617.385 470.328 617.929 470.505 618.381 470.86C618.836 471.213 619.182 471.724 619.421 472.394C619.662 473.062 619.783 473.867 619.783 474.811C619.783 475.76 619.664 476.569 619.425 477.24C619.186 477.907 618.841 478.417 618.39 478.769C617.938 479.119 617.391 479.294 616.749 479.294ZM616.749 478.356C617.385 478.356 617.88 478.049 618.232 477.436C618.584 476.822 618.76 475.947 618.76 474.811C618.76 474.055 618.679 473.412 618.517 472.88C618.358 472.349 618.128 471.944 617.827 471.666C617.529 471.387 617.169 471.248 616.749 471.248C616.118 471.248 615.625 471.559 615.27 472.181C614.915 472.801 614.738 473.677 614.738 474.811C614.738 475.566 614.817 476.208 614.976 476.737C615.135 477.265 615.364 477.667 615.662 477.943C615.963 478.218 616.326 478.356 616.749 478.356ZM622.122 479.174V478.407L625.003 475.254C625.341 474.885 625.62 474.564 625.838 474.291C626.057 474.015 626.219 473.757 626.324 473.515C626.432 473.271 626.486 473.015 626.486 472.748C626.486 472.441 626.412 472.176 626.264 471.951C626.12 471.727 625.921 471.554 625.668 471.431C625.415 471.309 625.131 471.248 624.816 471.248C624.48 471.248 624.188 471.318 623.938 471.457C623.691 471.593 623.499 471.785 623.362 472.032C623.229 472.279 623.162 472.569 623.162 472.902H622.156C622.156 472.39 622.274 471.941 622.51 471.555C622.746 471.169 623.067 470.867 623.473 470.652C623.882 470.436 624.341 470.328 624.85 470.328C625.361 470.328 625.814 470.436 626.209 470.652C626.604 470.867 626.914 471.159 627.138 471.525C627.362 471.892 627.475 472.299 627.475 472.748C627.475 473.069 627.416 473.383 627.3 473.69C627.186 473.994 626.987 474.333 626.703 474.708C626.422 475.081 626.031 475.535 625.531 476.072L623.571 478.169V478.237H627.628V479.174H622.122ZM630.108 479.174V478.407L632.989 475.254C633.327 474.885 633.605 474.564 633.824 474.291C634.043 474.015 634.205 473.757 634.31 473.515C634.418 473.271 634.472 473.015 634.472 472.748C634.472 472.441 634.398 472.176 634.25 471.951C634.105 471.727 633.906 471.554 633.653 471.431C633.401 471.309 633.117 471.248 632.801 471.248C632.466 471.248 632.173 471.318 631.923 471.457C631.676 471.593 631.484 471.785 631.348 472.032C631.215 472.279 631.148 472.569 631.148 472.902H630.142C630.142 472.39 630.26 471.941 630.496 471.555C630.732 471.169 631.053 470.867 631.459 470.652C631.868 470.436 632.327 470.328 632.835 470.328C633.347 470.328 633.8 470.436 634.195 470.652C634.59 470.867 634.899 471.159 635.124 471.525C635.348 471.892 635.46 472.299 635.46 472.748C635.46 473.069 635.402 473.383 635.286 473.69C635.172 473.994 634.973 474.333 634.689 474.708C634.408 475.081 634.017 475.535 633.517 476.072L631.557 478.169V478.237H635.614V479.174H630.108ZM641.861 474.342V475.279H638.042V474.342H641.861ZM647.657 476.447H648.816L649.788 477.725L650.043 478.066L651.492 479.992H650.333L649.379 478.714L649.14 478.39L647.657 476.447ZM651.85 474.811C651.85 475.731 651.684 476.527 651.352 477.197C651.019 477.867 650.563 478.385 649.984 478.748C649.404 479.112 648.742 479.294 647.998 479.294C647.254 479.294 646.592 479.112 646.012 478.748C645.433 478.385 644.977 477.867 644.644 477.197C644.312 476.527 644.146 475.731 644.146 474.811C644.146 473.89 644.312 473.095 644.644 472.424C644.977 471.754 645.433 471.237 646.012 470.873C646.592 470.51 647.254 470.328 647.998 470.328C648.742 470.328 649.404 470.51 649.984 470.873C650.563 471.237 651.019 471.754 651.352 472.424C651.684 473.095 651.85 473.89 651.85 474.811ZM650.827 474.811C650.827 474.055 650.701 473.417 650.448 472.897C650.198 472.377 649.859 471.984 649.43 471.717C649.004 471.45 648.526 471.316 647.998 471.316C647.47 471.316 646.991 471.45 646.562 471.717C646.136 471.984 645.796 472.377 645.543 472.897C645.293 473.417 645.168 474.055 645.168 474.811C645.168 475.566 645.293 476.204 645.543 476.724C645.796 477.244 646.136 477.637 646.562 477.904C646.991 478.171 647.47 478.305 647.998 478.305C648.526 478.305 649.004 478.171 649.43 477.904C649.859 477.637 650.198 477.244 650.448 476.724C650.701 476.204 650.827 475.566 650.827 474.811ZM653.989 477.385V476.515L657.824 470.447H658.455V471.794H658.029L655.131 476.379V476.447H660.296V477.385H653.989ZM658.097 479.174V477.12V476.716V470.447H659.103V479.174H658.097Z" fill="#615E83"/>
<path d="M802.627 479.174V478.407L805.508 475.254C805.846 474.885 806.124 474.564 806.343 474.291C806.562 474.015 806.724 473.757 806.829 473.515C806.937 473.271 806.991 473.015 806.991 472.748C806.991 472.441 806.917 472.176 806.769 471.951C806.624 471.727 806.425 471.554 806.173 471.431C805.92 471.309 805.636 471.248 805.32 471.248C804.985 471.248 804.693 471.318 804.443 471.457C804.195 471.593 804.004 471.785 803.867 472.032C803.734 472.279 803.667 472.569 803.667 472.902H802.661C802.661 472.39 802.779 471.941 803.015 471.555C803.251 471.169 803.572 470.867 803.978 470.652C804.387 470.436 804.846 470.328 805.354 470.328C805.866 470.328 806.319 470.436 806.714 470.652C807.109 470.867 807.418 471.159 807.643 471.525C807.867 471.892 807.979 472.299 807.979 472.748C807.979 473.069 807.921 473.383 807.805 473.69C807.691 473.994 807.492 474.333 807.208 474.708C806.927 475.081 806.536 475.535 806.036 476.072L804.076 478.169V478.237H808.133V479.174H802.627ZM813.459 479.294C812.817 479.294 812.27 479.119 811.819 478.769C811.367 478.417 811.022 477.907 810.783 477.24C810.545 476.569 810.425 475.76 810.425 474.811C810.425 473.867 810.545 473.062 810.783 472.394C811.025 471.724 811.371 471.213 811.823 470.86C812.278 470.505 812.823 470.328 813.459 470.328C814.096 470.328 814.64 470.505 815.092 470.86C815.546 471.213 815.893 471.724 816.131 472.394C816.373 473.062 816.493 473.867 816.493 474.811C816.493 475.76 816.374 476.569 816.136 477.24C815.897 477.907 815.552 478.417 815.1 478.769C814.648 479.119 814.101 479.294 813.459 479.294ZM813.459 478.356C814.096 478.356 814.59 478.049 814.942 477.436C815.295 476.822 815.471 475.947 815.471 474.811C815.471 474.055 815.39 473.412 815.228 472.88C815.069 472.349 814.839 471.944 814.538 471.666C814.239 471.387 813.88 471.248 813.459 471.248C812.829 471.248 812.336 471.559 811.981 472.181C811.626 472.801 811.448 473.677 811.448 474.811C811.448 475.566 811.528 476.208 811.687 476.737C811.846 477.265 812.074 477.667 812.373 477.943C812.674 478.218 813.036 478.356 813.459 478.356ZM818.833 479.174V478.407L821.713 475.254C822.052 474.885 822.33 474.564 822.549 474.291C822.767 474.015 822.929 473.757 823.035 473.515C823.142 473.271 823.196 473.015 823.196 472.748C823.196 472.441 823.123 472.176 822.975 471.951C822.83 471.727 822.631 471.554 822.378 471.431C822.125 471.309 821.841 471.248 821.526 471.248C821.191 471.248 820.898 471.318 820.648 471.457C820.401 471.593 820.209 471.785 820.073 472.032C819.939 472.279 819.873 472.569 819.873 472.902H818.867C818.867 472.39 818.985 471.941 819.221 471.555C819.456 471.169 819.777 470.867 820.184 470.652C820.593 470.436 821.052 470.328 821.56 470.328C822.071 470.328 822.525 470.436 822.919 470.652C823.314 470.867 823.624 471.159 823.848 471.525C824.073 471.892 824.185 472.299 824.185 472.748C824.185 473.069 824.127 473.383 824.01 473.69C823.897 473.994 823.698 474.333 823.414 474.708C823.133 475.081 822.742 475.535 822.242 476.072L820.282 478.169V478.237H824.338V479.174H818.833ZM829.767 479.294C829.205 479.294 828.703 479.197 828.263 479.004C827.826 478.811 827.478 478.542 827.219 478.198C826.963 477.852 826.824 477.45 826.801 476.992H827.875C827.898 477.274 827.995 477.517 828.165 477.721C828.335 477.923 828.558 478.079 828.834 478.19C829.11 478.301 829.415 478.356 829.75 478.356C830.125 478.356 830.458 478.291 830.747 478.16C831.037 478.029 831.264 477.848 831.429 477.615C831.594 477.382 831.676 477.112 831.676 476.805C831.676 476.484 831.597 476.201 831.438 475.957C831.279 475.71 831.046 475.517 830.739 475.377C830.432 475.238 830.057 475.169 829.614 475.169H828.915V474.231H829.614C829.96 474.231 830.264 474.169 830.526 474.044C830.79 473.919 830.996 473.742 831.144 473.515C831.294 473.288 831.37 473.021 831.37 472.714C831.37 472.419 831.304 472.162 831.174 471.943C831.043 471.724 830.858 471.554 830.62 471.431C830.384 471.309 830.105 471.248 829.784 471.248C829.483 471.248 829.199 471.304 828.932 471.414C828.668 471.522 828.452 471.68 828.284 471.887C828.117 472.092 828.026 472.339 828.012 472.629H826.989C827.006 472.171 827.144 471.771 827.402 471.427C827.661 471.081 827.999 470.811 828.416 470.617C828.837 470.424 829.299 470.328 829.801 470.328C830.341 470.328 830.804 470.437 831.191 470.656C831.577 470.872 831.874 471.157 832.081 471.512C832.289 471.867 832.392 472.251 832.392 472.663C832.392 473.154 832.263 473.573 832.005 473.92C831.749 474.267 831.401 474.507 830.96 474.64V474.708C831.512 474.799 831.942 475.034 832.252 475.412C832.561 475.787 832.716 476.251 832.716 476.805C832.716 477.279 832.587 477.706 832.328 478.083C832.073 478.458 831.723 478.754 831.28 478.97C830.837 479.186 830.333 479.294 829.767 479.294ZM838.946 474.342V475.279H835.128V474.342H838.946ZM844.742 476.447H845.902L846.873 477.725L847.129 478.066L848.578 479.992H847.419L846.464 478.714L846.225 478.39L844.742 476.447ZM848.936 474.811C848.936 475.731 848.769 476.527 848.437 477.197C848.105 477.867 847.649 478.385 847.069 478.748C846.49 479.112 845.828 479.294 845.083 479.294C844.339 479.294 843.677 479.112 843.098 478.748C842.518 478.385 842.062 477.867 841.73 477.197C841.397 476.527 841.231 475.731 841.231 474.811C841.231 473.89 841.397 473.095 841.73 472.424C842.062 471.754 842.518 471.237 843.098 470.873C843.677 470.51 844.339 470.328 845.083 470.328C845.828 470.328 846.49 470.51 847.069 470.873C847.649 471.237 848.105 471.754 848.437 472.424C848.769 473.095 848.936 473.89 848.936 474.811ZM847.913 474.811C847.913 474.055 847.786 473.417 847.534 472.897C847.284 472.377 846.944 471.984 846.515 471.717C846.089 471.45 845.612 471.316 845.083 471.316C844.555 471.316 844.076 471.45 843.647 471.717C843.221 471.984 842.882 472.377 842.629 472.897C842.379 473.417 842.254 474.055 842.254 474.811C842.254 475.566 842.379 476.204 842.629 476.724C842.882 477.244 843.221 477.637 843.647 477.904C844.076 478.171 844.555 478.305 845.083 478.305C845.612 478.305 846.089 478.171 846.515 477.904C846.944 477.637 847.284 477.244 847.534 476.724C847.786 476.204 847.913 475.566 847.913 474.811ZM854.347 470.447V479.174H853.291V471.555H853.239L851.109 472.97V471.896L853.291 470.447H854.347Z" fill="#615E83"/>
<path d="M997.621 479.174V478.407L1000.5 475.254C1000.84 474.885 1001.12 474.564 1001.34 474.291C1001.56 474.015 1001.72 473.757 1001.82 473.515C1001.93 473.271 1001.98 473.015 1001.98 472.748C1001.98 472.441 1001.91 472.176 1001.76 471.951C1001.62 471.727 1001.42 471.554 1001.17 471.431C1000.91 471.309 1000.63 471.248 1000.31 471.248C999.979 471.248 999.686 471.318 999.436 471.457C999.189 471.593 998.997 471.785 998.861 472.032C998.727 472.279 998.661 472.569 998.661 472.902H997.655C997.655 472.39 997.773 471.941 998.009 471.555C998.244 471.169 998.565 470.867 998.972 470.652C999.381 470.436 999.84 470.328 1000.35 470.328C1000.86 470.328 1001.31 470.436 1001.71 470.652C1002.1 470.867 1002.41 471.159 1002.64 471.525C1002.86 471.892 1002.97 472.299 1002.97 472.748C1002.97 473.069 1002.91 473.383 1002.8 473.69C1002.68 473.994 1002.49 474.333 1002.2 474.708C1001.92 475.081 1001.53 475.535 1001.03 476.072L999.07 478.169V478.237H1003.13V479.174H997.621ZM1008.45 479.294C1007.81 479.294 1007.26 479.119 1006.81 478.769C1006.36 478.417 1006.02 477.907 1005.78 477.24C1005.54 476.569 1005.42 475.76 1005.42 474.811C1005.42 473.867 1005.54 473.062 1005.78 472.394C1006.02 471.724 1006.36 471.213 1006.82 470.86C1007.27 470.505 1007.82 470.328 1008.45 470.328C1009.09 470.328 1009.63 470.505 1010.09 470.86C1010.54 471.213 1010.89 471.724 1011.12 472.394C1011.37 473.062 1011.49 473.867 1011.49 474.811C1011.49 475.76 1011.37 476.569 1011.13 477.24C1010.89 477.907 1010.55 478.417 1010.09 478.769C1009.64 479.119 1009.1 479.294 1008.45 479.294ZM1008.45 478.356C1009.09 478.356 1009.58 478.049 1009.94 477.436C1010.29 476.822 1010.46 475.947 1010.46 474.811C1010.46 474.055 1010.38 473.412 1010.22 472.88C1010.06 472.349 1009.83 471.944 1009.53 471.666C1009.23 471.387 1008.87 471.248 1008.45 471.248C1007.82 471.248 1007.33 471.559 1006.97 472.181C1006.62 472.801 1006.44 473.677 1006.44 474.811C1006.44 475.566 1006.52 476.208 1006.68 476.737C1006.84 477.265 1007.07 477.667 1007.37 477.943C1007.67 478.218 1008.03 478.356 1008.45 478.356ZM1013.83 479.174V478.407L1016.71 475.254C1017.05 474.885 1017.32 474.564 1017.54 474.291C1017.76 474.015 1017.92 473.757 1018.03 473.515C1018.14 473.271 1018.19 473.015 1018.19 472.748C1018.19 472.441 1018.12 472.176 1017.97 471.951C1017.82 471.727 1017.62 471.554 1017.37 471.431C1017.12 471.309 1016.83 471.248 1016.52 471.248C1016.18 471.248 1015.89 471.318 1015.64 471.457C1015.39 471.593 1015.2 471.785 1015.07 472.032C1014.93 472.279 1014.87 472.569 1014.87 472.902H1013.86C1013.86 472.39 1013.98 471.941 1014.21 471.555C1014.45 471.169 1014.77 470.867 1015.18 470.652C1015.59 470.436 1016.05 470.328 1016.55 470.328C1017.07 470.328 1017.52 470.436 1017.91 470.652C1018.31 470.867 1018.62 471.159 1018.84 471.525C1019.07 471.892 1019.18 472.299 1019.18 472.748C1019.18 473.069 1019.12 473.383 1019 473.69C1018.89 473.994 1018.69 474.333 1018.41 474.708C1018.13 475.081 1017.74 475.535 1017.24 476.072L1015.28 478.169V478.237H1019.33V479.174H1013.83ZM1024.76 479.294C1024.2 479.294 1023.7 479.197 1023.26 479.004C1022.82 478.811 1022.47 478.542 1022.21 478.198C1021.96 477.852 1021.82 477.45 1021.8 476.992H1022.87C1022.89 477.274 1022.99 477.517 1023.16 477.721C1023.33 477.923 1023.55 478.079 1023.83 478.19C1024.1 478.301 1024.41 478.356 1024.74 478.356C1025.12 478.356 1025.45 478.291 1025.74 478.16C1026.03 478.029 1026.26 477.848 1026.42 477.615C1026.59 477.382 1026.67 477.112 1026.67 476.805C1026.67 476.484 1026.59 476.201 1026.43 475.957C1026.27 475.71 1026.04 475.517 1025.73 475.377C1025.43 475.238 1025.05 475.169 1024.61 475.169H1023.91V474.231H1024.61C1024.95 474.231 1025.26 474.169 1025.52 474.044C1025.78 473.919 1025.99 473.742 1026.14 473.515C1026.29 473.288 1026.36 473.021 1026.36 472.714C1026.36 472.419 1026.3 472.162 1026.17 471.943C1026.04 471.724 1025.85 471.554 1025.61 471.431C1025.38 471.309 1025.1 471.248 1024.78 471.248C1024.48 471.248 1024.19 471.304 1023.93 471.414C1023.66 471.522 1023.45 471.68 1023.28 471.887C1023.11 472.092 1023.02 472.339 1023.01 472.629H1021.98C1022 472.171 1022.14 471.771 1022.4 471.427C1022.65 471.081 1022.99 470.811 1023.41 470.617C1023.83 470.424 1024.29 470.328 1024.8 470.328C1025.33 470.328 1025.8 470.437 1026.18 470.656C1026.57 470.872 1026.87 471.157 1027.07 471.512C1027.28 471.867 1027.39 472.251 1027.39 472.663C1027.39 473.154 1027.26 473.573 1027 473.92C1026.74 474.267 1026.39 474.507 1025.95 474.64V474.708C1026.51 474.799 1026.94 475.034 1027.25 475.412C1027.55 475.787 1027.71 476.251 1027.71 476.805C1027.71 477.279 1027.58 477.706 1027.32 478.083C1027.07 478.458 1026.72 478.754 1026.27 478.97C1025.83 479.186 1025.33 479.294 1024.76 479.294ZM1033.94 474.342V475.279H1030.12V474.342H1033.94ZM1039.74 476.447H1040.9L1041.87 477.725L1042.12 478.066L1043.57 479.992H1042.41L1041.46 478.714L1041.22 478.39L1039.74 476.447ZM1043.93 474.811C1043.93 475.731 1043.76 476.527 1043.43 477.197C1043.1 477.867 1042.64 478.385 1042.06 478.748C1041.48 479.112 1040.82 479.294 1040.08 479.294C1039.33 479.294 1038.67 479.112 1038.09 478.748C1037.51 478.385 1037.06 477.867 1036.72 477.197C1036.39 476.527 1036.22 475.731 1036.22 474.811C1036.22 473.89 1036.39 473.095 1036.72 472.424C1037.06 471.754 1037.51 471.237 1038.09 470.873C1038.67 470.51 1039.33 470.328 1040.08 470.328C1040.82 470.328 1041.48 470.51 1042.06 470.873C1042.64 471.237 1043.1 471.754 1043.43 472.424C1043.76 473.095 1043.93 473.89 1043.93 474.811ZM1042.91 474.811C1042.91 474.055 1042.78 473.417 1042.53 472.897C1042.28 472.377 1041.94 471.984 1041.51 471.717C1041.08 471.45 1040.61 471.316 1040.08 471.316C1039.55 471.316 1039.07 471.45 1038.64 471.717C1038.21 471.984 1037.88 472.377 1037.62 472.897C1037.37 473.417 1037.25 474.055 1037.25 474.811C1037.25 475.566 1037.37 476.204 1037.62 476.724C1037.88 477.244 1038.21 477.637 1038.64 477.904C1039.07 478.171 1039.55 478.305 1040.08 478.305C1040.61 478.305 1041.08 478.171 1041.51 477.904C1041.94 477.637 1042.28 477.244 1042.53 476.724C1042.78 476.204 1042.91 475.566 1042.91 474.811ZM1046.27 479.174V478.407L1049.15 475.254C1049.49 474.885 1049.77 474.564 1049.99 474.291C1050.21 474.015 1050.37 473.757 1050.47 473.515C1050.58 473.271 1050.64 473.015 1050.64 472.748C1050.64 472.441 1050.56 472.176 1050.41 471.951C1050.27 471.727 1050.07 471.554 1049.82 471.431C1049.57 471.309 1049.28 471.248 1048.97 471.248C1048.63 471.248 1048.34 471.318 1048.09 471.457C1047.84 471.593 1047.65 471.785 1047.51 472.032C1047.38 472.279 1047.31 472.569 1047.31 472.902H1046.31C1046.31 472.39 1046.42 471.941 1046.66 471.555C1046.9 471.169 1047.22 470.867 1047.62 470.652C1048.03 470.436 1048.49 470.328 1049 470.328C1049.51 470.328 1049.96 470.436 1050.36 470.652C1050.75 470.867 1051.06 471.159 1051.29 471.525C1051.51 471.892 1051.63 472.299 1051.63 472.748C1051.63 473.069 1051.57 473.383 1051.45 473.69C1051.34 473.994 1051.14 474.333 1050.85 474.708C1050.57 475.081 1050.18 475.535 1049.68 476.072L1047.72 478.169V478.237H1051.78V479.174H1046.27Z" fill="#615E83"/>
<path d="M1193.27 479.174V478.407L1196.15 475.254C1196.49 474.885 1196.77 474.564 1196.99 474.291C1197.21 474.015 1197.37 473.757 1197.47 473.515C1197.58 473.271 1197.63 473.015 1197.63 472.748C1197.63 472.441 1197.56 472.176 1197.41 471.951C1197.27 471.727 1197.07 471.554 1196.82 471.431C1196.56 471.309 1196.28 471.248 1195.96 471.248C1195.63 471.248 1195.34 471.318 1195.09 471.457C1194.84 471.593 1194.65 471.785 1194.51 472.032C1194.38 472.279 1194.31 472.569 1194.31 472.902H1193.3C1193.3 472.39 1193.42 471.941 1193.66 471.555C1193.89 471.169 1194.22 470.867 1194.62 470.652C1195.03 470.436 1195.49 470.328 1196 470.328C1196.51 470.328 1196.96 470.436 1197.36 470.652C1197.75 470.867 1198.06 471.159 1198.29 471.525C1198.51 471.892 1198.62 472.299 1198.62 472.748C1198.62 473.069 1198.56 473.383 1198.45 473.69C1198.33 473.994 1198.14 474.333 1197.85 474.708C1197.57 475.081 1197.18 475.535 1196.68 476.072L1194.72 478.169V478.237H1198.78V479.174H1193.27ZM1204.1 479.294C1203.46 479.294 1202.91 479.119 1202.46 478.769C1202.01 478.417 1201.67 477.907 1201.43 477.24C1201.19 476.569 1201.07 475.76 1201.07 474.811C1201.07 473.867 1201.19 473.062 1201.43 472.394C1201.67 471.724 1202.01 471.213 1202.47 470.86C1202.92 470.505 1203.47 470.328 1204.1 470.328C1204.74 470.328 1205.28 470.505 1205.73 470.86C1206.19 471.213 1206.54 471.724 1206.77 472.394C1207.02 473.062 1207.14 473.867 1207.14 474.811C1207.14 475.76 1207.02 476.569 1206.78 477.24C1206.54 477.907 1206.2 478.417 1205.74 478.769C1205.29 479.119 1204.74 479.294 1204.1 479.294ZM1204.1 478.356C1204.74 478.356 1205.23 478.049 1205.59 477.436C1205.94 476.822 1206.11 475.947 1206.11 474.811C1206.11 474.055 1206.03 473.412 1205.87 472.88C1205.71 472.349 1205.48 471.944 1205.18 471.666C1204.88 471.387 1204.52 471.248 1204.1 471.248C1203.47 471.248 1202.98 471.559 1202.62 472.181C1202.27 472.801 1202.09 473.677 1202.09 474.811C1202.09 475.566 1202.17 476.208 1202.33 476.737C1202.49 477.265 1202.72 477.667 1203.02 477.943C1203.32 478.218 1203.68 478.356 1204.1 478.356ZM1209.48 479.174V478.407L1212.36 475.254C1212.69 474.885 1212.97 474.564 1213.19 474.291C1213.41 474.015 1213.57 473.757 1213.68 473.515C1213.79 473.271 1213.84 473.015 1213.84 472.748C1213.84 472.441 1213.77 472.176 1213.62 471.951C1213.47 471.727 1213.27 471.554 1213.02 471.431C1212.77 471.309 1212.48 471.248 1212.17 471.248C1211.83 471.248 1211.54 471.318 1211.29 471.457C1211.04 471.593 1210.85 471.785 1210.72 472.032C1210.58 472.279 1210.52 472.569 1210.52 472.902H1209.51C1209.51 472.39 1209.63 471.941 1209.86 471.555C1210.1 471.169 1210.42 470.867 1210.83 470.652C1211.24 470.436 1211.69 470.328 1212.2 470.328C1212.71 470.328 1213.17 470.436 1213.56 470.652C1213.96 470.867 1214.27 471.159 1214.49 471.525C1214.72 471.892 1214.83 472.299 1214.83 472.748C1214.83 473.069 1214.77 473.383 1214.65 473.69C1214.54 473.994 1214.34 474.333 1214.06 474.708C1213.78 475.081 1213.39 475.535 1212.89 476.072L1210.92 478.169V478.237H1214.98V479.174H1209.48ZM1220.41 479.294C1219.85 479.294 1219.35 479.197 1218.91 479.004C1218.47 478.811 1218.12 478.542 1217.86 478.198C1217.61 477.852 1217.47 477.45 1217.44 476.992H1218.52C1218.54 477.274 1218.64 477.517 1218.81 477.721C1218.98 477.923 1219.2 478.079 1219.48 478.19C1219.75 478.301 1220.06 478.356 1220.39 478.356C1220.77 478.356 1221.1 478.291 1221.39 478.16C1221.68 478.029 1221.91 477.848 1222.07 477.615C1222.24 477.382 1222.32 477.112 1222.32 476.805C1222.32 476.484 1222.24 476.201 1222.08 475.957C1221.92 475.71 1221.69 475.517 1221.38 475.377C1221.08 475.238 1220.7 475.169 1220.26 475.169H1219.56V474.231H1220.26C1220.6 474.231 1220.91 474.169 1221.17 474.044C1221.43 473.919 1221.64 473.742 1221.79 473.515C1221.94 473.288 1222.01 473.021 1222.01 472.714C1222.01 472.419 1221.95 472.162 1221.82 471.943C1221.69 471.724 1221.5 471.554 1221.26 471.431C1221.03 471.309 1220.75 471.248 1220.43 471.248C1220.13 471.248 1219.84 471.304 1219.58 471.414C1219.31 471.522 1219.1 471.68 1218.93 471.887C1218.76 472.092 1218.67 472.339 1218.65 472.629H1217.63C1217.65 472.171 1217.79 471.771 1218.05 471.427C1218.3 471.081 1218.64 470.811 1219.06 470.617C1219.48 470.424 1219.94 470.328 1220.44 470.328C1220.98 470.328 1221.45 470.437 1221.83 470.656C1222.22 470.872 1222.52 471.157 1222.72 471.512C1222.93 471.867 1223.04 472.251 1223.04 472.663C1223.04 473.154 1222.91 473.573 1222.65 473.92C1222.39 474.267 1222.04 474.507 1221.6 474.64V474.708C1222.15 474.799 1222.59 475.034 1222.89 475.412C1223.2 475.787 1223.36 476.251 1223.36 476.805C1223.36 477.279 1223.23 477.706 1222.97 478.083C1222.72 478.458 1222.37 478.754 1221.92 478.97C1221.48 479.186 1220.98 479.294 1220.41 479.294ZM1229.59 474.342V475.279H1225.77V474.342H1229.59ZM1235.39 476.447H1236.54L1237.52 477.725L1237.77 478.066L1239.22 479.992H1238.06L1237.11 478.714L1236.87 478.39L1235.39 476.447ZM1239.58 474.811C1239.58 475.731 1239.41 476.527 1239.08 477.197C1238.75 477.867 1238.29 478.385 1237.71 478.748C1237.13 479.112 1236.47 479.294 1235.73 479.294C1234.98 479.294 1234.32 479.112 1233.74 478.748C1233.16 478.385 1232.71 477.867 1232.37 477.197C1232.04 476.527 1231.87 475.731 1231.87 474.811C1231.87 473.89 1232.04 473.095 1232.37 472.424C1232.71 471.754 1233.16 471.237 1233.74 470.873C1234.32 470.51 1234.98 470.328 1235.73 470.328C1236.47 470.328 1237.13 470.51 1237.71 470.873C1238.29 471.237 1238.75 471.754 1239.08 472.424C1239.41 473.095 1239.58 473.89 1239.58 474.811ZM1238.56 474.811C1238.56 474.055 1238.43 473.417 1238.18 472.897C1237.93 472.377 1237.59 471.984 1237.16 471.717C1236.73 471.45 1236.26 471.316 1235.73 471.316C1235.2 471.316 1234.72 471.45 1234.29 471.717C1233.86 471.984 1233.52 472.377 1233.27 472.897C1233.02 473.417 1232.9 474.055 1232.9 474.811C1232.9 475.566 1233.02 476.204 1233.27 476.724C1233.52 477.244 1233.86 477.637 1234.29 477.904C1234.72 478.171 1235.2 478.305 1235.73 478.305C1236.26 478.305 1236.73 478.171 1237.16 477.904C1237.59 477.637 1237.93 477.244 1238.18 476.724C1238.43 476.204 1238.56 475.566 1238.56 474.811ZM1244.87 479.294C1244.31 479.294 1243.81 479.197 1243.37 479.004C1242.93 478.811 1242.58 478.542 1242.32 478.198C1242.07 477.852 1241.93 477.45 1241.91 476.992H1242.98C1243 477.274 1243.1 477.517 1243.27 477.721C1243.44 477.923 1243.66 478.079 1243.94 478.19C1244.21 478.301 1244.52 478.356 1244.85 478.356C1245.23 478.356 1245.56 478.291 1245.85 478.16C1246.14 478.029 1246.37 477.848 1246.53 477.615C1246.7 477.382 1246.78 477.112 1246.78 476.805C1246.78 476.484 1246.7 476.201 1246.54 475.957C1246.38 475.71 1246.15 475.517 1245.84 475.377C1245.54 475.238 1245.16 475.169 1244.72 475.169H1244.02V474.231H1244.72C1245.06 474.231 1245.37 474.169 1245.63 474.044C1245.89 473.919 1246.1 473.742 1246.25 473.515C1246.4 473.288 1246.47 473.021 1246.47 472.714C1246.47 472.419 1246.41 472.162 1246.28 471.943C1246.15 471.724 1245.96 471.554 1245.72 471.431C1245.49 471.309 1245.21 471.248 1244.89 471.248C1244.59 471.248 1244.3 471.304 1244.04 471.414C1243.77 471.522 1243.56 471.68 1243.39 471.887C1243.22 472.092 1243.13 472.339 1243.12 472.629H1242.09C1242.11 472.171 1242.25 471.771 1242.51 471.427C1242.76 471.081 1243.1 470.811 1243.52 470.617C1243.94 470.424 1244.4 470.328 1244.91 470.328C1245.45 470.328 1245.91 470.437 1246.29 470.656C1246.68 470.872 1246.98 471.157 1247.19 471.512C1247.39 471.867 1247.5 472.251 1247.5 472.663C1247.5 473.154 1247.37 473.573 1247.11 473.92C1246.85 474.267 1246.5 474.507 1246.06 474.64V474.708C1246.62 474.799 1247.05 475.034 1247.36 475.412C1247.67 475.787 1247.82 476.251 1247.82 476.805C1247.82 477.279 1247.69 477.706 1247.43 478.083C1247.18 478.458 1246.83 478.754 1246.38 478.97C1245.94 479.186 1245.44 479.294 1244.87 479.294Z" fill="#615E83"/>
<path d="M1317.54 431.018V432.268H1312.45V431.018H1317.54ZM1319.33 437.461V436.439L1323.17 432.234C1323.62 431.742 1323.99 431.314 1324.29 430.95C1324.58 430.582 1324.79 430.238 1324.93 429.916C1325.08 429.59 1325.15 429.249 1325.15 428.893C1325.15 428.484 1325.05 428.13 1324.85 427.831C1324.66 427.531 1324.4 427.3 1324.06 427.137C1323.72 426.975 1323.34 426.893 1322.92 426.893C1322.48 426.893 1322.09 426.986 1321.75 427.171C1321.42 427.353 1321.17 427.609 1320.99 427.939C1320.81 428.268 1320.72 428.654 1320.72 429.098H1319.38C1319.38 428.416 1319.53 427.817 1319.85 427.302C1320.16 426.787 1320.59 426.385 1321.13 426.098C1321.68 425.81 1322.29 425.666 1322.97 425.666C1323.65 425.666 1324.25 425.81 1324.78 426.098C1325.31 426.385 1325.72 426.774 1326.02 427.262C1326.32 427.751 1326.47 428.295 1326.47 428.893C1326.47 429.321 1326.39 429.74 1326.24 430.149C1326.08 430.554 1325.82 431.007 1325.44 431.507C1325.06 432.003 1324.54 432.609 1323.88 433.325L1321.26 436.12V436.211H1326.67V437.461H1319.33ZM1332.81 437.62C1331.96 437.62 1331.23 437.387 1330.63 436.921C1330.02 436.452 1329.56 435.772 1329.25 434.882C1328.93 433.988 1328.77 432.908 1328.77 431.643C1328.77 430.385 1328.93 429.312 1329.25 428.421C1329.57 427.528 1330.03 426.846 1330.63 426.376C1331.24 425.903 1331.97 425.666 1332.81 425.666C1333.66 425.666 1334.39 425.903 1334.99 426.376C1335.6 426.846 1336.06 427.528 1336.38 428.421C1336.7 429.312 1336.86 430.385 1336.86 431.643C1336.86 432.908 1336.7 433.988 1336.38 434.882C1336.06 435.772 1335.6 436.452 1335 436.921C1334.4 437.387 1333.67 437.62 1332.81 437.62ZM1332.81 436.37C1333.66 436.37 1334.32 435.961 1334.79 435.143C1335.26 434.325 1335.5 433.158 1335.5 431.643C1335.5 430.635 1335.39 429.778 1335.17 429.069C1334.96 428.361 1334.65 427.821 1334.25 427.45C1333.85 427.079 1333.38 426.893 1332.81 426.893C1331.97 426.893 1331.32 427.308 1330.84 428.137C1330.37 428.963 1330.13 430.132 1330.13 431.643C1330.13 432.651 1330.24 433.507 1330.45 434.211C1330.66 434.916 1330.97 435.452 1331.37 435.819C1331.77 436.187 1332.25 436.37 1332.81 436.37ZM1344.95 435.279V434.666C1344.95 434.242 1345.04 433.853 1345.21 433.501C1345.39 433.145 1345.65 432.861 1345.99 432.649C1346.33 432.433 1346.74 432.325 1347.22 432.325C1347.72 432.325 1348.13 432.433 1348.46 432.649C1348.8 432.861 1349.05 433.145 1349.22 433.501C1349.39 433.853 1349.47 434.242 1349.47 434.666V435.279C1349.47 435.704 1349.39 436.094 1349.21 436.45C1349.04 436.802 1348.79 437.086 1348.45 437.302C1348.12 437.514 1347.71 437.62 1347.22 437.62C1346.73 437.62 1346.32 437.514 1345.98 437.302C1345.64 437.086 1345.39 436.802 1345.21 436.45C1345.04 436.094 1344.95 435.704 1344.95 435.279ZM1346.11 434.666V435.279C1346.11 435.632 1346.19 435.948 1346.36 436.228C1346.53 436.505 1346.81 436.643 1347.22 436.643C1347.62 436.643 1347.9 436.505 1348.06 436.228C1348.23 435.948 1348.31 435.632 1348.31 435.279V434.666C1348.31 434.314 1348.24 433.999 1348.08 433.723C1347.92 433.442 1347.63 433.302 1347.22 433.302C1346.83 433.302 1346.54 433.442 1346.37 433.723C1346.2 433.999 1346.11 434.314 1346.11 434.666ZM1339.16 428.62V428.007C1339.16 427.582 1339.24 427.194 1339.42 426.842C1339.59 426.486 1339.85 426.202 1340.19 425.99C1340.53 425.774 1340.94 425.666 1341.43 425.666C1341.92 425.666 1342.33 425.774 1342.67 425.99C1343 426.202 1343.25 426.486 1343.42 426.842C1343.59 427.194 1343.68 427.582 1343.68 428.007V428.62C1343.68 429.045 1343.59 429.435 1343.42 429.791C1343.25 430.143 1342.99 430.427 1342.66 430.643C1342.32 430.855 1341.91 430.961 1341.43 430.961C1340.94 430.961 1340.52 430.855 1340.18 430.643C1339.85 430.427 1339.59 430.143 1339.42 429.791C1339.24 429.435 1339.16 429.045 1339.16 428.62ZM1340.31 428.007V428.62C1340.31 428.973 1340.4 429.289 1340.56 429.569C1340.73 429.846 1341.02 429.984 1341.43 429.984C1341.83 429.984 1342.11 429.846 1342.27 429.569C1342.44 429.289 1342.52 428.973 1342.52 428.62V428.007C1342.52 427.654 1342.44 427.34 1342.28 427.064C1342.12 426.783 1341.84 426.643 1341.43 426.643C1341.03 426.643 1340.74 426.783 1340.57 427.064C1340.4 427.34 1340.31 427.654 1340.31 428.007ZM1339.59 437.461L1347.59 425.825H1348.88L1340.88 437.461H1339.59Z" fill="#615E83"/>
<path d="M1316.16 369.345V370.595H1311.07V369.345H1316.16ZM1322.59 364.152V375.788H1321.18V365.629H1321.11L1318.27 367.515V366.084L1321.18 364.152H1322.59ZM1329.73 375.947C1328.87 375.947 1328.15 375.714 1327.54 375.248C1326.94 374.779 1326.48 374.099 1326.16 373.209C1325.84 372.315 1325.68 371.235 1325.68 369.97C1325.68 368.712 1325.84 367.638 1326.16 366.748C1326.48 365.854 1326.95 365.173 1327.55 364.703C1328.15 364.229 1328.88 363.993 1329.73 363.993C1330.58 363.993 1331.3 364.229 1331.91 364.703C1332.51 365.173 1332.97 365.854 1333.29 366.748C1333.61 367.638 1333.78 368.712 1333.78 369.97C1333.78 371.235 1333.62 372.315 1333.3 373.209C1332.98 374.099 1332.52 374.779 1331.92 375.248C1331.32 375.714 1330.59 375.947 1329.73 375.947ZM1329.73 374.697C1330.58 374.697 1331.24 374.288 1331.71 373.47C1332.18 372.652 1332.41 371.485 1332.41 369.97C1332.41 368.962 1332.3 368.104 1332.09 367.396C1331.88 366.688 1331.57 366.148 1331.17 365.777C1330.77 365.406 1330.29 365.22 1329.73 365.22C1328.89 365.22 1328.23 365.635 1327.76 366.464C1327.29 367.29 1327.05 368.459 1327.05 369.97C1327.05 370.977 1327.15 371.834 1327.37 372.538C1327.58 373.243 1327.88 373.779 1328.28 374.146C1328.68 374.513 1329.17 374.697 1329.73 374.697ZM1341.87 373.606V372.993C1341.87 372.568 1341.95 372.18 1342.13 371.828C1342.31 371.472 1342.56 371.188 1342.9 370.976C1343.24 370.76 1343.65 370.652 1344.14 370.652C1344.63 370.652 1345.04 370.76 1345.38 370.976C1345.71 371.188 1345.96 371.472 1346.13 371.828C1346.3 372.18 1346.39 372.568 1346.39 372.993V373.606C1346.39 374.031 1346.3 374.421 1346.13 374.777C1345.96 375.129 1345.7 375.413 1345.37 375.629C1345.03 375.841 1344.62 375.947 1344.14 375.947C1343.65 375.947 1343.23 375.841 1342.9 375.629C1342.56 375.413 1342.3 375.129 1342.13 374.777C1341.95 374.421 1341.87 374.031 1341.87 373.606ZM1343.03 372.993V373.606C1343.03 373.959 1343.11 374.275 1343.28 374.555C1343.44 374.832 1343.73 374.97 1344.14 374.97C1344.54 374.97 1344.82 374.832 1344.98 374.555C1345.15 374.275 1345.23 373.959 1345.23 373.606V372.993C1345.23 372.64 1345.15 372.326 1344.99 372.049C1344.83 371.769 1344.55 371.629 1344.14 371.629C1343.74 371.629 1343.46 371.769 1343.28 372.049C1343.11 372.326 1343.03 372.64 1343.03 372.993ZM1336.07 366.947V366.334C1336.07 365.909 1336.16 365.521 1336.33 365.169C1336.51 364.813 1336.77 364.529 1337.11 364.316C1337.45 364.101 1337.86 363.993 1338.34 363.993C1338.84 363.993 1339.25 364.101 1339.58 364.316C1339.92 364.529 1340.17 364.813 1340.34 365.169C1340.51 365.521 1340.59 365.909 1340.59 366.334V366.947C1340.59 367.371 1340.51 367.762 1340.33 368.118C1340.16 368.47 1339.91 368.754 1339.57 368.97C1339.24 369.182 1338.83 369.288 1338.34 369.288C1337.85 369.288 1337.44 369.182 1337.1 368.97C1336.76 368.754 1336.51 368.47 1336.33 368.118C1336.16 367.762 1336.07 367.371 1336.07 366.947ZM1337.23 366.334V366.947C1337.23 367.299 1337.31 367.616 1337.48 367.896C1337.65 368.173 1337.93 368.311 1338.34 368.311C1338.74 368.311 1339.02 368.173 1339.18 367.896C1339.35 367.616 1339.43 367.299 1339.43 366.947V366.334C1339.43 365.981 1339.36 365.667 1339.2 365.39C1339.04 365.11 1338.75 364.97 1338.34 364.97C1337.95 364.97 1337.66 365.11 1337.49 365.39C1337.32 365.667 1337.23 365.981 1337.23 366.334ZM1336.5 375.788L1344.5 364.152H1345.8L1337.8 375.788H1336.5Z" fill="#615E83"/>
<path d="M1332.81 315.816C1331.96 315.816 1331.23 315.583 1330.63 315.117C1330.02 314.647 1329.56 313.967 1329.25 313.077C1328.93 312.183 1328.77 311.104 1328.77 309.839C1328.77 308.581 1328.93 307.507 1329.25 306.617C1329.57 305.723 1330.03 305.041 1330.63 304.572C1331.24 304.098 1331.97 303.861 1332.81 303.861C1333.66 303.861 1334.39 304.098 1334.99 304.572C1335.6 305.041 1336.06 305.723 1336.38 306.617C1336.7 307.507 1336.86 308.581 1336.86 309.839C1336.86 311.104 1336.7 312.183 1336.38 313.077C1336.06 313.967 1335.6 314.647 1335 315.117C1334.4 315.583 1333.67 315.816 1332.81 315.816ZM1332.81 314.566C1333.66 314.566 1334.32 314.157 1334.79 313.339C1335.26 312.52 1335.5 311.354 1335.5 309.839C1335.5 308.831 1335.39 307.973 1335.17 307.265C1334.96 306.556 1334.65 306.017 1334.25 305.645C1333.85 305.274 1333.38 305.089 1332.81 305.089C1331.97 305.089 1331.32 305.503 1330.84 306.333C1330.37 307.159 1330.13 308.327 1330.13 309.839C1330.13 310.846 1330.24 311.702 1330.45 312.407C1330.66 313.111 1330.97 313.647 1331.37 314.015C1331.77 314.382 1332.25 314.566 1332.81 314.566ZM1344.95 313.475V312.861C1344.95 312.437 1345.04 312.049 1345.21 311.697C1345.39 311.34 1345.65 311.056 1345.98 310.844C1346.33 310.628 1346.74 310.52 1347.22 310.52C1347.72 310.52 1348.13 310.628 1348.46 310.844C1348.8 311.056 1349.05 311.34 1349.22 311.697C1349.39 312.049 1349.47 312.437 1349.47 312.861V313.475C1349.47 313.899 1349.39 314.289 1349.21 314.645C1349.04 314.998 1348.79 315.282 1348.45 315.498C1348.12 315.71 1347.71 315.816 1347.22 315.816C1346.73 315.816 1346.32 315.71 1345.98 315.498C1345.64 315.282 1345.39 314.998 1345.21 314.645C1345.04 314.289 1344.95 313.899 1344.95 313.475ZM1346.11 312.861V313.475C1346.11 313.827 1346.19 314.143 1346.36 314.424C1346.53 314.7 1346.81 314.839 1347.22 314.839C1347.62 314.839 1347.9 314.7 1348.06 314.424C1348.23 314.143 1348.31 313.827 1348.31 313.475V312.861C1348.31 312.509 1348.23 312.195 1348.08 311.918C1347.92 311.638 1347.63 311.498 1347.22 311.498C1346.83 311.498 1346.54 311.638 1346.37 311.918C1346.2 312.195 1346.11 312.509 1346.11 312.861ZM1339.16 306.816V306.202C1339.16 305.778 1339.24 305.39 1339.42 305.037C1339.59 304.681 1339.85 304.397 1340.19 304.185C1340.53 303.969 1340.94 303.861 1341.43 303.861C1341.92 303.861 1342.33 303.969 1342.67 304.185C1343 304.397 1343.25 304.681 1343.42 305.037C1343.59 305.39 1343.68 305.778 1343.68 306.202V306.816C1343.68 307.24 1343.59 307.63 1343.42 307.986C1343.25 308.339 1342.99 308.623 1342.66 308.839C1342.32 309.051 1341.91 309.157 1341.43 309.157C1340.94 309.157 1340.52 309.051 1340.18 308.839C1339.85 308.623 1339.59 308.339 1339.42 307.986C1339.24 307.63 1339.16 307.24 1339.16 306.816ZM1340.31 306.202V306.816C1340.31 307.168 1340.4 307.484 1340.56 307.765C1340.73 308.041 1341.02 308.179 1341.43 308.179C1341.83 308.179 1342.11 308.041 1342.27 307.765C1342.44 307.484 1342.52 307.168 1342.52 306.816V306.202C1342.52 305.85 1342.44 305.536 1342.28 305.259C1342.12 304.979 1341.84 304.839 1341.43 304.839C1341.03 304.839 1340.74 304.979 1340.57 305.259C1340.4 305.536 1340.31 305.85 1340.31 306.202ZM1339.59 315.657L1347.59 304.02H1348.88L1340.88 315.657H1339.59Z" fill="#615E83"/>
<path d="M1325.67 243.889V255.525H1324.26V245.366H1324.2L1321.35 247.253V245.821L1324.26 243.889H1325.67ZM1332.81 255.684C1331.96 255.684 1331.23 255.452 1330.63 254.986C1330.02 254.516 1329.56 253.836 1329.25 252.946C1328.93 252.052 1328.77 250.972 1328.77 249.707C1328.77 248.45 1328.93 247.376 1329.25 246.486C1329.57 245.592 1330.03 244.91 1330.63 244.44C1331.24 243.967 1331.97 243.73 1332.81 243.73C1333.66 243.73 1334.39 243.967 1334.99 244.44C1335.6 244.91 1336.06 245.592 1336.38 246.486C1336.7 247.376 1336.86 248.45 1336.86 249.707C1336.86 250.972 1336.7 252.052 1336.38 252.946C1336.06 253.836 1335.6 254.516 1335 254.986C1334.4 255.452 1333.67 255.684 1332.81 255.684ZM1332.81 254.434C1333.66 254.434 1334.32 254.025 1334.79 253.207C1335.26 252.389 1335.5 251.222 1335.5 249.707C1335.5 248.7 1335.39 247.842 1335.17 247.133C1334.96 246.425 1334.65 245.885 1334.25 245.514C1333.85 245.143 1333.38 244.957 1332.81 244.957C1331.97 244.957 1331.32 245.372 1330.84 246.202C1330.37 247.027 1330.13 248.196 1330.13 249.707C1330.13 250.715 1330.24 251.571 1330.45 252.275C1330.66 252.98 1330.97 253.516 1331.37 253.883C1331.77 254.251 1332.25 254.434 1332.81 254.434ZM1344.95 253.344V252.73C1344.95 252.306 1345.04 251.917 1345.21 251.565C1345.39 251.209 1345.65 250.925 1345.98 250.713C1346.33 250.497 1346.74 250.389 1347.22 250.389C1347.72 250.389 1348.13 250.497 1348.46 250.713C1348.8 250.925 1349.05 251.209 1349.22 251.565C1349.39 251.917 1349.47 252.306 1349.47 252.73V253.344C1349.47 253.768 1349.39 254.158 1349.21 254.514C1349.04 254.866 1348.79 255.15 1348.45 255.366C1348.12 255.578 1347.71 255.684 1347.22 255.684C1346.73 255.684 1346.32 255.578 1345.98 255.366C1345.64 255.15 1345.39 254.866 1345.21 254.514C1345.04 254.158 1344.95 253.768 1344.95 253.344ZM1346.11 252.73V253.344C1346.11 253.696 1346.19 254.012 1346.36 254.292C1346.53 254.569 1346.81 254.707 1347.22 254.707C1347.62 254.707 1347.9 254.569 1348.06 254.292C1348.23 254.012 1348.31 253.696 1348.31 253.344V252.73C1348.31 252.378 1348.23 252.063 1348.08 251.787C1347.92 251.506 1347.63 251.366 1347.22 251.366C1346.83 251.366 1346.54 251.506 1346.37 251.787C1346.2 252.063 1346.11 252.378 1346.11 252.73ZM1339.16 246.684V246.071C1339.16 245.647 1339.24 245.258 1339.42 244.906C1339.59 244.55 1339.85 244.266 1340.19 244.054C1340.53 243.838 1340.94 243.73 1341.43 243.73C1341.92 243.73 1342.33 243.838 1342.67 244.054C1343 244.266 1343.25 244.55 1343.42 244.906C1343.59 245.258 1343.68 245.647 1343.68 246.071V246.684C1343.68 247.109 1343.59 247.499 1343.42 247.855C1343.25 248.207 1342.99 248.491 1342.66 248.707C1342.32 248.919 1341.91 249.025 1341.43 249.025C1340.94 249.025 1340.52 248.919 1340.18 248.707C1339.85 248.491 1339.59 248.207 1339.42 247.855C1339.24 247.499 1339.16 247.109 1339.16 246.684ZM1340.31 246.071V246.684C1340.31 247.037 1340.4 247.353 1340.56 247.633C1340.73 247.91 1341.02 248.048 1341.43 248.048C1341.83 248.048 1342.11 247.91 1342.27 247.633C1342.44 247.353 1342.52 247.037 1342.52 246.684V246.071C1342.52 245.719 1342.44 245.404 1342.28 245.128C1342.12 244.847 1341.84 244.707 1341.43 244.707C1341.03 244.707 1340.74 244.847 1340.57 245.128C1340.4 245.404 1340.31 245.719 1340.31 246.071ZM1339.59 255.525L1347.59 243.889H1348.88L1340.88 255.525H1339.59Z" fill="#615E83"/>
<path d="M1319.33 195.394V194.371L1323.17 190.167C1323.62 189.674 1323.99 189.246 1324.29 188.883C1324.58 188.515 1324.79 188.171 1324.93 187.849C1325.08 187.523 1325.15 187.182 1325.15 186.826C1325.15 186.417 1325.05 186.063 1324.85 185.763C1324.66 185.464 1324.4 185.233 1324.06 185.07C1323.72 184.907 1323.34 184.826 1322.92 184.826C1322.48 184.826 1322.09 184.919 1321.75 185.104C1321.42 185.286 1321.17 185.542 1320.98 185.871C1320.81 186.201 1320.72 186.587 1320.72 187.03H1319.38C1319.38 186.349 1319.53 185.75 1319.85 185.235C1320.16 184.72 1320.59 184.318 1321.13 184.03C1321.68 183.743 1322.29 183.599 1322.97 183.599C1323.65 183.599 1324.25 183.743 1324.78 184.03C1325.31 184.318 1325.72 184.707 1326.02 185.195C1326.32 185.684 1326.47 186.227 1326.47 186.826C1326.47 187.254 1326.39 187.672 1326.23 188.082C1326.08 188.487 1325.82 188.939 1325.44 189.439C1325.06 189.936 1324.54 190.542 1323.88 191.258L1321.26 194.053V194.144H1326.67V195.394H1319.33ZM1332.81 195.553C1331.96 195.553 1331.23 195.32 1330.63 194.854C1330.02 194.385 1329.56 193.705 1329.25 192.814C1328.93 191.921 1328.77 190.841 1328.77 189.576C1328.77 188.318 1328.93 187.244 1329.25 186.354C1329.57 185.46 1330.03 184.779 1330.63 184.309C1331.24 183.835 1331.97 183.599 1332.81 183.599C1333.66 183.599 1334.39 183.835 1334.99 184.309C1335.6 184.779 1336.06 185.46 1336.38 186.354C1336.7 187.244 1336.86 188.318 1336.86 189.576C1336.86 190.841 1336.7 191.921 1336.38 192.814C1336.06 193.705 1335.6 194.385 1335 194.854C1334.4 195.32 1333.67 195.553 1332.81 195.553ZM1332.81 194.303C1333.66 194.303 1334.32 193.894 1334.79 193.076C1335.26 192.258 1335.5 191.091 1335.5 189.576C1335.5 188.568 1335.39 187.71 1335.17 187.002C1334.96 186.294 1334.65 185.754 1334.25 185.383C1333.85 185.011 1333.38 184.826 1332.81 184.826C1331.97 184.826 1331.32 185.241 1330.84 186.07C1330.37 186.896 1330.13 188.064 1330.13 189.576C1330.13 190.583 1330.24 191.439 1330.45 192.144C1330.66 192.849 1330.97 193.385 1331.37 193.752C1331.77 194.119 1332.25 194.303 1332.81 194.303ZM1344.95 193.212V192.599C1344.95 192.174 1345.04 191.786 1345.21 191.434C1345.39 191.078 1345.65 190.794 1345.98 190.582C1346.33 190.366 1346.74 190.258 1347.22 190.258C1347.72 190.258 1348.13 190.366 1348.46 190.582C1348.8 190.794 1349.05 191.078 1349.22 191.434C1349.39 191.786 1349.47 192.174 1349.47 192.599V193.212C1349.47 193.636 1349.39 194.027 1349.21 194.383C1349.04 194.735 1348.79 195.019 1348.45 195.235C1348.12 195.447 1347.71 195.553 1347.22 195.553C1346.73 195.553 1346.32 195.447 1345.98 195.235C1345.64 195.019 1345.39 194.735 1345.21 194.383C1345.04 194.027 1344.95 193.636 1344.95 193.212ZM1346.11 192.599V193.212C1346.11 193.564 1346.19 193.881 1346.36 194.161C1346.53 194.438 1346.81 194.576 1347.22 194.576C1347.62 194.576 1347.9 194.438 1348.06 194.161C1348.23 193.881 1348.31 193.564 1348.31 193.212V192.599C1348.31 192.246 1348.23 191.932 1348.08 191.655C1347.92 191.375 1347.63 191.235 1347.22 191.235C1346.83 191.235 1346.54 191.375 1346.37 191.655C1346.2 191.932 1346.11 192.246 1346.11 192.599ZM1339.16 186.553V185.939C1339.16 185.515 1339.24 185.127 1339.42 184.775C1339.59 184.419 1339.85 184.135 1340.19 183.922C1340.53 183.707 1340.94 183.599 1341.43 183.599C1341.92 183.599 1342.33 183.707 1342.67 183.922C1343 184.135 1343.25 184.419 1343.42 184.775C1343.59 185.127 1343.68 185.515 1343.68 185.939V186.553C1343.68 186.977 1343.59 187.368 1343.42 187.724C1343.25 188.076 1342.99 188.36 1342.66 188.576C1342.32 188.788 1341.91 188.894 1341.43 188.894C1340.94 188.894 1340.52 188.788 1340.18 188.576C1339.85 188.36 1339.59 188.076 1339.42 187.724C1339.24 187.368 1339.16 186.977 1339.16 186.553ZM1340.31 185.939V186.553C1340.31 186.905 1340.4 187.222 1340.56 187.502C1340.73 187.779 1341.02 187.917 1341.43 187.917C1341.83 187.917 1342.11 187.779 1342.27 187.502C1342.44 187.222 1342.52 186.905 1342.52 186.553V185.939C1342.52 185.587 1342.44 185.273 1342.28 184.996C1342.12 184.716 1341.84 184.576 1341.43 184.576C1341.03 184.576 1340.74 184.716 1340.57 184.996C1340.4 185.273 1340.31 185.587 1340.31 185.939ZM1339.59 195.394L1347.59 183.758H1348.88L1340.88 195.394H1339.59Z" fill="#615E83"/>
<path d="M1322.76 135.422C1322.01 135.422 1321.34 135.293 1320.76 135.035C1320.17 134.778 1319.71 134.42 1319.37 133.962C1319.02 133.499 1318.84 132.963 1318.81 132.354H1320.24C1320.27 132.729 1320.4 133.052 1320.63 133.325C1320.85 133.594 1321.15 133.802 1321.52 133.95C1321.89 134.098 1322.29 134.172 1322.74 134.172C1323.24 134.172 1323.68 134.085 1324.07 133.91C1324.46 133.736 1324.76 133.494 1324.98 133.183C1325.2 132.873 1325.31 132.513 1325.31 132.104C1325.31 131.676 1325.2 131.299 1324.99 130.973C1324.78 130.643 1324.47 130.386 1324.06 130.2C1323.65 130.015 1323.15 129.922 1322.56 129.922H1321.63V128.672H1322.56C1323.02 128.672 1323.43 128.588 1323.77 128.422C1324.13 128.255 1324.4 128.02 1324.6 127.717C1324.8 127.414 1324.9 127.058 1324.9 126.649C1324.9 126.255 1324.81 125.912 1324.64 125.621C1324.46 125.329 1324.22 125.102 1323.9 124.939C1323.59 124.776 1323.21 124.695 1322.79 124.695C1322.38 124.695 1322.01 124.768 1321.65 124.916C1321.3 125.06 1321.01 125.27 1320.79 125.547C1320.56 125.82 1320.44 126.149 1320.42 126.535H1319.06C1319.08 125.926 1319.27 125.391 1319.61 124.933C1319.95 124.471 1320.41 124.111 1320.96 123.854C1321.52 123.596 1322.14 123.467 1322.81 123.467C1323.53 123.467 1324.15 123.613 1324.66 123.905C1325.18 124.193 1325.57 124.573 1325.85 125.047C1326.13 125.52 1326.26 126.032 1326.26 126.581C1326.26 127.236 1326.09 127.795 1325.75 128.257C1325.41 128.719 1324.94 129.039 1324.35 129.217V129.308C1325.09 129.429 1325.66 129.742 1326.08 130.246C1326.49 130.746 1326.7 131.365 1326.7 132.104C1326.7 132.736 1326.52 133.304 1326.18 133.808C1325.84 134.308 1325.37 134.702 1324.78 134.99C1324.19 135.278 1323.52 135.422 1322.76 135.422ZM1332.81 135.422C1331.96 135.422 1331.23 135.189 1330.63 134.723C1330.02 134.253 1329.56 133.573 1329.25 132.683C1328.93 131.789 1328.77 130.71 1328.77 129.445C1328.77 128.187 1328.93 127.113 1329.25 126.223C1329.57 125.329 1330.03 124.647 1330.63 124.177C1331.24 123.704 1331.97 123.467 1332.81 123.467C1333.66 123.467 1334.39 123.704 1334.99 124.177C1335.6 124.647 1336.06 125.329 1336.38 126.223C1336.7 127.113 1336.86 128.187 1336.86 129.445C1336.86 130.71 1336.7 131.789 1336.38 132.683C1336.06 133.573 1335.6 134.253 1335 134.723C1334.4 135.189 1333.67 135.422 1332.81 135.422ZM1332.81 134.172C1333.66 134.172 1334.32 133.763 1334.79 132.945C1335.26 132.126 1335.5 130.96 1335.5 129.445C1335.5 128.437 1335.39 127.579 1335.17 126.871C1334.96 126.162 1334.65 125.623 1334.25 125.251C1333.85 124.88 1333.38 124.695 1332.81 124.695C1331.97 124.695 1331.32 125.109 1330.84 125.939C1330.37 126.765 1330.13 127.933 1330.13 129.445C1330.13 130.452 1330.24 131.308 1330.45 132.013C1330.66 132.717 1330.97 133.253 1331.37 133.621C1331.77 133.988 1332.25 134.172 1332.81 134.172ZM1344.95 133.081V132.467C1344.95 132.043 1345.04 131.655 1345.21 131.302C1345.39 130.946 1345.65 130.662 1345.98 130.45C1346.33 130.234 1346.74 130.126 1347.22 130.126C1347.72 130.126 1348.13 130.234 1348.46 130.45C1348.8 130.662 1349.05 130.946 1349.22 131.302C1349.39 131.655 1349.47 132.043 1349.47 132.467V133.081C1349.47 133.505 1349.39 133.895 1349.21 134.251C1349.04 134.604 1348.79 134.888 1348.45 135.104C1348.12 135.316 1347.71 135.422 1347.22 135.422C1346.73 135.422 1346.32 135.316 1345.98 135.104C1345.64 134.888 1345.39 134.604 1345.21 134.251C1345.04 133.895 1344.95 133.505 1344.95 133.081ZM1346.11 132.467V133.081C1346.11 133.433 1346.19 133.749 1346.36 134.03C1346.53 134.306 1346.81 134.445 1347.22 134.445C1347.62 134.445 1347.9 134.306 1348.06 134.03C1348.23 133.749 1348.31 133.433 1348.31 133.081V132.467C1348.31 132.115 1348.23 131.801 1348.08 131.524C1347.92 131.244 1347.63 131.104 1347.22 131.104C1346.83 131.104 1346.54 131.244 1346.37 131.524C1346.2 131.801 1346.11 132.115 1346.11 132.467ZM1339.16 126.422V125.808C1339.16 125.384 1339.24 124.996 1339.42 124.643C1339.59 124.287 1339.85 124.003 1340.19 123.791C1340.53 123.575 1340.94 123.467 1341.43 123.467C1341.92 123.467 1342.33 123.575 1342.67 123.791C1343 124.003 1343.25 124.287 1343.42 124.643C1343.59 124.996 1343.68 125.384 1343.68 125.808V126.422C1343.68 126.846 1343.59 127.236 1343.42 127.592C1343.25 127.945 1342.99 128.229 1342.66 128.445C1342.32 128.657 1341.91 128.763 1341.43 128.763C1340.94 128.763 1340.52 128.657 1340.18 128.445C1339.85 128.229 1339.59 127.945 1339.42 127.592C1339.24 127.236 1339.16 126.846 1339.16 126.422ZM1340.31 125.808V126.422C1340.31 126.774 1340.4 127.09 1340.56 127.371C1340.73 127.647 1341.02 127.785 1341.43 127.785C1341.83 127.785 1342.11 127.647 1342.27 127.371C1342.44 127.09 1342.52 126.774 1342.52 126.422V125.808C1342.52 125.456 1342.44 125.141 1342.28 124.865C1342.12 124.585 1341.84 124.445 1341.43 124.445C1341.03 124.445 1340.74 124.585 1340.57 124.865C1340.4 125.141 1340.31 125.456 1340.31 125.808ZM1339.59 135.263L1347.59 123.626H1348.88L1340.88 135.263H1339.59Z" fill="#615E83"/>
<path d="M1318.48 72.745V71.5859L1323.59 63.495H1324.44V65.2904H1323.87L1320 71.4041V71.495H1326.89V72.745H1318.48ZM1323.96 75.1313V72.3927V71.8529V63.495H1325.3V75.1313H1323.96ZM1332.81 75.2904C1331.96 75.2904 1331.23 75.0575 1330.63 74.5916C1330.02 74.1219 1329.56 73.442 1329.25 72.5518C1328.93 71.6579 1328.77 70.5783 1328.77 69.3132C1328.77 68.0556 1328.93 66.9817 1329.25 66.0916C1329.57 65.1976 1330.03 64.5158 1330.63 64.0461C1331.24 63.5726 1331.97 63.3359 1332.81 63.3359C1333.66 63.3359 1334.39 63.5726 1334.99 64.0461C1335.6 64.5158 1336.06 65.1976 1336.38 66.0916C1336.7 66.9817 1336.86 68.0556 1336.86 69.3132C1336.86 70.5783 1336.7 71.6579 1336.38 72.5518C1336.06 73.442 1335.6 74.1219 1335 74.5916C1334.4 75.0575 1333.67 75.2904 1332.81 75.2904ZM1332.81 74.0404C1333.66 74.0404 1334.32 73.6313 1334.79 72.8132C1335.26 71.995 1335.5 70.8283 1335.5 69.3132C1335.5 68.3056 1335.39 67.4476 1335.17 66.7393C1334.96 66.031 1334.65 65.4912 1334.25 65.12C1333.85 64.7488 1333.38 64.5632 1332.81 64.5632C1331.97 64.5632 1331.32 64.9779 1330.84 65.8075C1330.37 66.6332 1330.13 67.8018 1330.13 69.3132C1330.13 70.3207 1330.24 71.1768 1330.45 71.8813C1330.66 72.5859 1330.97 73.1219 1331.37 73.4893C1331.77 73.8567 1332.25 74.0404 1332.81 74.0404ZM1344.95 72.9495V72.3359C1344.95 71.9117 1345.04 71.5234 1345.21 71.1711C1345.39 70.8151 1345.65 70.531 1345.98 70.3188C1346.33 70.1029 1346.74 69.995 1347.22 69.995C1347.72 69.995 1348.13 70.1029 1348.46 70.3188C1348.8 70.531 1349.05 70.8151 1349.22 71.1711C1349.39 71.5234 1349.47 71.9117 1349.47 72.3359V72.9495C1349.47 73.3738 1349.39 73.7639 1349.21 74.12C1349.04 74.4723 1348.79 74.7563 1348.45 74.9723C1348.12 75.1844 1347.71 75.2904 1347.22 75.2904C1346.73 75.2904 1346.32 75.1844 1345.98 74.9723C1345.64 74.7563 1345.39 74.4723 1345.21 74.12C1345.04 73.7639 1344.95 73.3738 1344.95 72.9495ZM1346.11 72.3359V72.9495C1346.11 73.3018 1346.19 73.6181 1346.36 73.8984C1346.53 74.1749 1346.81 74.3132 1347.22 74.3132C1347.62 74.3132 1347.9 74.1749 1348.06 73.8984C1348.23 73.6181 1348.31 73.3018 1348.31 72.9495V72.3359C1348.31 71.9836 1348.23 71.6692 1348.08 71.3927C1347.92 71.1124 1347.63 70.9723 1347.22 70.9723C1346.83 70.9723 1346.54 71.1124 1346.37 71.3927C1346.2 71.6692 1346.11 71.9836 1346.11 72.3359ZM1339.16 66.2904V65.6768C1339.16 65.2526 1339.24 64.8643 1339.42 64.512C1339.59 64.156 1339.85 63.8719 1340.19 63.6598C1340.53 63.4438 1340.94 63.3359 1341.43 63.3359C1341.92 63.3359 1342.33 63.4438 1342.67 63.6598C1343 63.8719 1343.25 64.156 1343.42 64.512C1343.59 64.8643 1343.68 65.2526 1343.68 65.6768V66.2904C1343.68 66.7147 1343.59 67.1048 1343.42 67.4609C1343.25 67.8132 1342.99 68.0973 1342.66 68.3132C1342.32 68.5253 1341.91 68.6313 1341.43 68.6313C1340.94 68.6313 1340.52 68.5253 1340.18 68.3132C1339.85 68.0973 1339.59 67.8132 1339.42 67.4609C1339.24 67.1048 1339.16 66.7147 1339.16 66.2904ZM1340.31 65.6768V66.2904C1340.31 66.6427 1340.4 66.959 1340.56 67.2393C1340.73 67.5158 1341.02 67.6541 1341.43 67.6541C1341.83 67.6541 1342.11 67.5158 1342.27 67.2393C1342.44 66.959 1342.52 66.6427 1342.52 66.2904V65.6768C1342.52 65.3245 1342.44 65.0101 1342.28 64.7336C1342.12 64.4533 1341.84 64.3132 1341.43 64.3132C1341.03 64.3132 1340.74 64.4533 1340.57 64.7336C1340.4 65.0101 1340.31 65.3245 1340.31 65.6768ZM1339.59 75.1313L1347.59 63.495H1348.88L1340.88 75.1313H1339.59Z" fill="#615E83"/>
<path d="M1322.92 15.1591C1322.25 15.1591 1321.65 15.0265 1321.12 14.7614C1320.59 14.4962 1320.16 14.1326 1319.84 13.6705C1319.51 13.2083 1319.34 12.6818 1319.31 12.0909H1320.67C1320.72 12.6174 1320.96 13.053 1321.39 13.3977C1321.81 13.7386 1322.33 13.9091 1322.92 13.9091C1323.4 13.9091 1323.82 13.7973 1324.19 13.5739C1324.57 13.3504 1324.86 13.0436 1325.07 12.6534C1325.29 12.2595 1325.4 11.8144 1325.4 11.3182C1325.4 10.8106 1325.29 10.358 1325.06 9.96023C1324.84 9.55871 1324.54 9.24242 1324.15 9.01136C1323.77 8.7803 1323.33 8.66288 1322.83 8.65909C1322.47 8.6553 1322.11 8.71023 1321.73 8.82386C1321.36 8.93371 1321.05 9.07576 1320.81 9.25L1319.49 9.09091L1320.19 3.36364H1326.24V4.61364H1321.38L1320.97 8.04545H1321.03C1321.27 7.85606 1321.57 7.69886 1321.93 7.57386C1322.29 7.44886 1322.67 7.38636 1323.06 7.38636C1323.77 7.38636 1324.4 7.55682 1324.96 7.89773C1325.52 8.23485 1325.96 8.69697 1326.28 9.28409C1326.6 9.87121 1326.76 10.5417 1326.76 11.2955C1326.76 12.0379 1326.6 12.7008 1326.26 13.2841C1325.93 13.8636 1325.48 14.322 1324.9 14.6591C1324.32 14.9924 1323.66 15.1591 1322.92 15.1591ZM1332.81 15.1591C1331.96 15.1591 1331.23 14.9261 1330.63 14.4602C1330.02 13.9905 1329.56 13.3106 1329.25 12.4205C1328.93 11.5265 1328.77 10.447 1328.77 9.18182C1328.77 7.92424 1328.93 6.85038 1329.25 5.96023C1329.57 5.06629 1330.03 4.38447 1330.63 3.91477C1331.24 3.44129 1331.97 3.20455 1332.81 3.20455C1333.66 3.20455 1334.39 3.44129 1334.99 3.91477C1335.6 4.38447 1336.06 5.06629 1336.38 5.96023C1336.7 6.85038 1336.86 7.92424 1336.86 9.18182C1336.86 10.447 1336.7 11.5265 1336.38 12.4205C1336.06 13.3106 1335.6 13.9905 1335 14.4602C1334.4 14.9261 1333.67 15.1591 1332.81 15.1591ZM1332.81 13.9091C1333.66 13.9091 1334.32 13.5 1334.79 12.6818C1335.26 11.8636 1335.5 10.697 1335.5 9.18182C1335.5 8.17424 1335.39 7.31629 1335.17 6.60795C1334.96 5.89962 1334.65 5.35985 1334.25 4.98864C1333.85 4.61742 1333.38 4.43182 1332.81 4.43182C1331.97 4.43182 1331.32 4.84659 1330.84 5.67614C1330.37 6.50189 1330.13 7.67045 1330.13 9.18182C1330.13 10.1894 1330.24 11.0455 1330.45 11.75C1330.66 12.4545 1330.97 12.9905 1331.37 13.358C1331.77 13.7254 1332.25 13.9091 1332.81 13.9091ZM1344.95 12.8182V12.2045C1344.95 11.7803 1345.04 11.392 1345.21 11.0398C1345.39 10.6837 1345.65 10.3996 1345.98 10.1875C1346.33 9.97159 1346.74 9.86364 1347.22 9.86364C1347.72 9.86364 1348.13 9.97159 1348.46 10.1875C1348.8 10.3996 1349.05 10.6837 1349.22 11.0398C1349.39 11.392 1349.47 11.7803 1349.47 12.2045V12.8182C1349.47 13.2424 1349.39 13.6326 1349.21 13.9886C1349.04 14.3409 1348.79 14.625 1348.45 14.8409C1348.12 15.053 1347.71 15.1591 1347.22 15.1591C1346.73 15.1591 1346.32 15.053 1345.98 14.8409C1345.64 14.625 1345.39 14.3409 1345.21 13.9886C1345.04 13.6326 1344.95 13.2424 1344.95 12.8182ZM1346.11 12.2045V12.8182C1346.11 13.1705 1346.19 13.4867 1346.36 13.767C1346.53 14.0436 1346.81 14.1818 1347.22 14.1818C1347.62 14.1818 1347.9 14.0436 1348.06 13.767C1348.23 13.4867 1348.31 13.1705 1348.31 12.8182V12.2045C1348.31 11.8523 1348.23 11.5379 1348.08 11.2614C1347.92 10.9811 1347.63 10.8409 1347.22 10.8409C1346.83 10.8409 1346.54 10.9811 1346.37 11.2614C1346.2 11.5379 1346.11 11.8523 1346.11 12.2045ZM1339.16 6.15909V5.54545C1339.16 5.12121 1339.24 4.73295 1339.42 4.38068C1339.59 4.02462 1339.85 3.74053 1340.19 3.52841C1340.53 3.3125 1340.94 3.20455 1341.43 3.20455C1341.92 3.20455 1342.33 3.3125 1342.67 3.52841C1343 3.74053 1343.25 4.02462 1343.42 4.38068C1343.59 4.73295 1343.68 5.12121 1343.68 5.54545V6.15909C1343.68 6.58333 1343.59 6.97348 1343.42 7.32955C1343.25 7.68182 1342.99 7.96591 1342.66 8.18182C1342.32 8.39394 1341.91 8.5 1341.43 8.5C1340.94 8.5 1340.52 8.39394 1340.18 8.18182C1339.85 7.96591 1339.59 7.68182 1339.42 7.32955C1339.24 6.97348 1339.16 6.58333 1339.16 6.15909ZM1340.31 5.54545V6.15909C1340.31 6.51136 1340.4 6.82765 1340.56 7.10795C1340.73 7.38447 1341.02 7.52273 1341.43 7.52273C1341.83 7.52273 1342.11 7.38447 1342.27 7.10795C1342.44 6.82765 1342.52 6.51136 1342.52 6.15909V5.54545C1342.52 5.19318 1342.44 4.87879 1342.28 4.60227C1342.12 4.32197 1341.84 4.18182 1341.43 4.18182C1341.03 4.18182 1340.74 4.32197 1340.57 4.60227C1340.4 4.87879 1340.31 5.19318 1340.31 5.54545ZM1339.59 15L1347.59 3.36364H1348.88L1340.88 15H1339.59Z" fill="#615E83"/>
<line x1="0.5" y1="12.4153" x2="1259.65" y2="12.4153" stroke="#E5E5EF" stroke-linecap="round"/>
<line x1="0.5" y1="132.678" x2="1259.65" y2="132.678" stroke="#E5E5EF" stroke-linecap="round"/>
<line x1="0.5" y1="72.5466" x2="1259.65" y2="72.5466" stroke="#E5E5EF" stroke-linecap="round"/>
<line x1="0.5" y1="192.809" x2="1259.65" y2="192.809" stroke="#E5E5EF" stroke-linecap="round"/>
<line x1="0.5" y1="252.941" x2="1259.65" y2="252.941" stroke="#E5E5EF" stroke-linecap="round"/>
<line x1="0.5" y1="313.072" x2="1259.65" y2="313.072" stroke="#E5E5EF" stroke-linecap="round"/>
<line x1="0.5" y1="373.203" x2="1259.65" y2="373.203" stroke="#E5E5EF" stroke-linecap="round"/>
<line x1="0.5" y1="433.335" x2="1259.65" y2="433.335" stroke="#E5E5EF" stroke-linecap="round"/>
<mask id="mask0_2374_4280" style="mask-type:alpha" maskUnits="userSpaceOnUse" x="2" y="12" width="1262" height="425">
<rect x="2" y="12" width="1262" height="425" fill="#D9D9D9"/>
</mask>
<g mask="url(#mask0_2374_4280)">
<g style="mix-blend-mode:hard-light" opacity="0.33">
<path d="M229.644 256.357L1.54199 311.425V431.869H1260.2V12.3347L1024.08 90.6161L824.484 155.401H616.995L428.112 215.326L229.644 256.357Z" fill="url(#paint0_linear_2374_4280)"/>
</g>
<path d="M2.0718 308.885C1.26602 309.078 0.768781 309.887 0.961181 310.693C1.15358 311.498 1.96276 311.996 2.76854 311.803L2.0718 308.885ZM228.516 256.358L228.213 254.889C228.198 254.892 228.183 254.895 228.168 254.899L228.516 256.358ZM427.548 215.328L427.851 216.797C427.901 216.786 427.951 216.773 428 216.758L427.548 215.328ZM616.995 155.401V153.901C616.841 153.901 616.689 153.924 616.542 153.971L616.995 155.401ZM822.792 155.401V156.901C822.948 156.901 823.102 156.877 823.25 156.83L822.792 155.401ZM1023.52 91.1562L1023.97 92.5848C1023.98 92.583 1023.98 92.5812 1023.99 92.5794L1023.52 91.1562ZM2.76854 311.803L228.864 257.817L228.168 254.899L2.0718 308.885L2.76854 311.803ZM228.819 257.827L427.851 216.797L427.245 213.859L228.213 254.889L228.819 257.827ZM428 216.758L617.447 156.831L616.542 153.971L427.095 213.898L428 216.758ZM616.995 156.901H822.792V153.901H616.995V156.901ZM823.25 156.83L1023.97 92.5848L1023.06 89.7276L822.335 153.972L823.25 156.83ZM1023.99 92.5794L1260.8 13.7592L1259.85 10.9127L1023.04 89.733L1023.99 92.5794Z" fill="#0085FF"/>
</g>
<mask id="mask1_2374_4280" style="mask-type:alpha" maskUnits="userSpaceOnUse" x="2" y="219" width="1262" height="425">
<rect x="2" y="219" width="1262" height="425" fill="#D9D9D9"/>
</mask>
<g mask="url(#mask1_2374_4280)">
<g style="mix-blend-mode:hard-light" opacity="0.33">
<path d="M228.833 416.478L2 310.544V425.549H1259.88V322.377L1023.34 218.697L822.74 363.511L615.943 315.615L427.741 242.362L228.833 416.478Z" fill="url(#paint1_linear_2374_4280)"/>
</g>
<path d="M2.94965 309.186C2.19923 308.835 1.3064 309.158 0.955453 309.909C0.60451 310.659 0.92835 311.552 1.67877 311.903L2.94965 309.186ZM228.833 416.478L228.197 417.837C228.737 418.09 229.375 417.999 229.823 417.605L228.833 416.478ZM427.741 241.8L428.29 240.404C427.767 240.198 427.173 240.302 426.751 240.673L427.741 241.8ZM617.07 316.179L616.522 317.575C616.591 317.602 616.661 317.624 616.734 317.641L617.07 316.179ZM822.74 363.511L822.404 364.973C822.825 365.07 823.268 364.981 823.618 364.728L822.74 363.511ZM1023.34 218.697L1023.94 217.322C1023.45 217.11 1022.89 217.171 1022.46 217.481L1023.34 218.697ZM1.67877 311.903L228.197 417.837L229.468 415.12L2.94965 309.186L1.67877 311.903ZM229.823 417.605L428.731 242.927L426.751 240.673L227.843 415.351L229.823 417.605ZM427.193 243.196L616.522 317.575L617.619 314.783L428.29 240.404L427.193 243.196ZM616.734 317.641L822.404 364.973L823.076 362.05L617.407 314.717L616.734 317.641ZM823.618 364.728L1024.22 219.913L1022.46 217.481L821.862 362.295L823.618 364.728ZM1022.74 220.072L1259.4 323.189L1260.6 320.439L1023.94 217.322L1022.74 220.072Z" fill="#4DD64A"/>
</g>
<mask id="mask2_2374_4280" style="mask-type:alpha" maskUnits="userSpaceOnUse" x="2" y="256" width="1262" height="425">
<rect x="2" y="256" width="1262" height="425" fill="#D9D9D9"/>
</mask>
<g mask="url(#mask2_2374_4280)">
<g style="mix-blend-mode:hard-light" opacity="0.33">
<path d="M228.269 408.026L2 310.544V425.549H1259.88V330.266L1022.21 256.45L823.303 269.973H618.76L404.075 347.734L228.269 408.026Z" fill="url(#paint2_linear_2374_4280)"/>
</g>
<path d="M2.90716 309.167C2.1462 308.839 1.26385 309.19 0.936379 309.951C0.608904 310.712 0.960308 311.595 1.72126 311.922L2.90716 309.167ZM228.833 408.026L228.24 409.404C228.585 409.552 228.972 409.566 229.326 409.443L228.833 408.026ZM427.741 338.718L428.235 340.135C428.24 340.133 428.244 340.131 428.249 340.13L427.741 338.718ZM617.07 270.537V269.037C616.897 269.037 616.725 269.067 616.562 269.126L617.07 270.537ZM822.74 270.537V272.037C822.775 272.037 822.81 272.036 822.845 272.034L822.74 270.537ZM1023.34 256.45L1023.79 255.018C1023.61 254.963 1023.42 254.941 1023.23 254.954L1023.34 256.45ZM1.72126 311.922L228.24 409.404L229.426 406.648L2.90716 309.167L1.72126 311.922ZM229.326 409.443L428.235 340.135L427.248 337.302L228.339 406.61L229.326 409.443ZM428.249 340.13L617.578 271.949L616.562 269.126L427.233 337.307L428.249 340.13ZM617.07 272.037H822.74V269.037H617.07V272.037ZM822.845 272.034L1023.44 257.947L1023.23 254.954L822.635 269.041L822.845 272.034ZM1022.89 257.882L1259.55 331.698L1260.45 328.834L1023.79 255.018L1022.89 257.882Z" fill="#EF8080"/>
</g>
<defs>
<linearGradient id="paint0_linear_2374_4280" x1="630.872" y1="12.3347" x2="630.872" y2="431.869" gradientUnits="userSpaceOnUse">
<stop stop-color="#00A3FF"/>
<stop offset="1" stop-color="#00A3FF" stop-opacity="0"/>
</linearGradient>
<linearGradient id="paint1_linear_2374_4280" x1="630.939" y1="-12.3309" x2="630.939" y2="425.549" gradientUnits="userSpaceOnUse">
<stop stop-color="#4DD64A"/>
<stop offset="1" stop-color="#4DD64A" stop-opacity="0"/>
</linearGradient>
<linearGradient id="paint2_linear_2374_4280" x1="630.939" y1="-12.3309" x2="630.939" y2="425.549" gradientUnits="userSpaceOnUse">
<stop stop-color="#FF725E"/>
<stop offset="1" stop-color="#FF725E" stop-opacity="0"/>
</linearGradient>
</defs>
</svg>
